<mxfile host="app.diagrams.net" modified="2024-05-22T09:02:13.736Z" agent="Mozilla/5.0 (Windows NT 10.0; Win64; x64) AppleWebKit/537.36 (KHTML, like Gecko) Chrome/125.0.0.0 Safari/537.36" etag="padLhrsiI-HC6yJeryh1" version="24.4.4" type="github">
  <diagram id="wFE0QG_FPsp0jaGvCLVb" name="Page-1">
    <mxGraphModel dx="1050" dy="522" grid="1" gridSize="10" guides="1" tooltips="1" connect="1" arrows="1" fold="1" page="1" pageScale="1" pageWidth="850" pageHeight="1100" math="0" shadow="0">
      <root>
        <mxCell id="0" />
        <mxCell id="1" parent="0" />
        <mxCell id="P58hekDE-8d0RwagDOlK-3" style="edgeStyle=orthogonalEdgeStyle;rounded=0;orthogonalLoop=1;jettySize=auto;html=1;exitX=1;exitY=0.5;exitDx=0;exitDy=0;entryX=0;entryY=0.5;entryDx=0;entryDy=0;" edge="1" parent="1" source="P58hekDE-8d0RwagDOlK-1" target="P58hekDE-8d0RwagDOlK-2">
          <mxGeometry relative="1" as="geometry" />
        </mxCell>
        <mxCell id="P58hekDE-8d0RwagDOlK-4" value="Build and Update to" style="edgeLabel;html=1;align=center;verticalAlign=middle;resizable=0;points=[];" vertex="1" connectable="0" parent="P58hekDE-8d0RwagDOlK-3">
          <mxGeometry x="-0.122" y="-1" relative="1" as="geometry">
            <mxPoint as="offset" />
          </mxGeometry>
        </mxCell>
        <mxCell id="P58hekDE-8d0RwagDOlK-1" value="Github" style="shape=image;verticalLabelPosition=bottom;labelBackgroundColor=default;verticalAlign=top;aspect=fixed;imageAspect=0;image=data:image/png,iVBORw0KGgoAAAANSUhEUgAAAPYAAADNCAMAAAC8cX2UAAABSlBMVEX///8gHx/0yrGc2vB8uuYAAACsXFEbGhqe3fPzx6weHR30ybCa2fARAAAaGRn70Lai4/rZ2dmkpKQvLi4SEBAXDAc4ODhnjZvGnIfi4uKIvM8nKy0NExZ5eHguNjgODQ2T0e309PRYWFgAAAtCQUEaFBKJx+rIyMjv7++0tLSqVkrS0tKnT0JTR0GGhoYADBHasZplZWVPaXKZmZmSdWb659z2077O7PdOTU28vLyvr69zc3OOjo5dXV2tinj88uz43c235PTm9ftMQTt/Z1vQp5HjuaK2cmnHlpDo1NK/hn7ZubXTrKi+noucgnOJc2Y5R0x5p7dqkJ7F6fZ0rdVnVUvr29mjRTe0bmW7f3few8DcqJPIiXjSmYbisJpKYWkYJSpBU1m1zNVNZm9beoZdhJw9UmNJZ31mlrlTeJJFYHR8sMmkz+262vG2lajvAAASD0lEQVR4nO2d/UPayLrHiXRMCCGAvFQURAQEAUFKqyBoVZR22yq0Xbeu2929nrq9u+e0//+vdyYJZCbvUMzEc/n+sGshCfOZ55nnmZlMJj7fQgsttJCR6gAAsV0/jD7or6QO620W/lL3QX/FuXKAZRhezEL2TOmBfqOUYQDIijz8IVB+oN+YUh3AKOLjkHz+Nk/VGRDnxz8CVub+AzOpGWdU8VnQ7sz18p02yPLYL4jtuV5+ZgGGlAiYw7ldvBMDoub63vDykhabYVjA7Mzl2hCa1V0dzNebZlQvqysYAk/+eHSrFgygGSaemUOpf1gFrROOXf0oZXNmLpez+Lbc1Lm3UqWxeRZ/Vul9fGwV0NMdnKp2WvVuO8mDibJM4SjTWylFyTpogbjZhYFVbbmklCk2LF+sqh7X6TVjEmY2LrJYaOZ5UYxnpW/amZWSjFRNWl22alYY99SxKB9s4qgdlju9dhxSxY1aKiZehEeBZPcw1TPxbwV7foliZrWssBkmG+sllf6VQ7GohqyvqW88rqtuXUSGzdrYeHrFPdAtb5pGngeTWKAN7fO1rVrhw8gLGcwkbT+keJY2NB3sOG1oOtgibWgqbZtnaEP7fFsUQlqSNrTP16WQwI5oQ8Nemk135QGUrdOG9vkOrTunDyEvzKZFKWA/1PzsFMpRwPbCZJrridsLfVMKMc0LEY1C4/bIRHly7gNqG2W9wJ1yv78CmrShfWXRbWMj7hZt7IL7xmbop+6M+2kbifLtXsvp4odUnGZYy2WdTwTPWTQny5vuD7/G4rPUbglVabk4UpbajU8K82iYgN0d1QcStXgmK06p05Kkamxa5jZYveGu6AzFKEwVawQoUFvdz3cLez4Lg6YShSlTrcQt97FjFEZeWrnfM/eAj9NYorbiBWz3l6hRWMWgl/t3w9apjb1wud24PdG03Z9lod5Fk+X27TAnEY0XxTQmUWRZi5bBsyJ5fNrB5KTbMc1uORqfTudju9fD52MNz693d/uxdAMqrZH0Way/u3t9Lh17dXUF/3t+3YcfW4cQ0eVRmHUgZxux86tVMx3LWMPz8+FQYjw2P/S837Dq+rsdyq3GIXxjVwa5uNhTdHFxYYpG6EI9Z08+5fg6bf5bbi9asrgDlE4i6L1BcEmjYDAwGAx0dSCRwi8CQd0ZSwHEfrzbMP0xlwdh5j3yxjUkGegAZlZwb3V12DBr4i5jm/ZW8s9XLwLzg5Z0sXpsFtpcxmZMitF4vro3Z2iogSm3y08SxIxLAann6N8Et3H79kTbbpxrqIOBQEAfqBxIe2Jg9bkht8vYhpE8vUtSB4InL16c7E8PHgzsozODWJAIrJ6n6WMb3RngY0S7DgZfyMe+PJkyxgVOlF95geW0wWrf4DddxjbqrjSOL3DqffXoF1NxB16oZ+6r3HvHBuZ2GftIjy1em1FDg0/BHXiJn7mkcl8YuLnL2AZ98vQx3rAD5PHO7Y3bGkk9MbiqS5tur7HWj8DE6z2jwueU+Y99h3Ft7CXlcULGKmygM7fbQxH941+N46C+8D+9qtUqrxGBUzeXXPzlm1qt9usvugpb5TXmdnuN2o4Wm03uaQvv872rLUNVKr/4nJo7eIIqq1ZBp9XeShfBKmxwrQkpbt/11E0qpc8xcwaXpIPefkLFRwQ5p+ZG9fVLrSKf9+lWugx23StNn8Xt2RXdFGLjOIwV/gQd8/LTu7evJIDKG6L0VoIH3lRuXqvV5fNhaf9C00ty+7nHXFzTyhpEGJd8/A1yUrn8NejmJw68HPn4be0VvL5cXe+k6lOxA5qxgOsLdzS9U7aP+7CUvXKfUJN+I5f/tbMchhLArzUE+0quL+m3sBymadyu3w3SJG5xF/NxOY7fflKtjcrvpHFDN8nVlifWlrwEbx5hTQpz/VFuzYyxeK3Dfl2pvXt7owS12kvcaObYKIwvw7Y9joVSMFeTQPi5BtvtVVqaxVnpcxz7BB0B3VuJyAj7J5/PSQaDTiIlL+U01DjwqBAmQ7n7D8LlLLDlQP5qGVPt1lkoh7m+gp2mxyasTeG+PrlOKX39MNhvLLEpLNoh91shQ5qE/StefudO/tbS2kMCm8LiFbJxs0mDkIZj/zJFSMOwpcSNhTQyktNYmQaInkMax5b6pqTZHCewMo6NnIRIYETediWi5crl1FjlXM5XJzI3ICb80PF4+VEbddpducFrS0pQ6onhPt5LkvamwIpVLlvu2+MQM1XtrPTq3aN2jM+COJMsFNpbktrtQjLGMkRMy+NTK3Ln9FWFsJqTIRiKCm/V6pKbNu4mxEQDL0rFahPFAiAeK2x1M72VTik6xWKHcnWn1d1KxpJbmdbKTimaKptUITFp3LjShXKsld74nEU0aSiC+bhUfVhnfkCkbbMlHDlo/2rnsFVvFmLJdrN+WEpZeUGqtNJNJtvd1k7VDBUX0VEjEveSPPB8MzY3CmjOB5634+qSOudE077M49nDyUYksAo6Kxloxa3eTtQAKpXMtuuH1SkaRw4QWyOFNaX3TdxcGjc7nGZASeDdJ5laStp4TCDT9nQrOFKdVpNhdKfkpk8GROrOG82bvq5BLaNwPNWk0m2lVqkptsbnTslAPkOHfAZI6bRytLSz0st0j7Zg/EjisTw9JMytTCHmbm/lKTEjYwfDBp/JFfbT7U8KFJ4AgvgNQJ5JonB21ITR67BTTc0himtUjsKY3oScha1mvXXYQXEOJYsewEuht5oqgxsjvy0vfzaoi8ktEVm4l5BNG0R9OZi9ylEYvVZ6MOGg4mVgXLKMX854qzu95jpbQNHQKCDgO2M1LnHjKdNpigxy9gC2+8pnA3uTE+WYi0Mfx5p23GBjilyqhLJQTGzXV0qz+XN0p94GyW6rY7VxKf64CBsL48YLLqn2Nuqp/C6FO/3nBPfLJeKSeOoAVuWCOUkq/UrJeebORQ+7hfVmy0l9dbGolj8mbBccu+vLfaNw9gfCvjGwNuTeV2qMbBpEHM862D2sHD2sJ2NHLXv2cqlXSDZXHOexHKP2Wfi0pqkGAvsnJydLJjd6P1cqyyZrAIKBJXjifoCsLjygTfGQZ2qnXkBb7pkilOrryXpnutWr+ECMGHTLJQ0arT8a2/s381RucCIx6JxyyjRXbW2JTUP0LTFTmiEG4huv5K8MnXYuCu9hYTw7y92QaKtgMFKddY0ynsXyl864w4Z/WgsbAoizbsYxz9ReV7l5h9yff1P/dLTGJ4gnLzZL6TlHUgT3sRPuyjhzhX+v/WZ55Pi4oerivGXuclEtbFAChvbcEFbuqIQHFcPUrTvhXKVmvbC9q6wOth9ro79nD35TewWdO/h7pfKHA+jgtTrOjosesTVSCtt9V8wPjQYZpD7XKss3ldryHw5844JR2zUoeGFHJVUZbFftBnNlBx7+4/PN8qvf7Qfh4cF5fnJlHnhil25c1ZjawvlGejgIW5PDr20tHQ4Phg3V1Nm4B/YM06mFvSWAT4P+FST/gf4LPPfyGqjQceCJTaT0ytUBFtPZRr4/vAzOhA5PGlyeM3kcuumJbG2ocg/gm2yz6Xy6f351gczuCF8+brB3POzDU1XfyYKmhwK4kQ6TgNilmk038g0xeT28urzcGwTDpgoO9i4uj4fnuww8IY1dIg5Anbqlc51ept6yGrVE6wzIkqsteFZMQ/x8HgDouLFkv7+rqN/vJ2MxJg2/Afk8elqKeFqMh8xHHni3RBTto482zd+yKky1VwDAZPt5nudZKFEW+hN+YrgsXwSA7U45En4gjQdcfAjELK1Q3snEptuIniBGNXvU8kw/tKyErIQgbIAjm5FcudQ7QuXPxp3S88r7F9r1HW/FMNgPRQiJp8KfRZB1ULZy9bDVLSQdccdihW7vsOoJv9aqJb0TIREqss82HD9K3JPfrmEpAAoeeGeIiQ5QtwR5OjuKcBsOh4FbwKGoZyoznR5ATy+gyJZYi9wnHBW0IL9IJQ4jt0HQZsdvVPEyt/8U/VeaUgmtF5m4g4mtLeAgpKE3iiB5smH7zgRB+r90e5tniiP7EYLjbTuktOWJzXp1OhCEM+kPCaZ4H1mzm9sqT7GjAeyheHOgdSoIH+W/0LaXEDtyZ2OfqTYrgaMOTzZvwS+cKn+ilYih99zI4BVYmKbdOzALKOyVZCsMW3qGIJRgrTcCmXpnGuCVGWFck7btm3TQi1brAadp2bI8OGOmkXTDE4W1hGnamWH3pTiNDeCm0Y4SzSMfTB3T/M0j5rncO3cATCQ92gt7ax9CZvdeTY0tHpnu8EB/S2obSWGaT4xYhgVbBg28ZLo/Juj4cmab1tDazNO55DjNMvz6/Qh0SeeM9oqAMDaPmRe1CrMNYr3wfhxrjdciJt5HIvcA8PUdtMA1hxZyZkH6/VMcm2faKrcWG98G2gvvvrKRslqp+CUS2QwxiY2RPKD4H5DlEx8iBDaoYmsfSGw2STxI6PVQ7ptszZ4YPb0rineRiLDB8hubEWHEsqO1ZwmsxXbxbKbBjhFrOT3ZP9VI2YifTRQZdsRFIn9K9JFn8J8h/GYBBLXCxh82egzYuZja/Swy93dF+L+7p39Kdsbmy9HrX6yw8V6sF7unOuWSqn/yRQlFhKaXsNUYhh5fssTeIb98BDoy65Rg2OjxJUvs1KPD9rVMXquLY1dtsH2PD9uXahuC49gpO2y1s/posGE/tK294YfKr36CVvtrsNWnwCVsdTeXR4QNLY5u+IG4dD9PmQNOYjXgs8NW35f4qLB96K5XK3NUiMWS6B3qO9UcRmaPnXm02DotsH0L7AX2AnuBTbvcP6gFtm+BvcBeYC+waZf7B2WO/a+Dg/8X2Kenkafq/HFoTeA21Mch1iMCmmv978MOCQJHYHMkth/H/teZ/aU9qrODUy6ygWH7HWNDVxC404NHx372kROg/DNjc34/ugBk9+56TFIysl/Sj2BLQlf66H2rn536x8hzwVbQ0YpPz0rDPC9shdyjNj/QMs8RWyL3oLefneqZEba659VU2O/12BK5t0xuAu33c6EJWNFvh30/wS7eRwwv5y3wjybQfm5tgs1ucDbY3IfJtzxjgi2BeyOlnZlB+wkDfonYYat1ZOblCrgXwvqpKbSf20wQINbYfn9xEgiQb5hL4GhD+zhzaj93NzE2z/jt2jb0DfXrhFnrVgxOt4VbOLif475glB84Pbb6xiUJGzqHukor9N6K20+X28LSkc2RClkccQbWXsecGkFGPqitmwk9jVg6OkVucw+PrN2Hiir1ut8IW9u2oZvj3BsWcQ1yU6P+aErNPQMqNB+6EyQAAnuT40YqNqPU1lOsstjQnQX3ZDW/6zKnxryVTbAfOLn43H0C54z8qSImNjnFS0YYeOipFTclNz8wd/FnIR49sswWE6GNv/yR8TD0y4RIvNOlcaXGIv/5GkoUi+gxOT7xxSKu0TK3ecbmYDgrFovro//96+cnT55sjpHUxpyAkR3vn0wSlrANT/j7n68bfLGY+LppTg1FB9sqY0c2n+CSDsUw+QT6hBupeX1dbv3kaZtWMY1WULPARtrWcmNtGWYnsh5gYkeZe9s5NDVsm1KRlhM4LDsVlb4n9hGfWItwupryIrZ5/jLg3l7bmASwIiMoVRb5onKHPgg4tR00tZ75mZ09COsxEw9PrKvuC+2tTkT8hXu4PTatgZjF4EspmYrx99jWxdC/MVNuPvl7fdwTZ0eYc9i0ICRK1FOZ+6+E3HcJfUUpbXt8BPrqn/WQNORMfJ2iYdPslJt3WCbGnGg9FEokNv75mWi5SrX8/W8+EQpt/KwebWvs8XPFVGQX1fxYa117j2Fta7/++T9r27qvLaip9cgl2dibw7A5IsJxGmd4QgRAu4BGmdp6ooHEFghKqZdG1oNzbC/MplnFcxybCOwyGPbvbb9jbIHzxKTxgbnBSWyOxNRWgzNsgWowI2Q+UU5iaxq3xumdYAvUWzUhE3ASmxid+GfA9tRNEVlGd/5ssM3/aYQteMi9caE7YcIDYXv4Ti/UgYbcAltwjo1Wc3h9MYd0b1+YG7bg9bUMqs4kows/jC0t2vHevXwroeVZkHxmbFRtj3CJlqSzg2/bJmDW2MJjJVaVOzv4juih/SywlW+/ffv+6IE1yp2dff/+/du3b9sI0D8ZkW1/k2DP/stwF1poIff1f/96fiFYd7JbAAAAAElFTkSuQmCC;" vertex="1" parent="1">
          <mxGeometry x="50" y="170" width="96" height="80" as="geometry" />
        </mxCell>
        <mxCell id="P58hekDE-8d0RwagDOlK-2" value="Release Candidate" style="shape=image;verticalLabelPosition=bottom;labelBackgroundColor=default;verticalAlign=top;aspect=fixed;imageAspect=0;image=data:image/png,iVBORw0KGgoAAAANSUhEUgAAAMgAAADICAMAAACahl6sAAAAaVBMVEX///9hpjrK4b2WxHzr8+XI4LqBt2H7/fplqD9trUn4+/ZysFBpq0Rwr03f7dfz+PCGu2h9tl2mzZF3slXa6tGt0ZihyoqKvW3x9+2cyITo8uKQwXXD3bS72arU58m/26+w053P48PX6c0c8LgyAAAOWklEQVR4nO2dh5ajOgxAQzWY3qsJ8P8f+SzAQNpMYjuz5J3o7NnJTGjXtuSCJJ9OFxL4Rh56lnJosbwwN/zg9FhKtXKsJCwa7dDSFGFiOZVaPsDAauM6FenqAP0AewBBQd2RynEbFd/7us49J0t/qrBDSZBmjpfXt1+koauldwmPKjjV3DC9/msXef3H1AaToPei7vJPY5S0B9eMe4La5JKkDh3jAzkoieGEOz3BlU0+koOSELvaNPvsVh+l5nvBlXtmn3Uz8v/ls4iJH5n68rG3yT99FEEhdj9/KItE//HIg4ueFPNgRfWyD9X0WVDmqdOH2LrpHj9LUiuGH2VjfnTLAmPVQNvyo+rjxiaXElST1R3t/qNVhCpJb4/0x6Ccfz304HJWBvq/qhhvuwPCGAc4oP8wRu+rd0MBs6Uq6jsujgLdN0isFWEURWbYaDFRff09k0/1bSC4Hkhl2teLBrYJM2n5LO8CqY08vIZYxStiVba5fwsI8rPHFIyl96VWyxtA8FglT6yKuUksE0U6CPJz73eKWV+8TB6KbJC6T57EmCQhsnRFLghWi1cwoFaaQU6lSAXR45tWZTlhFfekNYyW9LF2Z03ZyR4te74kMkH84vIpLbvIoAPES5kjDB1kHLpXhzUyJtnyQLBxqR122Pv3OnEUpNlVP2l24s1LGkhALh4uqdQfJgalUTkXzessvIIjCyTo3f2Dxb+VMR7yPbhLREkkgQTZjsPSuiemacHQ7HTF7QVJ5IBc1Ed0ftIMlSSRVydSQBBxd9XxvA1C6a5S3LOQxksBaTcO+7VeQc+3U71B5BlkgHRbC3n5xURAtj5UaNFWAki9DUui1wsVGZshbgQGXuIgON84ut8Pv5E9icBypzjIpiAJZyNv19Zl8z+GMEgdrU/R8l5jM3ohd+MSBdkaltXzPsMJx6sV5l4oFAXp1oGGyKJr2bCrOLyWSxAEr09g3nlv/7z4qwXXOKtEEMRgFeIKDtbOrHE5PJbvJAoSrBWSC475Sm1tonxVIgaiMsMZCb8n6lhvkvBViRDIarKsjOvme0Gr+ePrFYVAVhWNhDT96mJ8ZkMIhMirkF2VWFyvOERAVuvvSKiQ0yllFpCrRxIB8dc7S3H+WPukhKdcBEDQmbUFoRnRJi27Hk+pCoBgZvplvdqumbrHHHZLAKRc7yvJrSiolguGHBcUAEldEStzT5gV9DiURACEDY8Sad4fncc/cBMAYZOIQtrrwDpc6rh//VwBEGYt5XnerSPH/PVz+UGwudy1f/2uDwTFyyWb180WP4i+GC1XovcH03bz9b6dH8Rfxt2exBfCbEWGw52PH2RcQDjnD/efZhn0JK/P3PlBmK1MxpdPfSiD8w9AhgVEfHK4CVtFdl6/5hdkBZHXsW8T9z8FYTeVqiNL4XAs0/GDpKz0JM1GQNgyGcfUih+EzR5siV6EbBwa/WU/Ui7L8JZEp/p+6dk5JiT8IIi9qIpfPvWRrOtk2uvnCox+2XxOk+b7rC8DaoujbARA+qVBh1IWg0B81lo5xqECIOoywvOkDbaGpWhcDosuAFKzFWxZ2o6YriccHlwCIEEoWUlKZj6av11FWedzclZMt2UZhSf8TmTJlDVpRcyLhMnaslye0ZsIyPpmOpTStsr1cjzLMiIgmLUtV4rdWj0PuF5RC70fYQaY+1XsXgKm6jZXsQiBrO40Yh5Ks7TsJYXG5T4r9jKUqaeiCS/SrW+NOAehYiBsTCHgh8Jk9UfhHPEIOgwwdVcKwb7EZ+uWvC4tgiD+6msl5iUarC+neV8QizrVrH49QvqOVtPLPU0TBdEj0aIESdeKDXk9/oUdz9rV1arhjjpg70Vo18pdr8IgweoNY+WcJJtDjZJzD3bEfRrTtXG5MddjlPlaqQJOXxLcZc+2EEmw+TB7AitLEkDwVqIcJGW1nm2JJAeQ4Ym9eSQqlvZi4/B33vFC4xwpvvFrtwz2c3jhcbAabWeKvR2WE3Yx7p7HIU8bL73fxfWEYpFWckBOw47EbZ6bUCB1H1xmCr6dkARyQaI4TwSvXkWQmqIvJ2SBnLqdnihK0vs/qkrgxxcxcrc5sl4VaSCn9DIoNIkH/UG1oFrNL4LeZEQiygM51bl7gWIXvVrf1Av2jbi4OlBGbKhEkFNALsqZimdqfTvWJUZUcFl350y7STqQiAchnuSCnHBX3ITiWraTRGFBJYwSx7753m1SKct7UkEgjs95KVOllRBJC8eSQU4orZ6Ny6fi5NIi82WDQMSn9iSKU3XykqzJBwGU/Frr70gSPxMI+7S8AwT6u/46av1CLLcgP/eYL8t7QCBqvcvCO0YKzFhS9CmWneLlXSAg2G/jJowcVjfUEkehFreS62KWd4KA4Dod2jPpqZCzMaT6u3Iovhvkz+QLcjT5ghxNviBHky/I0eQLcjT5ghxNviBHky/I0UTEOVN/n/ylS/mpN98mxV/Gj5zy2xUSWcLh2CIAEr9vP6IvyBfkC3IkkPz/AuIbb5Ph9bej3yHK0eQLcjT5ghxNviBHky/I0eQLcjT5ghxNfgLh3awJ/P7uf4M7MvnL1W0Wkz/b2sY/n9syUNtFxmfvG7SE3MmBD6erjgXZR9LQshTrcXgbTwn+AJIpijOuAXrPp8yDTK3XydfK9NziE4bsChmCwBc3crL7F0R6Rzga+i8g6QbSP3vJaS5/iY1jB4LUUW9BOq40Uazc7x749NeVx5NS9BmQKIvjLHvWx1ifAqYuI6Ah5D6n7UXPGhJA+ukfwpT9hCv07RmQHIMgHKBTUIP7Hi7Xfc7oX0vY8gX5rMUPnuJay5PSb0+o1DHA0avA+SWCZD3uAL/BHmrblQLfp19CqJNFpm/h6xKf9heiMh+N8ZXr2lMg8FtgVMXYFU6Mg1aLknCuobLVzMSsiNFHS9AbyhSrKeasvX7f5DWJTBLbipJomuHHTej7hatYhaYNZZoVSWLG05XqPnQ8M6vHhh5ratpIyyYOk0iD7b5romk1MZMq1uY9KMZcqy7DAp4G8U16d/pLz/Z1gO0Hao05x1H1ncN19UJxSTYH6xNXcRpXSRYPbbtTLcX21fmUhLBwBdPfInviJUFq5J+WIBk7CyDe3KUXcmJ66ynVCNXDqyxSz4CE5ExaH2LsLCdKqcJaTQWq40Nkvtvk4H4dVWRuWx1tWWNL7z8uyZlcR/Mz+iGKSWBYisdqhHRUGRIoG6VHEAToNprjdH5l029jA1OTQK9Kr+0SMA/zhcw5iS401atApqeslmVZyZBD4Yw+BHFqNTYcxYrhupqOIKy9WVQEEjdE5ehNwcNwrNmm/nRjqFcASSctUqliZVGf1un0bAMt6rwOhgFDRLZ1pkpHTXWiolqD3E7wFMk5raHkIAJ1cFgDeA1EgeRT+dJcrCl5KQSImepiYDJr3XID7FM1oRUBhCTPBmgHYqcnijnZgrLGCEEmVq2Mt6wuE8icLApC9FtaJS206ykkrnOnJLr9bUTtU+Y3j/PMpyAFnjIGeeOcryhpQ8WqSgwpf8wFZKQNg5R6PmUtWy3pLQisiaK6pcpLH7iiirXm1FpAoFlCDndqq60MQHp2oRjBDfOr3v8pZYdzoFcGEA36+zkpijPQqph1xFq6aWhZVtg0EWwf9AsIPkeLqah0c8savIBA5gTI+zsubXgGwRlkoxyd26DeZ0Cqa5B0BvG6OpsNj50vxRnswnqa4GcQyGXoNbChVX4HxFhAqPHYgZwGm16BWjbzejD3MkhuTWkyoGknPoS+2E3er4vOkKDbtalYkGWv/gkEspJ7pARly+80rW5pWtQMWP0GQrXP7fM7yeVfBmndWRcLiD3v6S+VDxE7yznUNntkHMc0h1HVBUh8BQKVZ9ZTSu8clB3sNaJd+wICgfK0j0UEYsM3EOhvQ3M6WBAE0tMUfkmgoKbcz14URUU/Fyc83Jz9ARKE5hdNq9EDPJvfGQQIEhWDCW9KML+aX7fFMIHEdNhD+zzvXKYhFNgGAmNrOge4jZ1/DILugyAIlo4Ke9oaqI2Y33sxWS1IeThn5oZUT6t5nvKA0/5OVfc60k/9KJh3+1xCkSSRSzUFovQ9TUvhpw39paOediBzEP9tmqTHIJOB9S9Aphx3eN4PzIVBD07B7T2D4cVktqgVY0kCaYHa2TqQneMtY2haIwOp51jlxKR9N6qraeDjxCWaN4Sio/0G/mRFdCKzA5lmCXeSXD4GAS0wy5JO9+aBbEeIOpUDTkleZSqt3LSqIPnG3LXT39FASLtUek0IGejJc/+C0p4em9bT3FE/kzO0v7pvwiJOR42Opk6lkdEjIMQHD1mVQ1vVjbjKpxlxYBDCnh3472T0eggS0NKFUtjm39sElA6qofxBEafMvLANybRj/X6yPs3cd+cEcM58ADuMDsxhmL4M1XHARvSY7QW5/Wm7EB073MuV/AgEZVSbf0tHQYcPlqaOasWa1h9ISZvWvYwKD0HO3trLPRQdRvHWpO+CQdzPStBSxXHvTSAfNi2str/HctVxBArpRvnfcMBsR3HvZvsQXKALfJVqrurLjF/7SVAbNe3dBv9pK424fqC3DOR9G83/kcwbzQ+KxOTv/0bOCgzsR5t7j7WDCOqncaQfiezUdgQJqmmyXTaydnX5V6Kbc+8dWxJzjf8LSZccwaonkrfn3wvKli0eyoJjX4YDiZ4US//S2xJzdP+9ELtfPumm0K62/1j8aDNWZ1feFjV/LbjazVBwZfPkCz6CIGLvK6EOHeMjSZDhXL5X7aKXd44+gqA2ud5huYu8/uNGKkHv3e54nYauln6UyuNUc++ltKpzz8nSj6mVIM0c7/7KAjYa16lIVwcH1xYU1B2pHLcxHrWgUq0cKwmLRju0NEWYWE6l/rRgFfhGHnrv8+CXIpYX5u31msd/ZeXnekeB1zcAAAAASUVORK5CYII=;" vertex="1" parent="1">
          <mxGeometry x="290" y="160" width="100" height="100" as="geometry" />
        </mxCell>
        <mxCell id="P58hekDE-8d0RwagDOlK-5" value="" style="shape=image;verticalLabelPosition=bottom;labelBackgroundColor=default;verticalAlign=top;aspect=fixed;imageAspect=0;image=data:image/png,iVBORw0KGgoAAAANSUhEUgAAARUAAAGQCAMAAAC3TQS7AAAkhnpUWHRSYXcgcHJvZmlsZSB0eXBlIGV4aWYAAHjarZtpkly3joX/cxW9BM4gl8MxonfQy+/vMEuTLT27I1qyVVJV5r2XBHAGEOnO//z3df/Fr5ZTdLlYq71Wz6/cc4+DvzT/49f5+vr5XvD5/fl+za+v/Du4n3/w/W+Rr4mv6fNNy18/TV/f//b6+v0rF/rND0L5yxvS99vEn29s4+v70cdfnqje6H/51X78f+9u957P6kaubEP9LOpzC/ftMrxwskvpva3y2/i/8Hd7vzu/mx9+hey3X37ye4UeYkj+hhy2CyPccMLm6wqLZ8zxRONrjCum972WLPa4kk8hZf0ON1rqaaeWYlrxpJSyS/H7s4R33/7ut0Ljzjvw0hi4WOAt//G3+6cX/Jvf9y7PHoXA6sNXXvBcUTvOYyhy+pOXEZBwv+JW3gZ/+/39l/spsIkIlrfNjQUOPz+XmCX8yK30EiDxusLXT34F24pafFmSuXfhYUIiBL6GVEIN3mK0ECiARoAGTx5TjpMIhFLi5iFjTqkSm0YecW/eY+G9Npb4+T6lQnxKqsmITU+DYOVcyB/LjRwaJZVcSqnFSiu9DFdTzbXUWq2q5oYly1asmlmzbqOllltptVlrrbfRY0+UZOm1W2+99zG458hulMG7B68YY8aZZp5l1mmzzT7HIn1WXmXVZautvsaOO+28y67bdtt9jxMOqeROPuXUY6edfsYl1266+ZZbr912+x3foxa+yvavv/8PUQtfUYsvUnqdfY8a3zXThd4lgnCmKGZELOZAxE0RIKGjYuZbyDkqcoqZ75GqKJGHLIrNDn64UAlhPiGWG77H7kfk/nXcHHv9T3GL/yZyTqH7f4hcdCf9JW6/idoWEq4XsU8Vak99ovp4zYiN/9jsr7/88jVTGe2Ozdt2rLXzDGPcAj6d2cepqczbmp3Qr7+95rm2yyMRlsvVeyVW+6x0BnDPQxy2K9c6Vz883Nlsdwpla+Vzz1nDVrokXWlnl/sNi8iuvW/jVirMsNmifrkgpZmr8TChHGMnbfF9bjlCHMtiWXnWtuwec5NVsBFttXDbNku1jLYnL+UZzwZ3Yz8hrTHZbO4SeyMEuZB8nSCxeO3IYI++/vKvvvYwSfBlukBo3afoWXqvN0TH4i0f9oxYl9vPYU/tXuVR1c6l3DYxzOGcOqYtkD+UfIevTewB0+Qzik0Xrad6Srt+2JzhVnajrj1Gbfv4MytMUoDAvc+c5tNac85rMaxDnnnCX7wv9wqzCRXZN8aqZa7cx9KT1Lg7VTvmTnXlc3q/O+ROpDqPV9jWYLBXiyRa3ue4Ybe2WUnV1pLfI007N5MPtc+0SJWyy20prYTACCrIM+Ycdc7eDVEQ87E1c3Lb6/6EZE5vFg+x9mn4VBprvznXzZo3YGp5g9LZdoybmFFIflrrwUYln7IjBUrdS3xZZ47tJCqieAP9LxvRAYegSIVhNSu524B9e59EEbYudr2K21yZkVudXsSz5Fbvwd+45yWJFxlnDbg4t9m2ugeVUSjHOinukrRCAQHbMd3ddvs2XlLSKvFsxEpfRklZ4NWtjZJ3ilwh3sWlKBa2i/ucnVs7p6TWj6/JXcppX+1p5gIk1di2rp3YO2CB4DhxNtKH9B6Uy+7Xcp8IoB1Th6W39ZP2Cz/PwzPyyGOlsQ8hnKOX2dcCixt5zIOTnyBzQYOUMdEe9aV7jT8ww/0GRH75CvBNUjdUIDgDZSMkMmpv4gywXltGwo+VHXvZxk2NpYcBVGzwNFYWfHs82bOr0xOqA3XUE9PowB6Vdolx4VEhMEJFTFzr2oDR8vRHojaESrX06PvL75IpuQGqzr1B/TkLGEeebNaXASZrYaQa5nAUYCI72ah0YLA17ilaBn/sEC4ZFiro2MImB22tfHkZlDBmbqb3UYykTHfQA0mfQVWb/jZAtrMyX04Px8Lt8yyiSUFRu2QfRDY3iZHZBGCycg0D/GdxByDlwUcnkYc/58ALpQ6KtLa4LouBUsQgYFLOIHkN2r6FXiW3wM4BIAiPYNB6z4G6KPooRVDLYp3j9sK/M2xbKQPIBdIBwkBdCndzByNyCfgCUsAkB40uA5moc4RzgS1OYbc9IYqDkgKTrSQeISKrk/UcC0icLtSZGhAI+K9DmcAiNcEkfi8C4ndOykKCDiLv3aan7hXEZlIPp1Ve3qg9wgqQg2rsWZygqyvIgjYOKpu1sLSMioBIQKezSPe96kU3NKjpEraVkm2wMxRCFyYgV++aZDpLG6B1ImMpsUhZ9x0DwHL94iJ9wnOVWiQRzo08LfjKD0EqapLHaUKyQlJ0h8KfwsPcV0gwG+C+Dk9LaDyIsYhKW1BDPR3FVNM8ZE67G5SZOyJKLvIjlOjiRHuwR6cjD6QOij8FLEPdnkEww5/L8NtXiZDmIqlTpUDYXUxI9Z2EQO/ghSqYq0RNG/S8oQFGDb7OwutL2NJkf/xKKuHrVpxk8K5BjEZAKYC1VdjUbD0UxBkpGnmKMwKeI+QHNAMqVCsJWQ9yC4oE2IAqD+PMQkZmtMs2IoT84HLX72uNqkKkd1CMSLFVpQCoIEIq6wpj4Hui7AAYHgN4XlNy30a8BfxhI2/GiUmkkYwQF5u8kJC1oQNKptS7Kg0mX9XgQrefLOMq8BSSpsRZKbIrRMZw2e4LsUqtkmmHpwxkS0liN+oeITRIW8BgNYqWWqRO2y7ZE6XZYyZJFsruLnCGDZ6Z9AaSNkiCwpoR5TrAlw6EyZ5fbbj8WocewK5MtpO7+2SzyR0DyQ9cVFPS7QnmoIZRYWRQPF6uJp6FfJ0DdbIdMhV0QWZDInM3wr88hF9Wg1UHJIHqqjDmpsBO1c5tMKBupFMhDSrU11qNoiOqJ04CUCD2IT3Bmyt8+wT3AEXG9IRzhC4DOwbEhMuFQQhe5z4H+CiqNRZVK+KBt5kWLfUPGC5SwSRe/WJ/DWgMyAvY7QYo/qDuJOxIG1IYRYRfC5PYnoSksH7LOhkw2HhrMBa/iGRarNFDGWi+fCslAJfC/miKfBJhgQ5DcGgYpc5GFTbgJvDyhZgUapK1+UzpDmof9KJC0U4xHTwM5AW2SCuzLYZsdjOBrjDNAgVJw9Nt56PiBfvlWrADp8PxCDfqgyLzytGH7VkAufWIqARXuCiWhpKvEroZ3UXuL9bDDkUUJpFClyD1N3yATgP3J+pQDEPeoZvlP8J2mxuWA/IGJZsu1bjsyuhGKU2u19lYsgfTYWUhCUCDOimqSUoM5Jp0BlBrAkf2ocxgnmhi0VZCWqMf2SjwU7x6yDArYSPlqCZQnWRGmG9cGcGB6ltzaj6VHcis2vJoUDTBn5LUGQbzYNZIff1JfGdRQTQY0omjUQwSVBNaHjBWIm0iahIJsqiHROoutv4muQOJMuE7rioJyhTfOMrFQZJTPHkLhCVtCSKwHdZBmBa0UgXHh+COsk4INFm5UpQU2JxNTo102AJU7SG+KJdDvp6AGC8ALjxDVXTQVgiHocuE7iUPlSu7hEMdxBayJTn55o4OqTLQ/RAxup0ifKgDVlN6LJeVhMj34EJ2d7Ft7UGRAJmgPxKDRmA2V+sBIU9Vqk6PMFEJS4M3LB+SF1FyZl6ojLrDVLckUetIUYzFgB1R3EpJwD+hDEf3F90l0kxIkCSuh3PTBUjxWk1iHPTgHwZ+nQxSc0uetCw4Yhh14ViELnNlVtFZJK5hhQE4LPxBt6LZ8LqodAw2HBkontxIWCSqsQf4msFeIbTkuYI8s8WOekS29Cu6hPNQhOCL1bMw9xMew5wu2Bhrcxo6EBNIoHH1gOFwmy2LiFPMJ4QrsC0ohokcIkfxGjG3CB1d/cdbyI0CysKX2AJ4kXr1iEQrDl23VmoVWsNcs9XQHaUOuBxkKEhysBgzj6zoQhKIL/WfMni6iQ3aDllW1K1B4bLTUFIhx6oSVTUTocEBDULiYge0KZFAN3TIS/WLlrqZQCagDDgE/Al/DBCmbvX6hhlYhCmRQBgSlLFJlGAm0WAysyPLxWPMC9hw5LFUCohRMg9tGBL6AK8CAQfqgT3D62BhoUCu2QArUlLLGUircTzaGOTCofcbUcG5d4dPXzJDaKxENYIsbDqESE2j33gbmxZs1ndVmUIPlwUyoexzEU5IhdyBZIfT9aq+ozR+2gyZguOH+EdQIi40HqrDIK8rPU6xI8JNpb+pCegeW7GXA1Dvup58Econ/BcZgO6F55K6Q6ex02qADWIExEGmSG62A8dWfsIp9ytQ1bxwLmQOeIp67okYLG0hLhLuGwu4Il/4/k54jq0XZOVAdkNUhy7nrukVit6L9RS6V3IKEQpKKE1h543ypsYyAI8zNKkcyeZAmvNEiJs1eNre1ANf2va1oHpsLOIkbgWaImSVOZAFakdFzCQ1R37zpFAJ6e+SNPDliYNuTnVgkuCSI/9BYCayNqu5BaoBC0EcR0gRmZAS+ZgLVGuYOTcB4kbg24UfJHvxDwfFBR8QIzD4du1M6E0uCN8KpbP9ncXXM9HCWwE0D9QG1KL6gviarWrE/RaZcKROw1Pny+rFawmrKSkCo+uSZyKMViHRJhuzHIIH2lklpZqQiuQm5UZByiiYoaF4cjw/PhCZlmLApAJCuGL4k7Jn86lKwNFhmDuLAZGSGjPIIzS0PABoAocgBZGX+L+MFQUSKSC1KZWO+P+JcIlITNSaqwXJM68uzxPWiXxjjW1j2K8h129+3rbZRPKoKVAT/kZtJM/W8ZWnbUgex24WSmtWfIuMLmXq1YUhy1BBaxWcK5aWHTuIZ9Re4K9heWomhyRf9VzydhYl40WYCCSZb1B4BmAURU8mdFlhUJ17U5Qoa3Ck7SxbkKms7sGJpUaGOxUxwS1HGCxsqz/DFmOma6oNgYzgqfhRQJoEYudKJKRUIOkF5h31l28gTxwbBWPAFm17JABcjHyc+CzUEbuFc/VFhztFWV+9XKu4Ba3Ec6KN20xc+hRHsYMZHQGjVmUxGeiCaayUcEPWyRxNMo+YxdgovpKyAAsBG2DryA5CGrZdPk06cWVsQwaFDTyDAMnJ0TcBNpRT8+hv33gS66E0CSvR/ZJTAFnxsBbd9lZHa+iJ5KUXCb9tnWUkYF4iYCClWWQn+DLe4jjKY8HqKalUSA7Stjn9hYoNZXQZl0tsc+E//7evkMFpKHueH6F8yT3Y76g7QNEYT4R/YUdlBbEDQDJAuHFRVCaPNjLmCPNMJgMG+GRipw4C+DRZbUGb5KTkdqAXioV14nmxQAAOoT6EpnAHvDp2a77Wb9Q6iS+cMZOBvIXdF0lBbDkYDhLEUSFAb0e6B1jLkIYadgAN9N7bvqklKQnyLO9LpuhEp6kcavYoT97ohh4mAoDEForpkoWwN0iMZAlWSW+c0JBNbVJNDb/DrdgYQgIYHQRA5dZuUjEbQEZBkdr+dgQnuejb8epMXeHeAteGGLoPqSOE4MKJ4AYm4AmgEvnilO86DRD4ifBRcQGF05Xs1ErGa6Brs5QlBHjm56xBFodbK4V9Jyn9clditna5InxYUQOuxFWwgtR9BRIxZZRh4+FA2ShpgoAWqJYYqAZVOeJA7UNWjN+qJNlC5kOduCYeGZ3TfMIzFxin8HTnnQxAZa+VtCPlONkzw/nFm5xaM1AVABHxwKhiiviIengva+YOqJmuANalLgiiBXcryuqokk4ak1fKbNgZBDX4c3AtuZL0wF0Hrgg4vz2+YCevXAXY1WUGPdW+auqeVnSK/g8O/OCi1D8BUk3pTgipZIfYs0N7IE8jchIhtrCqaIoYKD1Df6nZVElBZJi5stTCZIMM3zrUeIJxUVd4bmpmTTIM38HuQlIZz4NXglMXwjPp9ETUh/H+tOqTV8dj4JopgXwn6Ek8QURvIat92lkYVKhWCBSL8b/qlULLOtHgfgnn5pApbCg+ANGKgcAR3ilHcXZRGxvcqWo5AvG8L50FCFSkz6qiZpKp4QHZC4oWKlxUBteugBG1E9BHs/qljrTMEdWGyxG0YdcX1PUOF+64IB5qCPpHHXrnF18bOXoJtDrfyk7+HZAkgJy6UaTuxRYcsu/KrAmSkCREr3pwj0LEvyDYU5bky/i+5i/86nMmA1BKOr+KbY+mCQHqQocT/Pj3LTI2W6iFKD6JLQ+xSDAMraiCMx77NVmcrONTlGffB9qIySiAg5cMp1EWS1NX6AR8DTw6gPKmli4Y12ajzCMhnkAwVX9JDwRoZyuAHuIGrYK2+AbUkgtzTN+Ry8BNTLrvO02gKmIGIHT4OeX+rtpSiBLcqMkTR9aLzVXHaGb8nHtE64G+qqc60ophqDW+4CtUCIIyil8mm9x15IFGfYaTB4uIS/VwBsmDXwOCSSE5H0CAFxAidAmJCWMApFw2S/BH/9qK1H0NbCq8pBYAKxyQao8OwNX0ggEQAJ6USVIjhxhDH/VcCVqWMrm4NClf0lK7V1KqWw6sBdKc050hVZ9YZYVisf5dqpRCxQISEZw6sjHA8JgDHahWD/kmHXhQ+QjEvdXjI4+mqmirRdRyolgoHDYZ3b51KtEhAWRGDIab12oSQUby6ugg4e4kR9EBeHmH4AC1DDUMPLP2oHYUsoVcIPcQflWnBAWxC8yTo0mAPZoaBEFeOqPJNJbiEESiDLAKN4uvG1eN5SNRXqCtjTnHuyCLhs5FeEyEBGtchF1NyKHzJhYfXd1RJ7g9bx2MovuQjzUh2kBOe13LpAuTZmplSpfGpZMyfAriDUyPnfiGBrB10nCGkKlxttQLI06X7eJ6EFEwnUEDS8LZTEYRR8iBFXlFJYHZVcMVkLQaKrNnNBq7BZCA0BOTDdeJBOqzJYRK4EGMuyIM1agleYrEJPCRstvsCZfhoTq0MiPKgeRTm3gdnZlg7UujrDDP4jxZ8SUAkzWDC9WsWsF24EKFavSvpxs6yzSk0AVYSNtrTeIaRgZkj6aKrsKm3uqTiNwKpuiEO3dHDpAlAALAutW+vToUJHmhmAqsUOzo62vHAlUIdIBngT3TubrOCdAd0GLdrumEp8KtEKZV9TDfUTiqGLmJlxp63j8eS0OSkrgIb6d/q19BNA4/QKYDiLBt7jo1B3bHkIks0kpYIhZrPDzQXEdVM1/HFbNqAiGibTspmxeBAUauDrKg7oC/WaBiCtZiVFsRqgpBTTRyEgUgyw1yRrIhreRYaZJ65oasEJACw4dOvROODSTpOp6/lUqWrNzAHOrlVjgJoNDchxofPKQzOBeIDDK5JBbWZQzN96D5cDhF56RP7ld0ekNfoStiY8UoD/WgEDoNvAJqj7RDTGFAeQOSr5IYBwq/y+s8BFaCbjCYmN7TqcFOWiAlsppaiEs2En+OOwLzsqQmO4eMGWonDPR08by3J1hczew0K47SSL2s4yWuvK6MUZRxVyNg4SAvErHqFP+qd0l61LSwBOxMOHestw0vy64aEJ16RMDz8Ow+ghOMl+0lamMjVQQxYIbgFfjdp4AFrBJUnGqZYdIvuIf/x0AKsGIxCwSja6ZAHceKhVhbfcJ8WB3JafIEGq8CT5OOwoEgrbOqE5Pb0qnu5FvU7lGfGHHg45khOtOkGm54viY72Oalv4hIkawN73wXPt8hHR0WFUy5jjGizlnUL5fAn5AUgh2/SgJIzEFnOnHvr5IINa+6+BDwGvDR+aOO/GCRI6WL8SiWEXa1I57NLYgg4d6lmWrwPsfuU92mU2eIj5VGaCfZFc94wPOUSz6yYRga8jqT4eh7c7NpCgOswzrpwDcd1K86rl1dTHAc40BaJUnXmkH4pUkQ1iEDUt4ojddpiAOdDxQPhMF/9616VcxxaR7LTMJFTSvoDSQPmhzGVTRHV7HrsbAYpEUmj5B1VFvG2T2L9+evQacDdb7mkRG1gGDSnNVV09jFqlMiROtQIwy6iu9QDP0yDt71FJ1vtorklRP36p3xOKBr26GRapqno07NxffYkC10PZv6xRB7kUAkJ6gJMA4WyhXOLeiLmc6xGS3Wl2bydaYDNPII/X795kmeUkN4BvgyVHQ8AksDK2oLzaDWIsQKJDZDV5N8KHLCCcK8YzvHM6amBmxMlKB6Zm9qg+xE+WCSyBlDKDUd5Zd3UigjgMUKGrYKBAf2wbW5WdSq5ZkyXhsDveEY1VxiN7EILDlvJGXWgbfG03bnoZ7vxlZ0kPiw1WSY8/146EGeeol62dz9GDqccuQWEciy4Vls22qjDE8HEVQ5Hq0l54XzMNc0JLHVryK99aD1wEmhql1H4KoIstacYTBKJ5GzqnYNXWhyRHwz1lSTZaFw4J1kb2pVQkbtvj4H8kyMjW7SidJS0VIkOhFGV6Gpp87dMTshyeAQNZzkOhrK2bgZysPPfLYCP9WGpzZa4Gcr6rQUR0/hAv5SCKazf6/eDdV2HMXAs9yIIFEHCOCGvUiELl/2hgBICQKP7OwaNSsJ4Xhhs8ajUX7IFG45cZAIADiIdUZqmgCBFhdj4+sEHy+Xh9rhacgBOXB4ACR51QkYZJ6xUyWr/ZAdtWcINoqtPboOmoL6V6X37WtbCWntCqIw+fM6RMCVzuIHpCUmXx6mIUrccOvSiMhMOH3DfQS9fAEYe8v/3eH2U1AIyGxTVYdIKzrXpciaxgvWcwD80aJ8sWkembfyN3avmeaCqA07LiJxlVEY07Ax+wVclpY1U6PMwjvux84IfVDdID8mtjyEV1Me5Z4Hwqa5oz4WFyUVPMVPKeA2rCC6FGedyPBAaHW2BJhGqXMlCBFS2mO8sR58B8nj9kGsQU56nqQeGilIZchronFOLCOyTTqpVz/0s+SlYRqwH4zHQ6E82At4bb4DHBjwyBCiaWEOezpINrtiARpM3/GdUg7+TdphycE6NKoKXSdz3anXvVXPpyzfcled8rgQm2wd++n/eUxDX92fXwDArQbmtAGnLiwqdR5s1VjZCm6WEcXYA/Xp9/QOICM65Cdi1lQEUAUmG6+A8V6kOvHFuvMC+QFNJq43TgAzJXA7Yf/Ij1ocUYAFYXtIIrd55ZURpRtTpKlaUMSilAElM9+Iokar+YvgPGqOaaIDubwbq9cMClWpp5H/eTN++5WlvZkL7iMWnrBWBHOLhjaAfg0e5wLIBuhSiYb97cATKOw1xEZOqBlIhJrH1Pg3sAp+YGAT+tBb1Db/jTR1+r5fo9ReYxWxdWSPNdh1tkM8ISqCOpb4nK4PWuB1Uf+qCURyOvhdLNqT7r5bwzTcVbCnModNRQWPstkV79GOxnsgL7KbrAeNutjoM11wSWaEL2x4sQ7QDLtLNUAe2CkYsJkXQrvGfkQjo8VZ5HXRzmGYUCWTpEVfN019sIUoEwLVNbWGcCaplGVoikOa3OQ0/PFxF5oF/ErkpXOab9/8SyO5cIWywYCBKgInWkOXR3NeDWz2W35aIgEJ0SQ5hSMyS6XMhokdOiGcgBrfU19xogAnG5uFMwhXlD/K4Kx964YH1YWpkFEFKUlPRAlQQiTRSIjSI12EapIiXprB0nEQFpAoo7PVL7tnjgjkwYprl89x9N3GHUj7Z0GBes1GbaR41sgYeJJgJ55EAxRqgbk38rgXIcrqg6H6efa0NCtW2XQBawS70IHgqAZiq7hxUavv7LVLTJEj0fWJ6NwIItArqElSUaOsAxDEy2I8KSGN1I32JutN56vYRsAHsCzoKhTAAJKcpooDUF4hNI1MtjDE51kTw0VHkjyhrx4xDIjPL/De86XxxXWtUK9kN4qNEEJ0HXTJJ3RcjI4spNYkbzS1dexTU3bZgvWx7Q3JhTa+LQT10YYGBzRloeE+TWCCWGPrBHlOPWMCahHHCi+Z3xe8R+yiplZZqAAP51Hgwt2dqcOv7m5EYmskq0gbsZikl+hs9FWtvpw5NfnqpwY3EKhIOEoNFLyIM6yolq1mwVAptDeHt7FcOhtjSdqr2JAAGgKb8kjgKGqRmBAaXE/A98PRDvbgEfP9rF0K8GguPqlRpz+V18gjFAn69U1dwkv8XQ3P19iq71NXwamLXsTeiCboU/COHcFTkUDvBLCjzi4YU3qGQHXSdlTcmnXO92oEY4R7t0P38E+coC4RpNjfEGp6H0+g3tg6LBkaFZeBQl1eyZxqfsf1ps4A7wcLHPB0NaP+aeR6lQTkz7aooog6upZ/66Mbx4qG5iyhQS8Erk8vVTycplm1R1s1j2zV8MNFImbTAF6IamCfxRVKSIS0vykJ7pBWuP4oy4K92wdgYVc3WcKs+RhOkBpv2iop2dzge2kwtZ64A9eA1/3iadvVFmD5ERho//FOJ9xAkBOGSFk90QT8EDcWoCmWGgna1UDPipurFn16QeM8qAdkocZUEbIjWd1OJx+alUHEq22qD6WBvNLTFNNnogBuTR1o75tLiAPnG/omoch+zX1qBMFpoPt+lVU0dEWs6Fd+iN/A6z8sQv7ocFcfoeGiKDmNECUr+lgUqlAf7sPTFtCANGcboRxFBMZlK05dUV2wxG7qlFquIcQ3o4zaPe/cGQ0PRaGJp8fUhEGK8jiLeoq96PxVh4lkoJfplbYxAJqKmWqhdViIxyVhJOc1n0MBYgWcDNkGfzW9JtyfyxcAqrGnbEYEOikK0k7nl+qQ82adz1duSbXjVQRViBxHskLd6lKZ/KGmbYeeHI2ym05A1AfVmA6O3nxdn8mJ9kE4kydcWUTksJOvLzw0KuVJobTVARDwaRyW0oowqLZQzQSMF7h6NNHpUfhFfSFimFtwj5nwKOwI4ki9dX3wI2nuKEn6QgB9+6XBqmwho39knysOMguvVLG9UeBOA/BRRgrlKVDAifAzpAI8MtWRbmwfykZ9yqwTJvz2GpDZCE/H3NfTKdJH4BzGjVSLC2BI0NCRMqkamAPekALwEwyF3tc4H3xkMOMbSVN74TPtvp1UPxzESzQBv55SpGBQiB4bWsJB5icdsvzQZ1ef+gEu9STo5o1Ijt0RdgOB1GfzYH+H9KOmdNKi5Os+82qCpytvCqnD5tZLlR81adFP5X0OErnr1mhBB5X5xdMLPKkGclaTDTz10fg064lcEbccitZDlHif+sWXnBnyZ4A/dAhG6oMUgSxl4Xm+g2U2jYJHFfpA/LvQearTT75tVQzSSaO8GrxHt7j0ypzLYi81N21cp9VKQKkJ3GHW0cfRfMu+euZ+E/tTrno9AOgIb/pwZge7VY0TGtnIs4GQYJc+yvBO0WaUP95Te47+Xm96guqZ7CFWNmhiC45aYbiKNOrcT6iOZ6VsoLRW1KhfAFIFed9c7dAkQFehq42rk/uj0WMkhF6tpq9hzskMDKcUvPowGThpcAaWUI504FWpZp2Cgc7I5+1xTPr4TPDqGA9APmZBbZRD6DgIUxvufE4xlwYUKRK4wz9dAOyfO6Mmcg6E9D6cYyAVCed3r04nt/BfumncoVSMoemzbkgswD0A3D6rEDX8hboivGEHMaEk171EtV/wzTvUoperJdkwmnBEGPJvuyMDMXVsG0S4geBiWKZLcK1o3hJlV+rQZ8twMbnhaTMufKi/njoKC40SEFjoQZ1GttfQVLM8URS59nmrUEsNRO6mhrddbgnluQ0HYaXC+0ODuH98eMqfXM72niNJ+qUy3mcnNG/pgqZM0jsnnjoC9ZX8328IGjcPYYt5SKkc1TRVr/Oplo4CUqP0NPmlVKYjFVAwOsiYMPzSZKQOQqLEUBFSaLKnI44OMQfWGuBGNhwdxoGtcQl8UsRBamQp6/BC3gxfSRXxcw3lmEQ3CXcIpEbA1OFrOvTqbSXcpz6BFmXAUcHH4UOJBTJCs30SJNuKtiIdiAoYsfb5cM+scHSVGKFQNDMXe4bkMaYW4IXpammmg9wliMXcshXwHy4/r9ff61qLzqBZwEDNKmV7+fiBn+JQnfENKypxoVDCjMMeBZVr6IdyNPq2NNOedDTodbY4gdlZNA6qadO4x6H+t2MF+gAbFZqy1+MFASPOT2fEGs3TMJRQrry+R21qi0HpQ0PWxCLqAw2oQle+rNKwPEi26jWMwVNmXKE+ku2fmpLtlQ9nC2t/n0bUSPc7pNYBHGbRSbySOsD+oH7b0ufeg73OhhrMPP7dbHEhs9RRKFvzhQfCSOA2rOC5HAUOHc0tsqEYjprGN7epT1TBxF6t9q6RnKBPP1DHmFOWAbgE5VEKwGP378PaeNro38zu1u1kaheBWEXNanwsG8dWPlmFOuj8TDD6JkaoYHF87BpGy17D8HgBEWff631U9Y2CK4Iku8BvI0OuphxRgLg6BFxcmkncB6kO77+PKhL+oMGXrtnOos8mrhcWdiKrEvW5iyyDSNpmbqcTfVw1ggfeVbcqvMk2tZBQI62iuVjP/YytLPaIsgO6h5y7Jt7UgKhaOs4JwIQFjibpAfvRibdWWx2uMqoXr1kaVJoccSsxqlHedDwoon2foSs/Ph60dOCfpwx8rJrUBjbwazqh2ep/4OH1CWb01N9f948vc398HXLTvl73p4G0kBue6/NG970hI4sjc/K/Ol/jzPkDenwAAAHdUExURf////7+/gAAAP///QIAA7W2uP/9//Y0MvvXt/7XtuHh4cvKyxtOYWVlZW9vb7W2tnV1dRhQYff398PDw7CusSAgIPvZtunp6fDw8MC+wQ8OENfX15qamxpOY9PR02pqapKSkldXV/k0LAAADIKCgqSkpIyMjDk5Of/qy/jWuhIAAEVERSgoKDIyMo+Jgvzoz/nYr//+9fvewv/v0//43/DizlpXT2FZTP/vyfA3LxcAAPzt1SIAAP7jyAsVIfpCQwALDiV3jv9BP3G5yhw7RkJCQhoPGjoxLYJ8c0Q+OCMaHdDIwfLs4Livn29uYikoI8G1qGFcZllMRaqjj5iQgoqEc6WUe9jTwbuznK+Zju3Wv7qmjNTFpTMlHUU2LRMLAFwpLmQWEelZU2YlJN7ArUYgH9NKQ4EoK5SMeb9QUioJFcBBQuHd0aw4RJo1OKOfiocwJk0YGeM/QDQAAIYvNlAGFtc+NdFKQ2kjKOXbuFsYEJgzKebPySsJBLM6PVdTQkJ5hjdrjDVicRUvLQsZExscMSBLTi9/kR87ThVGYdxcWQ8nLjRgaP9MVKgtKos5NxIeEnChuWKxyWCFkGacnwAcHi5CQl+tvll4f5nK3onI0SIVJnU2PCZcahI3TILLZRUAAAAJcEhZcwAACxMAAAsTAQCanBgAAAAHdElNRQfmAQQIDCAnA9KkAAAgAElEQVR4AQAkgNt/AAAAAAAAAAAAAAAAAAAAAAAAAAAAAAAAAAAAAAAAAAAAAAAAAAAAAAAAAAAAAAAAAAAAAAAAAAAAAAAAAAAAAAAAAAAAAAAAAAAAAAAAAAAAAAAAAAAAAAAAAAAAAAAAAAAAAAAAAAAAAAAAAAAAAAAAAAAAAAAAAAAAAAAAAAAAAAAAAAAAAAAAAAAAAAAAAAAAAAAAAAAAAAAAAAAAAAAAAAAAAAAAAAAAAAAAAAAAAAAAAAAAAAAAAAAAAAAAAAAAAAAAAAAAAAAAAAAAAAAAAAAAAAAAAAAAAAAAAAAAAAAAAAAAAAAAAAAAAAAAAAAAAAAAAAAAAAAAAAAAAAAAAAAAAAAAAAAAAAAAAAAAAAAAAAAAAAAAAAAAAAAAAAAAAAAAAAAAAAAAAAAAAAAAAAAAAAAAAAAAAAAAAAAAAAAAAAAAAAAAAAAAAAAAAAAAAAAAAAAAAAAAAAAAAAAAAAAAAAAAAAAAAAAAAAAAAAAAAAAAAAAAAAAAAAAAAAAAAAAAAAAAAAAAAAAAAAAAAAAAAAAAAAAAAAAAAAAAAAAAAAAAAAAAAAAAAAAAAAAAAAAAAAAAAAAAAAAAAAAAAAAAAAAAAAAAAAAAAAAAAAAAAAAAAAAAAAAAAAAAAAAAAAAAAAAAAAAAAAAAAAAAAAAAAAAAAAAAAAAAAAAAAAAAAAAAAAAAAAAAAAAAAAAAAAAAAAAAAAAAAAAAAAAAAAAAAAAAAAAAAAAAAAAAAAAAAAAAAAAAAAAAAAAAAAAAAAAAAAAAAAAAAAAAAAAAAAAAAAAAAAAAAAAAAAAAAAAAAAAAAAAAAAAAAAAAAAAAAAAAAAAAAAAAAAAAAAAAAAAAAAAAAAAAAAAAAAAAAAAAAAAAAAAAAAAAAAAAAAAAAAAAAAAAAAAAAAAAAAAAAAAAAAAAAAAAAAAAAAAAAAAAAAAAAAAAAAAAAAAAAAAAAAAAAAAAAAAAAAAAAAAAAAAAAAAAAAAAAAAAAAAAAAAAAAAAAAAAAAAAAAAAAAAAAAAAAAAAAAAAAAAAAAAAAAAAAAAAAAAAAAAAAAAAAAAAAAAAAAAAAAAAAAAAAAAAAAAAAAAAAAAAAAAAAAAAAAAAAAAAAAAAAAAAAAAAAAAAAAAAAAAAAAAAAAAAAAAAAAAAAAAAAAAAAAAAAAAAAAAAAAAAAAAAAAAAAAAAAAAAAAAAAAAAAAAAAAAAAAAAAAAAAAAAAAAAAAAAAAAAAAAAAAAAAAAAAAAAAAAAAAAAAAAAAAAAAAAAAAAAAAAAAAAAAAAAAAAAAAAAAAAAAAAAAAAAAAAAAAAAAAAAAAAAAAAAAAAAAAAAAAAAAAAAAAAAAAAAAAAAAAAAAAAAAAAAAAAAAAAAAAAAAAAAAAAAAAAAAAAAAAAAAAAAAAAAAAAAAAAAAAAAAAAAAAAAAAAAAAAAAAAAAAAAAAAAAAAAAAAAAAAAAAAAAAAAAAAAAAAAAAAAAAAAAAAAAAAAAAAAAAAAAAAAAAAAAAAAAAAAAAAAAAAAAAAAAAAAAAAAAAAAAAAAAAAAAAAAAAAAAAAAAAAAAAAAAAAAAAAAAAAAAAAAAAAAAAAAAAAAAAAAAAAAAAAAAAAAAAAAAAAAAAAAAAAAAAAAAAAAAAAAAAAAAAAAAAAAAAAAAAAAAAAAAAAAAAAAAAAAAAAAAAAAAAAAAAAAAAAAAAAAAAAAAAAAAAAAAAAAAAAAAAAAAAAAAAAAAAAAAAAAAAAAAAAAAAAAAAAAAAAAAAAAAAAAAAAAAAAAAAAAAAAAAAAAAAAAAAAAAAAAAAAAAAAAAAAAAAAAAAAAAAAAAAAAAAAAAAAAAAAAAAAAAAAAAAAAAAAAAAAAAAAAAAAAAAAAAAAAAAAAAAAAAAAAAAAAAAAAAAAAAAAAAAAAAAAAAAAAAAAAAAAAAAAAAAAAAAAAAAAAAAAAAAAAAAAAAAAAAAAAAAAAAAAAAAAAAAAAAAAAAAAAAAAAAAAAAAABAQEBAQEBAQEBAQEBAQEBAQEBAQEBAQEBAQYGBgYGBgYGBgYGBgYGBgYGBgYGBgAAAAAAAAAAAAAAAAAAAAAAAAAAAAAAAAAAAAAAAAAAAAAAAAAAAAAAAAAAAAAAAAAAAAAAAAAAAAAAAAAAAAAAAAAAAAAAAAAAAAAAAAAAAAAAAAAAAAAAAAAAAAAAAAAAAAAAAAAAAAAAAAAAAAAAAAAAAAAAAAAAAAAAAAAAAAAAAAAAAAAAAAAAAAAAAAAAAAAAAAAAAAAAAAAAAAAAAAAAAAAAAAAAAAAAAAAAAAAAAAAAAAAAAAAAAAAAAAAAAAAAAAAAAAAAAAAAAAAAAAAAAAAAAAAAAAAAAAAAAAAAAAAAAAEBAQEBAQEBAQEBAQEBAQEBAQEBAQEBAQEGBgYGBgYGBgYGBgYGBgYGBgYGBgYGBgAAAAAAAAAAAAAAAAAAAAAAAAAAAAAAAAAAAAAAAAAAAAAAAAAAAAAAAAAAAAAAAAAAAAAAAAAAAAAAAAAAAAAAAAAAAAAAAAAAAAAAAAAAAAAAAAAAAAAAAAAAAAAAAAAAAAAAAAAAAAAAAAAAAAAAAAAAAAAAAAAAAAAAAAAAAAAAAAAAAAAAAAAAAAAAAAAAAAAAAAAAAAAAAAAAAAAAAAAAAAAAAAAAAAAAAAAAAAAAAAAAAAAAAAAAAAAAAAAAAAAAAAAAAAAAAAAAAAAAAAAAAAAAAAAAAAAAAAAAAAAAAAAAAQEBAQEBAQEBAQEBAQEBAQEBAQEBAQEBAQYGBgYGBgYGBgYGBgYGBgYGBgYGBgYGAAAAAAAAAAAAAAAAAAAAAAAAAAAAAAAAAAAAAAAAAAAAAAAAAAAAAAAAAAAAAAAAAAAAAAAAAAAAAAAAAAAAAAAAAAAAAAAAAAAAAAAAAAAAAAAAAAAAAAAAAAAAAAAAAAAAAAAAAAAAAAAAAAAAAAAAAAAAAAAAAAAAAAAAAAAAAAAAAAAAAAAAAAAAAAAAAAAAAAAAAAAAAAAAAAAAAAAAAAAAAAAAAAAAAAAAAAAAAAAAAAAAAAAAAAAAAAAAAAAAAAAAAAAAAAAAAAAAAAAAAAAAAAAAAAAAAAAAAAAAAAAAAAABAQEBAQEBAQEBAQEBAQEBAQEBAQEBAQMDAwMDAwMDAwMDAwMDAwMDAwMDAwMDAwMAAAAAAAAAAAAAAAAAAAAAAAAAAAAAAAAAAAAAAAAAAAAAAAAAAAAAAAAAAAAAAAAAAAAAAAAAAAAAAAAAAAAAAAAAAAAAAAAAAAAAAAAAAAAAAAAAAAAAAAAAAAAAAAAAAAAAAAAAAAAAAAAAAAAAAAAAAAAAAAAAAAAAAAAAAAAAAAAAAAAAAAAAAAAAAAAAAAAAAAAAAAAAAAAAAAAAAAAAAAAAAAAAAAAAAAAAAAAAAAAAAAAAAAAAAAAAAAAAAAAAAAAAAAAAAAAAAAAAAAAAAAAAAAAAAAAAAAAAAAAAAAAAAAEBAQEBAQEBAQEBAQEBAQEBAQEBAQEBAwMDAwMDAwMDAwMDAwMDAwMDAwMDAwMDAwMAAAAAAAAAAAAAAAAAAAAAAAAAAAAAAAAAAAAAAAAAAAAAAAAAAAAAAAAAAAAAAAAAAAAAAAAAAAAAAAAAAAAAAAAAAAAAAAAAAAAAAAAAAAAAAAAAAAAAAAAAAAAAAAAAAAAAAAAAAAAAAAAAAAAAAAAAAAAAAAAAAAAAAAAAAAAAAAAAAAAAAAAAAAAAAAAAAAAAAAAAAAAAAAAAAAAAAAAAAAAAAAAAAAAAAAAAAAAAAAAAAAAAAAAAAAAAAAAAAAAAAAAAAAAAAAAAAAAAAAAAAAAAAAAAAAAAAAAAAAAAAAAAAQEBAQEBAQEBAQEBAQEBAQEBAQEBAQEDMTExMTExMTExMTExMTExMTExMTExMTExAwAAAAAAAAAAAAAAAAAAAAAAAAAAAAAAAAAAAAAAAAAAAAAAAAAAAAAAAAAAAAAAAAAAAAAAAAAAAAAAAAAAAAAAAAAAAAAAAAAAAAAAAAAAAAAAAAAAAAAAAAAAAAAAAAAAAAAAAAAAAAAAAAAAAAAAAAAAAAAAAAAAAAAAAAAAAAAAAAAAAAAAAAAAAAAAAAAAAAAAAAAAAAAAAAAAAAAAAAAAAAAAAAAAAAAAAAAAAAAAAAAAAAAAAAAAAAAAAAAAAAAAAAAAAAAAAAAAAAAAAAAAAAAAAAAAAAAAAAAAAAAAAAABAQEBAQEBAQEBAQEBAQEBAQEBAQEBAQMxMTExMTExMTExMTExMTExMTExMTExMTEDAAAAAAAAAAAAAAAAAAAAAAAAAAAAAAAAAAAAAAAAAAAAAAAAAAAAAAAAAAAAAAAAAAAAAAAAAAAAAAAAAAAAAAAAAAAAAAAAAAAAAAAAAAAAAAAAAAAAAAAAAAAAAAAAAAAAAAAAAAAAAAAAAAAAAAAAAAAAAAAAAAAAAAAAAAAAAAAAAAAAAAAAAAAAAAAAAAAAAAAAAAAAAAAAAAAAAAAAAAAAAAAAAAAAAAAAAAAAAAAAAAAAAAAAAAAAAAAAAAAAAAAAAAAAAAAAAAAAAAAAAAAAAAAAAAAAAAAAAAAAAAAAAAEBAQEBAQEBAQEBAQEBAQEBAQEBAQEBAzExMTExMTExMTExMTExMTExMTExMTExMQMAAAAAAAAAAAAAAAAAAAAAAAAAAAAAAAAAAAAAAAAAAAAAAAAAAAAAAAAAAAAAAAAAAAAAAAAAAAAAAAAAAAAAAAAAAAAAAAAAAAAAAAAAAAAAAAAAAAAAAAAAAAAAAAAAAAAAAAAAAAAAAAAAAAAAAAAAAAAAAAAAAAAAAAAAAAAAAAAAAAAAAAAAAAAAAAAAAAAAAAAAAAAAAAAAAAAAAAAAAAAAAAAAAAAAAAAAAAAAAAAAAAAAAAAAAAAAAAAAAAAAAAAAAAAAAAAAAAAAAAAAAAAAAAAAAAAAAAAAAAAAAAAAAQEBAQEBAQEBAQEBAQEBAQEBAQEBAQEDMTExMTExMTExMTExMTExMTExMTExMTExAwAAAAAAAAAAAAAAAAAAAAAAAAAAAAAAAAAAAAAAAAAAAAAAAAAAAAAAAAAAAAAAAAAAAAAAAAAAAAAAAAAAAAAAAAAAAAAAAAAAAAAAAAAAAAAAAAAAAAAAAAAAAAAAAAAAAAAAAAAAAAAAAAAAAAAAAAAAAAAAAAAAAAAAAAAAAAAAAAAAAAAAAAAAAAAAAAAAAAAAAAAAAAAAAAAAAAAAAAAAAAAAAAAAAAAAAAAAAAAAAAAAAAAAAAAAAAAAAAAAAAAAAAAAAAAAAAAAAAAAAAAAAAAAAAAAAAAAAAAAAAAAAAAABgYGBgYGBgYGBgYGBgYGBgYGBgYGAQMDAzExMTExMTExMTExMTExMTExMTExMQMDAAAAAAAAAAAAAAAAAAAAAAAAAAAAAAAAAAAAAAAAAAAAAAAAAAAAAAAAAAAAAAAAAAAAAAAAAAAAAAAAAAAAAAAAAAAAAAAAAAAAAAAAAAAAAAAAAAAAAAAAAAAAAAAAAAAAAAAAAAAAAAAAAAAAAAAAAAAAAAAAAAAAAAAAAAAAAAAAAAAAAAAAAAAAAAAAAAAAAAAAAAAAAAAAAAAAAAAAAAAAAAAAAAAAAAAAAAAAAAAAAAAAAAAAAAAAAAAAAAAAAAAAAAAAAAAAAAAAAAAAAAAAAAAAAAAAAAAAAAAAAAAAAAAGBgYGBgYGBgYGBgYGBgYGBgYGBgYGAQMDAzEDMTExMQMDAwMDAwMDMTExAwMDAwAAAAAAAAAAAAAAAAAAAAAAAAAAAAAAAAAAAAAAAAAAAAAAAAAAAAAAAAAAAAAAAAAAAAAAAAAAAAAAAAAAAAAAAAAAAAAAAAAAAAAAAAAAAAAAAAAAAAAAAAAAAAAAAAAAAAAAAAAAAAAAAAAAAAAAAAAAAAAAAAAAAAAAAAAAAAAAAAAAAAAAAAAAAAAAAAAAAAAAAAAAAAAAAAAAAAAAAAAAAAAAAAAAAAAAAAAAAAAAAAAAAAAAAAAAAAAAAAAAAAAAAAAAAAAAAAAAAAAAAAAAAAAAAAAAAQEAAAAAAAAAAAAAAAYGBgYGBgYGBgYGAQEGAQYGBgYGBgEAAAMDAwMDAwMDAwMDAwMDAwMDAwMDAwMDAAAAAAAAAAABAQEAAAEBAQEAAAAAAAAAAAAAAAAAAAAAAAAAAAAAAAAAAAAAAAAAAAAAAAAAAAAAAAAAAAAAAAAAAAAAAAAAAAAAAAAAAAAAAAAAAAAAAAAAAAAAAAAAAAAAAAAAAAAAAAAAAAAAAAAAAAAAAAAAAAAAAAAAAAAAAAAAAAAAAAAAAAAAAAAAAAAAAAAAAAAAAAAAAAAAAAAAAAAAAAAAAAAAAAAAAAAAAAAAAAAAAAAAAAAAAAAAAAAAAAAAAAAAAAAAAAAAAAAAAAAAAAAAAAEBAQEAAAAAAAAAAAABAQAAAAEBEhISEhIBARIBAAAAARISAQEBAQEBAQEBAQEBBgYBARISEgEAAQAGAAABAQEAAAAAARIYGAEAARISEgEAAAEBAQEAAAAAAAAAAAAAAAAAAAAAAAAAAAAAAAAAAAAAAAAAAAAAAAAAAAAAAAAAAAAAAAAAAAAAAAAAAAAAAAAAAAAAAAAAAAAAAAAAAAAAAAAAAAAAAAAAAAAAAAAAAAAAAAAAAAAAAAAAAAAAAAAAAAAAAAAAAAAAAAAAAAAAAAAAAAAAAAAAAAAAAAAAAAAAAAAAAAAAAAAAAAAAAAAAAAAAAAAAAAAAAAAAAAAAAAAAAAAAAAAAAAAAAAAAAAAAAAAAARISAQAAAAABAQEBAAAAAAAAAQESEhIBAQEBAQEBEhISEhgXFwobGx4eCwsLCwsLCx4eHhsKFxcSAQAGAQESEgEAABISEhIYGBIBEhISAQABAQEBAAAAAAAAAAAAAAAAAAAAAAAAAAAAAAAAAAAAAAAAAAAAAAAAAAAAAAAAAAAAAAAAAAAAAAAAAAAAAAAAAAAAAAAAAAAAAAAAAAAAAAAAAAAAAAAAAAAAAAAAAAAAAAAAAAAAAAAAAAAAAAAAAAAAAAAAAAAAAAAAAAAAAAAAAAAAAAAAAAAAAAAAAAAAAAAAAAAAAAAAAAAAAAAAAAAAAAAAAAAAAAAAAAAAAAAAAAAAAAAAAAAAAAAAAAAAAAAAAAABEhIBAAAAAQESEhIBAQEBAQYGAQESAQAAAAESEhgKCgoKGwsPJSAmJBAfDVFRUQ0fECQgJRQPGR4KFxcKFxcXEgABEhIBARIXEgESEhIBAQESAQEBAQAAAAAAAAAAAAAAAAAAAAAAAAAAAAAAAAAAAAAAAAAAAAAAAAAAAAAAAAAAAAAAAAAAAAAAAAAAAAAAAAAAAAAAAAAAAAAAAAAAAAAAAAAAAAAAAAAAAAAAAAAAAAAAAAAAAAAAAAAAAAAAAAAAAAAAAAAAAAAAAAAAAAAAAAAAAAAAAAAAAAAAAAAAAAAAAAAAAAAAAAAAAAAAAAAAAAAAAAAAAAAAAAAAAAAAAAAAAAAAAAAAAAAAAAAAAAAAAAESEgEAAAESEhISEhIYGBISAQEGAQEBBgEBGAoLDyUgJCQQH1EhKytFJy0tLS0tLS1FKyshIVENDiQkICUFHhcSAQEBARIYGBIBAQEBEhISEgEBARIBAAAAAAAAAAAAAAAAAAAAAAAAAAAAAAAAAAAAAAAAAAAAAAAAAAAAAAAAAAAAAAAAAAAAAAAAAAAAAAAAAAAAAAAAAAAAAAAAAAAAAAAAAAAAAAAAAAAAAAAAAAAAAAAAAAAAAAAAAAAAAAAAAAAAAAAAAAAAAAAAAAAAAAAAAAAAAAAAAAAAAAAAAAAAAAAAAAAAAAAAAAAAAAAAAAAAAAAAAAAAAAAAAAAAAAAAAAAAAAAAAAAAAAAAAAAAAAAAARISAQEBAQEBAQEBEhISEhISEgEBARgXGwsFJSQOIUVGAgICAgQEBCoaRkZKFUpGRkpGKgICAgICBEpFURAgFBkLGxcSARIYGBISAAABEhISAQABEgEAAAAAAAAAAAAAAAAAAAAAAAAAAAAAAAAAAAAAAAAAAAAAAAAAAAAAAAAAAAAAAAAAAAAAAAAAAAAAAAAAAAAAAAAAAAAAAAAAAAAAAAAAAAAAAAAAAAAAAAAAAAAAAAAAAAAAAAAAAAAAAAAAAAAAAAAAAAAAAAAAAAAAAAAAAAAAAAAAAAAAAAAAAAAAAAAAAAAAAAAAAAAAAAAAAAAAAAAAAAAAAAAAAAAAAAAAAAAAAAAAAAAAAAAAAAAAAAABEhISAQEBAQEBAQESAQEBBhIYGBcKHg8gH0UtLBUVFRUsLCwsTxVKSkZGGhoaGhpGGkZGSkpKFU9HLCxPFSwtKw0mDxsXGBgXGBIBAQEBEhIBAAESAQAAAAAAAAAAAAAAAAAAAAAAAAAAAAAAAAAAAAAAAAAAAAAAAAAAAAAAAAAAAAAAAAAAAAAAAAAAAAAAAAAAAAAAAAAAAAAAAAAAAAAAAAAAAAAAAAAAAAAAAAAAAAAAAAAAAAAAAAAAAAAAAAAAAAAAAAAAAAAAAAAAAAAAAAAAAAAAAAAAAAAAAAAAAAAAAAAAAAAAAAAAAAAAAAAAAAAAAAAAAAAAAAAAAAAAAAAAAAAAAAAAAAAAAAAAAAAAAAESEgEBARISEhISGBcYEhISARgeFCYQUVItFRUVFUpGRkpKFU8VSkpGRkpGRkZGRkZGRkZKSkpKShUVSkZGGhoVLStREBwZChISARISEhIBAQAAAQEBAAAAAAAAAAAAAAAAAAAAAAAAAAAAAAAAAAAAAAAAAAAAAAAAAAAAAAAAAAAAAAAAAAAAAAAAAAAAAAAAAAAAAAAAAAAAAAAAAAAAAAAAAAAAAAAAAAAAAAAAAAAAAAAAAAAAAAAAAAAAAAAAAAAAAAAAAAAAAAAAAAAAAAAAAAAAAAAAAAAAAAAAAAAAAAAAAAAAAAAAAAAAAAAAAAAAAAAAAAAAAAAAAAAAAAAAAAAAAAAAAAAAAAAAAAAAAAAAAAEBAAABEhgYEhISGBIYFxsLBRwfLRojI0pPT08VFUpGGio6Sis2N05ILlRUVFQuJC5VTjdSR0oCAgIaRkYVTywVGgIaRRAlExsXGBISEhISAQABEgEAAAAAAAAAAAAAAAAAAAAAAAAAAAAAAAAAAAAAAAAAAAAAAAAAAAAAAAAAAAAAAAAAAAAAAAAAAAAAAAAAAAAAAAAAAAAAAAAAAAAAAAAAAAAAAAAAAAAAAAAAAAAAAAAAAAAAAAAAAAAAAAAAAAAAAAAAAAAAAAAAAAAAAAAAAAAAAAAAAAAAAAAAAAAAAAAAAAAAAAAAAAAAAAAAAAAAAAAAAAAAAAAAAAAAAAAAAAAAAAAAAAAAAAAAAAAAAAAAAQEAABIYGBgSAQESGAoTIFEnLE8VLCxGSkpKSkpKShUtK1EOLlRvU1BLV1dXV0sTS0tNWVRVTk43Ul5PSkYVLCwsLBUVFS0hHBMbGAESEhIBARISEgAAAAAAAAAAAAAAAAAAAAAAAAAAAAAAAAAAAAAAAAAAAAAAAAAAAAAAAAAAAAAAAAAAAAAAAAAAAAAAAAAAAAAAAAAAAAAAAAAAAAAAAAAAAAAAAAAAAAAAAAAAAAAAAAAAAAAAAAAAAAAAAAAAAAAAAAAAAAAAAAAAAAAAAAAAAAAAAAAAAAAAAAAAAAAAAAAAAAAAAAAAAAAAAAAAAAAAAAAAAAAAAAAAAAAAAAAAAAAAAAAAAAAAAAAAAAAAAAEBAQAAARISAQESFxsUJA4rLEZKT0pKSkpKFU8VSkZKRR8cGVdXV1daNTUvLzU1NWw1NTVaWlp5V0tbSFInLEpKLC0tLBVGGhVSEBweGAESEhISEhIBAAAAAAAAAAAAAAAAAAAAAAAAAAAAAAAAAAAAAAAAAAAAAAAAAAAAAAAAAAAAAAAAAAAAAAAAAAAAAAAAAAAAAAAAAAAAAAAAAAAAAAAAAAAAAAAAAAAAAAAAAAAAAAAAAAAAAAAAAAAAAAAAAAAAAAAAAAAAAAAAAAAAAAAAAAAAAAAAAAAAAAAAAAAAAAAAAAAAAAAAAAAAAAAAAAAAAAAAAAAAAAAAAAAAAAAAAAAAAAAAAAAAAAAAAAAAAAAAARISAQESEgESFx4PHFEaAgIqGkoVSkpKSk9PRgJKUkhTDwsKTDsvLy8vNTU1Ly8vLy8vLy87OzQ7L1pcWFNUJCEtFRpGShVKRiosIRwTChIBEhISAQEAAAAAAAAAAAAAAAAAAAAAAAAAAAAAAAAAAAAAAAAAAAAAAAAAAAAAAAAAAAAAAAAAAAAAAAAAAAAAAAAAAAAAAAAAAAAAAAAAAAAAAAAAAAAAAAAAAAAAAAAAAAAAAAAAAAAAAAAAAAAAAAAAAAAAAAAAAAAAAAAAAAAAAAAAAAAAAAAAAAAAAAAAAAAAAAAAAAAAAAAAAAAAAAAAAAAAAAAAAAAAAAAAAAAAAAAAAAAAAAAAAQEAAAAAAAAAAAEBEhISEhISGBsZJiEtSkZKFS0nLSwVT09KT09PUk5UUGxMTExMOzsvLzVaWjU1Ly87NTVaNTU7Ozs7Ly8vfEsPHEhOf0dKRkZGRkpPRRAPChIBEhIBAAAAAAABAAEBAQEAAAAAAAAAAAAAAAAAAAAAAAAAAAAAAAAAAAAAAAAAAAAAAAAAAAAAAAAAAAAAAAAAAAAAAAAAAAAAAAAAAAAAAAAAAAAAAAAAAAAAAAAAAAAAAAAAAAAAAAAAAAAAAAAAAAAAAAAAAAAAAAAAAAAAAAAAAAAAAAAAAAAAAAAAAAAAAAAAAAAAAAAAAAAAAAAAAAAAAAAAAAAAAAAAAAAAAAAAAAAAAAAAAAEBAQYAAAAAAwMAARISEhcSEhcZJh8rLRoaRhUnUSQONixPT0pKR9WX4i0AACAASURBVDdTS3k1NTUvOzs7Ly8vLy89NTU1NTUvNTU9PTUvLzUvLzVaWmxsbFdNSElKRkZGRhVHKx8UChISGAEAAAEAARIBEhgSAQEAAAAAAAAAAAAAAAAAAAAAAAAAAAAAAAAAAAAAAAAAAAAAAAAAAAAAAAAAAAAAAAAAAAAAAAAAAAAAAAAAAAAAAAAAAAAAAAAAAAAAAAAAAAAAAAAAAAAAAAAAAAAAAAAAAAAAAAAAAAAAAAAAAAAAAAAAAAAAAAAAAAAAAAAAAAAAAAAAAAAAAAAAAAAAAAAAAAAAAAAAAAAAAAAAAAAAAAAAAAAAAAAAARISBgYAARISEgEBEhISGAoLDxAnGhpGLSEOJBwUBRwOLRpfR05UTVc7OzU1NTUvLy8vLy8vLy81NTU1NT09PT09MjIyMj09NVpaLzs7NXlcTVRORwIESixPLA4lHhcSARISAQABEgESGBIBAQEAAAAAAAAAAAAAAAAAAAAAAAAAAAAAAAAAAAAAAAAAAAAAAAAAAAAAAAAAAAAAAAAAAAAAAAAAAAAAAAAAAAAAAAAAAAAAAAAAAAAAAAAAAAAAAAAAAAAAAAAAAAAAAAAAAAAAAAAAAAAAAAAAAAAAAAAAAAAAAAAAAAAAAAAAAAAAAAAAAAAAAAAAAAAAAAAAAAAAAAAAAAAAAAAAAAAAAAAAAAAAAAABEhIBAQEBEhgSEgESGBcKFA4nLCwtJyEOIBQTHhsLJRAtT1JITVc1OzsvMlo1NTU1Ly8vLy81NTU1NTUyMjIyMjIyMjIyMjIyWlovNTV5NTs7V1NINl5KRhUsLCEmHhIBEhgSAQESEhISEgESAQAAAAAAAAAAAAAAAAAAAAAAAAAAAAAAAAAAAAAAAAAAAAAAAAAAAAAAAAAAAAAAAAAAAAAAAAAAAAAAAAAAAAAAAAAAAAAAAAAAAAAAAAAAAAAAAAAAAAAAAAAAAAAAAAAAAAAAAAAAAAAAAAAAAAAAAAAAAAAAAAAAAAAAAAAAAAAAAAAAAAAAAAAAAAAAAAAAAAAAAAAAAAAAAAAAAAAAAAAAAAAAAAESEhgYEhISAQESEhgeFCQhLUYaLCskJRkLGxcLJSQNRS03U1c1NTs7L1paWi8vLzU1NTU9MjIyMloyMlpaWlpaWlpaWlpaWlpaeVpaWlpaWlp5V0tNSElGRhVPLSsmCxIBEhcSAQESEgESEgEBAAAAAAAAAAAAAAAAAAAAAAAAAAAAAAAAAAAAAAAAAAAAAAAAAAAAAAAAAAAAAAAAAAAAAAAAAAAAAAAAAAAAAAAAAAAAAAAAAAAAAAAAAAAAAAAAAAAAAAAAAAAAAAAAAAAAAAAAAAAAAAAAAAAAAAAAAAAAAAAAAAAAAAAAAAAAAAAAAAAAAAAAAAAAAAAAAAAAAAAAAAAAAAAAAAAAAAAAAAAAAAAAAAESGBgSEhISAxIKGRwfkAICLFEkJRkLGxseCxwNLUo3VE1LNTU1Ly81Wlo9LzMvNTU1NTIyMjJaWlpaWlpaWlpaWlpaWlpaWlp5eXlaeXl5eXlaWldNLjYaRk9PSismCxgSGBISARISARISAQAAAAAAAAAAAAAAAAAAAAAAAAAAAAAAAAAAAAAAAAAAAAAAAAAAAAAAAAAAAAAAAAAAAAAAAAAAAAAAAAAAAAAAAAAAAAAAAAAAAAAAAAAAAAAAAAAAAAAAAAAAAAAAAAAAAAAAAAAAAAAAAAAAAAAAAAAAAAAAAAAAAAAAAAAAAAAAAAAAAAAAAAAAAAAAAAAAAAAAAAAAAAAAAAAAAAAAAAAAAAAAAAAAABISEgEBGBgYChRRLRUVJyEOHBMbGxseEyUOKyxJTlNLbDVsWlo1NTVaMj0vLzVaWlpaWlpaWlpaWlpaWlpaWlpaWlp5WlpaWlp5eXl5eXlkeXlaWldQVDdHFRVKRkUQExcSEhIBEhIBEhgSAQAAAAAAAAAAAAAAAAAAAAAAAAAAAAAAAAAAAAAAAAAAAAAAAAAAAAAAAAAAAAAAAAAAAAAAAAAAAAAAAAAAAAAAAAAAAAAAAAAAAAAAAAAAAAAAAAAAAAAAAAAAAAAAAAAAAAAAAAAAAAAAAAAAAAAAAAAAAAAAAAAAAAAAAAAAAAAAAAAAAAAAAAAAAAAAAAAAAAAAAAAAAAAAAAAAAAAAAAAAAAAAAAAAAQESAQEBChQkUS1PFScQJQsbChsTFBwkDUlKSUhQbGw1NTU1NS8vPTJaWlpaeWRaWlpaWlpaWlpaWlpaWlpaWlopWlpaKVpaWikyMjJaWlpaWlpaeXlkTQ1dGhpKT0UkGRISEhISARISEhISAAAAAAAAAAAAAAAAAAAAAAAAAAAAAAAAAAAAAAAAAAAAAAAAAAAAAAAAAAAAAAAAAAAAAAAAAAAAAAAAAAAAAAAAAAAAAAAAAAAAAAAAAAAAAAAAAAAAAAAAAAAAAAAAAAAAAAAAAAAAAAAAAAAAAAAAAAAAAAAAAAAAAAAAAAAAAAAAAAAAAAAAAAAAAAAAAAAAAAAAAAAAAAAAAAAAAAAAAAAAAAAAAAEABgEBGBsUDSwCGi0fHBQeFwoeDxwkDUmQSjdUE2xMTDs1NTU1NTUyWlpaWlp5eVpaWlpaWlpaWlpaWlpaWlpaWikpKSkpWlpaWlpaMjJaWlpaMlpaWlpXTU5dX2pqSickCxgBEhISEgEBEhIAAAAAAAAAAAAAAAAAAAAAAAAAAAAAAAAAAAAAAAAAAAAAAAAAAAAAAAAAAAAAAAAAAAAAAAAAAAAAAAAAAAAAAAAAAAAAAAAAAAAAAAAAAAAAAAAAAAAAAAAAAAAAAAAAAAAAAAAAAAAAAAAAAAAAAAAAAAAAAAAAAAAAAAAAAAAAAAAAAAAAAAAAAAAAAAAAAAAAAAAAAAAAAAAAAAAAAAAAAAAAAAAAAQEBEhgeJicVLC0rHyULGwoXHhQkEB8tRi03b0tMTC80NDtaWlp5eXl5eVpaWlp5WlpaWlpaKSlaKSlaKSkpKSkpKSkpKSkpMjJ5eVpaMjJaWloyWlpaWlpaTU5HfWpdSiskHhIBEhISAQESAQAAAAAAAAAAAAAAAAAAAAAAAAAAAAAAAAAAAAAAAAAAAAAAAAAAAAAAAAAAAAAAAAAAAAAAAAAAAAAAAAAAAAAAAAAAAAAAAAAAAAAAAAAAAAAAAAAAAAAAAAAAAAAAAAAAAAAAAAAAAAAAAAAAAAAAAAAAAAAAAAAAAAAAAAAAAAAAAAAAAAAAAAAAAAAAAAAAAAAAAAAAAAAAAAAAAAAAAAAAAAAAAAABARIKGSQrRkZGISAZCx4bHg8cJBAhSUpKDlBXNTU1NS87L1paWlpaWjIyKSkpWlpaKSkpKSkpKSkpKSkpKSkpKSkpKSkpKSlaWlpaMjIpKSkpMFpaKSlaWlpaUDddfV1KSiscHhISEgEBEgEBAAAAAAAAAAAAAAAAAAAAAAAAAAAAAAAAAAAAAAAAAAAAAAAAAAAAAAAAAAAAAAAAAAAAAAAAAAAAAAAAAAAAAAAAAAAAAAAAAAAAAAAAAAAAAAAAAAAAAAAAAAAAAAAAAAAAAAAAAAAAAAAAAAAAAAAAAAAAAAAAAAAAAAAAAAAAAAAAAAAAAAAAAAAAAAAAAAAAAAAAAAAAAAAAAAAAAAAAAAAAAAAAARISFw8QLBoqLSQUGR4bGwsUJA5OTkk6R1VQVzU1NVo1NT09MlpaWloyMjJaWlpaWikpKSkpKSkpKSkpKSkpKQgICAgICAgICHl5WloyWikpCDAwZCkpKVpaWlpkW048SkoaFVElChgSARISAQEAAAAAAAAAAAAAAAAAAAAAAAAAAAAAAAAAAAAAAAAAAAAAAAAAAAAAAAAAAAAAAAAAAAAAAAAAAAAAAAAAAAAAAAAAAAAAAAAAAAAAAAAAAAAAAAAAAAAAAAAAAAAAAAAAAAAAAAAAAAAAAAAAAAAAAAAAAAAAAAAAAAAAAAAAAAAAAAAAAAAAAAAAAAAAAAAAAAAAAAAAAAAAAAAAAAAAAQEAAAAAAAABGApLSEZGFUUQEwobCwsLJUgOH1FSXUdIXDU1NTU1WloyMjIyeXlaMjIyWlpkZGRaKSkpKSkpKSkpKSkpKSkpFjAwMDAwMDAweXl5eXl5KQgwMDBkMDB5WjI9WmR5WVJdkBUVRh8UCgEBEhISAQAAAAAAAAAAAAAAAAAAAAAAAAAAAAAAAAAAAAAAAAAAAAAAAAAAAAAAAAAAAAAAAAAAAAAAAAAAAAAAAAAAAAAAAAAAAAAAAAAAAAAAAAAAAAAAAAAAAAAAAAAAAAAAAAAAAAAAAAAAAAAAAAAAAAAAAAAAAAAAAAAAAAAAAAAAAAAAAAAAAAAAAAAAAAAAAAAAAAAAAAAAAAAAAAABAAEYEgEBAQEAARIXGUhJkBUtJBMKChsZFCAkEB8fNkddSFB8NS8vLy89MlpaWnl5eXkpKSkpWnlkZGRaKSkpKSkyMikpKWQpKSkWMDAwMDAwMDBaWnl5eVopMDAwMDAwFilaZFpaWlpkVlJKFUpGLQ4LGBgYEgEBAAAAAAAAAAAAAAAAAAAAAAAAAAAAAAAAAAAAAAAAAAAAAAAAAAAAAAAAAAAAAAAAAAAAAAAAAAAAAAAAAAAAAAAAAAAAAAAAAAAAAAAAAAAAAAAAAAAAAAAAAAAAAAAAAAAAAAAAAAAAAAAAAAAAAAAAAAAAAAAAAAAAAAAAAAAAAAAAAAAAAAAAAAAAAAAAAAAAAAAAAAAAAAAAARISARISAQABAQEBGBMkLAQVRSQFGwoKCyUkHw4OHw0rSWhQfDUvLy8vLz0yWlpaeVpaWlpaWilaWlpkZFpaWlopKTIpWikpWikpKQgwMDAwMDAwMClaWnlaWikwMDAwMDAwFilkZHlaWlpcaFJGFUoELCALFxISAQEAAAAAAAAAAAAAAAAAAAAAAAAAAAAAAAAAAAAAAAAAAAAAAAAAAAAAAAAAAAAAAAAAAAAAAAAAAAAAAAAAAAAAAAAAAAAAAAAAAAAAAAAAAAAAAAAAAAAAAAAAAAAAAAAAAAAAAAAAAAAAAAAAAAAAAAAAAAAAAAAAAAAAAAAAAAAAAAAAAAAAAAAAAAAAAAAAAAAAAAAAAAAAAAABEhgSAQEBAQESARIKIBVKRicQGRsKCh4PJh8fHw4fUl5OXDU1Ly8vLy89MjJaWlp5WjIpZGRkWloyWlpaKSlkZFopKSlkKSkpKSkpKQgwMDAwMDAwWlpaWlpaKTAwMDAwMDAwCClaWnl5MlpQVScsSkZKLSYKGBISAQAAAAAAAAAAAAAAAAAAAAAAAAAAAAAAAAAAAAAAAAAAAAAAAAAAAAAAAAAAAAAAAAAAAAAAAAAAAAAAAAAAAAAAAAAAAAAAAAAAAAAAAAAAAAAAAAAAAAAAAAAAAAAAAAAAAAAAAAAAAAAAAAAAAAAAAAAAAAAAAAAAAAAAAAAAAAAAAAAAAAAAAAAAAAAAAAAAAAAAAAAAAAAAAAABEhgSARISEhIBFxQNKiwsEBQeCgoLFCQODg4ODk5JN29sOzU9Lz09PTIyWlpaWil5eVopWlpaMlpaWjIyMikyKSkpKSlaWlopKSkpKSkpKSkpKSlaWlpaWikWMDAwMDAwMDAyMjI9PTU1NTVQEC0aFRUaDRQeFxIAAAAAAAAAAAAAAAAAAAAAAAAAAAAAAAAAAAAAAAAAAAAAAAAAAAAAAAAAAAAAAAAAAAAAAAAAAAAAAAAAAAAAAAAAAAAAAAAAAAAAAAAAAAAAAAAAAAAAAAAAAAAAAAAAAAAAAAAAAAAAAAAAAAAAAAAAAAAAAAAAAAAAAAAAAAAAAAAAAAAAAAAAAAAAAAAAAAAAAAAAAAAAAAAAAAASGBIBEhISEhIeECdGLR8lGwoKGxQkHxAQDg4NNjdUXDU1NS8vPT0yMlpaWlpaKVpaWlpaWlpaWlpaMlpaMj0yWlpaWlpaWlopKSkpKSkpKSkpKVpaWlopKQgwMDAwMBYWFjI9MjIvLy87O2wUUSxGFUZFEBMXAQAAAAAAAAAAAAAAAAAAAAAAAAAAAAAAAAAAAAAAAAAAAAAAAAAAAAAAAAAAAAAAAAAAAAAAAAAAAAAAAAAAAAAAAAAAAAAAAAAAAAAAAAAAAAAAAAAAAAAAAAAAAAAAAAAAAAAAAAAAAAAAAAAAAAAAAAAAAAAAAAAAAAAAAAAAAAAAAAAAAAAAAAAAAAAAAAAAAAAAAAAAAAAAAAAAAQESAQEBAQEYFw8rFSw2HAsKCgsUJFEfEA4NDX9JVVA1NTUvLy89MjJaWlpaWlopMjIyWnlkWlpaZGRaWnl5MlpkZHl5WlopWlpaWlpaKSlaKSkpWlpaKSkpKQgwMDAwCCkyMjJaMj0vLy87TAsmKxpGShorBRcSAAAAAAAAAAAAAAAAAAAAAAAAAAAAAAAAAAAAAAAAAAAAAAAAAAAAAAAAAAAAAAAAAAAAAAAAAAAAAAAAAAAAAAAAAAAAAAAAAAAAAAAAAAAAAAAAAAAAAAAAAAAAAAAAAAAAAAAAAAAAAAAAAAAAAAAAAAAAAAAAAAAAAAAAAAAAAAAAAAAAAAAAAAAAAAAAAAAAAAAAAAAAAAAAAAEBAQEAARISEhcTJi0aUiQTGx4LFBAhKyshIStFT1JQNTVaNTsvPTIyWlp5eXlaWlpaWlp5eXlaMjVaWloyWmRaWlo1NVpaWlpaWlpaWlpaWlpaWlopKSkpKSkpKSkIKSkpKVpaWj07OzV8V0tLGSUOLSxPGiwkExgBAAAAAAAAAAAAAAAAAAAAAAAAAAAAAAAAAAAAAAAAAAAAAAAAAAAAAAAAAAAAAAAAAAAAAAAAAAAAAAAAAAAAAAAAAAAAAAAAAAAAAAAAAAAAAAAAAAAAAAAAAAAAAAAAAAAAAAAAAAAAAAAAAAAAAAAAAAAAAAAAAAAAAAAAAAAAAAAAAAAAAAAAAAAAAAAAAAAAAAAAAAAAAAAAAQEBARISGBISFyUhLJAhIA8PJRwkRS0sLCwtLUpHTktMNTU1Oy8yMlpaWlp5eVpaWlp5Wnl5WjI9NTVaWjIyWlpaWjU1Wlo1NVpaWlpaWlpaWlpaWikpKSkpKSkpKSkpKTIyWmRaLzVXUFMgLi4mJFEtLBVKLCslGAEAAAAAAAAAAAAAAAAAAAAAAAAAAAAAAAAAAAAAAAAAAAAAAAAAAAAAAAAAAAAAAAAAAAAAAAAAAAAAAAAAAAAAAAAAAAAAAAAAAAAAAAAAAAAAAAAAAAAAAAAAAAAAAAAAAAAAAAAAAAAAAAAAAAAAAAAAAAAAAAAAAAAAAAAAAAAAAAAAAAAAAAAAAAAAAAAAAAAAAAAAAAAAAAAAAQESEhgXEhIKICwtTyEkJA1FLS0tSkYsLBVKGitoVzU1NS8vPTIyWlpaWlp5WlpaWlp5WlpaPS81WldkZHlaWnlkWlpkMi8vMlpaWlpaWlpaWlpaKSkpKSkpKSkpKSkpMjJ5eVo1XFQNSSwsLCwsLSwVRhUtGiQKEgAAAAAAAAAAAAAAAAAAAAAAAAAAAAAAAAAAAAAAAAAAAAAAAAAAAAAAAAAAAAAAAAAAAAAAAAAAAAAAAAAAAAAAAAAAAAAAAAAAAAAAAAAAAAAAAAAAAAAAAAAAAAAAAAAAAAAAAAAAAAAAAAAAAAAAAAAAAAAAAAAAAAAAAAAAAAAAAAAAAAAAAAAAAAAAAAAAAAAAAAAAAAAAAAAAARISEhgYFxMQRixPSTZFLJAaShVKFS0rRSxKSVVXOzUvLy8yWlpaWlpaWlp5eXl5eXk1LzsvWlxTaEhIVVlYZDVaWmRaMlpaWlpaWlpaWlpaWlopKSkpKSkpKSkpKSlaWmRaNVdvNl0qGk9GGhUsLEZGSiwaISUKAAAAAAAAAAAAAAAAAAAAAAAAAAAAAAAAAAAAAAAAAAAAAAAAAAAAAAAAAAAAAAAAAAAAAAAAAAAAAAAAAAAAAAAAAAAAAAAAAAAAAAAAAAAAAAAAAAAAAAAAAAAAAAAAAAAAAAAAAAAAAAAAAAAAAAAAAAAAAAAAAAAAAAAAAAAAAAAAAAAAAAAAAAAAAAAAAAAAAAAAAAAAAAAAAAABAQESFwsUJiFGFRUVkAIChEUhECAcHCUcEEUsEFc7LzUvL1paWlpaWlpaWnl5eXl5Wi87bFxTaA1JXTxHN05TV1paWnlaWlpaWlpaWlpaWlpaWikpKSkpKSkpKSkpKTJaWjU1UA4qBAQaSiMjRhVKRkpKSkYsDR4AAAAAAAAAAAAAAAAAAAAAAAAAAAAAAAAAAAAAAAAAAAAAAAAAAAAAAAAAAAAAAAAAAAAAAAAAAAAAAAAAAAAAAAAAAAAAAAAAAAAAAAAAAAAAAAAAAAAAAAAAAAAAAAAAAAAAAAAAAAAAAAAAAAAAAAAAAAAAAAAAAAAAAAAAAAAAAAAAAAAAAAAAAAAAAAAAAAAAAAAAAAAAAAAAAAEBARgLJkUsFRUVFZAVLEVRJBwUHgoKCgscIQQ3SzsvNTU9WlpaKSkyWlpaeXl5eVo1O1dNTkddSkpdXV1dSk5NVzVaWnl5WlpaWlpaWlpaWlpaKSkpKSkpKSkpKSkpMjJaNXlvN0k3Tg03NzZJT0ZKFRVGFRorCxIBAQEAAAABAQMDAAAAAAAAAAAAAAAAAAAAAAAAAAAAAAAAAAAAAAAAAAAAAAAAAAAAAAAAAAAAAAAAAAAAAAAAAAAAAAAAAAAAAAAAAAAAAAAAAAAAAAAAAAAAAAAAAAAAAAAAAAAAAAAAAAAAAAAAAAAAAAAAAAAAAAAAAAAAAAAAAAAAAAAAAAAAAAAAAAABAQEBAQEBAQEABgAAARISHiQrGhpGFU8VT0kNIAUeGxsbGxsbExwhAlJQbDU7L1opKSlaWlpaWlp5eVc1OzVLbw1HOkpKSkpqfX0qK2hXNVpaKSkpKSkpKVpaWlpaWlpaWikpKSkpKSkpKVopKSkyZFRIVFBcZFxQTVU3XUYVTxUVGiclChISEgEAARISAQMDAAAAAAAAAAAAAAAAAAAAAAAAAAAAAAAAAAAAAAAAAAAAAAAAAAAAAAAAAAAAAAAAAAAAAAAAAAAAAAAAAAAAAAAAAAAAAAAAAAAAAAAAAAAAAAAAAAAAAAAAAAAAAAAAAAAAAAAAAAAAAAAAAAAAAAAAAAAAAAAAAAAAAAAAAAAAAAAAAAEBAQEBAQEBAQYGBhISEhscRQRGShVGFSsNLhQLChcKHhkFBRQlJDYCRVNXNTQ7WikWMDBaWlpaWlpaNTs1S1Q2TxoaX0pJNjcNTn83VFcvWikpCAgICAgIKSlaWlpaWlpaKSkpKSkpKSlaWikpKTJ5W1NQWjIyMlpXUE1UTl4aT08aLSQTGBISAQABEhISMQMDAAAAAAAAAAAAAAAAAAAAAAAAAAAAAAAAAAAAAAAAAAAAAAAAAAAAAAAAAAAAAAAAAAAAAAAAAAAAAAAAAAAAAAAAAAAAAAAAAAAAAAAAAAAAAAAAAAAAAAAAAAAAAAAAAAAAAAAAAAAAAAAAAAAAAAAAAAAAAAAAAAAAAAAAAAAAAAAAAQEBAQEBAQEBBgYBGBgXJSEsGkYVFSwrSCUZGxcKHhkUHCYkDh8NRQJJb1cvOy9aKRYwMAgpWlpaNS87TEsuUhVHRydSIUhUb1NTaGhbWjVaKQgwMDAwMDAwCClaeXl5WlpaWlpaWlpaWlpaMil5MlpkZFopKSkyMjI1NVdTDissFUosURQXAQYGAQESEhIxAwMAAAAAAAAAAAAAAAAAAAAAAAAAAAAAAAAAAAAAAAAAAAAAAAAAAAAAAAAAAAAAAAAAAAAAAAAAAAAAAAAAAAAAAAAAAAAAAAAAAAAAAAAAAAAAAAAAAAAAAAAAAAAAAAAAAAAAAAAAAAAAAAAAAAAAAAAAAAAAAAAAAAAAAAAAAAAAAAABAQEBAQEBAQEGBgEBFwtITyxKShVGISATGwobExQcJiQQEB9RUQ0rhElUS2w1WloyFjAWKSlaWnk1OztXbzZdShVJECVQUEtLS1dcUGRaWlopKQgwMDAwMDAIKVpaWlpaWlpaWlpaWlpaWloyKWRaMlpaKSlaWjJaWi81VxlQHEUaFRUtIAoSAAABEgExMTEDAwAAAAAAAAAAAAAAAAAAAAAAAAAAAAAAAAAAAAAAAAAAAAAAAAAAAAAAAAAAAAAAAAAAAAAAAAAAAAAAAAAAAAAAAAAAAAAAAAAAAAAAAAAAAAAAAAAAAAAAAAAAAAAAAAAAAAAAAAAAAAAAAAAAAAAAAAAAAAAAAAAAAAAAAAAAAAAAAAEBAQEBAQEBAQYGBgAKHCFKLBUaLR8cEwoKHg8gEB8NDg4fDQ0NHytGSVRLbHxaMjIWMAgpKVp5Wi87NVM3SjxJTm8PS1dXbHx8NVpaeVpaWikpKRYwMDAwFikpWlpaWlpaWlpaWlpaWlpaWikpZFpaWlpaKXl5KWRkWlp5V1dLbzdGFQIkGxIAABISAQMxMQMDAAAAAAAAAAAAAAAAAAAAAAAAAAAAAAAAAAAAAAAAAAAAAAAAAAAAAAAAAAAAAAAAAAAAAAAAAAAAAAAAAAAAAAAAAAAAAAAAAAAAAAAAAAAAAAAAAAAAAAAAAAAAAAAAAAAAAAAAAAAAAAAAAAAAAAAAAAAAAAAAAAAAAAAAAAAAAAAAAQEBAQEBAQEBBgYBEgshLCwsFSwhHAsKCgsUJB9RDQ4QDh8fHw4NK19Jb0s1V1oyMggwCCkpeXlaOzVLSF8aXU5NV2xsV1daV1daNTVaeVopKQgIMDAwMDApKSkpWlpaWlpaWlpaWlpaWlpaKSlkWlpkZGRaWlopZGRaWmRafHxLVCxPAhALGAEGEhIBAwEDAwAAAAAAAAAAAAAAAAAAAAAAAAAAAAAAAAAAAAAAAAAAAAAAAAAAAAAAAAAAAAAAw7KV0gAAIABJREFUAAAAAAAAAAAAAAAAAAAAAAAAAAAAAAAAAAAAAAAAAAAAAAAAAAAAAAAAAAAAAAAAAAAAAAAAAAAAAAAAAAAAAAAAAAAAAAAAAAAAAAAAAAAAAAAAAAABAQEBAQEBAQEGABIKJSdGFUYaISAFGwoZHCQODR8QEBAOHw0fDSEnBCslVzVXWjIpKSkpKVp5eVoveW82Al03TWx5eTVaeXl5eXkyPTJaWikIMDAwMDAwFikpKSkpKVpaWlpaWlpaWlpaWlpaWlpaKVp5eTJaWlpkZCkpWlp8fHwlN08CDQ8KEhIBAQABAQAAAAAAAAAAAAAAAAAAAAAAAAAAAAAAAAAAAAAAAAAAAAAAAAAAAAAAAAAAAAAAAAAAAAAAAAAAAAAAAAAAAAAAAAAAAAAAAAAAAAAAAAAAAAAAAAAAAAAAAAAAAAAAAAAAAAAAAAAAAAAAAAAAAAAAAAAAAAAAAAAAAAAAAAAAAAAAAAAAAAEBAQEBAQEBAQYAEgsuLRpKSk8QFB4bExwQHw0NHxAQDh8NDQ0NIScEK01XNVp5WikpKSlaWnlaWjJcTkdKf2hcWlpaWlpaeVp5eTIyMikpKRYwMDAwMDAIKSkpKSkpWlpaWlpaWlpaWlpaWlpaWlopWlpaKVpaWlp5WlpaMlpXS1AuSQIhHBsSEgEAAAEBAAAAAAAAAAAAAAAAAAAAAAAAAAAAAAAAAAAAAAAAAAAAAAAAAAAAAAAAAAAAAAAAAAAAAAAAAAAAAAAAAAAAAAAAAAAAAAAAAAAAAAAAAAAAAAAAAAAAAAAAAAAAAAAAAAAAAAAAAAAAAAAAAAAAAAAAAAAAAAAAAAAAAAAAAAAAAAAAAAAAAQEBAQEBAQEBBgASDw1PGhosISATCgsgDg0NHx8fHx8fDQ0NDQ1RRV8rTXw1WnlaWlpaWlp5WlpaeVhSPFJVWFxkWjJaWlovPVp5WikpKSkpMDAIMDAwCCkpKSkpKSkpWlpaWlpaWlpaWlpaWlpaWloyWlopWlopFjBkZFoyMnlcS002AiskCxgSAQAAARIBAAAAAAAAAAAAAAAAAAAAAAAAAAAAAAAAAAAAAAAAAAAAAAAAAAAAAAAAAAAAAAAAAAAAAAAAAAAAAAAAAAAAAAAAAAAAAAAAAAAAAAAAAAAAAAAAAAAAAAAAAAAAAAAAAAAAAAAAAAAAAAAAAAAAAAAAAAAAAAAAAAAAAAAAAAAAAAAAAAABAQEBAQEBAQEGABgcJ08sRkUgGR4TJRBRUR8OEA4ODg4OHx8fDSEnX1JQfFpaWjJaWnlaWnlaWnl5W0kqSFxaMjJaWilaeVpaWnl5WikpKTAwMBYwMAgpKSkpKSkpKSlaWlpaWlpaWlpaWlpaWlpaWlpaZFpaWikWMDAwMClaWlo1XDdGRx8LGBIBAAEBAQAAAAAAAAAAAAAAAAAAAAAAAAAAAAAAAAAAAAAAAAAAAAAAAAAAAAAAAAAAAAAAAAAAAAAAAAAAAAAAAAAAAAAAAAAAAAAAAAAAAAAAAAAAAAAAAAAAAAAAAAAAAAAAAAAAAAAAAAAAAAAAAAAAAAAAAAAAAAAAAAAAAAAAAAAAAAAAAAAAAAEBAQEBAQEBAQYAGCAaFSxGKxQbGxQkDg0NDhAQEBAQEA4ODg4NNi1fN1w1WlpaMlpaeXlaWlpaeVxTSVJZWjIyWlpaKWRkeSlaWlopKSkWMDAwCAgIKSkpKSkpKSkpKVpaWlpaWlpaWlpaWlpaWlpaWmRkWlpaKQgWFjAwKVpaNS9XSElKNhMSEgEBAQEBAAAAAAAAAAAAAAAAAAAAAAAAAAAAAAAAAAAAAAAAAAAAAAAAAAAAAAAAAAAAAAAAAAAAAAAAAAAAAAAAAAAAAAAAAAAAAAAAAAAAAAAAAAAAAAAAAAAAAAAAAAAAAAAAAAAAAAAAAAAAAAAAAAAAAAAAAAAAAAAAAAAAAAAAAAAAAAAAAAAAAQEBAQEBAQEBAQYXJgJKTxVRGRsLHA4ODg4ODhAQEA4OEBAQEB9SLEpOSzV5WlpaWlpkeXlaWlpkXFM3VVBaWnlkWjIWZGQwMBYyKSkpKTAwMBYpKSkpKSkpKSkpKSkpWlpaWlpaWlpaWlpaWloyWlpaZGQpMjJaKTAIFhYpWmRaOzVvNypSExISAQESEhIBAAAAAAAAAAAAAAAAAAAAAAAAAAAAAAAAAAAAAAAAAAAAAAAAAAAAAAAAAAAAAAAAAAAAAAAAAAAAAAAAAAAAAAAAAAAAAAAAAAAAAAAAAAAAAAAAAAAAAAAAAAAAAAAAAAAAAAAAAAAAAAAAAAAAAAAAAAAAAAAAAAAAAAAAAAAAAAAAAAABAAEYEgEBEhgBGB4QAkZGJxAeGyUkHx8fHx8ODg4ODg4ODg4ODSssJ0hLNTJaWilaWnl5eXkyMjJkU1VYeXlaWjAwFjAwMDAwFhYWFilaeXkpKSkpMjJaWilaZGQpKWRaWmRaMj1aWjJaWjJaWlpaWlpaWlpaWlopMGQpKSkpWlovWlk3AisZGBgSEgEBAQEAAAAAAAAAAAAAAAAAAAAAAAAAAAAAAAAAAAAAAAAAAAAAAAAAAAAAAAAAAAAAAAAAAAAAAAAAAAAAAAAAAAAAAAAAAAAAAAAAAAAAAAAAAAAAAAAAAAAAAAAAAAAAAAAAAAAAAAAAAAAAAAAAAAAAAAAAAAAAAAAAAAAAAAAAAAAAAAAAAAEBEhIYEgESGBIXGQ4CRkYrJh4LIA4NHx8fHw4ODg4ODg4OHx9RRU9SaGQyMlpaKSlaWnl5eVoyMldQTVx5eVopMDAwMDAwMBYWMBYpWmRkeXlaKSkpPVpaWlpkZCkpWikpeVoyMlpaWnl5WlpaWlpaWlpaWlpaWlowZGRkKSkyMj1aW04ESRQKGBIBAQEBAQEAAAAAAAAAAAAAAAAAAAAAAAAAAAAAAAAAAAAAAAAAAAAAAAAAAAAAAAAAAAAAAAAAAAAAAAAAAAAAAAAAAAAAAAAAAAAAAAAAAAAAAAAAAAAAAAAAAAAAAAAAAAAAAAAAAAAAAAAAAAAAAAAAAAAAAAAAAAAAAAAAAAAAAAAAAAAAAAABEhISARIYEhISARcZHwJKRiEgExkkHx8OHx8fDg4ODg4ODg4fHyFJSjdZZDIyWmQpKSkpWnl5eXlaWlpkeXl5WlowMDAwMDAwFil5KSl5ZGRaUFxaWloyMilkWikpKSkpKSlaWlpaWlpkZGR5WlpaWlpaWlpaWlpaZGQpWFtkeVoyWnlQSCotHB4YEgESAQESAQAAAAAAAAAAAAAAAAAAAAAAAAAAAAAAAAAAAAAAAAAAAAAAAAAAAAAAAAAAAAAAAAAAAAAAAAAAAAAAAAAAAAAAAAAAAAAAAAAAAAAAAAAAAAAAAAAAAAAAAAAAAAAAAAAAAAAAAAAAAAAAAAAAAAAAAAAAAAAAAAAAAAAAAAAAAAAAAAEYGAESEhIYGBIBFxMOAkpGDRwZFBANHw4OHx8ODg4ODg4ODh8fISdGTlh5WjJkZCkpKSkpKSlaWnlaMjVaWlpaWjAwMDAwMDAIKXkpKWRaWlpTb1x5WlopKXlaMikpKTIpWjJaZFoyMlpaWlpaWlpaWlpaWlpaWlpkWjJbVVhkeVpaWldUAk9VSxgBAQESEgEBAAAAAAAAAAAAAAAAAAAAAAAAAAAAAAAAAAAAAAAAAAAAAAAAAAAAAAAAAAAAAAAAAAAAAAAAAAAAAAAAAAAAAAAAAAAAAAAAAAAAAAAAAAAAAAAAAAAAAAAAAAAAAAAAAAAAAAAAAAAAAAAAAAAAAAAAAAAAAAAAAAAAAAAAAAAAAAAAARgSAQESEhgYAQAXFA0CFUYQFA8cHw0fEA4fHw4ODg4ODg4OHx8hRxpVZFpaWmRkKRYICCkpKSlaWloyPVpaWlopFjAwMDAwMClaWlpaeVoyWlNVW3laZHlaWjIyKSkyMlpaWlpaWlp5WlpaWlpaWlpaWlpaWlpaWnlaMlhIaFB5eWRaWm8CT0hQEgMDARIYAQAAAAAAAAAAAAAAAAAAAAAAAAAAAAAAAAAAAAAAAAAAAAAAAAAAAAAAAAAAAAAAAAAAAAAAAAAAAAAAAAAAAAAAAAAAAAAAAAAAAAAAAAAAAAAAAAAAAAAAAAAAAAAAAAAAAAAAAAAAAAAAAAAAAAAAAAAAAAAAAAAAAAAAAAAAAAAAAAABEhIBARIYGBIBARsmK5AVGiQFFCYNUR8ODh8ODg4ODg4ODg4OHyFHSlRaWlpaZGQIFjAwCCkyKSlaWlpaWlpaKSkpFjAwMDAwWlpaWlp5Mj0yWEhIZDVkZFoyMjIpMjIpWlpaWjIyXFtcWjJaWlpaWlpaWlpaWlpaeVo9XFU3WWRkV3xabwRPTlAYAwEBGBgBAAAAAAAAAAAAAAAAAAAAAAAAAAAAAAAAAAAAAAAAAAAAAAAAAAAAAAAAAAAAAAAAAAAAAAAAAAAAAAAAAAAAAAAAAAAAAAAAAAAAAAAAAAAAAAAAAAAAAAAAAAAAAAAAAAAAAAAAAAAAAAAAAAAAAAAAAAAAAAAAAAAAAAAAAAAAAAAAAAABEhIBARIYEgEXBSEsFRUaJAUlJA0NHw4ODg4ODg4ODg4fHx8NISxPb1oyMikpKTAWMDAwFhYpWlpaWmRaWlpaKSkpFjAwMClaWjIyMjUvLz1kVjdQbFpkZFopKSkyMlpaWloyPTJbTmhkMlpaWlpaWlpaWlpaWlpaNS95WVJVUFpaWlpvX09OFBcSEhgYEhIBAAAAAAAAAAAAAAAAAAAAAAAAAAAAAAAAAAAAAAAAAAAAAAAAAAAAAAAAAAAAAAAAAAAAAAAAAAAAAAAAAAAAAAAAAAAAAAAAAAAAAAAAAAAAAAAAAAAAAAAAAAAAAAAAAAAAAAAAAAAAAAAAAAAAAAAAAAAAAAAAAAAAAAAAAAAAAAAAAAESEgEBARISFxkkLUoVFQQkFBwkDQ0fDg4ODg4ODg4ODh8fHw0hLEVvWjIyKSkIMDAwMDAwMClaWlpaWlpaWlpaKSkpFhYIKXlaMj01Ly87LzVYNlRLNVpkeVopKSlaWlpaWjI9MllJN1w9WlpaWlpaWlpaWlpaWjU1NVpYUg1NNTU1bG9dTw0UFxISFxgSEgEAAAAAAAAAAAAAAAAAAAAAAAAAAAAAAAAAAAAAAAAAAAAAAAAAAAAAAAAAAAAAAAAAAAAAAAAAAAAAAAAAAAAAAAAAAAAAAAAAAAAAAAAAAAAAAAAAAAAAAAAAAAAAAAAAAAAAAAAAAAAAAAAAAAAAAAAAAAAAAAAAAAAAAAAAAAAAAAABEhIBAQESEgoZECwsT08VQBAUIBAfHx8ODg4ODg4ODg4OHx8fDSssN1NaMjIpCBYwMDAwMDAwKSkpKSlaWlpaWlpaKSkpKSkpZFovLzU7Ozs7NFc3NlM1NXlkeVopWmQpZGQyMjIyW39SUDJaWlpaWlpaWloyMjIyNTU1WlA3SVRaNTVsb0dPNhQYARgYEgEBAQAAAAAAAAAAAAAAAAAAAAAAAAAAAAAAAAAAAAAAAAAAAAAAAAAAAAAAAAAAAAAAAAAAAAAAAAAAAAAAAAAAAAAAAAAAAAAAAAAAAAAAAAAAAAAAAAAAAAAAAAAAAAAAAAAAAAAAAAAAAAAAAAAAAAAAAAAAAAAAAAAAAAAAAAAAAAAAAAESEgESEhIeJQ5FFUYVFUoaECUmDh8fDg4ODg4ODg4ODg4fHx8NIUdOW1oyMikIFjAwMDAwFjIyMikpWjJaWlpaWlopKSkpKSlkWi8vOzsvNUwxbBBJVUtaWmR5WikwMClkZFpaMjJQVVJWZFpaWlpaWlpaWjIyMjUvLzVaUEhJTlBaNWxTSU9JHBcSEhIBAQEAAAAAAAAAAAAAAAAAAAAAAAAAAAAAAAAAAAAAAAAAAAAAAAAAAAAAAAAAAAAAAAAAAAAAAAAAAAAAAAAAAAAAAAAAAAAAAAAAAAAAAAAAAAAAAAAAAAAAAAAAAAAAAAAAAAAAAAAAAAAAAAAAAAAAAAAAAAAAAAAAAAAAAAAAAAAAAAAAAQESEhIXGxwhSiwsSkpKSkYOJSQfHx8OEA4ODg4ODg4ODh8fHw02R0hYWjIyKQgWMDAwMDApKTIpWlpaKVpaWlpaWlopKSkpKWRaLzs7LzU1TExsUzc3b1daWnl5KSkpWlpaWlpaWlxWUk5bWlpaWlpaWlpaMjIyNTs7NWxLbzdSVEs1NVMrT0oOGRcSAQEBEgEAAwMDAwMDAwMDAwMAAAAAAAAAAAAAAAAAAAAAAAAAAAAAAAAAAAAAAAAAAAAAAAAAAAAAAAAAAAAAAAAAAAAAAAAAAAAAAAAAAAAAAAAAAAAAAAAAAAAAAAAAAAAAAAAAAAAAAAAAAAAAAAAAAAAAAAAAAAAAAAAAAAAAAAABAAAAAQEGBhIYGBscIRVPT11dXUpKRg4cJB8fHw4QDh8fDh8fDg4fHx8fDSsnVVhaMjIpFjAJFhYwZFopKSlkZFopWlpaWlpaWlopKSlaZFo9Oy81NTU1NTVLVUdOWFo1WnlaMilkWlpaMlpkZFtSXVVkWlpaWlpaWloyMjI1Ozs1bFdQSF03TXxaU1JPGk9OExIBABIYEgEDAwMBAwEDAwMDAQEBAQEAAAAAAAAAAAAAAAAAAAAAAAAAAAAAAAAAAAAAAAAAAAAAAAAAAAAAAAAAAAAAAAAAAAAAAAAAAAAAAAAAAAAAAAAAAAAAAAAAAAAAAAAAAAAAAAAAAAAAAAAAAAAAAAAAAAEBAQEBAQEAAzEDARIBAAEBAQYBARIeHCEskF1dZWVlXZsaHxwgEA0fDh9OHw1ODVENDg4fHx8NKydVWGRaKTAWFjAwFikpKSkpKSlaWlpaWlpaWlpaWikpKSlkZFovLy8vNTU1NWxTUklVUDVaeXkpKSlkWilaWlopXFICN1tkWldaWnl5eVoyKVo1NXxsbB4gXUlvV3xNNk8aGkdIGRIAARISAQEDARISAQMDMRIBARIBAQEBAQAAAAAAAAAAAAAAAAAAAAAAAAAAAAAAAAAAAAAAAAAAAAAAAAAAAAAAAAAAAAAAAAAAAAAAAAAAAAAAAAAAAAAAAAAAAAAAAAAAAAAAAAAAAAAAAAAAAAAAAAYGBgYGAQEBAQEBARIxMRISEgEBAQEBARISFyUhkJBKXWVJN15lTxofHBwkISEhITY2NjZRDR8ODg0NH1FFJ1VYZFopMBYWMBYIKSkpKSkpKSlaWlpaWlpaWlopKSkpKVpaWlpaWjU1NWxsbBkuJysuUHl5WikpWlpaKVpaMjJkSEdeSFhXbFp5eVpaeVpaZFdXSxMTDyRdXU5NV1M2T0oVShUkCxgBEhISAQMBEhISMTExEhISEgEBAQEBBgYGBgAAAAAAAAAAAAAAAAAAAAAAAAAAAAAAAAAAAAAAAAAAAAAAAAAAAAAAAAAAAAAAAAAAAAAAAAAAAAAAAAAAAAAAAAAAAAAAAAAAAAAAAAAAAAAAAAAAAAYGBgYBAQEBAQEBEhIBEhIBEhISAQESEgoZEBqQSl1qejdIUmVHSg0gIBArR0csXUdHSTYNDR8OHw0NUSsnVVh5WikwFhYWCCkpKSkpKSkpKSkpKSkpKSkpKSkpKSkpKSkyWmRkeVo1bFdXbFA2X1JVUHkyWnlkWjIpMj1aWmRZN19JVEs1eVx5MjJ5eVxQWFNUJiQNK11qXS5LU39PFU9PSicQCxISAQESAQESEhIxMTESEhISAQEBAQEGBgYGAAAAAAAAAAAAAAAAAAAAAAAAAAAAAAAAAAAAAAAAAAAAAAAAAAAAAAAAAAAAAAAAAAAAAAAAAAAAAAAAAAAAAAAAAAAAAAAAAAAAAAAAAAAAAAAAAAAABgYGBgEBAQEBAQEBEhISAQYBAQESEhIXGRBFFZBKfWNuaWmcXSxGRQ1RK08VT09dXUdPLUVFIR8QEA4NK0dOWFpaWikIFhYpKSkpKSkpKSkpKSkpKSkpKSkpKSkpKSlaWjJaZFo1NWxXV2xsE0hJXVJTVz0yWloyMloyPVpaeVBIX09OTVp5V1xaWlpbSE5ON1I2K0dKSn1zVGxNNk9PTxUaXycmCxgBARISAQExMTESEgEBAQEBAQEBAQYGBgYAAAAAAAAAAAAAAAAAAAAAAAAAAAAAAAAAAAAAAAAAAAAAAAAAAAAAAAAAAAAAAAAAAAAAAAAAAAAAAAAAAAAAAAAAAAAAAAAAAAAAAAAAAAAAAAAAAAYGBgYBAQEBAQEBAQEBEgEGBgYGARIYChkkLBVPXX1jj21paXRqmxUsLBWQFU9KRkpKSkoVTxUnIQ4QDg4hLTdNNVpaKSkIFggpKSkpKSkpKSkpKSkpKSkpKSkpKSkpKVpkZFtbUFBQUFBLSxlTTklfXllkWjJaWjJaZFoyMlpaZGgnSklVXFdXZGR5eVZHKio8SkZfAgIqXlVQNU0NT0pPSl86SisgHhgBEhIBAwMxEhgYAQMBAQEBAQEBBgYGBgAAAAAAAAAAAAAAAAAAAAAAAAAAAAAAAAAAAAAAAAAAAAAAAAAAAAAAAAAAAAAAAAAAAAAAAAAAAAAAAAAAAAAAAAAAAAAAAAAAAAAAAAAAAAAAAAAAAAYGAQEBAQEBAQEBAAESAQYGARISARcFDi0tFV1lY25pa2tpZ2pKFSwsFZBPJ0knJydHLCwsFRUtK1EODiEtSVM1NVpaKQgwCCkpKSkpKSkpKSkpKSkpKSkpKSkpKSlaKWRWN15SN05ILm9TVTZHXV9JW2RkWjJaMilkWjIyMjJ5Uw1dKjdvS1p5ZGR5U05HSl1HXUpHKzdIXDJaTU5HRk9dSmpdSiEcHhIBEhIBAQEYGBgBAQEBAQEBAQEBAQYGAAAAAAAAAAAAAAAAAAAAAAAAAAAAAAAAAAAAAAAAAAAAAAAAAAAAAAAAAAAAAAAAAAAAAAAAAAAAAAAAAAAAAAAAAAAAAAAAAAAAAAAAAAAAAAAAAAABAQEBAQEBAQEGBgYGAQEBAAESGBISCxAnhE9KfWNuaWlpa25jahVGRhWQBBUhDiQkJEg2LUoVLC0tKx8ODUdKbzU1WloyFjAIKSkpKSkpKSkpKSkpKSkpKSkpKSkpKVpaXGh/OmpdR0lSNjdSR11KOklNfFpaWikpKSkpKTIyMilcVkk6XTdYWlp5eVpcbzddfUpqSUhTUFxaWlpYTkdGXUdlXUpqRyElGxIBEhIBARISEhIBAQEBAQEBAwMDAQEAAAAAAAAAAAAAAAAAAAAAAAAAAAAAAAAAAAAAAAAAAAAAAAAAAAAAAAAAAAAAAAAAAAAAAAAAAAAAAAAAAAAAAAAAAAAAAAAAAAAAAAAAAAAAAAAAAAEBAQEBAQEBAQYGBgYGBgEBARgSEhscJxoVSn16e2lpaWlrZ3FKFZBASkkOHCUUGRMTGRQgDScVLBUnIR8NK0pVV1paWjIpMCkpKSkpKSkpKSkpKSkpKSkpKSkpKSkpWlpkbzc8fTo6OioqX0pKfX0rSGQ1NVpaKSkpFjIpKVoyMlpYTl4qXVVQWnlXWlpkTVRoVG9TWFxaMlpaWlhIR31eUklxal1qSh8UChISEgEBAQEBEgEBAQEBAQMDAwMBAQAAAAAAAAAAAAAAAAAAAAAAAAAAAAAAAAAAAAAAAAAAAAAAAAAAAAAAAAAAAAAAAAAAAAAAAAAAAAAAAAAAAAAAAAAAAAAAAAAAAAAAAAAAAAAAAAAAAQEBAQEBBgYGBgYGBgYGEhIBEhIXHCsVFRVKcWdrZmJmim1jakoVkBUrSFBsbGwKFxgYFx4lDRUVFRUnNw02LE5QV1paMlpkKSkpKSkpKSkpKSkpKSkpKSkpKSkpKSlaNVpQVTdJR09KT11dXV1JUlVQWjVaWlpaKQgwFil5WlpaWmRTTmp9XWhXS0tXNS81eWRaWlp5WloyKTIyUFVefUk3UnF1cWVqShAZFwEBAQEBAAESAQYGBgYBAwMBAQEBAAAAAAAAAAAAAAAAAAAAAAAAAAAAAAAAAAAAAAAAAAAAAAAAAAAAAAAAAAAAAAAAAAAAAAAAAAAAAAAAAAAAAAAAAAAAAAAAAAAAAAAAAAAAAAAAAAABAQEBAQEGBgYGBgYAAAEBARISCgUOFSwVRnFnbWZmP2JrdHFlXRUaUmhLNTVMFxdMTExMFxscISxKFU9/DSEnN29kWlpaWnlaKSkpKSkpKSkpKSkpKSkpKSkpKSkpKVpaWlpkWFZIDVJJSUkrTlRNUHx8WjJaWlopMGQwFilaWnl5WnlvSUo6UlRkbFdXWjVaeVpaWjUyWlopKVpQVV5lYJxubnp1cWU8RSQTFwEAAQEAARIBBgYGBgYBAwEBAQEBAQAAAAAAAAAAAAAAAAAAAAAAAAAAAAAAAAAAAAAAAAAAAAAAAAAAAAAAAAAAAAAAAAAAAAAAAAAAAAAAAAAAAAAAAAAAAAAAAAAAAAAAAAAAAAAAAAEBAQEBAQYGBgYGBhISAQEBEhcTJEVKLEpleG5rZnJycm54cWVPTzZUXDU7O2xXC1cbbApMFx4cSUoVFUUhDUlJSFxaWlpaWlpaKSkpKSkpKSkpKSkpKSkpKSkpKSkpWlpaMlp5XFBYW1lZWVNQS1d8WnxaMjJaeXl5eXkwKSlaWnl5WlBIRzx9UltXbFdXNTVaWlpaWjIpWlpaWlhIXnFgnG1pj3h1ZV0sKyALGAEBAQABEgEGBgYGBgEDAQEBAQEBAAAAAAAAAAAAAAAAAAAAAAAAAAAAAAAAAAAAAAAAAAAAAAAAAAAAAAAAAAAAAAAAAAAAAAAAAAAAAAAAAAAAAAAAAAAAAAAAAAAAAAAAAAAAAAAAAQEBAQEGBgYGBgYBGBgBAQESCyBFFRVKamNufnd2cnJrbnhxSiNJVEs7NTU1UG8mHBQLV2wXGEtRT0pKJzYNSUdOUFo3whdLAAAgAElEQVRaWlpaWlopKSkpKSkpKSkpKSkpKSkpKSkpKSlaKSlaWlpaMjU1WlpaNTs1Wlp5ZGRaPVpkZFopeWQwFjIyWnlkZFtOZTxdTk1aNWw1MjIyMlp5KSkpZFoyWE5HdWOPbWlpdHFxXkcsDSUKEhIBAQESAQYGBgYGAQMBEhISAQEAAAAAAAAAAAAAAAAAAAAAAAAAAAAAAAAAAAAAAAAAAAAAAAAAAAAAAAAAAAAAAAAAAAAAAAAAAAAAAAAAAAAAAAAAAAAAAAAAAAAAAAAAAAAAAAABAQEBAQYGBgYGBgYSEhISARglIV1dSl14j2t3cnI/cmtwcV1KkFEZNTU7V29ONlIhDUgcS0xMSyQrX0pHSStHfTdQNTVaWnlaWikpKSkpKSkpKSkpKSkpKSkpKSkpKSkpKSlaWlpaMlpaWlo1NVpaWlpaWloyKTAwMBYwMDAwKVpaWlpaZFtOfUdeSFBXNVdaWjJaWloyMilkZClNN11xdG1paW1ueHFlXU8tJAsXGBISARIBBgYGBgYBAwESEhIBAQAAAAAAAAAAAAAAAAAAAAAAAAAAAAAAAAAAAAAAAAAAAAAAAAAAAAAAAAAAAAAAAAAAAAAAAAAAAAAAAAAAAAAAAAAAAAAAAAAAAAAAAAAAAAAAAAEBAQEBBgYGBgYGBgASGBIXEw46XV1dcWdtd3Jycj9ya2dqXZArLlc7NXlNUkZGRl8qSjZvS2xXJQ1fXV1HXUo8N1BaWlp5eVpaKSkpKSkpKSkpKSkpKSkpKSkpKSkpKQgICCkpKVpaWlpaWlpaWlpaWlopKSkWMDAwMDAwMDAwWlpaWlpaZFY3R0pSVVBXfHlkWlpaWlopMilaWls2XXqPaWlrbW50Y3VqSl82HBsSEhISEgEGBgYGBgEDAxISEgEBAAAAAAAAAAAAAAAAAAAAAAAAAAAAAAAAAAAAAAAAAAAAAAAAAAAAAAAAAAAAAAAAAAAAAAAAAAAAAAAAAAAAAAAAAAAAAAAAAAAAAAAAAAAAAAAAAQEBAQEGBgYGBgYGARIYGAsOLUpdanF4bn5mPz8/cnZ+Y2pdGhBQNTs1WEg2UitHXUpKSjZUS2wZEGpdXV1damo3W2RkeXlaWlopKSkpKSkpKSkpKSkpKSkpKSkpKSkpFjAwMDAwKVpaWlpaWlpaWlpaKTAwMDAwMDAwMDAwMDBaWlpaWlpaXFZSXV1JaFBaWnlkWjIpZFoyMjJaWVJdYW5pa2t+bW5ncWpqSkpSExIBGBgBAAYGBgYGAQMxEhISAQEAAAAAAAAAAAAAAAAAAAAAAAAAAAAAAAAAAAAAAAAAAAAAAAAAAAAAAAAAAAAAAAAAAAAAAAAAAAAAAAAAAAAAAAAAAAAAAAAAAAAAAAAAAAAAAAABAQEGBgYGBgYGBgESEhgbJSc6anFxeI9+a3I/Qj9ya25jakpAHAo7L1pbaG9UTl1fRkZKXQ1QbEtVSkpdXX08SjdYeVpaWlpaWikpKSkpKSkpKSkpKSkpKSkpKSkpKSkWMDAwMDAwFhYWFhYWFhYWFjAwMDAwMDAwMHkwMDAwMFpaWlpaMjJaUEhJRkpSLlBaNVpaWmRaKTJaWlpZSV1jbmtra2tra25ncXNqPE8kCxIBEhIBBgYGBgYBAzESEhIBAQAAAAAAAAAAAAAAAAAAAAAAAAAAAAAAAAAAAAAAAAAAAAAAAAAAAAAAAAAAAAAAAAAAAAAAAAAAAAAAAAAAAAAAAAAAAAAAAAAAAAAAAAAAAAAAAAEBAQYGBgYGBgYAARIBGA8fSjxzcWN0bWtycj9CP3JrbnpGFRUlTDsyKVBQS1NOR39IVDdKJ1RLV29JfX1ef05VU3kyWlpaWlpaKSkpKSkpKSkpKSkpKSkpKSkpKSkpKRYwMDAwMDAwMDAwMDAwMDAwMDAwMDAwMDB5eSkWFhYpWlpaWjIyMlpkWEhHSipSVFxaNTVaWikpMlpaWm9eamN7a2tra3dpa49jdWpqSicgChgSEhIGBgYGBgEDMRISEgEBAAAAAAAAAAAAAAAAAAAAAAAAAAAAAAAAAAAAAAAAAAAAAAAAAAAAAAAAAAAAAAAAAAAAAAAAAAAAAAAAAAAAAAAAAAAAAAAAAAAAAAAAAAAAAAAAAQEBBgYGBgYGBgABEhIKJk9qc3N6dG1pZnI/QkIHcmtuel8VLSU1LzIyZFpab39JaFBXbzddUk1aTUg3N0hUU1xaLzJkZGRaWlopKSkpKSkpKSkpKSkpKSkpKSkpKSkpFjAwMDAwMDAwMDAwMDAwMDAwMDAwMDAweXlaKSkpKSlaWlpaWil5ZFpaTU4nGkpSVFw1WloyKSkpMjJ5VEp9Y25rdnZ2ZndpbWdjcX1dXx8PChgYEgYGBgYGAAMxEhISAQEAAAAAAAAAAAAAAAAAAAAAAAAAAAAAAAAAAAAAAAAAAAAAAAAAAAAAAAAAAAAAAAAAAAAAAAAAAAAAAAAAAAAAAAAAAAAAAAAAAAAAAAAAAAAAAAABAQEGBgYGBgYBAQEBCiVRX11xenhtaXdycj9CQjl2fm5xGkotHGwvMhZ5eWRVRzdQbFdLU15dVlpXXFxcZGRkZFo1WlpaWlpaWikpKSkpKSkpKSkpKSkpKSkpKSkpKSkpCAgwMDAwMDAwMDAwMDAwMDAwMDAWKVopWlpaKSkpKSkpKVpaZGR5WlpaUDdKGkp/aFxaWloyPTIyNXlUPH1nbmt2dnZ3a2ttbnR6fWp9SRAeEhgSAQYGBgYGAzExMRIBAwAAAAAAAAAAAAAAAAAAAAAAAAAAAAAAAAAAAAAAAAAAAAAAAAAAAAAAAAAAAAAAAAAAAAAAAAAAAAAAAAAAAAAAAAAAAAAAAAAAAAAAAAAAAAAAAAABAQYGBgYGBgEBEhITHy1GXXFhe2t3ZnJyP0JCOWt+bmNGRi1vNS8yMHl5XEgtEFc1V1pQN11oZFpaWlopWmRkWlpaWlpaWlpaKSkpKSkpKSkpKSkpKSkpKSkpKSkpKSkpKQgWFhYWFhYWFhYWFhYWFhYWFilaWikpWlpaKSkpKSkpWmRkZFpaVzV5Uw1fkAJSVFxaNT0yMi81ZGg8fWd+a3Z2dmtra35tbWdzfV19JxQXEgEBBgYGBgYBMTExMQMDAAAAAAAAAAAAAAAAAAAAAAAAAAAAAAAAAAAAAAAAAAAAAAAAAAAAAAAAAAAAAAAAAAAAAAAAAAAAAAAAAAAAAAAAAAAAAAAAAAAAAAAAAAAAAAAAAAAGBgYGBgYGAQEYCiUnGkp9dWd+d2ZycnI/QkI5a35teEpGT1M7Oz0WeXlcVSsuVztaWlBWf1VkWlpaZGR5ZGRaWlpaWlpkWlopKSkpKSkpKSkpKSkpKSkpKSkpKSkpWlpaKSkpKSkpKSkpKSkpKSkpKSkpWlpaMjJaKSlaKSkpKSkpZGRaWlp5WlpXVEldShpJWVovMikyLzVQSCp9dH52cnJ2a35+fn5pj3p9XUosJBkYAAEGBgYGBgMxMTExAwMAAAAAAAAAAAAAAAAAAAAAAAAAAAAAAAAAAAAAAAAAAAAAAAAAAAAAAAAAAAAAAAAAAAAAAAAAAAAAAAAAAAAAAAAAAAAAAAAAAAAAAAAAAAAAAAAAAAYGBgYGBgYBEhgPDhUaSn16bndmdnJydnI5OXJrfm14XUZKbzUvLzs1eVBONlRXLz01WmRIaGRkeTJaZFpaKSkpWmRaWlpaWikpKSkpKSkpKSkpKSkpKSkpKSkpKVpaWlpaWlopKSkpKSkpKSkpKSkpWlpaWloyMjIyMlopKSkpKSlaeVpaWnk1NVdNVV59X0dUZDIyMilafFhOKn10a3Y5OTl2a35+fmltZ3V9XS1FHBgBAQEGBgYGAzExMTEDAwAAAAAAAAAAAAAAAAAAAAAAAAAAAAAAAAAAAAAAAAAAAAAAAAAAAAAAAAAAAAAAAAAAAAAAAAAAAAAAAAAAAAAAAAAAAAAAAAAAAAAAAAAAAAAAAAAAAAYGBgYGBhISFyAtSkpqcWdtZnJycnZ2dnZycndrbXhdakpUWi8zL1pXUEg3b1c1WjUvNVtbWnlaMlpaWlopKTJaZHlaWlopKSkpKSkpKSkpKSkpKSkpKSkpKSkpWlpaWlpaWikpKSkpKSkpKSkpKVpaWlpaWjIyMjIyKSkpKSkpKSlaWlpaWjVaS1xTK19fR1lXMjIyWjVXTU46cXtrdnI5OXZ2a35+a21uenNKLAIOCxgBAQYGBgYGAzExMQMDAAAAAAAAAAAAAAAAAAAAAAAAAAAAAAAAAAAAAAAAAAAAAAAAAAAAAAAAAAAAAAAAAAAAAAAAAAAAAAAAAAAAAAAAAAAAAAAAAAAAAAAAAAAAAAAAAwMBBgYGAQYGEhIKJAJPanN4bWl3cnJ2dnZ2dnZyZmttZ3FqalVkNS9aWlp8VE5vZFpkWjU7eWRaKSkpMjJaeXkpPVpkeXl5KSkpKSkpKSkpKSkpKSkpKSkpKSkpKSlaWlpaWlopKSkpKSkpKSkpKSlaWlpaWlpaMjIyMjIpKSkpKSkpKTIyWlo1WnlcV01SAkBJTXwyMjJ8NVpTTn1xbmt2cnJydnZ2Zmt+a214dX1GX0UkHgEBAQYGBgYGMTESAQMAAAAAAAAAAAAAAAAAAAAAAAAAAAAAAAAAAAAAAAAAAAAAAAAAAAAAAAAAAAAAAAAAAAAAAAAAAAAAAAAAAAAAAAAAAAAAAAAAAAAAAAAAAAAAAAExEhIBBgYBAQESGxwhX11qentrd3ZycnJ2dnZ2dnZmd2mPYGo8Tk1aNVpaPTJTSFRceTBkWjIwMDBkeTIWKXl5eXlaeXl5WlopKSkpKSkpKSkpKSkpKSkpKSkpKSkpKSkpFhYWMDAwCCkpKSlaZGRaWlpaWlpaWloyMig9MhYWMDAwMFoyPVp5Wlp5XHl5UH8CSjZNfFoyMlpaV283fWNua3d2dnZ2dnZ2dnZ3a25hfUpKkCEZGBIBBgYGBgYBEhIBAQAAAAAAAAAAAAAAAAAAAAAAAAAAAAAAAAAAAAAAAAAAAAAAAAAAAAAAAAAAAAAAAAAAAAAAAAAAAAAAAAAAAAAAAAAAAAAAAAAAAAAAAAAAAAAAATESEhIGBhISARgZIU9KXXFnbmtmdnJycnZ2dnZ2dmZ3aY94an1SVFcvNVoyMlBUVFwpMDApFjAwMHl5MhYweXl5eXl5eXlaWikpKSkpKSkpKSkpKSkpKSkpKSkpKSkpKRYwMDAwMDAwCCkpKVpkZFpaWjIyWlpaWloyPTIpCBYWFhYpWloyWlpaWnl5WlxTSQJHTlA1NVpaWjVXVUl1eG5rd3Z2dnZ2dnZ2dnZrfmdxXUpALRwbEgEGAQYGBhISEgEBAAAAAAAAAAAAAAAAAAAAAAAAAAAAAAAAAAAAAAAAAAAAAAAAAAAAAAAAAAAAAAAAAAAAAAAAAAAAAAAAAAAAAAAAAAAAAAAAAAAAAAAAAAAAAAADEhISEhIGEgESChQnGkp9enB+d2ZycnJydnZ2dnZ2Zndpbnh1XV1OSzs7eXkpZFhvZDIWFjI9FjAwMDAwMDB5eXl5eXl5eXlaKSkpKSkpKSkpKSkpKSkpKSkpKSkpKSkpFjAwMDAwMDAwCCkpKSl5WlpaMjJaWmRceSkpZGQpMjIpKTJaZFoyMjJ5NTVaTU5HBH9UVy8vWlo1O1dOfXFnbmt3dnZ2dnZ2dnZ2dnZ+cHp9kJBPDRQYAAESAQYGEhgSAQEAAAAAAAAAAAAAAAAAAAAAAAAAAAAAAAAAAAAAAAAAAAAAAAAAAAAAAAAAAAAAAAAAAAAAAAAAAAAAAAAAAAAAAAAAAAAAAAAAAAAAAAAAAAAAAAMSEhISEgYBABIFECxKSmp4bmt2cnJydnZ2dnZ2dnZ2ZndtZ3VqPFJNfDVaeXl5ZFB5WhYWFhYwFjIyMggwMHl5eXl5eXl5eVopKSkpKSkpKSkpKSkpKSkpKSkpKSkpKSkWMDAwMDAwMDAIKSkpKVpaWlpaMjJ5WFZkMjJkZFpaWlpaWlp8fFpaNXxXXFNISUoCTlh5NVpaKTJaUDdzcXRta2tmcnZ2dnZ2dnZrfn5uZ3V9fZAtIBcBARIBBgYSGBIBAQAAAAAAAAAAAAAAAAAAAAAAAAAAAAAAAAAAAAAAAAAAAAAAAAAAAAAAAAAAAAAAAAAAAAAAAAAAAAAAAAAAAAAAAAAAAAAAAAAAAAAAAAAAAAAAAxIxMRgSAQYBCiAtFV1KcY9rZmZycnZ2dnZ2dnZ2dnZ2d350enM8XlVQbFp5eVpaeXlaMikwFhYpWlpaKSlaeXl5eXl5eXl5WikpKSkpKSkpKSkpKSkpKSkpKSkpKSkpKRYwMDAwMDAwMAgpKSlaWjIyWlpaWmRvTlA9PVpaWlpaWlpaWnx8WnxXUFNVDUc8Jx9TZFpaMjIyMlpbUnNjj35ra2ZydnZ2dnZ2dmt+fn5uenN9kAIQCxgBEgEGBhgXEgEBAAAAAAAAAAAAAAAAAAAAAAAAAAAAAAAAAAAAAAAAAAAAAAAAAAAAAAAAAAAAAAAAAAAAAAAAAAAAAAAAAAAAAAAAAAAAAAAAAAAAAAAAAAAAAAADMTExGBIGBhgLEARPXV1jbWmKcnJydnZ2dnZ2dnZ2dnZ3a25hdXNqXlNsbFdXWloyWloyWlopMlpkZHl5Wlp5eXl5eXl5eXl5KSkpKSkpKSkpKSkpKSkpKSkpKSkpKSkpFjAwMDAwMDAwCClaWnl5WjJaWlpaXGg3TXwvNTU1fHx8NTV8fFp8S00QUkddR1JITVc1Wlo9MjI1eVtSc3hufn5rZnJ2dnZ2dnZ2a35raW14cWpKQCsgGxISAQYGGBgSAQEAAAAAAAAAAAAAAAAAAAAAAAAAAAAAAAAAAAAAAAAAAAAAAAAAAAAAAAAAAAAAAAAAAAAAAAAAAAAAAAAAAAAAAAAAAAAAAAAAAAAAAAAAAAAAAAMxMRISEgESGyUhAkpKcWdpimZycnZ2dnZ2dn52dnJ2dnZrfnBhdX1fTk1sbEtkWjJaWloyWlp5eVoyNXlaWnl5eXl5eXl5eXkpKSkpKSkpKSkpKSkpKSkpKSkpKSkpKSkWMDAwMDAwMAgpWlpaWmRaMjJaWmRYVVJvSzUvNXx8fDU1NVdLWFRIDUVGXytVTVx8NVpaWlpaWnxQaF5zeG5+a2tmcnZ2dnZ2dnZ2a2trfnRxal1KLA0LEgEGBgYSEjEDAwAAAAAAAAAAAAAAAAAAAAAAAAAAAAAAAAAAAAAAAAAAAAAAAAAAAAAAAAAAAAAAAAAAAAAAAAAAAAAAAAAAAAAAAAAAAAAAAAAAAAAAAAAAAAAAAzESEhIBARILECcaamp4bXdmZj9ydnZ2dnZrjnZ2cnZ2dnZrbnh1fSpJSEtsV3xaMlpaWlpaWmR5NT1aeVpaeVpaeXl5eXl5eSkpKSkpKSkpKSkpKSkpKSkpKSkpKSkpKRYwMDAwMDAIKVpaWlpaWloyMlpaZFhoSU5TS3x8fFdLV0sZJVRIRwICSitOVFBXfGxaWlpaV1pafE1OR3VnbWtra3Z2dnZ2dnZ2dnZ2a2trbWdxXUoaRQUYAQEBAQESMQMDAAAAAAAAAAAAAAAAAAAAAAAAAAAAAAAAAAAAAAAAAAAAAAAAAAAAAAAAAAAAAAAAAAAAAAAAAAAAAAAAAAAAAAAAAAAAAAAAAAAAAAAAAAAAAAABGBIxEgEBEhkrRkpqcY9pd2Z2P3J2dnZ2dnaOdnZydnZ2dnZ+Z3pzPF8rVFxsTDsvNXxaWlpXeVo1ZFxceVpaWlpaWlp5eXl5KSkpKSkpKSkpKSkpKSkpKSkpKSkpKSkpFjAwMDAwCClaWlpaWloyMjJaWlpaXFZeR05UTVAZUE1ZVU4rR0dPR0k3VU1LfHxXV1daWldQZFpaUzdlemdta2t2dnZ2dnZ2dnZ2dnZ2a2tpj3FdShotJRsSEhIBAAESAQMAAAAAAAAAAAAAAAAAAAAAAAAAAAAAAAAAAAAAAAAAAAAAAAAAAAAAAAAAAAAAAAAAAAAAAAAAAAAAAAAAAAAAAAAAAAAAAAAAAAAAAAAAAAAAAAEXGAMDARIKJS0qXWVjbopmZnY5OTl2dnZ2dnZ2dnZ2dnZ2dmt7eHp9Ok82VEs1TDU1fFdXbDU1V01oaFhkWlpaWlpaWnl5eXkpKSkpKSkpKSkpKSkpKSkpKSkpKSkpKSkpCAgICAgpWlpaWlpaWj0yWnlaWjJkWUkER1INThBODTdJTyoCRitOb1BLV1dXV1dXWnlQb29XNXxUR3FjdG1ra3Z2dnZ2dnZ2dnZ2dnZra2lueHFKRhUODxgSEgEAAzEDAwAAAAAAAAAAAAAAAAAAAAAAAAAAAAAAAAAAAAAAAAAAAAAAAAAAAAAAAAAAAAAAAAAAAAAAAAAAAAAAAAAAAAAAAAAAAAAAAAAAAAAAAAAAAAAAARgYAwMBGBkkLEpdcXhtimZydjk5OXZ2dnZ2dnZ2dnZ2dnZyZmt7YXNqXTo3b1BXNTU1bGxsNUtvTkdOW2RaWlpaWlpaeXl5eVopKSkpKSkpKSkpKSkpKSkpKSkpKSkpKSkpKSkpKVpaWlpaWlpaMlp5eXlaNTVcTkcCBAICKgICAk8rDUhob1BXfDU1bGxXV1xQWFVOWXk1ZFU8dWN7bWtrdnZ2dnZ2dnZ2dnZ2dnZ3aW10cWpdTy0gFxISAQMDAwMDAAAAAAAAAAAAAAAAAAAAAAAAAAAAAAAAAAAAAAAAAAAAAAAAAAAAAAAAAAAAAAAAAAAAAAAAAAAAAAAAAAAAAAAAAAAAAAAAAAAAAAAAAAAAAAADEhIBAxIKICtPR11xdH5mcnJydnZydnZydnZ2dnZ2dnZ2cnJyZn5hdXFlXU9JH1NLfFp8bGwZVUlPX05YZFpaWlopWlpaeXl5WlopKSkpKSkpKSkpKSkpKSkpKSkpKSkpKSkpKSlaWlpaWlpaWlpaWmR5eXlXNVpbTlJJSVJSUlI3TmhTUGRaNS9aNTU1NVdLb05JXkhcNVpbTnN6Z25+a2t2dnZ2cnJ2dnZ2dnZ2cnJrfm56cWVHKiQKEhIBMTEDAwMAAAAAAAAAAAAAAAAAAAAAAAAAAAAAAAAAAAAAAAAAAAAAAAAAAAAAAAAAAAAAAAAAAAAAAAAAAAAAAAAAAAAAAAAAAAAAAAAAAAAAAAAAAAAAAAMxMQMSGBskGkplcWNtaWZycjk5dnZ2dnZ2dnZ2dnZ2dnZ2dnZma3thdWpdSkpHN0hUb29vVA5SXV86VUtaWlpaWikpKSkpWnl5WlpaWlpaWilaeVopKSkpKSkpKSkpKSlaWlpaWnlaMlpcWFx5WjJaWlpaWlpsWmRQTVtbW1tNUFxXV1daWjU1NXl5WldQU1U2T0o3WVo1V1RSc3p0bX5ra3Z2dnZ2dnZ2dnZ2dnZ2dmt+bXRjZV0CHxkXEhIBAzEDAwAAAAAAAAAAAAAAAAAAAAAAAAAAAAAAAAAAAAAAAAAAAAAAAAAAAAAAAAAAAAAAAAAAAAAAAAAAAAAAAAAAAAAAAAAAAAAAAAAAAAAAAAAAAAAAAzEDARIKGQ4CSnFxZ353ZnJyOTl2dnZ2dnZ2dnZ2dnZ2dnZ2dmZrfnBjcWVdXWp9al5Sf1JHBE9PRw5NbDU1WlpaKSkpKSlaeXlaWnl5WlpaWmRkWikpKSkpKSkpKSkpKVpaeVoyMlopWlxZb1tQXGRkV1o1NVp8WlpaeVdXV2w1LzU1NVpaNTVaXFxYTWg3XQQqSW9kbDVLTkdzem5+fmtrdnZ2dnZ2dnZ2dnZ2dnZ2a2t+bmdxXV8hHBsSEgEBMQMAAAAAAAAAAAAAAAAAAAAAAAAAAAAAAAAAAAAAAAAAAAAAAAAAAAAAAAAAAAAAAAAAAAAAAAAAAAAAAAAAAAAAAAAAAAAAAAAAAAAAAAAAAAAAAAAAMTEBEhscIV9dfWGPa2ZycnI5dnZ2dnZycnJ2dnZra3Z2dnZ2dnZrbXR4enVzamplXV1dXUpfX0dOUFdsNTVaWlopKSkpWlp5Wlp5eVoyMjJaZGQpKSkpKSkpKSkpKSkpMlpkWj0vWmRaZFs3UjdIVFlNXFd8WnxXfHx8V1dXbDU1V0tXV1dLV1dNVTdSXl19X15OXDVXbEs3PHF4bn5ra2t2dnZ2dnZ2dnZ2dnZ2dnZ2a35tZ3FdSi0OExgBAAESAQAAAAAAAAAAAAAAAAAAAAAAAAAAAAAAAAAAAAAAAAAAAAAAAAAAAAAAAAAAAAAAAAAAAAAAAAAAAAAAAAAAAAAAAAAAAAAAAAAAAAAAAAAAAAAAAAAxMQMBCx8tamV9Z213ZnJydnZ2dnZ2dnJycnZ2dnZ2dnZ2dnZ2dndrfm5nY3p1dXFqan1dXV1GN1NXOzU1NTIpKSkpKSlaeXlaWlpaKTIyKWRaKSkpKSkpKSkpKSkpKSkyMloyPT1aWmRaZFZSSidSN04QVWhUVFRUb1NNJVMlTU1vFB5LTVVVSE4rXUY8PH1HTltaNWxLU0k8enR+a2trdnZ2dnZ2dnZ2dnZ2dnZ2dnZra21ncWVdFSsUFxIAARIBAAAAAAAAAAAAAAAAAAAAAAAAAAAAAAAAAAAAAAAAAAAAAAAAAAAAAAAAAAAAAAAAAAAAAAAAAAAAAAAAAAAAAAAAAAAAAAAAAAAAAAAAAAAAAAAAAAMDAQETK0BKZXGPaWZmcnZ2dnZ2dnZ2cnJydnZ2dnZ2dnZ2dnZ2ZmZ3fm50Z2NxdXFqZV5HXV1VS2w1NTU1MikpKSkpKXl5eXlaWikpMjJaZCkpKSkpKSkpKSkpKSkpKTIyPTIyMjJaWlpaXG83RzoCKjw8al1HSUlSDU5ODQ0NTiEmExkgSSo8Ol9KSkp9XU5bZFpabE1OR3Nhe35ra3Z2dnZ2dnZ2dnZ2dnZ2dnZ2dnZrfnRhcV1KLRwbEgEBEgEAAAAAABVK1SIAACAASURBVAAAAAAAAAAAAAAAAAAAAAAAAAAAAAAAAAAAAAAAAAAAAAAAAAAAAAAAAAAAJIDbfwAAAAAAAAAAAAAAAAAAAAAAAAAAAAAAAAAAAAAAAAAAAAAAAAABAAEYBScCSmV6bopmZnJ2dnZ2dnZ2dnZycnZ2dnZ2dnZ2dnZ2dnZmd2trfm5neGFxcXFeR11db2xsfDU1NTIpKSkpKSl5eXl5WilaWilaeWQpMikpKSkpKSkpKSkpKVpaPS9aeVpaWlpaNTVLU05SR11dXV1dXV1KSixPT09PLEdKTk0UJid9XV1dXV1dSTdbZFp5V1dvUl11Y3t+a3Z2dnZ2dnZycnJ2dnZ2dnZ2dnZ2dn5uZ3VdSiwmCxIBEgYAAAAAAAAAAAAAAAAAAAAAAAAAAAAAAAAAAAAAAAAAAAAAAAAAAAAAAAAAAAAAAAAAAAAAAAAAAAAAAAAAAAAAAAAAAAAAAAAAAAAAAAAAAAAAAAAAAAAAEgolLSpqcXh+ZmZydnZ2dnZ2dnZ2dnZ2dnZ2dnZ2dnZ2dnZ2dnZ2dmt+fm6PdJxgcWVdXUpUV2w1NTU9MikpKSkpKXl5eXl5KVpaKVpaKSkpKSkpKSkpKSkpKSkpWjU7L1pkUFlWTVovWlpXUG9IUl06fV1dSkZGSkZGSk9PSioOUFBUSV1HSmo8SitVUFoyWnlLUFVdZXp4bn5rdnZ2dnZ2dnJycnZ2dnZ2dnZ2dnZ2a210dWpGFR8PGAESBgAAAAAAAAAAAAAAAAAAAAAAAAAAAAAAAAAAAAAAAAAAAAAAAAAAAAAAAAAAAAAAAAAAAAAAAAAAAAAAAAAAAAAAAAAAAAAAAAAAAAAAAAAAAAAAAAAAAAEYEyQsPGpxZ353cnJ2dnZ2dnZ2dnZ2dnZ2dnZ2dnZ2dnZ2dnZ2dnZ2dmtrfm1tbo9gZV1dGlVLTEwvLz0yKSkpKSkpeXl5eVopWlpaWikpKSkpKSkpKSkpKSkpKSlaLzM9WmRQSElOXDVaWjV8S01vVU43SV0qAgQqKhpKFUpKAg5QUFReKmpqSU4uVFBaWlp5eUtTTmplemdufmt2dnZ2dnZ2cnJydnZ2dnZ2dnZ2dnZra256akoVKxwYARIBAQAAAAAAAAAAAAAAAAAAAAAAAAAAAAAAAAAAAAAAAAAAAAAAAAAAAAAAAAAAAAAAAAAAAAAAAAAAAAAAAAAAAAAAAAAAAAAAAAAAAAAAAAAAAAAAAAABARcUDRVqanFufmtycnZ2dnZ2dnZ2dnZ2dnZ2dnZ2dnZ2dnZ2dnZ2dnZ2dndra2lpbZxgZV1fSEs1NDsvPTIpKSkpKSl5eXkyMlopWmRaMjJaWjIpKSkpKSkpKSkpKVo9KD0yWnlvUlJTZFp8fDU1fHxkWG9IN1IrK0lHR0dHR0ddTk1QUzZJUjdVTUt8fFpaZHl5XEhJamV6cH5ra3Z2dnZ2dnZycnJ2dnZ2dnZ2dnZ2dndrbmNxZU8VJhcBARIBAAAAAAAAAAAAAAAAAAAAAAAAAAAAAAAAAAAAAAAAAAAAAAAAAAAAAAAAAAAAAAAAAAAAAAAAAAAAAAAAAAAAAAAAAAAAAAAAAAAAAAAAAAAAAAAAAQEBFyAnSl1xY213cnJydnZ2dmtrdnZ2dnZ2dnZ2djk5OXZ2dnZ2dnZ2dnJycmtra21tnGBxajpOTVdMNDs9MikpKSkpKXl5eTIyeSlkWGQyMlpaKSkpKSkpKSkpKSkpWj0zL1paWmRZUjdTVzU1fFp8fFpXS1BQUFBNb1VISE5ISEhvXFdcU01cZGRkWloyMil5eVdNN0ddZXhua3d2dnZ2dnZ2dnJycnJydnZ2dnZ2dnZ2ZmtteHFlSgIkGxIGAQEAAAAAAAAAAAAAAAAAAAAAAAAAAAAAAAAAAAAAAAAAAAAAAAAAAAAAAAAAAAAAAAAAAAAAAAAAAAAAAAAAAAAAAAAAAAAAAAAAAAAAAAAAAAAAAAABAQEXJpVdZXF4fmZycnZ2dnZ2a3Z2dnZ2dnZ2dnZ2OTk5dnZ2dnZ2dnZ2dnJydmt+bW2PeGpqXzZUV0w7Lz0yKSkpKSkpeXl5KSlaKVxWWHlaMlpaKSkpKSkpKSkpKSlaNTUyWmR5WmRoUk5NVzV8fFp8NTV8bGx8fFdcUFhYWFhYWFx5WnlkeVo1WlpaMjIyKSlaUC5eSl1xZ21pd3Z2dnZ2dnZ2cnJycnJ2dnZ2dnZ2dnZmd35nY2VKAg4TFwYGAAAAAAAAAAAAAAAAAAAAAAAAAAAAAAAAAAAAAAAAAAAAAAAAAAAAAAAAAAAAAAAAAAAAAAAAAAAAAAAAAAAAAAAAAAAAAAAAAAAAAAAAAAAAAAAAAAABEgokAl1lcXhrZmJydnZ2dnZ2dnZ2dnZra3Z2dnY5OTl2dnZ2dnZycnZ2dnZ2dmt+bW14fV1GR0hXO1o9PTIpKSkpKVp5eXkpKVoyXE5WUFoyMlpaWlpaWlopKSkpKSlaeWR5eWRaWmRVXjdTXFd8NTU1NWxsbDVaWnlaWlp5eXlaKTJaWlp5eXl5eVoyMnlaWlpNN0dqZXFufnd2dnZ2dnZ2dnZycnJycnZ2dnZ2dnZ2dmZpbXRjcUoCURQKBgYAAAAAAAAAAAAAAAAAAAAAAAAAAAAAAAAAAAAAAAAAAAAAAAAAAAAAAAAAAAAAAAAAAAAAAAAAAAAAAAAAAAAAAAAAAAAAAAAAAAAAAAAAAAAAAAAAAAAYCw4CampjdGtmZnZ2dnZ2dnZ2dnZ2a2tra3Z2dnZ2dnZ2dnZ2cnJycnZ2dnZ2dmt+bnhxZUpGDVdMfDUvPTIyMjIyWlpaKSkpKVpkVE5WZHkyL1paWlpaWikpMhYpZDAwMGRkeVoyWlhOXjdoTVc1TDVsbGxsNVpaeXlaeXl5eVpaWnl5Wnl5XHl5Wlp5eVpXXFVeZXFxZ21ra3Z2dnZ2dnZ2dnJycnJ2dnZ2dnZ2dnZ2dmt+bmNqSgI2HAoGBgAAAAAAAAAAAAAAAAAAAAAAAAAAAAAAAAAAAAAAAAAAAAAAAAAAAAAAAAAAAAAAAAAAAAAAAAAAAAAAAAAAAAAAAAAAAAAAAAAAAAAAAAAAAAAAAAAABhcPDQRqc2Nua2ZmdnZ2dnZ2dnZ2dmtra2trdnZ2dnZ2dnZ2dnJycnJycnZ2dnZ2a35uZ3plSgQ2GQo1NS8vPTIyMlpaWlopKSkyWmRbTk5bZFo1NVpaWlpaKTIpKSlkMDAwZGRaWloyZFl/X15OU1BLS0tXV2xsNVpaWlpaNTJaWlpaeVpaWnlkeXlaWnl5bFdvN31lcXhufmtrdnZ2dnZ2dnZ2dnJydnZ2dnZ2dnZ2dnZ2a35ueGpKGicQHgEGAAAAAAAAAAAAAAAAAAAAAAAAAAAAAAAAAAAAAAAAAAAAAAAAAAAAAAAAAAAAAAAAAAAAAAAAAAAAAAAAAAAAAAAAAAAAAAAAAAAAAAAAAAAAAAAAAAAGCiUhKn1zeG5rZmZ2dnZ2dnJycnZra2tra2t2dnZ2dnZ2djlycnJycnJycnZ2dnZra35uY2pKKkUlGxhMOzs9Mlp5eVpaWlopMjJaWlxISU5QWlc1WlpaWmRaMilkZAgwMDBkZClaWjJaXFUrSk9JUg1Ib00PGUtXWlpaWlo1WlpaeXlaMlpaWlpaWmRaNVdsSw1qfXN6dGlra3Z2dnZ2dnZ2dnZ2dnZ2dnZ2dnZ2dnZ2dnZrfm1nakpGFSETEgYGAAAAAAAAAAAAAAAAAAAAAAAAAAAAAAAAAAAAAAAAAAAAAAAAAAAAAAAAAAAAAAAAAAAAAAAAAAAAAAAAAAAAAAAAAAAAAAAAAAAAAAAAAAAAAAAAAAYbICs6fXNna3dmdnZ2dnZ2cnJydnZra3Z2dnZ2dnZ2dnZ2dnZ2dnZ2dnZ2dnZ2dnZra25ncV1GLA4ZGDQ7Ly8yWnl5WlpaWikpWlpaWlk3UllcWlpaWlpaWikyKWRaMhYWFjAwKVpaWjVaUEhKPARfXSs3Tg4QSFVoaFRUVFRWVmhoVWhvWHkyWlpaNVpaWktvSSp9emdufmt2dnZ2dnZ2dnZ2dnZ2dnZ2dnZ2dnZ2dnZ2dmtrbWdlXUoaRRkSAQYGAAAAAAAAAAAAAAAAAAAAAAAAAAAAAAAAAAAAAAAAAAAAAAAAAAAAAAAAAAAAAAAAAAAAAAAAAAAAAAAAAAAAAAAAAAAAAAAAAAAAAAAAAAAAAAAABh4QJzp9c49pd2Z2dnZ2dnZycnJ2dnZrdnZ2dnZ2dnZ2dnZ2dnZ2dnZ2dnZ2dnZ2dnZrfo9jZUpKXiVMOy8vLz0yWlpaWlpaWlpaWlpaXFZSTllkeVpaWlpaMjIyWloyFhYWMDApKVpaLy98UEhJOipGXUoEAgQqBCpqXV1PXV1zc3NzSk5YWjJaWlo9Wnl5WQ1dPHF4bm1+dnZ2dnZ2dnZ2dnZ2dnZ2dnZ2dnZ2dnZ2dnZ2d2ttdHFdTxonBRgBAAAAAAAAAAAAAAAAAAAAAAAAAAAAAAAAAAAAAAAAAAAAAAAAAAAAAAAAAAAAAAAAAAAAAAAAAAAAAAAAAAAAAAAAAAAAAAAAAAAAAAAAAAAAAAAAAAABCw0san11j2l3ZnZ2dnZ2dnJycnZ2dmt2dnZ2dnZ2dnZ2dnZ2dnZ2dnZ2dnZ2dnZ2dmtpbXhxSl19VHw1NTUvLz1aWlpaWjJaZClaWloyXDdHTltXNVpaWjIyMikpKSkIFghkZCkyMlo1LzU1UEgrR09dSl9fRl1PFUpKSkpqfX1dR0kNWVo9MlpaWlpaWlxVR11qeo9ta352cnZ2dnZ2dnZ2dnZ2dnZ2dnZ2dnZ2dnZ2dnZma210Y11PGi0UFwEAAAAAAAAAAAAAAAAAAAAAAAAAAAAAAAAAAAAAAAAAAAAAAAAAAAAAAAAAAAAAAAAAAAAAAAAAAAAAAAAAAAAAAAAAAAAAAAAAAAAAAAAAAAAAAAAAAQETIUpqfXGPaXdmdnZ2dnZ2cnJ2dnZ2dnZ2dnZ2dnZ2dnZ2dnZ2dnZ2dnZ2dnZ2dnZ2d2ltdGNxZTxIXGw1NT09PTIpKVpaMmRaMlpaWlpcbzZdTlBaNVpaWjIpWikpKSkpKSkpMjIyWlpafHx8UFNIUkoqKhpGX18aRkYaBCoqfStOVFtkMlpaWjVaWjVXaFJKR2V4bmtrdnZ2cnZ2dnZ2a3Z2dnZ2dnZ2dnZ2dnZ2dnZ2dmZ3bXRjXU8aLSUKEgAAAAAAAAAAAAAAAAAAAAAAAAAAAAAAAAAAAAAAAAAAAAAAAAAAAAAAAAAAAAAAAAAAAAAAAAAAAAAAAAAAAAAAAAAAAAAAAAAAAAAAAAAAAAAAAAABEhkrRkp9em5pd2Z2dnZ2dnZydnZ2dnZ2dnZ2dnZ2dnZ2dnZ2dnZ2dnZ2dnZ2dnZ2dnZ2d2ltdGNxfTdvbEwvPTIyMikpWlpaWlpaWlpaZGRcVUdeaFwyWlpaMlpkWikpKQgpKSkyMjJaWlp8fHx8V1BTVEhONzc3IVFRUQ1OSEguVE1cZFoyWmRaWlpaWlA3OkplZWdta2tydnZydnZ2dmtrdnZ2dnZ2dnZ2dnZ2dnZ2dnZ2ZndtdGBdShotIB4SAAAAAAAAAAAAAAAAAAAAAAAAAAAAAAAAAAAAAAAAAAAAAAAAAAAAAAAAAAAAAAAAAAAAAAAAAAAAAAAAAAAAAAAAAAAAAAAAAAAAAAAAAAAAAAAAAAEYDycaSn16bYpmZnZ2dnZ2dnZ2dnZ2dnZ2dnZ2dnZ2dnZ2dnZ2dnZ2dnZ2dnZ2dnZ2dnZra2luZ3VqLE5LTDQ9KSkyKSlaWloyWmRaMlpkeVpYTkdHaGQ1NVoyWmRaWikWMCkpKSkyMlpaWlp8fHw1LztsUFNvb28cHBwcJU1QS1daWlpaWlpaWmRkWlpQVV5qXWpxdGlra3J2dnZ2dnZ2a2t2dnZ2dnZ2dnZ2dnZ2dnZ2dnZma22PYGVqRi0kGRIAAAAAAAAAAAAAAAAAAAAAAAAAAAAAAAAAAAAAAAAAAAAAAAAAAAAAAAAAAAAAAAAAAAAAAAAAAAAAAAAAAAAAAAAAAAAAAAAAAAAAAAAAAAAAAAAAEgolLSpKfWNtaWZ2dnZ2dnZ2dnZ2dnZ2dnZ2dnZ2dnZ2dnZ2dnZ2dnZ2dnZ2dnZ2dnZ2dmtra2lucV1GK1NXOz0pKTIpWlpaWj1aZFpaWlpaWldNDU83b1cyMlpaWjJaWikpZCkpKSkpWlpaWjU1NTU1LzVaZGRkV1dXV0tLS1d8WlpaWjJaZGR5WlpaZFZSXUpKfXFnbWtrdnJydnZ2dnZ2dnZ2dnZ2dnZ2dnZ2dnZ2dnZ2dndrbW6ccX1qLB8PGAAAAAAAAAAAAAAAAAAAAAAAAAAAAAAAAAAAAAAAAAAAAAAAAAAAAAAAAAAAAAAAAAAAAAAAAAAAAAAAAAAAAAAAAAAAAAAAAAAAAAAAAAAAAAAAAAASCiUtKkpxeG5pd3Z2dnZ2dnZ2dnZ2dnZ2dnZ2dnZ2dnZ2dnZ2dnZ2dnZ2dnZ2dnZ2dnZ2d2tra25gXUZHTlA7LzIyMlpkWjJaWlp5eVpaPT1aWmRTTkk3b1xaWloyMlpaKVpkKSkpKSlaWlpaNTU1WlpaWlpaWlo1NTU1WlpaWlpaWlpaPT1aZHk1NVdbTl9KSkp9fWNubWtmdnZ2dnZ2dnZ2dnZ2dnZ2dnZ2dnZ2dnZ2dnZ2a2ttbmdxfX1PISUYAAAAAAAAAAAAAAAAAAAAAAAAAAAAAAAAAAAAAAAAAAAAAAAAAAAAAAAAAAAAAAAAAAAAAAAAAAAAAAAAAAAAAAAAAAAAAAAAAAAAAAAAAAAAAAAAABIbHC0aSnFnbWlmdnZ2dnZ2dnZ2dnZ2dnZ2dnZ2dnZ2dnZ2dnZ2dnZ2dnZ2dnZ2dnZ2dnZ3a35tbmBdSk8rUzU7Lz09WmQyPVpkWjJaZGQ1L1pkZGRvN15/VmR5eVpaWloyWmQwFikpKSlaeXl5WjJaWmR5eXlaWjJaWloyMjIyMlpaWlo1Ly9aWnxXTQ1dSkpKSn19dWFua3drfnZ2dnZ2dnZ2dnZ2dnZ2dnZ2dnZ2dnZ2dnZra35udHF9fUorJRgAAAAAAAAAAAAAAAAAAAAAAAAAAAAAAAAAAAAAAAAAAAAAAAAAAAAAAAAAAAAAAAAAAAAAAAAAAAAAAAAAAAAAAAAAAAAAAAAAAAAAAAAAAAAAAAAAEgsmLBpGcWdta2Z2dnZ2dnZ2dnZ2dnZ2dnZ2dnZ2dnZ2dnZ2dnZ2dnZ2dnZ2dnZ2dnZ2d2t+bW1unGVKFRUgbDUvPTIyMjJaeVpaWlopWjJaeVpaWlxvK0o3VlxaWlpaWlpkZDAWMjIyKXl5MCkpKSkpKVpaWlpaWlpaMjIyMhYpKSlaWlpaWnxsS01ILRoVFRVKXV1ddWN0bWtra2trdnZ2dnZ2dnZ2dnZ2dnZ2dnZ2dnZ2dmtra2tucWpKSi0cGAAAAAAAAAAAAAAAAAAAAAAAAAAAAAAAAAAAAAAAAAAAAAAAAAAAAAAAAAAAAAAAAAAAAAAAAAAAAAAAAAAAAAAAAAAAAAAAAAAAAAAAAAAAAAAAAAASGUgsRkZxdG1rcnJ2dnZ2dnZ2dnZ2dnZ2dnZ2dnZ2dnZ2dnZ2dnZ2dnZ2dnZ2dnZ2dndra2ttbY9gZUoVGhBQbC8yMj0vMlp5WlpaWjIyWlp5WlpaWlxUf2pSb2RaNVpaeWRkeSkyMikweXkwFggICCkpKVpaWlpaWlpaWikWFggICClaWlpaV0slECcVFSwsFRVdXV1qcWNnbW1rfmt2dnZ2dnZ2dnZ2dnZ2dnZ2dnZ2dnZ2dmtraW16akpKLCAYAAAAAAAAAAAAAAAAAAAAAAAAAAAAAAAAAAAAAAAAAAAAAAAAAAAAAAAAAAAAAAAAAAAAAAAAAAAAAAAAAAAAAAAAAAAAAAAAAAAAAAAAAAAAAAAAABIZECxGanF0fndycnZ2dnZ2dnZ2dnZ2dnZ2dnZ2dnZ2dnZ2dnZ2dnZ2dnZ2dnZ2dnZra35raWlueGVGSixPLE5cNVo9Ly8vPVpkZHlaWlpaWlpaWloyMlxoSV1eVFc1NVdaWnl5eXl5eWRkZDAwMDAWFhYWCClaeTAwKWRkZDAwMDAwKVpaNTVLbyEsFT4sLS0tLBVKSl1lcWFnbmlra3Z2dnJ2dnZ2dnZ2dnZ2dnZ2dnZ2dnZ2dmtpbXp9akpPIBgAAAAAAAAAAAAAAAAAAAAAAAAAAAAAAAAAAAAAAAAAAAAAAAAAAAAAAAAAAAAAAAAAAAAAAAAAAAAAAAAAAAAAAAAAAAAAAAAAAAAAAAAAAAAAAAAAEgUOLEZqcXR+d3Z2dnZ2dnZ2dnZ2dnZ2dnZ2dnZ2dnZ2dnZ2dnZ2dnZ2dnZ2cnJ2a2trbW1udHhjZU8sFRUCSW9cNS8vPT0vNVpaWnlaWlpaWlpaWjIyZFBWUn1SaFhLbDVaWnl5eVopMHl5eXl5eTAwMDAWeXlkZDAwMDAwMDAwMDB5WlpXWC43FRoVg4MtKyErLRUVT11dcXFnbmtpd3Z2dnZ2dnZ2dnZ2dnZ2dnZ2dnZ2dnZ2a2ltY2pqSk8gFwAAAAAAAAAAAAAAAAAAAAAAAAAAAAAAAAAAAAAAAAAAAAAAAAAAAAAAAAAAAAAAAAAAAAAAAAAAAAAAAAAAAAAAAAAAAAAAAAAAAAAAAAAAAAAAAAAYDx9PSmpxdGt3dnZ2dnZ2dnZ2dnZ2dnZ2dnZ2dnZ2dnZ2dnZ2dnZ2dnZ2dnZ2dndraW1udHh6cXFlLCwVFYRPN001Lz0yMi8vNTJaWlpaWlpaWlpaWlpaWlxUNzxdTm9cWjVaWnl5WikpeXl5eXl5eTAwMHl5eWRkKRYwMDAwFhYWeWRkXFNOJwSEFYODliENH1ErJywVFRVKXXF4bmtrd3Z2dnZ2dnZ2dnZ2dnZ2dnZ2dnZ2dnZra214ampKSiYXAQAAAAAAAAAAAAAAAAAAAAAAAAAAAAAAAAAAAAAAAAAAAAAAAAAAAAAAAAAAAAAAAAAAAAAAAAAAAAAAAAAAAAAAAAAAAAAAAAAAAAAAAAAAAAAAABgUDU9KSnFua3d2dnZ2dnZ2dnZ2dnZ2dnZ2dnZ2dnZ2dnZ2dnZ+fnZ2dnZrfn5ra2ltdHhjcXFlZZubmz4VFZAVVFc1NVo1NS8vPTJaWlpaWjJaWlpkWj1aWktUUl1df0hQWlo1NXlkZHl5eSl5eXl5eXl5eXlaWhYyKWQwMBYWFjJaZFtIUkcVFRWDgy0hH5iYmFEhlos+kBVdXXFnbm1rZnZ2dnZ2dnZ2dnZ2dnZ2dnZ2dnZ2dmt+bmFqakpKJhcBAAAAAAAAAAAAAAAAAAAAAAAAAAAAAAAAAAAAAAAAAAAAAAAAAAAAAAAAAAAAAAAAAAAAAAAAAAAAAAAAAAAAAAAAAAAAAAAAAAAAAAAAAAAAAAAAGBQNFUpKem5rd3Z2dnZ2dnZ2dnZ2dnZ2dnZ2dnZ2dnZ2dnZ2dnZ2dnZra2trbW1tbmdjcWVlR12bm5uFhRUVkBo2VEtsNTUvPTJaWlpaWlpaMilaWmRaMlpafEtTUjoaSU5WUFovNWRkWlpaZHl5eXl5eXlaWloyMlpaWlp5WlpaXFtVTklqSkoVFT4nUZiYmJiYmJiMRIuEFU9PXXF4dGtpd2t2dnZ2dnZ2dnZ2dnZ2dnZ2dnZ2a35uY3VqSkYmFwEAAAAAAAAAAAAAAAAAAAAAAAAAAAAAAAAAAAAAAAAAAAAAAAAAAAAAAAAAAAAAAAAAAAAAAAAAAAAAAAAAAAAAAAAAAAAAAAAAAAAAAAAAAAAAAAAYFFEVSkp6bmt3dnZ2dnZ2dnZ2dnZ2dnZ2dnZ2dnZ2dnZ2dnZ2dnZ2a2tra21ubmd4cWpqSl1PmywnRUUnLBUVFRpJVFBXNS8vNTVaWlpaWloyKSlaWloyMlp8bFdvTitKKklIWEtXZHlaWlp5eXl5eXl5WlpaWjIyWlpaWmRQUFtoN0pffUpdTxUVFUUNmJiCmJiYmJgMRIsVFU9dZXF4bm1paWt2dnZ2dnZ2dnZ2dnZ2dnZ2dnZrfm5jcWpKGiYXAQAAAAAAAAAAAAAAAAAAAAAAAAAAAAAAAAAAAAAAAAAAAAAAAAAAAAAAAAAAAAAAAAAAAAAAAAAAAAAAAAAAAAAAAAAAAAAAAAAAAAAAAAAAAAAAABgUURVKSnpua3d2dnZ2dnZ2dnZ2dnZ2dnZ2dnZ2dnZ2dnZ2dnZ2dmtra2ttbo94cXFqakpKRj6FRSFRUSEnhRUsFRUnSFhXNS8vLy8yMlpaWlopKSkyMjI1NXw1bEslEEVPT0dSTlRQV3lXV1paWlpaWloyMlpaWlp8V0tLUFROSUddSl1KSk9PFUosJydFIVGYmJiYmIIMiIMVT0ddZXFjdG1raWt2dnZ2dnZ2dnZ2dnZ2dnZ2dmt+bnh6ZUoEJhcBAAAAAAAAAAAAAAAAAAAAAAAAAAAAAAAAAAAAAAAAAAAAAAAAAAAAAAAAAAAAAAAAAAAAAAAAAAAAAAAAAAAAAAAAAAAAAAAAAAAAAAAAAAAAAAAAGBRRFUpKem5rdnZ2dnZ2dnZ2dnZ2dnZ2dnZ2dnZ2dnZ2dnZ2dnZ2a2lrbnR4Y3FlXUpKRj6LRIyYmJgOH1ItLCwVhEBJTm9QWj0oKD0yMlpaWlpaWj0yWnw1NUtQTRwuDistLEZHNkgub01cV1paWjU1PT01fFpkXE1vLkgONkcaRkZKSkpKTxUVFSwsFRUnIZiTmJiYmJiMloMVT09danN6Z25ta2t2dnZ2dnZ2dnZ2dnZ2dnZ2a35ueHpxSgImFwEAAAAAAAAAAAAAAAAAAAAAAAAAAAAAAAAAAAAAAAAAAAAAAAAAAAAAAAAAAAAAAAAAAAAAAAAAAAAAAAAAAAAAAAAAAAAAAAAAAAAAAAAAAAAAAAAYFFEVSkpxbmt2dnZ2dnZ2dnZ2dnZ2dnZ2dnZ2dnZ2dnZ2dnZ2d2t+bW5nY3FqR2GjUAAAIABJREFUakpdSoVEjIyMgJiYmJgQDSFFLJWEkJBPNlVbUGRkZFpaWlpaWlpaNTVXZFBQb0hIEBAfKy0tT0YaGi0hSFRbTVhQXFxkXFBQTVlUSDYnFRoaRhVPFRVKSkpKSkpPFUpKSixFgpiYmJiYmJiMloMVFRVKanFxZ25+a3d2dnZ2dnZ2dnZ2dnZ2dnZrfm54enFKBCYXAQAAAAAAAAAAAAAAAAAAAAAAAAAAAAAAAAAAAAAAAAAAAAAAAAAAAAAAAAAAAAAAAAAAAAAAAAAAAAAAAAAAAAAAAAAAAAAAAAAAAAAAAAAAAAAAABgUUU9KanF0fmt2dnZ2dnZ2dnZ2dnZ2dnZ2dnZ2dnZ2dnZ2dmtpbW5nY3FxakpKFSwshoyYmICAgJiYmJOYDSEnlYSQFU9dR0lSN05oW1xkeXl5eVpabFdvTlJeR15HLSwVSkpKFU9PTxVPXklSNzdOTk5OTjdSSV5HLCwsLCwVFRVPT0pdXWpdXV1dXV1HLCyMgoKAgJiYmJiMloMVFU9dXX16Z25rd2Z2dnZ2dnZ2dnZ2dnZ2dmt+bnhxZUoEJAoBAAAAAAAAAAAAAAAAAAAAAAAAAAAAAAAAAAAAAAAAAAAAAAAAAAAAAAAAAAAAAAAAAAAAAAAAAAAAAAAAAAAAAAAAAAAAAAAAAAAAAAAAAAAAAAAAGBQfR0p9cW5+a3Z2dmZ2dnZ2dnZ2dnZ2djk5OXZ2dmtra2traW2PeHFxZV1KRpssRSGCgICAgICAgICYmJiYmCuDhIQVT0pqSio6XVI3SFVoaGhoVG9TVA1PfX1qfSoqRkZKSkpKFUpKhBoaGkpKXV1HXUddfX19fWpqPEZGSiwsLCxPXWVxcXFxYGBgZV1dLESGjICYmJiYgJiMhkQVhSxPSn16eG5ra3Z2dnZ2dnZ2dnZ2dnZ2a2tteHFqShomFwEAAAAAAAAAAAAAAAAAAAAAAAAAAAAAAAAAAAAAAAAAAAAAAAAAAAAAAAAAAAAAAAAAAAAAAAAAAAAAAAAAAAAAAAAAAAAAAAAAAAAAAAAAAAAAAAAYDw5Hajxxbn5rdnZ2ZnZ2dnZ2dnZ2dnZ2OTk5dnZ2a35+bW1tj2NxXV1dTxUsJytRmICAgICAgICAgICYmJiYIUWDFRUVFSdRJCYfRRoCAio8X0ZPK39JT0pdZXFxcWpqRkZKSkpKSkoVFRUVT11qPDo6Ojo6PEpdcWA3DQ5IDUUtFUpdcXp4Z2ePbm50YF1Pm5aMgpiYmICAmJiCDESDhSwVSmp6dG1rdnZ2dnZ2dnZ2dnZ2dnZraW14ampKRiYXAAAAAAAAAAAAAAAAAAAAAAAAAAAAAAAAAAAAAAAAAAAAAAAAAAAAAAAAAAAAAAAAAAAAAAAAAAAAAAAAAAAAAAAAAAAAAAAAAAAAAAAAAAAAAAAAABgPDixqfXF0bWt2dnZ2dnZ2dnZ2dnZ2dnZ2djl2dmtra2ludHhxZWVdFUoVLUUhmJiAgIGBgICAgICAgICAgJgNIZaDm0osNiQLGxQkHw1RITZSKytFLUpKZXFjZ2dnY3FxcWpqal1dXUoVFUpPXklJJ0dHR0deSTc3SFZTTVAuNk9ffX16Z25+a2lpaWmPYGqbLSuMjIKCgoCTk4CCjIiDixVdXXF4bmt2dnZ2dnZ2dnZ2dnZ2dmtpbXhqakpKIBgAAAAAAAAAAAAAAAAAAAAAAAAAAAAAAAAAAAAAAAAAAAAAAAAAAAAAAAAAAAAAAAAAAAAAAAAAAAAAAAAAAAAAAAAAAAAAAAAAAAAAAAAAAAAAAAAAGAUOLEZqcWdta3Z2dnZ2dnZ2dnZ2dnZ2dnZ2dnZra2lpbmdjcWVdSkpGhS0rUZiYmICAgICAgICAgICAgICAmJiMli0VRkonEB4XChsbGx4LGQ9QUBwOT3NjdH5paWltbW1ueHpxfWpqSkpPT08hJBwcJlVVVFRZUEtLV0tQLg1HSnN6eHB+aYpmd2lpaW10cWosloadnYyCgpiTmJiCjESDFRVdcXFnfnZ2dnZ2dnZ2dnZ2dnZ2a2ltY31qShUgGAAAAAAAAAAAAAAAAAAAAAAAAAAAAAAAAAAAAAAAAAAAAAAAAAAAAAAAAAAAAAAAAAAAAAAAAAAAAAAAAAAAAAAAAAAAAAAAAAAAAAAAAAAAAAAAAAASGRAsRkpxZ21rdnZ2dnZ2dnZ2dnZ2dnZ2dnZ2a35+bW5ncWpqXV1GRixFIZiYmJiYgICAgICAgICAgICAgICYgoyWLS0sFUYhJQsKEgAAEhgYF0xsGS5Hc2dtd2KKZndpaWltbmdjdXN9al1dSlIkHBQUGUtLS1d8NTVXUFQrXzxzYWdufneKYmJmd2lpbW5haiyWloYMnYyCmJOYmJiCjEQVSl1xdWd+dnZ2dnZ2dnZ2dnZ2dnZra21xPGpKLCAYAAAAAAAAAAAAAAAAAAAAAAAAAAAAAAAAAAAAAAAAAAAAAAAAAAAAAAAAAAAAAAAAAAAAAAAAAAAAAAAAAAAAAAAAAAAAAAAAAAAAAAAAAAAAAAAAABILJCxKSnFnbWt2dnZ2dnZ2dnZ2dnZ2Znd+fmtpbW5nY3FqSl1PFSwtK1GYmJiCgJiAgICAgICAgICAgIKCjIyMjJZFK0UthSwrECUbGBIYGBISEkwTLl51j2lmcnJycmJmZoppbW5nY3F1cWVdXS0rJA8bCmxsfHx8S1lOJ09lcWNwbWl3ZnJycnJ2dmt+dHpqLCeWloYMnYKYmJiYmJiCjCxKanF1eH5rdnZ2dnZ2dnZ2dnZ2dmt+bnF9akonHBgAAAAAAAAAAAAAAAAAAAAAAAAAAAAAAAAAAAAAAAAAAAAAAAAAAAAAAAAAAAAAAAAAAAAAAAAAAAAAAAAAAAAAAAAAAAAAAAAAAAAAAAAAAAAAAAAAEgsmLEpKcWdua3Z2dnZ2dnZ2dnZ2dmZ3aW1ubW6PeHFlXUpKShUtKyGYmJiYmICAgICAgJiTk4CAgIKCnZ0MDIyMhowhISsnLD4tUSYlGRsXGBgSF01OZWFuaWZyP3JycnJyZnd3aWlrbWdhcXFxal1SECAcb1NTb28uN0cCXY9tbX5rimZydnZycnJ2dn5uYXFPLZaWhgwMjIKCgoKYmJiClixdZXFnfmt2dnZ2dnZ2dnZ2dnZ2fm10cWpGFSslGAAAAAAAAAAAAAAAAAAAAAAAAAAAAAAAAAAAAAAAAAAAAAAAAAAAAAAAAAAAAAAAAAAAAAAAAAAAAAAAAAAAAAAAAAAAAAAAAAAAAAAAAAAAAAAAAAASGxwtkEpqeG5rd3Z2dnZ2dnZ2dnZ2d2tpbo9neGFxakpdFRUVJyFRmJiTmJiYgICAgICAk5OYgICAgp2dnQyGjIwMnYwhKycnLYtAQEUQJRkTV2wKHElxYW2KcnI/cnJydnZ2ZmaKioppfm50eHFlXX0CBF9dNg02Ul5qX11gbmlpd2ZiYnJ2dnZycnJ2a35ncUotJ5aGDJ2MjIyCgoKYmJgrLV1lcWdra2t2dnZ2dnZ2dnZ2dnZ+bnRxakYVURQYAAAAAAAAAAAAAAAAAAAAAAAAAAAAAAAAAAAAAAAAAAAAAAAAAAAAAAAAAAAAAAAAAAAAAAAAAAAAAAAAAAAAAAAAAAAAAAAAAAAAAAAAAAAAAAAAABIKJS0aSmpjbmlra3Z2dnZ2dnZ2dndrfm2PZ3FxfWpKShWLg5YhDZiYmJiAgJiAgIKYmJiAgIKCgoydnZ2dDIaMjIyGlitFlpaWloOLFS0rIQ0mFBkuXnF6bopmcgc5OXJrfnZmd3d3d2t3d2t0enF9fV9dXUplZWVgZWVqZZxua4piYnJiYnZ2dnZ2dnJma3BxSiwnK4ydnYydnYyMgpiYmCstXXFxZ2lra3Z2dnZ2dnZ2dnZ2dn5uZ3FGRiwQBRgAAAAAAAAAAAAAAAAAAAAAAAAAAAAAAAAAAAAAAAAAAAAAAAAAAAAAAAAAAAAAAAAAAAAAAAAAAAAAAAAAAAAAAAAAAAAAAAAAAAAAAAAAAAAAAAAAARcUJ0BKXXpuaWtrdnZ2dnZ2dmZ3a21udHhxal1dTxVGPoOGgoKAgJiYgICAgICAmJiAgoKCnZ2dnZ2djIydDIyMjIyMjIaGjIyMhpaDg5AaLCsNEDZdcXhtimZ2cnJydnZ2dmtra2trdnJyZmltdGN9fUpKanFnbnR4cWpgnGl3ZmZycmZ3a2trdnZ2dmZrcHpqLCcrjIyMjJ0MjIyMgoKMKy1dcXF0a2trdnZ2dnZ2dnZ2dnZrfm6ccUoaLCYLGAEAAAAAAAAAAAAAAAAAAAAAAAAAAAAAAAAAAAAAAAAAAAAAAAAAAAAAAAAAAAAAAAAAAAAAAAAAAAAAAAAAAAAAAAAAAAAAAAAAAAAAAAAAAAAAAAABGAVFQBVdem5pa2t2dnZ2dnZ2Znd+j3hxcWVKXSwsFYNEhoKYgICAmICAgICAgICYgIKCjIydnQwMnZ2djJ2djIyMjIydhoaMjIyMjIaGliwVRiMCX19qZ21pZnZ2dnZ2dnZ2a35ra3Z2cnJyYoprbpxJXWpxZ21pbXR6cXGcbWtra3Z2d2t+fn52dnZ2d2t7Y2qbJyuMjIyMnQyMjIyMjIxFLUp9cXR+a2t2dnZ2dnZ2dnZ2a2t+j2BdShotHB4YAQAAAAAAAAAAAAAAAAAAAAAAAAAAAAAAAAAAAAAAAAAAAAAAAAAAAAAAAAAAAAAAAAAAAAAAAAAAAAAAAAAAAAAAAAAAAAAAAAAAAAAAAAAAAAAAAAMSEyuEFV1xj2lra3Z2dnZ2dnZma21ncXNqSl1PFYWDhoyYmICAgICAgICYmJiAgIKdnYyMjIyMjJ0MDAwMnZ2MjIaGhoaGnYyGhoyMjIyWLSwVFUYVkGp4bWlrfo52dnZ2dnZrfn52dnZycnJyZoppaU5JdWdtaWlrbmdhdXp4cI6OfnZma36OfnZ2dnZrfm5japsnK4yMjIwMDIyMjIadjJYsSn1jdG1ra3Z2dnZ2dnZ2dnZra210Y2VKKi0lGxgSAAAAAAAAAAAAAAAAAAAAAAAAAAAAAAAAAAAAAAAAAAAAAAAAAAAAAAAAAAAAAAAAAAAAAAAAAAAAAAAAAAAAAAAAAAAAAAAAAAAAAAAAAAAAAAAAAxgTDS1KXXFnbWt3dnZ2dnZ2ZndrbnhxZUpKShWDloyCgoCAgYCAgICAgICCgoKCjIyMjIyMjIyMjIydnZ2dnYyMjIyMjIyMjIyMjIyMKytFJycnJyyQamBuaX5+fmtra3Z2dmtra3Z2dnJycnJmaWmPnGV6j2mKimltbnh1emeOdnZycmZ3fn5+fnZ2dmt+bnhqLCcrjIydnZ2dnYyMhoaWLRVqcWdtfmtrdnZ2dnZ2dnZ2dmtrbXR6ZUoCLQ8XFxIAAAAAAAAAAAAAAAAAAAAAAAAAAAAAAAAAAAAAAAAAAAAAAAAAAAAAAAAAAAAAAAAAAAAAAAAAAAAAAAAAAAAAAAAAAAAAAAAAAAAAAAAAAAAAAAADGEsQSUpdfWdtd2Z2dnZ2dnZ3aW1wenFlXUoVLCchmJiCgICBgICAgICAgoKCjIyMjIyMjIyMjIyMjIydnZ2djIyMjIyMjIyMjIyMjIwrKysrKytFLZBqYG5pfn5rfn5rdnZ2dmtrdnZ2cnJydmttj3h6c3F0a4ppaWtueHN1e352Pz9yd2t+fn5+dnZya35ueGosJyuMhoadjIyMjIyGlpYVSmpxbm1+a2t2dnZ2dnZ2dnZ2a2ttdHFlSgInGRIYEgAAAAAAAAAAAAAAAAAAAAAAAAAAAAAAAAAAAAAAAAAAAAAAAAAAAAAAAAAAAAAAAAAAAAAAAAAAAAAAAAAAAAAAAAAAAAAAAAAAAAAAAAAAAAAAAAESC1VJfV19Z21rZnZ2dnZ2dmtpbY9xal1KLC1FIVGYmIKYk4CAgIGCgoKMjIyMjIyMjIyMjIyMjIyMjIyMjIyMjIyMjIyMjIyMjIyMjIwrKysrK0UtFWpgbmlra3Zra3Z2dnZ2dmt2dnZycnZrjmd4enVzdWN+a2t+bY9jcXpua2Y/P3Zrfn5ra3Z2dnJ3a214aiwnK4yGhp2MjIyMjIyGlixqcWNufmtra3Z2dnZ2dnZ2dnZra2mPcV1KX0UTAQEBAAAAAAAAAAAAAAAAAAAAAAAAAAAAAAAAAAAAAAAAAAAAAAAAAAAAAAAAAAAAAAAAAAAAAAAAAAAAAAAAAAAAAAAAAAAAAAAAAAAAAAAAAAAAAAAAAzFsVFJfXXFnbmt3dnZ2dnZ2a2ttj3FqSkosRVEfmJiAgICAgICCgoKMjIyMhoaGnYyMjIyMjIyMjIyMjIyMjIyMjIyMjIyMjIyMjIyMjIwrKysrKycsamBuaXd2dnZ2dnZ2cnZ2dnZ2dnJycmZ3bW2PY3F1em1paWltnGBxdW5+fnZydmtra2t3ZnJydnd+bnhKLScrjIaGnYyMjIyMjIaWFWplnG5ta2t2dnZ2dnZ2dnZ2dmtrbWddXU9KNgsGAAAAAAAAAAAAAAAAAAAAAAAAAAAAAAAAAAAAAAAAAAAAAAAAAAAAAAAAAAAAAAAAAAAAAAAAAAAAAAAAAAAAAAAAAAAAAAAAAAAAAAAAAAAAAAAAAAADMWxNNypdcXhufmt2dnZ2dnZ+a36PcWpKSiwrHxCYgoKAgICAgp2MjIyMjIyGhoaGjIyMjIyMjIyMjIyMjIyMjIyMjIyMjIyMjIyMjIyMjIwrKysrRS1qcW6KZnZ2dnZ2dnZydnZ2dnZ2cnJycmZpaW1nenFxj21tbY9gZXFxdG1+a3Z2d2tra3d3ZnZ2a35uY0otKyGMDAydjIyMjIyMKy0VanGcbn5rdnZ2dnZ2dnZ2dnZ2a2tteGpdSi0NCwYGAAAAAAAAAAAAAAAAAAAAAAAAAAAAAAAAAAAAAAAAAAAAAAAAAAAAAAAAAAAAAAAAAAAAAAAAAAAAAAAAAAAAAAAAAAAAAAAAAAAAAAAAAAAAAAAAAAMxTEtOAl1lY3R+a2t2dnZ2do5+fm56akpKT0UNEJiCgoCAgIKdHQyMjIyMnYaGhoaMjIyMjIyMjIyMjIyMjIyMjIyMjIyMjIyMjIyMjIyMjCsrKysrJ11xbopmcnZ2dnZ2dnZ2dnZ2dnI5OXJyZmltj3RjcWOcnHhgYGpqanF0bWl3d3d3d3drfmtra2tpbXRjTycrIYydDJ2MjIyMjCErLUpqcY9+a2t2dnZ2dnZ2dnZ2dnZrfo9jal1GRSQbBgYAAAAAAAAAAAAAAAAAAAAAAAAAAAAAAAAAAAAAAAAAAAAAAAAAAAAAAAAAAAAAAAAAAAAAAAAAAAAAAAAAAAAAAAAAAAAAAAAAAAAAAAAAAAAAAAAAAwMSbCQCXWVxeG1ra3Z2dnZ2jn5+bnhqakoVLSEfmJiYmICBgp2dnZ2dnQyGhp2MjIyMjIyMjIyMjIyMjIyMjIyMjIyMjIyMjIyMjIyMjIyMjIwrK1IrXXFuinJydnZ2dnZ2dnZ2dnZ2djk5cnJma22Pj2NxcWVlXV1qOio8cXh0bm5+a2tra35+aWlpaWltZ2UsRTYhjJ0MDJ2MjIyMIUUsSmp4bn5rdnZ2dnZ2dnZ2dnZ2a2ttdGVdXSohJQoBEgEAAAAAAAAAAAAAAAAAAAAAAAAAAAAAAAAAAAAAAAAAAAAAAAAAAAAAAAAAAAAAAAAAAAAAAAAAAAAAAAAAAAAAAAAAAAAAAAAAAAAAAAAAAAAAAAADAwAXJgQsZWV4bWt+dnZ2dnZ+a2ttZ3VqSkosK1GYmJiYgIGCnZ2dnZ2dDIaGjIyMjIyMjIyMjIyMjIyMjIyMjIyMjIyMjIyMjIyMjIyMjIyMjIwrIStHcY9pcnJ2dnZ2dnZ2dnZ2dnZ2dnJydmtrbW50YGo8KioaLSEOHyFHcXp4eGdubm5ubm5tbW1taW54ZSxFISGMnQwMnYyMjIwhJ09qcWdta3d2dnZ2dnZ2dnZ2dnZraW14ZV1dAg4TGAESEgAAAAAAAAAAAAAAAAAAAAAAAAAAAAAAAAAAAAAAAAAAAAAAAAAAAAAAAAAAAAAAAAAAAAAAAAAAAAAAAAAAAAAAAAAAAAAAAAAAAAAAAAAAAAAAAAMDABggLU9HZWNubX52dnZ2dnZ2dn50cWpdShUtIZiYmJiAgICCnZ2MjIyMjIyMjIyMjIyMjIyMjIyMjIyMjIyMjIyMjIyMjIyMjIydnYyMjIyMjIwhK0dlZ21mcnZ2dnZ2dnZ2dnZ2dnZ2dnZ+fn5tbnhxXUcnJysfIA8PHE5JXWpxcXFhYWFhY3h4nJycnGVdLUWMjIydnQydnYyMjCstT2pxZ35rZnZ2dnZ2dnZ2dnZ2dmtpbXhzfZACJBsSARIBAAAAAAAAAAAAAAAAAAAAAAAAAAAAAAAAAAAAAAAAAAAAAAAAAAAAAAAAAAAAAAAAAAAAAAAAAAAAAAAAAAAAAAAAAAAAAAAAAAAAAAAAAAAAAAAAAwMBGCUhLE9dcXRta2t2dnZ2dnZ2a254cV1dSiwrDZiYmICAmIKdjIKMjIyMjJ2GDIyMnZ2MjIyMjIyMjIyMjIyMjIyMjIyMjIyMjJ2dnYyMjIyMjIwrJ114bmt2dnZ2dnZ2dnZ2dnZ2dnZra3dpa254cXMhJiAcFBkeGx5LDyYhRip9an19c3Nzc3NxZWVlXU8tRYyMnZ2dDAydjIwrRS1KZXhufnd2dnZ2dnZ2dnZ2dnZ2a2ttY3N9GhomCgEGAQEAAAAAAAAAAAAAAAAAAAAAAAAAAAAAAAAAAAAAAAAAAAAAAAAAAAAAAAAAAAAAAAAAAAAAAAAAAAAAAAAAAAAAAAAAAAAAAAAAAAAAAAAAAAAAAAADARIXGSQsSkpleG5rfmt2dnZ2dnZrfnRxZV1KSkVRmJiYgICYgoyMgoyMjIyMnYaGjIydnZ2MjIyMjIyMjIyMjIyMjIyMjIyMjIyMjJ2djIyMjIyMjIwnT3F0bWt2a2t2dnZ2dnZ2dnZ2a2traWltZ3VlUi4ZEwseCgoKbBsbGSUQDSEtkEZdRVI2UitHSkZGFS0rjIwMnZ0MDAyMISsnLEpldG1rdnZ2dnZ2dnZ2dnZ2dnZrbW5hc31KKxwYAQEDAwAAAAAAAAAAAAAAAAAAAAAAAAAAAAAAAAAAAAAAAAAAAAAAAAAAAAAAAAAAAAAAAAAAAAAAAAAAAAAAAAAAAAAAAAAAAAAAAAAAAAAAAAAAAAAAAAMBEhceHC0am2pjbmlra3Z2dnZ2dndpbnplXUpGJyGYmJiAgICCgoKMjIyMjIyMjIyMjJ2djIyMjIyMjIyMjIyMjIyMjIyMjIyMjIyMjIyMjIyMjIyMjCtHcXhufmtra3Z2dnZ2dnZra2t+fm1udHFxdUdITRsKChsbGxsbGxsKChkUICEsLCsOJCYkECErLRUVLUWMnQydnQwMnYwhUidPXXF0bWt2dnZ2dnZ2dnZ2dnZ2dmtuZ3pxfU8ODxgAAzEDAAAAAAAAAAAAAAAAAAAAAAAAAAAAAAAAAAAAAAAAAAAAAAAAAAAAAAAAAAAAAAAAAAAAAAAAAAAAAAAAAAAAAAAAAAAAAAAAAAAAAAAAAAAAAAAAAzESGBgFJwRdZXGPaWtrdnZ2dnZ2a2tuZ2NlXRUsK5iYgICAgICCnZ2djIyMjIyMnYyMjIyMjIyMjIyMjJ2djIyMjJ2GhoaGDIyMjIyMjIyMjJ0MhoaMjC1qcW5tfmt3dnJydnZ2Zmt+fn5tbmdxfXFlXTccHgoKGwoXGBcKChcXGxsFECeWmCYcJSUckyQQRRUVLZaGhgydnZ2MKyFSLUplY25tfnZ2cnZ2dnZ2fnZ2dnZra254cWV9LCYTFxIxMQMDAAAAAAAAAAAAAAAAAAAAAAAAAAAAAAAAAAAAAAAAAAAAAAAAAAAAAAAAAAAAAAAAAAAAAAAAAAAAAAAAAAAAAAAAAAAAAAAAAAAAAAAAAAAAAAADMRISEgshSkpldXRra2t2dnZ2dnZrfm6PY2VdT08tUZiCgICAgIKdDJ2MjIyMjIydjIyMjIyMjIyMjIyMDAyMjIyMnYaGlpaGnYyMjIyMjIyMnQyGhgyMlkpldG1ra3d2cnJ2dmZ3a35tbW5nempdZV1KFQ4UGwobChgSChMLbBcXGB4kJ4aTHBQUFCWRJRwOUi2LRIiGDJ2MjIwrNissSnF4bm1+dnZydnZ2dmt+dnZ2a2trbmNxZUotJRsXEjExAwMAAAAAAAAAAAAAAAAAAAAAAAAAAAAAAAAAAAAAAAAAAAAAAAAAAAAAAAAAAAAAAAAAAAAAAAAAAAAAAAAAAAAAAAAAAAAAAAAAAAAAAAAAAAAAAAESEhISCxAnamp1Z25pa2t2dnZ2dmt+bY9jZV1PFS0hDZiYmICAgZ0MnYyMjIyMjIyMjIyMjIyMjIyMjIydDJ2MjIyMjJZFRYYMnYyMjIyMjIyMnQwMnYyWLF1gbmlra3Z2dnZma35rfm2PnHFlRytSKxVARSQTCgoXEhIUIR8PChIDCiQnjJRDmpGRkZFDmhwQIYODhoyMjIwMKyFSRU9qcWdufmt2dnJ2dnZ2dn5rdmt+fmt7enVlTysPGBIYTDEDAwAAAAAAAAAAAAAAAAAAAAAAAAAAAAAAAAAAAAAAAAAAAAAAAAAAAAAAAAAAAAAAAAAAAAAAAAAAAAAAAAAAAAAAAAAAAAAAAAAAAAAAAAAAAAAAARISARIKJSEEanV4j2lpfnZ2dnZ2a35tj3hlXV1PLEVRmJiYgICBnQydjIyMjIyMjIyMjIyMjIyMjIyMjIydjIyMnYyMjCsrjAwMjIyMjIyMjIyMnZ2dhitFSmWPaWtra2tra3drbW1uZ2NxZSsNJCAkJxqQIRwLGxcSFxwCRyUbGAEKJkWMlEOaQ5GRQ5oUJSZRg4uGjIyMjAwrIVInSn1xdG5+a3Z2cnZ2dnZ2dmvGHMYIAAAgAElEQVRra35+bWd1dV0tDQsSARhMMQMDAAAAAAAAAAAAAAAAAAAAAAAAAAAAAAAAAAAAAAAAAAAAAAAAAAAAAAAAAAAAAAAAAAAAAAAAAAAAAAAAAAAAAAAAAAAAAAAAAAAAAAAAAAAAAAADAQEBEhgLEAJqdXpnbWtrdnZ2dnZra35unGVqSkoVLYyYmJiAgICdDJ2MjIyMjIyMjIyMjIyMjIyMjIyMjIyMjAyGjIyMjIyMDAyMjIyMjIyMjIyMjJ2GIStKamdra2tra2t+bW1udHhxfV4hECYlFBwNLSMsDiUeGBIXJQ0QDwoYAQogK4yRQ5qaQ0OaFCUlJIyDg4aMjIyMnYwhKydKc2Nufn5rdnZydnZ2dnZ2a2trfn50Y3VqaismGwEBEhgxAwMAAAAAAAAAAAAAAAAAAAAAAAAAAAAAAAAAAAAAAAAAAAAAAAAAAAAAAAAAAAAAAAAAAAAAAAAAAAAAAAAAAAAAAAAAAAAAAAAAAAAAAAAAAAAAAAMBARIBEgokX11qcWNufmt2dnZ2dnZrfm2PYGpKShWLjJiYmICAgIKdDJ2MjIyMjIyMjIyMjIyMjIyMjIyMjIyGhoaMjIyMjIydDJ2MjIyMjIyMjIyCjIYhKyxqeG1tbW1tbW5nYXFxcV1JHyAcJRQUJSYhPhUtJAsXEhgeBQ8KMTESCiArgpGRQ5qampoFFBwOloNEhowMhoyMjCtFLWpqZ2lra2t2dnJ2dnZ2dnZrfmt+bnh1amU8DQUXARISMTEDAwAAAAAAAAAAAAAAAAAAAAAAAAAAAAAAAAAAAAAAAAAAAAAAAAAAAAAAAAAAAAAAAAAAAAAAAAAAAAAAAAAAAAAAAAAAAAAAAAAAAAAAAAAAAAAAAAEBAQEBFxxFSmpqenBua3d2dnZ2dnZrfm1nc2pKFRUrDZiYmICAgp0MnYyMjIyMjIyMjIyMjIyMjIyMjIyMjIaGhoyMjIwrDJ2dnYyMjIyMjIyMjIKdDIwrLUpxdI+PdGd4Y3FxXWpdUiQckZGRJZElJRAnFQINFAoSEhgXChgxMRIbJCdRHEOamkNDQxQlJCGDRIadnQwMjIyMlidHanF0aXd3dnZycnZ2cnZ2dmt+a357en1dXQIkGxgSGBIBEgMDAAAAAAAAAAAAAAAAAAAAAAAAAAAAAAAAAAAAAAAAAAAAAAAAAAAAAAAAAAAAAAAAAAAAAAAAAAAAAAAAAAAAAAAAAAAAAAAAAAAAAAAAAAAAAAAAAQEBAQEYDw5PampzY3t+d2Z2dnZ2dmt+bXR1akpPFSchmJiYmICCnQwMjIyMjIyMjIyMjIyMjIyMjIyMjIyMhoaGjIyMK5aGjIyMjIyMjIyMjIyMjIydjIwnT11lYGBxcWVdXV1dRyGYHBRDkZGRkUMlIB8tBEUkCxgSEhISMTExMRsQLVEcmppDkZGRJRyYliwrjJ0MDJ2MjIyWLV1xY49rd2Z2cnJydnZydnZ2a35+bWdxSl1KFSAXARIYEgESAQAAAAAAAAAAAAAAAAAAAAAAAAAAAAAAAAAAAAAAAAAAAAAAAAAAAAAAAAAAAAAAAAAAAAAAAAAAAAAAAAAAAAAAAAAAAAAAAAAAAAAAAAAAAAAAAAESAQESEhIbHC1qXXN6Z21rZnZ2dnZ2dn5tdHFqSl1KLCuYmJiYmIKdnQyMjIyGnYyMjIyMjIyMjIyMjIyMjJ2GhoaMjIyGloiMjIyMjIyMjIyMjIyMjIyMjCstT11dampdXUddGiwhk5GRQ5pDQ5GampElIEUaFSEUChgYGAEDMTEDChAsURyampGRkZGRlIyDliEhhgydjIyMjCdPXXFnbn5rZnZycjl2dnZ2dnZrfn5ueHFKShUhJRgAEhgSARIBAQAAAAAAAAAAAAAAAAAAAAAAAAAAAAAAAAAAAAAAAAAAAAAAAAAAAAAAAAAAAAAAAAAAAAAAAAAAAAAAAAAAAAAAAAAAAAAAAAAAAAAAAAAAAAAAAAEGARISEhcPK0pdXXF4bmtra3Z2dnZ2a35uZ3FxZUoslpiYmJiYgIIMDIyMjIaGjIyMjIyMjIyMjIyMjIydDIaGjIyMhpZERJ2CgoyMjIyMjIyMjJ2dnYyMjJYtLEpGRkpPT0qDjJRDQ5GRQ0NDQ0NDkSUcIS1GJyQTGBISAxIYAwAKDhVRkZFDQ0OaJZSARIMrUSGGnYyCjIwrLUplY3Rufnd2dnI5OXZ2dnZ2dmt+bnRjfUpGLSAeEgABEhISAQEBAAAAAAAAAAAAAAAAAAAAAAAAAAAAAAAAAAAAAAAAAAAAAAAAAAAAAAAAAAAAAAAAAAAAAAAAAAAAAAAAAAAAAAAAAAAAAAAAAAAAAAAAAAAAAAAAAAYBEhIBEgsQJ0ZKfWOPfmtrdnZ2dnZ2fm1ueHFlXU8nmJiYk5OAggyGjIyMhoaMjIyMjIyMjIyMjIyMjJ0MhoaMjIyWRIODnYKCjIyMjIwrK4yMnQydjIyMhpYtLCwsLSwVFYaAQ5qaQ0NDQ0OaQ5GRHBwkIRUsISUXARIKCx4XEhsfLJiRkUOampolEIZElowhjJ2MjIKMKycsSnF4j21rdnZ2OTk5dnZ2dnZ2d2tueHFqShpFDxcBBgYBARIBAQEAAAAAAAAAAAAAAAAAAAAAAAAAAAAAAAAAAAAAAAAAAAAAAAAAAAAAAAAAAAAAAAAAAAAAAAAAAAAAAAAAAAAAAAAAAAAAAAAAAAAAAAAAAAAAAAAGARIBAQEBChRRKn1zemdtfmt3ZnZ2dnZra2lncWVdSi2CmICTk4CCnQyMjIyGhoyMjIyMjIyMjIyMjIyMnQyGDIyMjJZEi4udgoKMjIyGhpYrjIydDAyMjIaMjJaWlkVFLRUtmJFDmkOamkOamppDQ5GRkRwOLRUtJhsSCiBRJBMXHlEnECWampmampSMi0SGjIyMjIyMjIwrJ09qZZxubWt2dnI5OTl2dnZ2dmZ3a25jakqQLA0LAQYGBgYBAQEBAQAAAAAAAAAAAAAAAAAAAAAAAAAAAAAAAAAAAAAAAAAAAAAAAAAAAAAAAAAAAAAAAAAAAAAAAAAAAAAAAAAAAAAAAAAAAAAAAAAAAAAAAAAAAAAAAAYGARISEgEYCxACSmp1eG1paWtrdnJ2dmtraY9jcV1dLCuCmJiYgIKdnYyMjIydnYyMjIyMjIyMjIyMjJ0MDJ2MjIyMjESLg4KAgIKMDIaGjIyMjAwMnYKMjIyMjIaWlicsLA0mJZqaQ0NDQ0NDQ0NDQ5GRHCQNLCMOBRceDQIrIBseIScQJSVDQ5pDmIaDloyMjJ2dnYyMjCsnXX1xdG1ra3Z2cnJycnZ2dnZyZmt+dHFqSgIhJQoBBgYGBgEBAQEAAAAAAAAAAAAAAAAAAAAAAAAAAAAAAAAAAAAAAAAAAAAAAAAAAAAAAAAAAAAAAAAAAAAAAAAAAAAAAAAAAAAAAAAAAAAAAAAAAAAAAAAAAAAAAAAABgESEhISEhIKJl1dSmpxbmlpfn52dnZ2a2tpbnh1XV0sloyYmJiAgoKdjIyMjJ2GjIyMjIyMjIyMjIyMnQwMjIyMjIyMRItEgoCAgoyGhoaMjIyMDAyMgoKMjIyMhoaWLRUnJCUlmkORQ0NDQ0NDkZFDkZElHCQtAiEgHhsgECQUCh4hJyQlkZFDmpGMRJaGjIyMnZ2djIyMli1dfWOPfmt+a3ZydnZydnZ2dnJma254cWpKAhALFxIBBgYGEhIBAAAAAAAAAAAAAAAAAAAAAAAAAAAAAAAAAAAAAAAAAAAAAAAAAAAAAAAAAAAAAAAAAAAAAAAAAAAAAAAAAAAAAAAAAAAAAAAAAAAAAAAAAAAAAAAAAAAGEhgSAQESEhclDRVKZXFjdG1rfo52dnZra2tuZ3FlXU8tjJiYmICCgp2MjIyMnYaMjIyMjIyMjIyMjIydDAyMjIyMjIxEi0SCgICCjIaGhoyMjIydnYyCgoyMjIyGhkSDgyscFBQlkZFDmppDQ5pDkZGRQ5oUJkWVLFETChsTCxcSHiErJCUlkZqRmESDhoyMjIyMjIyMjCsnT2pxZ21ra35rdnZ2dnZ2dnZ2dndrbnFxXUotJhsYEhIBBgYSEgEAAAAAAAAAAAAAAAAAAAAAAAAAAAAAAAAAAAAAAAAAAAAAAAAAAAAAAAAAAAAAAAAAAAAAAAAAAAAAAAAAAAAAAAAAAAAAAAAAAAAAAAAAAAAAAAAAAAYSGBIAARgYGBscLX1lcXFnbX5+fnZ2dmtrfm10enFdFS0hmJiYgIKCjIyMjIydhoyMjIyMjIyMjIyMjJ0MDIyMjIyMjESLRIKAgIKMDIaGjIyMjIyMjIyMjIyMnYZEg4uDIRwUJSUlQ0NDQ0OamppDkZFDmpqRUS1ARRQbFxcYAQMbUYwkJSUlkZOGgy2GjJ2djIyMjIyMli1KanpnbWtrfmt2dnZ2dnZ2ZmZ3fm5ndWpqLA0UFxISEgEGAQEBAAAAAAAAAAAAAAAAAAAAAAAAAAAAAAAAAAAAAAAAAAAAAAAAAAAAAAAAAAAAAAAAAAAAAAAAAAAAAAAAAAAAAAAAAAAAAAAAAAAAAAAAAAAAAAAAAAAABhIYEgEBGBgYGBMhT11lcWdubX5rdnZ2dmt+bW5jcWVKLCGYmJiAgoKMjIyMjJ2GjIyMjIyMjIyMjIyMnQwMjIyMjIyMRItEgoCAgp0MhoaMjIyMjIyMjIyMjIydhkSLPoUrJBwcJRSaQ0NDQ0OamkORkZFDmkOTK0AtJhkKEgMSEh5RUSYlJSWUgotElpaMhoaMjIyMjIyWLGp9eG5+a2trdnZ2dnZ2dmZmZmtuZ2N1XUotIB4SARISAQESAQYAAAAAAAAAAAAAAAAAAAAAAAAAAAAAAAAAAAAAAAAAAAAAAAAAAAAAAAAAAAAAAAAAAAAAAAAAAAAAAAAAAAAAAAAAAAAAAAAAAAAAAAAAAAAAAAAAAAAGBgESEgESGBgSHiQrfWVxY3Rtfmt2dnZ2a35pbXhxZUqFjJiYmICCgoydjIyMjIaMjIyMjIyMjIyMjIydDAyMjIyGnYxEi4iCgICCnQyGhoyGDIyMjIyMjIyMjIyGRIuFhSwhDiQlFJGRQ5pDQ5pDQ5GRkZGampGCPixRHB4YEhgXGSEfICWakYCIRIyGlpaGhoyMjIwrRS1PanVnbWtra3Z2dmZra2tra2trfm1nc2osLSEFFwEBEhIBARIBBgYAAAAAAAAAAAAAAAAAAAAAAAAAAAAAAAAAAAAAAAAAAAAAAAAAAAAAAAAAAAAAAAAAAAAAAAAAAAAAAAAAAAAAAAAAAAAAAAAAAAAAAAAAAAAAAAAAAAAGBhISEhIYFxIXBR86R2VxeG5+a2tra3Z2a2ttdGNlXRWGgpiYmICCgp2djIyMjIyMjIyMjIyMjIyMjJ0dDIyMjIaGjESDhoKYmICdDIaGhoaGjJ2GhoadjIyMjIZEi4uFhS1FIRAgJRQUBSUlJZGRkUNDQ5qaQ5iDLC0kExcSGBslIRAcJZGUjESGhitFloaGjIyMjCsnLEpqem5rd3d2dnZra2t+fn5+fn5tdHp9m0YrJB4SMRISEjExMQEBAQEAAAAAAAAAAAAAAAAAAAAAAAAAAAAAAAAAAAAAAAAAAAAAAAAAAAAAAAAAAAAAAAAAAAAAAAAAAAAAAAAAAAAAAAAAAAAAAAAAAAAAAAAAAAAAAAAAAAYGEhIYEhIYEhIKJi1PXXVhdG1ra2t+dnZra36PY2VdFYiCmJiYgICCnZ2MjIyMjIyMjIyMjIyMjIyMnZ0MjIyMhoaMRIOGgpiTgIIMhoaGhoaMhoaGhoaMjIyMhkSDi4uFhYuLJw0mHCUlJSUlJZGRmpqamppDkyEsAg0UChISCyYrJCUlIIBERIaWRSsrloaMjIyMKycsanFjbWl3dnZ2d2tra2trfn6ObW5jZUqbBB8ZFwExEhgSEjExMQESAQAAAAAAAAAAAAAAAAAAAAAAAAAAAAAAAAAAAAAAAAAAAAAAAAAAAAAAAAAAAAAAAAAAAAAAAAAAAAAAAAAAAAAAAAAAAAAAAAAAAAAAAAAAAAAAAAAABgYSEhgSEjExMRgUDU9dcXVhbmlra352dnZra214ZV0VRIyYmJiAgIKdnZ2MjIyMjIyMjIyMjIyMjIydnQyMjIyGhoyGg4aYmJOAgp2GhoaGhoyGloaGhoyMjIyGhkREg4uDg4ODLUUhECAcHBQUFBSamppDQ5EcJCcERSQTGBILJCskJRwQhkSGjJZFKyErhoyMjCtFLU9lemd+a2t2dnZmd2lpaWl+fm1uZ3FKLCyFIBcGARISEhgSMTExMRIBAAAAAAAAAAAAAAAAAAAAAAAAAAAAAAAAAAAAAAAAAAAAAAAAAAAAAAAAAAAAAAAAAAAAAAAAAAAAAAAAAAAAAAAAAAAAAAAAAAAAAAAAAAAAAAAAAAYBEjESEhgSMTExEgolJ11lcXVnbWtrfnZ2dmtrbWdlXUpEjJiYmICAgp2dnYyMjIyMjIyMjIyMjIyMjJ2dDIyMhoaGjIZEhpiYk4CBnYaGhoaGjIaGnZ2MjIyMjIwMhkRERIuLi4s+PhVFURAkHCUUFBSaQ0NDQxQgKz4sIRQKEhkfKyYcJiGLRIadjCsrISuGjIyMlictSnF4bn5ra3Z2dmtra21tbW5ubmdxXRUVLBAFGAABEhISGBIxMTExMQMDAAAAAAAAAAAAAAAAAAAAAAAAAAAAAAAAAAAAAAAAAAAAAAAAAAAAAAAAAAAAAAAAAAAAAAAAAAAAAAAAAAAAAAAAAAAAAAAAAAAAAAAAAAAAAAAABgESMTESGBIxMTESEgsOJ11lcWN0fn5+dnZ2a2ttdGBdSoWImJiYmICCnZ2djIyMjIyMjIyMjIyMjIyMnZ0MjIyGhoaMhkSGmJiTgIGdDIaGhoaMnZ2MjIwrK4yMjIyGhoaGRIODg4MVFYSQK1EOJCAcJSWRQ5qaBSVRLUorHBsYFCEhJiCYloOGhoaMKyshK4aMjIaWLSxqcWdta2tra3Z2fm5ue2dnZ2djcUpKTxUsEAUXEgESMTEYEjExMTExAwMAAAAAAAAAAAAAAAAAAAAAAAAAAAAAAAAAAAAAAAAAAAAAAAAAAAAAAAAAAAAAAAAAAAAAAAAAAAAAAAAAAAAAAAAAAAAAAAAAAAAAAAAAAAAAAAAAARIBEhgSGBgxMQESCiVRfWVxcXpubX53ZnZra22PYGpKFZaCmJiYmIKMjIyMjIyMjIyMjIyMjIyMjIydnQyMjIaGhoyGRJaYmJOAgZ0MDIaGhoyMjIyMjCuWhoyMjIyGhoyGhpaDgxUsFZAVLC0rDSQgHCUUBZkZFCQrIy0kBQocRQ0mJCtEiIaGhoYrK4yGhoyMlpYtT2plnGlpaWt+fn5uZ2N6cXF6enVdSkYsLIMtJAsXAQExMRgSMTExAwMDAwAAAAAAAAAAAAAAAAAAAAAAAAAAAAAAAAAAAAAAAAAAAAAAAAAAAAAAAAAAAAAAAAAAAAAAAAAAAAAAAAAAAAAAAAAAAAAAAAAAAAAAAAAAAAAAAAABAQEBEgESEjEDAQESGyQ8XWpqcWdua3dmdmtra254akoVg4yYmJiYmIyMjIyMnYyMjIyMjIyMjIyMjJ0MnZ2djJ2MhpaWhpiYgICBjJ2dnZ2dnYyMjIyMjIyMjIyMjIaGhp2MjIZERIMVPj5AQBUnIVEOJBwUBQUUJQ0jFSEgEySWmJhRloYMhoaMnYaGjIaGjCEhJyxKamCcSGltbntnZ2NxZWpqSl1qOioEAhoVFT4rJBkKGBISEhISEhIDAwMDAAAAAAAAAAAAAAAAAAAAAAAAAAAAAAAAAAAAAAAAAAAAAAAAAAAAAAAAAAAAAAAAAAAAAAAAAAAAAAAAAAAAAAAAAAAAAAAAAAAAAAAAAAAAAAAAAQEBAwMDAQEBAQEBAAASDx9Pal1lZXRtaXd2a2tpbWdzRkaLDICTmJiYISuMjJ2GjIyMjIyMjIyMjIyMnZ2MhoaMjIyGlpaGmJiAgIKMnZ2djIwMjIyMjIyMjIyMjIyMhoaGjIyMnYZERIODi4uLPj4+Pi0hECYcJRQUECcVIx8cDpaYjEREhoydjIyMnQydnYaMISEnT0pKUjdON2dnY3F9akpKSkpGIy1RDh8hLQQaT08sJAUKEgEBARISEhIBAAAAAAAAAAAAAAAAAAAAAAAAAAAAAAAAAAAAAAAAAAAAAAAAAAAAAAAAAAAAAAAAAAAAAAAAAAAAAAAAAAAAAAAAAAAAAAAAAAAAAAAAAAAAAAAAAAABAQEBAQEBAQEBAQEBAAEXFCtdXWpqYI9paWt+a2ttdHVfPoOdgpiYmJghK4yMnQyMjIyMjIyMjIyMjIyMjIyGhoYrK4yWloaYmICCgp0MHZ2MjJ2MjIydhoaGlpaWhoaGhoyMjIyMnYaWlpZERIOFhYU+hSwnKyEQIBwkISw+RVErJyGWi0SMjIyMjIyMjIaMjIYhKyxKSl02N0llcXFxakZGShUVhS0nDiUZBRwQUi1PTywtJAsYAQABAQEYGAEAAAAAAAAAAAAAAAAAAAAAAAAAAAAAAAAAAAAAAAAAAAAAAAAAAAAAAAAAAAAAAAAAAAAAAAAAAAAAAAAAAAAAAAAAAAAAAAAAAAAAAAAAAAAAAAAAAAEBAQEBAQEBAQEBARISARILEElKSmpxeG5raWtra2tuen1KLYyCmJiYmIyMjIydDIyMjIyMjIyMjIyMjIyMnZ2MjIyMIZZElpiYmIKCnR0MjIyMjIyMjIyMjIyMjIyMnYaGhoadjIyMjIyGRZaWLSyFhYU+Pj6FLSshHw0hLBUtLSwsLSwtKyuGhoaGKyEhK5YrKysnSk9HR0lJZWpqZWVdSkYaApVFEBQeCgoKGxsZJiEaRgIhHBsSAQAAABISEgEAAAAAAAAAAAAAAAAAAAAAAAAAAAAAAAAAAAAAAAAAAAAAAAAAAAAAAAAAAAAAAAAAAAAAAAAAAAAAAAAAAAAAAAAAAAAAAAAAAAAAAAAAAAAAAAAAAQEBAQEBAQEBAQEBEhISEgoPHzpKampxZ25pa2traW1jfUonhoKYmJiYgoyMjIwMjIyMjIyMjIyMjIyMjIaGhoyMjCEhJ4OWmJiYgoydDAyMjIyMjIyMjIyMjIyMjIyMhoaGhp2MjIyMjIwrKytFJy0shYUVhSwsFUYsRUUsLCwVLCybLCc2K5aWlidFISFFlpYrJxVKT0dHXWplXV1lZX19LCsfJBwFChISEhgSARgTJC1KRi0fExgBAAESAQESAQAAAAAAAAAAAAAAAAAAAAAAAAAAAAAAAAAAAAAAAAAAAAAAAAAAAAAAAAAAAAAAAAAAAAAAAAAAAAAAAAAAAAAAAAAAAAAAAAAAAAAAAAAAAAAAAAAABgEBAQEBAQEBAQEBEhgYEhccSUpKXWV6Z21paWlpbXhxXS2GjICAgICCjIyMjIyMjIyMjIyMjIyMjIydRINEhowhISEtg5aYmJiCjIaGhoaMjIaMjCsrK5YrK5ZFRZaMjIyMjIyMjCsrKytSISErJycsLC0sLCwVRkZPT0osLBUsLJstJytFJ0UnLScnLS0sgywVRhVPT11dXWpdXV1dR0UNJgUbFxgYGBgSEhgSEhcPHy0sLEUUFwEAEhgSARISAAAAAAAAAAAAAAAAAAAAAAAAAAAAAAAAAAAAAAAAAAAAAAAAAAAAAAAAAAAAAAAAAAAAAAAAAAAAAAAAAAAAAAAAAAAAAAAAAAAAAAAAAAAAAAAAAAYGBgYGBgEBAQEBARISEhISEh4gT31dR2VjdG1paWltZ3FdLUSMgICAgIKMjIwrK4yMjIyMjIyMjIyMjIyGi4tEhishIS0VlpiYmJiCjIaGjIwrKyEhISsrRSsrRUVFRZaGhoaGhpaWJycnJ0VFRSctLCwsLCwsFU9PSkpKSkpKSk8sLCwsLS0tLSwsLCwVLCwsFRVKSkpKSkpKOio8Xg0mFAsKFxgSEhISEgEBEhgYEhcFIQJKLCAeEgASGBgSEgEAAAAAAAAAAAAAAAAAAAAAAAAAAAAAAAAAAAAAAAAAAAAAAAAAAAAAAAAAAAAAAAAAAAAAAAAAAAAAAAAAAAAAAAAAAAAAAAAAAAAAAAAAAAAAAAAAAAYGBgYGAQEBAQEBEhIBEhISGBMfR11dXWVjdG1paW10Y2Usg4yAgICAgoyMKysrjIyMjIyMjIyMjIyMjIaDi4tEJysrLRUnmJiYmJiMloaMK0UrKzZSK0VFJycnJycnlpaWlpaWLS0tLS0sLCwsLE8VFU8sLE8VT09dT09KRkZKShUsLBUVLCwsFRUsTxVPLCwsLBUVFUpKRk9SECYcFAsKEgAAARISEhISAQABGBcSAAokLEYsDRQYAAESGBIBAAAAAAAAAAAAAAAAAAAAAAAAAAAAAAAAAAAAAAAAAAAAAAAAAAAAAAAAAAAAAAAAAAAAAAAAAAAAAAAAAAAAAAAAAAAAAAAAAAAAAAAAAAAAAAAAAAAABgYGBgYGBgEBAQEBEhIBEhgYGxQNGkpdXXFjbmlpa254cUqDnYCAgICCjIwrKyGMjIyMjIyMjIyMjIyMjJaDgxUsLC0VFS0hH5gNISuWlpaWlpYnJyctLSwsLCwVShWFhYWFhRUVFRUVFRUsLBUVFRVPTxUVFRUVFUpPT0pKSk9KSiwsLE8sLSxPLCcsSkpGRiwsLC0sFUotISYLFxcXFxIBAAASEhgSEgEBAAEYFxgSFyUNSiwsJhcBAAESEgEAAAAAAAAAAAAAAAAAAAAAAAAAAAAAAAAAAAAAAAAAAAAAAAAAAAAAAAAAAAAAAAAAAAAAAAAAAAAAAAAAAAAAAAAAAAAAAAAAAAAAAAAAAAAAAAAAAAAGBgYGBgYGBgYGAAABEgEBEhIYCiAnSkpKagSJahoAACAASURBVHFnbmlpbnhqSouGgoCAgIKMjCsrIYyMjIyMjIyMjIyMjIwrK5YtFUaQFZAVLEUhIStFLS0tLS0sgywsLCwsFRVKRhoEBCMaQEAjBAQCAgICAkBAAgICBBoaGhoakE9PSl1dSkoVTxUVLBVKSiwsTxVPT0oqAgICAhUsLCwVJ0gUGxcSAQESEgEAABgbExkLChIBARISEhgXHiYaFQIkChIAAAEBAQAAAAAAAAAAAAAAAAAAAAAAAAAAAAAAAAAAAAAAAAAAAAAAAAAAAAAAAAAAAAAAAAAAAAAAAAAAAAAAAAAAAAAAAAAAAAAAAAAAAAAAAAAAAAAAAAAAAAYGBgYGBgYGBgYBARISAQABEgESCyQnRkpKdXpnbWlteDxqFYaCgICAgoyMhishjIyMjIyMjIyMjIyMhisrRS0VSpAVkBUsLC2WLSyFhYWFFUY+RkYaBAQCKjpGLCdJKytSISEhUVENDQ0fHx8fDVEhISErRScsT0pfX0pGShUVFRUVFUpKFRUVFUZGRzYOEA4fKywsFUUQFBsSEhIBAxIYFwobEyUcJQUbGAESEhIBGBcXJRVGAg4LGAEAAAEBAQAAAAAAAAAAAAAAAAAAAAAAAAAAAAAAAAAAAAAAAAAAAAAAAAAAAAAAAAAAAAAAAAAAAAAAAAAAAAAAAAAAAAAAAAAAAAAAAAAAAAAAAAAAAAAAAAAABgYGBgYGBgYGBgESEgEAAAESEgESCw4tkE9KdWN0bW14fWpGiIKAgICCgoyGhoyMjIyMjIyMjIyMjIyGlpYthSwsLCwVFRUVFYUsLBUVFRUsLCwsLS0nRUUrUiEfECQmICAcHCUlFBQUDwUFBQUPFCUcHCAkEB8hKyctLBUVFUoVLCwtLSwsLCwVRhU3HBMLEwUkJywCDRQeChIBARISGAoUJB8NJA8bGBIBAQEYFxISARgUJyxGKyAbAQAAARIBAAAAAAAAAAAAAAAAAAAAAAAAAAAAAAAAAAAAAAAAAAAAAAAAAAAAAAAAAAAAAAAAAAAAAAAAAAAAAAAAAAAAAAAAAAAAAAAAAAAAAAAAAAAAAAAAAAAGBgYGBgYGBgYGBhIBAQABAQEBAQAYCxACFU9dZWN0j2NqSkaIgoCAgIKMnYyMjIyMjIyMjIyMDIaGiESDg4uFLE8VFRUVFUYaIyMCAgICGichDiQmHBQFEwsLCwsLCxsKCgoKCgoXFxcXFxcXFxcKCgoKChsbHgsTFBxIRRUVLCshISEhISErLBVKLA4PFxgXFxkkJwJRJQsKEhISGBsUIA1FDiULChgBAAAAARIYEhIBEgUhLUYtDQsBAQESAQEAAAAAAAAAAAAAAAAAAAAAAAAAAAAAAAAAAAAAAAAAAAAAAAAAAAAAAAAAAAAAAAAAAAAAAAAAAAAAAAAAAAAAAAAAAAAAAAAAAAAAAAAAAAAAAAAAAAYGBgYGBgYGBgYGBgYGAQEBAQEBAQAYFFEVT11dcWBgZV1PSkSMgICAgp2GjIyMjIyMjIyMjIyGhoZERIODgywtLCwsLBUVLCchHxAkJiAgHBQFEwsbChgSAQABARISAQYGBgYGBgYGBgYAAQMDAwMDAwMDAwMDMRgbEyUhLCwnIQ0NHw4NDSEtFRUsEBkSARIBCiUrAismGQoSEhgeHFFSEBwFChISAQEBAQEBEhISEgESCyQnGkYrGRgBAQEBAAAAAAAAAAAAAAAAAAAAAAAAAAAAAAAAAAAAAAAAAAAAAAAAAAAAAAAAAAAAAAAAAAAAAAAAAAAAAAAAAAAAAAAAAAAAAAAAAAAAAAAAAAAAAAAAAAAABgYGBgYGBgYGBgYGBgYBAQEBAQEBABIKJStPSkpdXV1dXUdKRIyAgICCnQyMjIyMjIydnYyMjIyMjIyGhpaWlkVFJycnLBUrEBwFCwoXGBgYGBgSEhISAQYBAQEBBgYBBgYGBgYGBgYGBgYBAwMDAwMDAwMDAwMSFxseBQ4ng5ZRmJiYmJiYUS2FPiwNFBgSEgEYEw1AJw4ZFxIBCiBRISYLGBIYGAEAARISGBIBAQEBAQEbJSsCIyclChIAAQAAAAAAAAAAAAAAAAAAAAAAAAAAAAAAAAAAAAAAAAAAAAAAAAAAAAAAAAAAAAAAAAAAAAAAAAAAAAAAAAAAAAAAAAAAAAAAAAAAAAAAAAAAAAAAAAAAAAYGBgYGBgYGBgYGBgYGBgEBAQEBAQEBARIbJSEqSkpKSkpPT0otjJiAgICCnYyMjIyMjIydnYyMjIyCmJiCgoJRUSEhISFFLQ4UGxcYEgYAAQESEgEBAQEBEhIBAQYAAAAGBgYGBgYGBgYGBgEDAwMDAwMDAwMDARgKGxsTJiGDllGYmJiYmJiYiIWFFSElFxISBgEbJCcVIQUXEhgKGQUZHhgAAAESAAESEhgYEgEBAAABEhcZIQIaLCQLEgAAAAAAAAAAAAAAAAAAAAAAAAAAAAAAAAAAAAAAAAAAAAAAAAAAAAAAAAAAAAAAAAAAAAAAAAAAAAAAAAAAAAAAAAAAAAAAAAAAAAAAAAAAAAAAAAAAAAAAAAYGBgYGBgYGBgYGBgYGAQEBAQEBAQEBARgbICtKkBVdT09KRiwrmJiAgIGdjIyMjIyMjIydnYyMgoKYmJiYmJiYHx8OHyEnEBkYBgEBAQESEhIYEhISEhISEgEBBgYAAAYGBgYGBgYGBgYGAQMDAwMDAwMDAwMBGAobCgscIYuWgpiYmJiYmJiGhT6FJxwXEgEBABclUUArDxcYGBcXGBgKChsbGxsbGxseGwoYEgEAAAESGAsNAkYVURQYAQEBAQAAAAAAAAAAAAAAAAAAAAAAAAAAAAAAAAAAAAAAAAAAAAAAAAAAAAAAAAAAAAAAAAAAAAAAAAAAAAAAAAAAAAAAAAAAAAAAAAAAAAAAAAAAAAAAAAABAQEBAQYGBgYGBgYGBgYGBgEBAQEBAQESEhgLJitPFUpHR0ZGLJaYmICAgZ2MjIyMjIyMjIydnYyCgoKCgpiCgpgNDZgOIS0fBRgGARIBAQEBAQESGBgSEgEBAQAABgYGBgYGBgYGBgEGBgEBAQMDAwMDAwMDAwEYChsKCxxRlYiCmJOYmJiYmJaDPj4VIBcSAQYAGAskAisUChgSEhIBGAslJA4fDg4OECYlEwoSAQAAAQESHh8aFRUnHBgSEhIBAAAAAAAAAAAAAAAAAAAAAAAAAAAAAAAAAAAAAAAAAAAAAAAAAAAAAAAAAAAAAAAAAAAAAAAAAAAAAAAAAAAAAAAAAAAAAAAAAAAAAAAAAAAAAAAAAAEBAQEBAQYGBgYGBgYGBgYGBgEBAQEBAQEBEgoLJSECkF1HFRUshoKAgICBnYyMjIyMjIyMjAwMnZ2MjJ2MjIyMgiEhgg0hLSEUGAEBAQEBEhISEhISEgEBAAAAAAABAQYGBgYGBgYGAQEBAQEBAwMDAwMDAwMDAxIXCgoLJQ0+loKYk5iYmJiMloM+PiMmFwEBAxIYCiACRSUbGBIBEhgbBSAkJCYgJhwUGR4KGBIBARIBARIbEC1KTxomChISEgEAAAAAAAAAAAAAAAAAAAAAAAAAAAAAAAAAAAAAAAAAAAAAAAAAAAAAAAAAAAAAAAAAAAAAAAAAAAAAAAAAAAAAAAAAAAAAAAAAAAAAAAAAAAAAAAAAAQEBAQEBBgYGBgYGBgYGBgYGAQEBAQEBBgESEhgbHCEVSk9PFYOGgoCAgIGdjIyMjIyMjIyMnQwMnZ2MnQwMDAyMKyuMISstKxQYAQEBARIYEhISAQEBAQEBAQAAAQEBAAYGBgYGBgEBAQEBAQEDAwMDAwMDAwMDEhgKGwslDT6WjJiYmJiYgoyWLD4+AiYKEgEBEhgXJQQnIAsYEhISFwoLExMLHh4eGwoXEgAAAAESEhIBEhsgK0YVAhAbGBIBAQAAAAAAAAAAAAAAAAAAAAAAAAAAAAAAAAAAAAAAAAAAAAAAAAAAAAAAAAAAAAAAAAAAAAAAAAAAAAAAAAAAAAAAAAAAAAAAAAAAAAAAAAAAAAAAAAABAQEBAQEBAQYGBgYGBgYGBgYBAQEBAQEBARIBEhceHCsVFU8VFUSCgICAgZ2MjIyGhoaMjIyMjJ0dnZ2MjJ0MnYyGhoaMhoMnJRgSEhISEhIBAQESEhISEhIBAQEAAQEBAQEBAQEBAQEBAQEBAQEBAQMDAwMDAzESFxseCxQOPpaMgoKCgoKMK0UtPhUCJB4YEhISEhglLC0kExgSEgEBEhISEhISEhIYGBIBAAAAAQEBARISCiUNRhUCDgsYARIBAAAAAAAAAAAAAAAAAAAAAAAAAAAAAAAAAAAAAAAAAAAAAAAAAAAAAAAAAAAAAAAAAAAAAAAAAAAAAAAAAAAAAAAAAAAAAAAAAAAAAAAAAAAAAAAAAQEBAQEBAQEBBgYGBgYGBgYGBgYBAQEBAQEBARISEhgeUzYqTxUVRIKAgICAgoyMK4aGhgydjIyMjJ0dnYyMjJ2dnYaGnYydRCwlEgESAQEBAQEBAQEBAQEBAQEBAQEBEgEBAQEBAQEBAQEBAQEBAQEBAQEBAwMDMRgKHh4LFA4+LZaMjJ2djCsrRS0VFQIOGRcSAQEBEhQrLRAFFxISAQESEhIBAAADEhISAQEAAAESEhISEhgbBRBGFQIOExgBEgEAAAAAAAAAAAAAAAAAAAAAAAAAAAAAAAAAAAAAAAAAAAAAAAAAAAAAAAAAAAAAAAAAAAAAAAAAAAAAAAAAAAAAAAAAAAAAAAAAAAAAAAAAAAAAAAABAQEBAQEBAQEGBgYGBgYGBgYGBgYBAQEBARISEhISEkxXHFEsFRVEgoCAgICCjIwrhoaGDAyMjIyMnZ0MjIKMjJ2dDAyMjIZEiyUSAAEBAQEAAAESAQABAQEBAQEBAQESAQEBAQEBAQEBAQEBAQEBAQEBBgYBAwMxGDVsGx4FEBotloaMhoaMjCsrLRUVAiElChIDAwMSBQ0tDRQKEgYGARIYFwoXFxcXFxgSAQAAARISEhIBGBsTJEpKAh8ZFwESAQAAAAAAAAAAAAAAAAAAAAAAAAAAAAAAAAAAAAAAAAAAAAAAAAAAAAAAAAAAAAAAAAAAAAAAAAAAAAAAAAAAAAAAAAAAAAAAAAAAAAAAAAAAAAAAAAABAQEBAQEBAQYGBgYGBgYGBgYGBgEBAQEBEhISEjEYTEweHC0akIOCgICAgIKMjIyMjIydDAyMjIydnQyMgoyMjIYMnYyGhkSVHBgBEhgSAQEAARIBAQEBAQEBAQEBAQEBAQEBAQEBAQEBAQEBAQEBAQEGBgYBAzEYTGxsGxkQhC2WhoyGhoyMjCstFU8aUiBsMQMxAxITECchHAoSBgYBEhceBSUlFBMTCxsXEhIBEhgSEgEXGx4gSkoCHxkXEgEBAAAAAAAAAAAAAAAAAAAAAAAAAAAAAAAAAAAAAAAAAAAAAAAAAAAAAAAAAAAAAAAAAAAAAAAAAAAAAAAAAAAAAAAAAAAAAAAAAAAAAAAAAAAAAAAAAAABAQEAAAAAAAAAAAAAAAAAAAAAAAAAAAABEgExMRISGAoUJxoVg4yAmICCnYyMjIyMjIydnYyMjIydnYyMjIyMnZ2dhoaGlpUmChISGBISAQABAQEAAAAAAAAAAAAAAAAAAAAAAAAAAAAAAAAAAAAAAAAAAAADMRhMbBsbEyQ+loaMDJ2dnYyMKy0VFRpFJGwxAzESEhMkJyscChIAARgbGRwkHw4QJiYmICUUGRsXEgEBEgobChxGRgIOExcSEgEAAAAAAAAAAAAAAAAAAAAAAAAAAAAAAAAAAAAAAAAAAAAAAAAAAAAAAAAAAAAAAAAAAAAAAAAAAAAAAAAAAAAAAAAAAAAAAAAAAAAAAAAAAAAAAAAAAAABAAAAAAAAAAAAAAAAAAAAAAAAAAAAAQEDAwMxAwMSChQnGhWDjJiYmIKdnZ2djIyMjIyMjIyMjIyMjIyMjIyMjIyGhoaWlSQeGBISEhIBAAAAAAAAAAAAAAAAAAAAAAAAAAAAAAAAAAAAAAAAAAAAAAAAAAADGExsGx4TJD6WjIyGjIyGnYwrLRUVGicQGzEBEhISCyZFKxwKEgABGB4PJRwcJSUcHBwgJhwUCxcSAAEYChsKHEoaAhAeGAESEgAAAAAAAAAAAAAAAAAAAAAAAAAAAAAAAAAAAAAAAAAAAAAAAAAAAAAAAAAAAAAAAAAAAAAAAAAAAAAAAAAAAAAAAAAAAAAAAAAAAAAAAAAAAAAAAAAAAAAAAAAAAAAAAAAAAAAAAAAAAAAAAAABAQMDAQEAAAEXFCdAhSwhH5iYgJ2dnZ2dnZ2MjIyMjIyMjIyMjIyMjIyMjIaGhpY+JAsXEgESEgEAAAEAAAAAAAAAAAAAAAAAAAAAAAAAAAAAAAAAAAAAAAAAAAAAAAMYTGwbGxMkhC2MjIadjAydjIyIixUaTx8eEhgSBhIbJSsnIBsSAQEBEhgXFxgYGBgYGBcKFxgYGBIBEhcKCgocFRoCJAoSARIBAAAAAAAAAAAAAAAAAAAAAAAAAAAAAAAAAAAAAAAAAAAAAAAAAAAAAAAAAAAAAAAAAAAAAAAAAAAAAAAAAAAAAAAAAAAAAAAAAAAAAAAAAAAAAAAAAAAAAAAAAAAAAAAAAAAAAAAAAAAAAAAAAAEBAQMBAQEAARcPJyM+LCEfmJiYnZ2dnZ2dnZ2djIyMjIyMjIyMjIyMjIyMhoaGlj4OBQoBARISEgEAAQAAAAAAAAAAAAAAAAAAAAAAAAAAAAAAAAAAAAAAAAAAAAAAAxhMbBsbCyQ+LYyMDJ2dnYyMjIaDFUZKIQsYFxIAAQoUKywmHhcSEhISEhIYEhISARISEgEBARgYEgASCgoKGxwsRgImFwESAQEAAAAAAAAAAAAAAAAAAAAAAAAAAAAAAAAAAAAAAAAAAAAAAAAAAAAAAAAAAAAAAAAAAAAAAAAAAAAAAAAAAAAAAAAAAAAAAAAAAAAAAAAAAAAAAAAAAAAAAAAAAAAAAAAAAAAAAAAAAAAAAAAAAQEBAwESAQABFw9FQD4sIQ2YmJidnZ2dnZ2dnZ2djIyMjIyMjIyMjIyMjIyGhoaWPiElCgEBARISAQABAAAAAAAAAAAAAAAAAAAAAAAAAAAAAAAAAAAAAAAAAAAAAAADGAobGxsLJj4tjIydnZ2MjIyMhoMVSjpSExgXEgESGyUrSiQLCgoXFxcYFwoKChcYFxcYEhIYFxcSEhgeGxsLJhVKFSAYARIBAAAAAAAAAAAAAAAAAAAAAAAAAAAAAAAAAAAAAAAAAAAAAAAAAAAAAAAAAAAAAAAAAAAAAAAAAAAAAAAAAAAAAAAAAAAAAAAAAAAAAAAAAAAAAAAAAAAAAAAAAAAAAAAAAAAAAAAAAAAAAAAAAAABAQEDARIBAAEYBSsaPiwrDZiYmJ2dnZ2dnZ2dnZ2djIyMjIyMjIyMjIyMjIyGhpaLKyYKAAEBARIBAQEAAAAAAAAAAAAAAAAAAAAAAAAAAAAAAAAAAAAAAAAAAAAAAAMYChsbGx4mFYWGjIydnYyMjIyGgxVKKkUFGBISEhgLIEUaJAsbGxsbGxseHh4eGwoKCgoKCgoKChcXCh4eHgUkRhUrJRgAAQYAAAAAAAAAAAAAAAAAAAAAAAAAAAAAAAAAAAAAAAAAAAAAAAAAAAAAAAAAAAAAAAAAAAAAAAAAAAAAAAAAAAAAAAAAAAAAAAAAAAAAAAAAAAAAAAAAAAAAAAAAAAAAAAAAAAAAAAAAAAAAAAAAAAEBAQMBEgEAARgFKxoVLCsNmJiYjJ2dnZ2dnZ2dnZ2djIyMjIyMjIyMjIyMjIyGRSwsEAoBEgEBARIBAQAAAAAAAAAAAAAAAAAAAAAAAAAAAAAAAAAAAAAAAAAAAAAAARgKGxsbHiYshYaMjJ0MjIyMjIaDFRUqJyUbGBcKCgsgRQIQEwoKCgobGx4eGxsbGxsbChsbGxsKCgoKGwoLHFEaFR8PGAAAAAAAAAAAAAAAAAAAAAAAAAAAAAAAAAAAAAAAAAAAAAAAAAAAAAAAAAAAAAAAAAAAAAAAAAAAAAAAAAAAAAAAAAAAAAAAAAAAAAAAAAAAAAAAAAAAAAAAAAAAAAAAAAAAAAAAAAAAAAAAAAAAAAAAAQEBAAESAQABGBkrRkYsKw2YmIKMjJ2dnZ2dnZ2dnZ2djIyMjIyMjIyMjIyMjIwrLEANGwEYEgABEhIBAAAAAAAAAAAAAAAAAAAAAAAAAAAAAAAAAAAAAAAAAAAAAAABGAobGxseIC2FhoyMnZ2MjIyMhoMVFRotJhMKGxsKCxxFAhATChcXCgobGwoKCgoeHhsXChseGxsbGwoKChMQJwIsJgsSAAAAAAAAAAAAAAAAAAAAAAAAAAAAAAAAAAAAAAAAAAAAAAAAAAAAAAAAAAAAAAAAAAAAAAAAAAAAAAAAAAAAAAAAAAAAAAAAAAAAAAAAAAAAAAAAAAAAAAAAAAAAAAAAAAAAAAAAAAAAAAAAAAAAAAABAQEAARIBAQESGVJGRiwrDZiCgoyMjJ2dnZ2dnZ2dnZ2MjIydnYyMjIyMjIyMjCstAiEbEhgSAAESEgEAAAAAAAAAAAAAAAAAAAAAAAAAAAAAAAAAAAAAAAAAAAAAAAEYChsbGxscLYOGjIyMjIyMjIyGRBVPRiwkBQoKGwoLJSsCEBMbCgobHh4KCgobHhMeChcKHh4bChseGxseFCFGBCcUFwEABgAAAAAAAAAAAAAAAAAAAAAAAAAAAAAAAAAAAAAAAAAAAAAAAAAAAAAAAAAAAAAAAAAAAAAAAAAAAAAAAAAAAAAAAAAAAAAAAAAAAAAAAAAAAAAAAAAAAAAAAAAAAAAAAAAAAAAAAAAAAAAAAAAAAAEBAQABEhIBARITIUZGLCsNmFGMjJ2djJ2dnZ2dnZ2dnYyMjJ2djIyMjIyMjIyMKy0CIQsYGAEAARISEgEAAAAAAAAAAAAAAAAAAAAAAAAAAAAAAAAAAAAAAAAAAAAAARgKGxsKGxxFLJaMjIyMnYyMjIZEFSwVLA4UChcXFwscKwIhICUlJRwcHCUlJRwmJCAcHBwcFAsbHhsKChkkJwQVIRMSAQAGAAAAAAAAAAAAAAAAAAAAAAAAAAAAAAAAAAAAAAAAAAAAAAAAAAAAAAAAAAAAAAAAAAAAAAAAAAAAAAAAAAAAAAAAAAAAAAAAAAAAAAAAAAAAAAAAAAAAAAAAAAAAAAAAAAAAAAAAAAAAAAAAAAAAAQEBAAESEhIBEgshRkaFK1GYDVGMhoaMnZ2dnZ2dnZ2djIyMnZ2MjIyMjIyMjIwrLRorBRcSAQEAAAESAQAAAAAAAAAAAAAAAAAAAAAAAAAAAAAAAAAAAAAAAAAAAAABGAobGxsbHCssJyuMjIyGjIyMhkQsLBUsDSUbChsbFBAnGi0rISErUitFJy0VFSwnKyFRHyQlExsKChsLHFIsBCsgGwEAAAEBAQAAAAAAAAAAAAAAAAAAAAAAAAAAAAAAAAAAAAAAAAAAAAAAAAAAAAAAAAAAAAAAAAAAAAAAAAAAAAAAAAAAAAAAAAAAAAAAAAAAAAAAAAAAAAAAAAAAAAAAAAAAAAAAAAAAAAAAAAAAAAAAAAABAQEAEhgSEgESCyFGRhUnIR9RIYyGhoydnZ2dnZ2dnZ2MjIydnYyMjIyMjIyMjCsnSkUlGxISEgEAARIBAAAAAAAAAAAAAAAAAAAAAAAAAAAAAAAAAAAAAAAAAAAAAAMYChsbChslISwnK4yMjIadjIyGloUsFSwhIBkUJiQhJxUVTywsLCxPTywVLC1FIQ4kICUZCxsbChcKGSQrLC1GEAsYAAEAARISAAAAAAAAAAAAAAAAAAAAAAAAAAAAAAAAAAAAAAAAAAAAAAAAAAAAAAAAAAAAAAAAAAAAAAAAAAAAAAAAAAAAAAAAAAAAAAAAAAAAAAAAAAAAAAAAAAAAAAAAAAAAAAAAAAAAAAAAAAAAAAAAAQEBAQABEhIYGBILIUYVFSxFUlIhISuWhoydnZ2djIydDAyMjIyMjIyMjIyMjIyMjJYVJyALGBISAQEBAQEAAAAAAAAAAAAAAAAAAAAAAAAAAAAAAAAAAAAAAAAAAAAAAxIXGxsKCiUhLC0rjIyMjJ2djIaWLBUVLEUNJB8rLQICAgICBAICSkpGRiwhJCUPEwsLHhsKCh4TGSUkJxpKLCscFwEAAQESEhIAAAAAAAAAAAAAAAAAAAAAAAAAAAAAAAAAAAAAAAAAAAAAAAAAAAAAAAAAAAAAAAAAAAAAAAAAAAAAAAAAAAAAAAAAAAAAAAAAAAAAAAAAAAAAAAAAAAAAAAAAAAAAAAAAAAAAAAAAAAAAAAABEhIBAAABEhgYEh4hFRUVTywsJysrK0WWjJ2dnZ2MjIyGhp2MjIyMjIyMjIyMjIyMlhUnJBkYGBIBEhIBAAAAAAAAAAAAAAAAAAAAAAAAAAAAAAAAAAAAAAAAAAAAAAMBEhgbGwoKJSEsLSuMjIyMnYaMlpYVFRUVShoCAhVFIQ4kJCYmJiYkIS1KLA0cFBMeCwsLCxMZFCAQISxGRhUnJBMSAAEBARISAQAAAAAAAAAAAAAAAAAAAAAAAAAAAAAAAAAAAAAAAAAAAAAAAAAAAAAAAAAAAAAAAAAAAAAAAAAAAAAAAAAAAAAAAAAAAAAAAAAAAAAAAAAAAAAAAAAAAAAAAAAAAAAAAAAAAAAAAAAAAAAAAAESEgEAAAABAQEBHg0sRhUsLCwVLC0nRZaGhoaGhoaMjIyMnYaMjIyMjIyMjIyMjCsnLC0OBRgYEgESEgEAAAAAAAAAAAAAAAAAAAAAAAAAAAAAAAAAAAAAAAAAAAAAAwESFxsbCgolDSwtKyuMjIyMjCuWLRUVFUpKFSwnISQlEwoXFwoXrIbCtgAAIABJREFUFwscISxKJyENDR8fHx8NDSEhKy0VRkoVRRAZGAEBEgEBAQEAAAAAAAAAAAAAAAAAAAAAAAAAAAAAAAAAAAAAAAAAAAAAAAAAAAAAAAAAAAAAAAAAACSA238AAAAAAAAAAAAAAAAAAAAAAAAAAAAAAAAAAAAAAAAAAAAAAAAAAAAAAAAAAAAAAAAAAAAAAAAAAAAAAAAAAQEBAAAAAAAAABskJ0AVLCwVkBUVLC0nlpaMjIaGhoadnYaGjIyMjIyMjIyMjIyMRS0sIRQSEhIBAQEBAAAAAAAAAAAAAAAAAAAAAAAAAAAAAAAAAAAAAAAAAAAAAAMBARceHhsbFA0tLUUrKysrISFFJywVFRUsSiEmFAsbCgoYEhISEhgYCyBFAgIEGgQCBBoaGgICAgICAgJKDRwLFxISEhIBAAAAAAAAAAAAAAAAAAAAAAAAAAAAAAAAAAAAAAAAAAAAAAAAAAAAAAAAAAAAAAAAAAAAAAAAAAAAAAAAAAAAAAAAAAAAAAAAAAAAAAAAAAAAAAAAAAAAAAAAAAAAAAAAAAAAAAAAAAAAAAAAAAAAAAABAQEAAAAAAQEDCiVRApAVFRUVFRUVLC0nloyMjCsrlpaGhoaMjIyMjIyMjIyMjIwrJywnFBIBEgEBAQEBAAAAAAAAAAAAAAAAAAAAAAAAAAAAAAAAAAAAAAAAAAAAAAESFx4eGxsUDi0tRStFJycrK5YsLBUVLC0aDhMXEhISEhIYGBIYGBIYCyAkJBANUSErKysrKyshIR8QJCAUHhgBEhgSEhISAQEBAAAAAAAAAAAAAAAAAAAAAAAAAAAAAAAAAAAAAAAAAAAAAAAAAAAAAAAAAAAAAAAAAAAAAAAAAAAAAAAAAAAAAAAAAAAAAAAAAAAAAAAAAAAAAAAAAAAAAAAAAAAAAAAAAAAAAAAAAAAAAAAAAAAAAQAAAQEBEgEYHiZFLRUVLCxPFSwsLBWDRJYrISEhK5aWlpaGhoadjIyMjIyMjCsnLEolEgABEgEBEgEAAAAAAAAAAAAAAAAAAAAAAAAAAAAAAAAAAAAAAAAAAAAAAxIXGx4bHhQQLSwnRS0VFRUsLBUVLBUsLRomChISGBIBARgYEhgYAQEYFxcKCwUlHCAmLiQkJhwlBR4KFxcYARIYGBISGBgSEgEAAAAAAAAAAAAAAAAAAAAAAAAAAAAAAAAAAAAAAAAAAAAAAAAAAAAAAAAAAAAAAAAAAAAAAAAAAAAAAAAAAAAAAAAAAAAAAAAAAAAAAAAAAAAAAAAAAAAAAAAAAAAAAAAAAAAAAAAAAAAAAAAAAAABAAABAQESAQEYHhQmIRoCGhUsLE8VFRUVLCcrKysrKysrlpaWhoaGDAwMnQyGKycsAhwYAQESAQESAQAAAAAAAAAAAAAAAAAAAAAAAAAAAAAAAAAAAAAAAAAAAAADEhcbGxseDyQnFS0tFRUsLCwVFRUsFRpGRSUYARISAQABEhgSEhIBAQEBARIXChsKGxseCwseGwoXGBISGBgBEhISEgEYEhISAQAAAAAAAAAAAAAAAAAAAAAAAAAAAAAAAAAAAAAAAAAAAAAAAAAAAAAAAAAAAAAAAAAAAAAAAAAAAAAAAAAAAAAAAAAAAAAAAAAAAAAAAAAAAAAAAAAAAAAAAAAAAAAAAAAAAAAAAAAAAAAAAAAAAQEBAQEAARIDAwMSChklJiQhLUYaShUVFRUVLCwtlkUrISErloaGhoaGhoaGhoZFJywCJhsSARIBARIBAAAAAAAAAAAAAAAAAAAAAAAAAAAAAAAAAAAAAAAAAAAAAAMSFxtsbB4FJicaSkZGFSwsLBUVFSwtUg4cCxISGAEAAAESEgESEgEBAQEBARIYGBIBARISGBISAQABEhIYGAEBEhIBARIBARIBAAAAAAAAAAAAAAAAAAAAAAAAAAAAAAAAAAAAAAAAAAAAAAAAAAAAAAAAAAAAAAAAAAAAAAAAAAAAAAAAAAAAAAAAAAAAAAAAAAAAAAAAAAAAAAAAAAAAAAAAAAAAAAAAAAAAAAAAAAAAAAAAAAABEhIBAAABAzExAzEYChcXCiVORSwVLBUVLCwVShUVLUUrKyEhjIyMjIyMjIaGhitFLRoQGRgBEgEBAQEAAAAAAAAAAAAAAAAAAAAAAAAAAAAAAAAAAAAAAAAAAAAAARIXG2xsfEtvSQRKShUsLS0sFRUVTyEgEwoSEhcXAQABAAEBEhISAQEBAAESAQESGBIAAQEBAQEAAAEBAQEBARISAQABAQEBAQAAAAAAAAAAAAAAAAAAAAAAAAAAAAAAAAAAAAAAAAAAAAAAAAAAAAAAAAAAAAAAAAAAAAAAAAAAAAAAAAAAAAAAAAAAAAAAAAAAAAAAAAAAAAAAAAAAAAAAAAAAAAAAAAAAAAAAAAAAAAAAAAAAAAEBEhIBAAEBMTESEhIYGBgXGx4ZJiEVGkYVFUpKFUoVLC0nKyuGhoadjIyMjJ2MK0UtkFElCgEBAQAAAAAAAAAAAAAAAAAAAAAAAAAAAAAAAAAAAAAAAAAAAAAAAAADMRhsbGx8SyVFOi1SHyQgIBAtGgQtIBMXEgESGBgBEhIBAAEYEhISEgEBAQEBAQESEgEBAAAAAAAAAAAAEhISEgEAAAESEhIBAAAAAAAAAAAAAAAAAAAAAAAAAAAAAAAAAAAAAAAAAAAAAAAAAAAAAAAAAAAAAAAAAAAAAAAAAAAAAAAAAAAAAAAAAAAAAAAAAAAAAAAAAAAAAAAAAAAAAAAAAAAAAAAAAAAAAAAAAAAAAAAAAAABBgESEgEBEhIxMRISMTEYTBcSMRILJSRRJ0YEGhUVFUZGFSwnJ5aWloaMjIyMjIwrRScVKyAbAQEAAAAAAAAAAAAAAAAAAAAAAAAAAAAAAAAAAAAAAAAAAAAAAAAAAAMDTFdsbGxXTStdDSAlBQsZHEUCAkUPChgBARISEhIYGAEBEhgSARISEgEBEhISAQESEgEAAAAAAQEBAQESEhIBARIBARIYGBIBAAAAAAAAAAAAAAAAAAAAAAAAAAAAAAAAAAAAAAAAAAAAAAAAAAAAAAAAAAAAAAAAAAAAAAAAAAAAAAAAAAAAAAAAAAAAAAAAAAAAAAAAAAAAAAAAAAAAAAAAAAAAAAAAAAAAAAAAAAAAAAAAARIBARISARIYGBIxMTExAwMxEhISMRIXGxQQUi1KSiwsFUYVLSwsg4NERJaWlisrKytFJxUnJBsBAQAAAAAAAAAAAAAAAAAAAAAAAAAAAAAAAAAAAAAAAAAAAAAAAAAAAwNMbGwKbFdNUisgCxtsCh4lKwICKxkYGBIBAQEBEhIBARISAQEBEgEBEhISGBIBEgEBAAAAAAABEhISEgEBAQASFxIGARgYEgEAAAAAAAAAAAAAAAAAAAAAAAAAAAAAAAAAAAAAAAAAAAAAAAAAAAAAAAAAAAAAAAAAAAAAAAAAAAAAAAAAAAAAAAAAAAAAAAAAAAAAAAAAAAAAAAAAAAAAAAAAAAAAAAAAAAAAAAAAAAAAAAAAAQEBAQEBARISMQMDAwMDAwMDEhIDAwMSCh4FJiFGBEZKLCwsFRUVFYODgywtLS0nJy0tLCwOGwESEhIBAAAAAAAAAAAAAAAAAAAAAAAAAAAAAAAAAAAAAAAAAAAAAAAAARhsbApsHk1SUhwbCgoKGxQ2GgJFGRgSAQAAAAESAQABARIAAAEBAQEBARISAQEBAQAAAAAAAAEBAQEBAQAAAAESEgAAEhIBAQAAAAAAAAAAAAAAAAAAAAAAAAAAAAAAAAAAAAAAAAAAAAAAAAAAAAAAAAAAAAAAAAAAAAAAAAAAAAAAAAAAAAAAAAAAAAAAAAAAAAAAAAAAAAAAAAAAAAAAAAAAAAAAAAAAAAAAAAAAAAAAAAAAAAAAAAAAAAAAAwMDAwAAAwMDAwMDAwABEhgLFCYfRUZKFUoVFRUVFRUVFRUVFSwsLCwsGiEeEhISEgEBAAAAAAAAAAAAAAAAAAAAAAAAAAAAAAAAAAAAAAAAAAAAAAESGApsbAoeTVIrHBsKGwobBVEVAkUPFxIBAAAAAAAAAAAAAAAAAAAAAAAAAAAAAAAAAAAAAAAAAAAAAAAAAAAAAAAAAAAAAAAAAAAAAAAAAAAAAAAAAAAAAAAAAAAAAAAAAAAAAAAAAAAAAAAAAAAAAAAAAAAAAAAAAAAAAAAAAAAAAAAAAAAAAAAAAAAAAAAAAAAAAAAAAAAAAAAAAAAAAAAAAAAAAAAAAAAAAAAAAAAAAAAAAAAAAAAAAAAAAAAAAAAAAAAAAAAAAAAAAAABEhIYFwUkUicsFSxPFRUVFRUVFRUVShVPLBUCKwUXAQEBEgEAAAAAAAAAAAAAAAAAAAAAAAAAAAAAAAAAAAAAAAAAAAAAARIYChsbCh4UKyscGwobChsFDicCJxQKEgEAAAAAAAAAAAAAAAAAAAAAAAAAAAAAAAAAAAAAAAAAAAAAAAAAAAAAAAAAAAAAAAAAAAAAAAAAAAAAAAAAAAAAAAAAAAAAAAAAAAAAAAAAAAAAAAAAAAAAAAAAAAAAAAAAAAAAAAAAAAAAAAAAAAAAAAAAAAAAAAAAAAAAAAAAAAAAAAAAAAAAAAAAAAAAAAAAAAAAAAAAAAAAAAAAAAAAAAAAAAAAAAAAAAAAAAAAAAAAAAABAQEBARIYCh4TFCANLQICAgQaRhVPLBUVShUsFQJFFAoSAAESAQAAAAAAAAAAAAAAAAAAAAAAAAAAAAAAAAAAAAAAAAAAAAABEhgKGxsKGxQrKxwbChsKGxkmKwInJRsYAQAAAAAAAAAAAAAAAAAAAAAAAAAAAAAAAAAAAAAAAAAAAAAAAAAAAAAAAAAAAAAAAAAAAAAAAAAAAAAAAAAAAAAAAAAAAAAAAAAAAAAAAAAAAAAAAAAAAAAAAAAAAAAAAAAAAAAAAAAAAAAAAAAAAAAAAAAAAAAAAAAAAAAAAAAAAAAAAAAAAAAAAAAAAAAAAAAAAAAAAAAAAAAAAAAAAAAAAAAAAAAAAAAAAAAAAAAAAAAAAAEBAQEBGBcSARIXCxQgJA5RKy0sShVKRkZGRhUVBEUcHhgBARIBAAAAAAAAAAAAAAAAAAAAAAAAAAAAAAAAAAAAAAAAAAAAAAABGAobGwobFFJFHBsKGwoKCxxRAi0gCxgBAAAAAAAAAAAAAAAAAAAAAAAAAAAAAAAAAAAAAAAAAAAAAAAAAAAAAAAAAAAAAAAAAAAAAAAAAAAAAAAAAAAAAAAAAAAAAAAAAAAAAAAAAAAAAAAAAAAAAAAAAAAAAAAAAAAAAAAAAAAAAAAAAAAAAAAAAAAAAAAAAAAAAAAAAAAAAAAAAAAAAAAAAAAAAAAAAAAAAAAAAAAAAAAAAAAAAAAAAAAAAAAAAAAAAAAAAAAAAAAAAAEBAQEBAQEBEhIYGBgKCxQgDiErK0UnJysnFUYjJyQTGAEBAQEAAAAAAAAAAAAAAAAAAAAAAAAAAAAAAAAAAAAAAAAAAAAAAAESFwobChsUIScgGwobCgoeFB8CLBAFEgAAAAAAAAAAAAAAAAAAAAAAAAAAAAAAAAAAAAAAAAAAAAAAAAAAAAAAAAAAAAAAAAAAAAAAAAAAAAAAAAAAAAAAAAAAAAAAAAAAAAAAAAAAAAAAAAAAAAAAAAAAAAAAAAAAAAAAAAAAAAAAAAAAAAAAAAAAAAAAAAAAAAAAAAAAAAAAAAAAAAAAAAAAAAAAAAAAAAAAAAAAAAAAAAAAAAAAAAAAAAAAAAAAAAAAAAAAAAAAAAABEhISEhIBAQEBAQEAARIXGx4TGRkZGRkZEyVRLUYtDQ8YAQAAAAAAAAAAAAAAAAAAAAAAAAAAAAAAAAAAAAAAAAAAAAAAAAAAABIXChsKGw8hLSAbGxsKChsPDgQsIRQSAAAAAAAAAAAAAAAAAAAAAAAAAAAAAAAAAAAAAAAAAAAAAAAAAAAAAAAAAAAAAAAAAAAAAAAAAAAAAAAAAAAAAAAAAAAAAAAAAAAAAAAAAAAAAAAAAAAAAAAAAAAAAAAAAAAAAAAAAAAAAAAAAAAAAAAAAAAAAAAAAAAAAAAAAAAAAAAAAAAAAAAAAAAAAAAAAAAAAAAAAAAAAAAAAAAAAAAAAAAAAAAAAAAAAAAAAAAAAAAAAAESGBgSEhIBAQEBAQESEhISGBgYGBgSEhISGyRFRk8nFBIAAAAAAAAAAAAAAAAAAAAAAAAAAAAAAAAAAAAAAAAAAAAAAAAAAAAAEhcKGwobDyEsJhsbGwoKGwUQFSwnHBgAAAAAAAAAAAAAAAAAAAAAAAAAAAAAAAAAAAAAAAAAAAAAAAAAAAAAAAAAAAAAAAAAAAAAAAAAAAAAAAAAAAAAAAAAAAAAAAAAAAAAAAAAAAAAAAAAAAAAAAAAAAAAAAAAAAAAAAAAAAAAAAAAAAAAAAAAAAAAAAAAAAAAAAAAAAAAAAAAAAAAAAAAAAAAAAAAAAAAAAAAAAAAAAAAAAAAAAAAAAAAAAAAAAAAAAAAAAAAAAAAAAESEgEBAQASGBgSARISAQEBAQEBEhgYGAEKHCECGgQlEgABAAAAAAAAAAAAAAAAAAAAAAAAAAAAAAAAAAAAAAAAAAAAAAAAAAASGAobGxsFIRUmGwobCgobGSQtLJAgFwEAAAAAAAAAAAAAAAAAAAAAAAAAAAAAAAAAAAAAAAAAAAAAAAAAAAAAAAAAAAAAAAAAAAAAAAAAAAAAAAAAAAAAAAAAAAAAAAAAAAAAAAAAAAAAAAAAAAAAAAAAAAAAAAAAAAAAAAAAAAAAAAAAAAAAAAAAAAAAAAAAAAAAAAAAAAAAAAAAAAAAAAAAAAAAAAAAAAAAAAAAAAAAAAAAAAAAAAAAAAAAAAAAAAAAAAAAAAAAAAAAARISEgEBAAESGBgSAQEBAAAAAAEBEhISARgZDgIVAiYbGBISAQAAAAAAAAAAAAAAAAAAAAAAAAAAAAAAAAAAAAAAAAAAAAAAAQESChsbGwUhFSYbChsKChsLJkUsAiQeEgAAAAAAAAAAAAAAAAAAAAAAAAAAAAAAAAAAAAAAAAAAAAAAAAAAAAAAAAAAAAAAAAAAAAAAAAAAAAAAAAAAAAAAAAAAAAAAAAAAAAAAAAAAAAAAAAAAAAAAAAAAAAAAAAAAAAAAAAAAAAAAAAAAAAAAAAAAAAAAAAAAAAAAAAAAAAAAAAAAAAAAAAAAAAAAAAAAAAAAAAAAAAAAAAAAAAAAAAAAAAAAAAAAAAAAAAAAAAAAAAEBEhISAQEBARISEhIBAQEBAQEBAAAAAQEBEgomAhUaDgUKEhIBAAAAAAAAAAAAAAAAAAAAAAAAAAAAAAAAAAAAAAAAAAAAAAAAARIXChsbBSEVJh4KCgobGx4cISwCHwUXAAAAAAAAAAAAAAAAAAAAAAAAAAAAAAAAAAAAAAAAAAAAAAAAAAAAAAAAAAAAAAAAAAAAAAAAAAAAAAAAAAAAAAAAAAAAAAAAAAAAAAAAAAAAAAAAAAAAAAAAAAAAAAAAAAAAAAAAAAAAAAAAAAAAAAAAAAAAAAAAAAAAAAAAAAAAAAAAAAAAAAAAAAAAAAAAAAAAAAAAAAAAAAAAAAAAAAAAAAAAAAAAAAAAAAAAAAAAAAAAAAEBAQEBAAABEgEBAQABEhISEgEAAAABEhISGBxKFUYhIAoSAQAAAAAAAAAAAAAAAAAAAAAAAAAAAAAAAAAAAAAAAAAAAAAAAAABEhcKGxsFIRUkHgoKChsbChRRLAIhJQoAAAAAAAAAAAAAAAAAAAAAAAAAAAAAAAAAAAAAAAAAAAAAAAAAAAAAAAAAAAAAAAAAAAAAAAAAAAAAAAAAAAAAAAAAAAAAAAAAAAAAAAAAAAAAAAAAAAAAAAAAAAAAAAAAAAAAAAAAAAAAAAAAAAAAAAAAAAAAAAAAAAAAAAAAAAAAAAAAAAAAAAAAAAAAAAAAAAAAAAAAAAAAAAAAAAAAAAAAAAAAAAAAAAAAAAAAAAAAAAAAAAAAAAAAAAEBAQAAAAEBEhIBAQAAAAEBEgESFCEsRi0QGwEAAAAAAAAAAAAAAAAAAAAAAAAAAAAAAAAAAAAAAAAAAAAAAAAAAAESCh4bGxkhSiQLCgobChcKFA0tAismGwAAAAAAAAAAAAAAAAAAAAAAAAAAAAAAAAAAAAAAAAAAAAAAAAAAAAAAAAAAAAAAAAAAAAAAAAAAAAAAAAAAAAAAAAAAAAAAAAAAAAAAAAAAAAAAAAAAAAAAAAAAAAAAAAAAAAAAAAAAAAAAAAAAAAAAAAAAAAAAAAAAAAAAAAAAAAAAAAAAAAAAAAAAAAAAAAAAAAAAAAAAAAAAAAAAAAAAAAAAAAAAAAAAAAAAAAAAAAAAAAAAAAAAAAAAAAAAAAAAAAAAAAAAAAAAAAABABIZEC0aAiEbAQAAAAAAAAAAAAAAAAAAAAAAAAAAAAAAAAAAAAAAAAAAAAAAAAAAAAEKHhsKE1EaEBMbGxsKFwoUDi0ELRAbAAAAAAAAAAAAAAAAAAAAAAAAAAAAAAAAAAAAAAAAAAAAAAAAAAAAAAAAAAAAAAAAAAAAAAAAAAAAAAAAAAAAAAAAAAAAAAAAAAAAAAAAAAAAAAAAAAAAAAAAAAAAAAAAAAAAAAAAAAAAAAAAAAAAAAAAAAAAAAAAAAAAAAAAAAAAAAAAAAAAAAAAAAAAAAAAAAAAAAAAAAAAAAAAAAAAAAAAAAAAAAAAAAAAAAAAAAAAAAAAAAAAAAAAAAAAAAAAAAAAAAAAAAAAAAAAARIBEh4gJxoCIQsSAQAAAAAAAAAAAAAAAAAAAAAAAAAAAAAAAAAAAAAAAAAAAAAAAAAAARcbGwoLDRpICx4bFwobGxkgJwJPHx4AAAAAAAAAAAAAAAAAAAAAAAAAAAAAAAAAAAAAAAAAAAAAAAAAAAAAAAAAAAAAAAAAAAAAAAAAAAAAAAAAAAAAAAAAAAAAAAAAAAAAAAAAAAAAAAAAAAAAAAAAAAAAAAAAAAAAAAAAAAAAAAAAAAAAAAAAAAAAAAAAAAAAAAAAAAAAAAAAAAAAAAAAAAAAAAAAAAAAAAAAAAAAAAAAAAAAAAAAAAAAAAAAAAAAAAAAAAAAAAAAAAAAAAAAAAAAAAAAAAAAAAAAAAAAAAABEhIBChQrGgIrDxcBAAAAAAAAAAAAAAAAAAAAAAAAAAAAAAAAAAAAAAAAAAAAAAAAAAABGAoeCgsfGiQeHh4KChsbGSYnAi0OHgAAAAAAAAAAAAAAAAAAAAAAAAAAAAAAAAAAAAAAAAAAAAAAAAAAAAAAAAAAAAAAAAAAAAAAAAAAAAAAAAAAAAAAAAAAAAAAAAAAAAAAAAAAAAAAAAAAAAAAAAAAAAAAAAAAAAAAAAAAAAAAAAAAAAAAAAAAAAAAAAAAAAAAAAAAAAAAAAAAAAAAAAAAAAAAAAAAAAAAAAAAAAAAAAAAAAAAAAAAAAAAAAAAAAAAAAAAAAAAAAAAAAAAAAAAAAAAAAAAAAAAAAAAAAAAAAEBEgESC1FKAiccHhIAAAAAAAAAAAAAAAAAAAAAAAAAAAAAAAAAAAAAAAAAAAAAAAAABgEXGx4KCxAsJAseHgobGwsUEC0qLQ4bAAAAAAAAAAAAAAAAAAAAAAAAAAAAAAAAAAAAAAAAAAAAAAAAAAAAAAAAAAAAAAAAAAAAAAAAAAAAAAAAAAAAAAAAAAAAAAAAAAAAAAAAAAAAAAAAAAAAAAAAAAAAAAAAAAAAAAAAAAAAAAAAAAAAAAAAAAAAAAAAAAAAAAAAAAAAAAAAAAAAAAAAAAAAAAAAAAAAAAAAAAAAAAAAAAAAAAAAAAAAAAAAAAAAAAAAAAAAAAAAAAAAAAAAAAAAAAAAAAAAAAAAAAAAAAAAAAEBEgEbEC0ELR8FGAEAAAAAAAAAAAAAAAAAAAAAAAAAAAAAAAAAAAAAAAAAAAAAAAABEhcbHhsLJCcfFAsbChsTHBArLEYtDhsAAAAAAAAAAAAAAAAAAAAAAAAAAAAAAAAAAAAAAAAAAAAAAAAAAAAAAAAAAAAAAAAAAAAAAAAAAAAAAAAAAAAAAAAAAAAAAAAAAAAAAAAAAAAAAAAAAAAAAAAAAAAAAAAAAAAAAAAAAAAAAAAAAAAAAAAAAAAAAAAAAAAAAAAAAAAAAAAAAAAAAAAAAAAAAAAAAAAAAAAAAAAAAAAAAAAAAAAAAAAAAAAAAAAAAAAAAAAAAAAAAAAAAAAAAAAAAAAAAAAAAAAAAAAAAAAAAAESAQocIRotKyUYAQAAAAAAAAAAAAAAAAAAAAAAAAAAAAAAAAAAAAAAAAAAAAAAAAESGAobCgskRSskHCUcHCQNRSwsRismCgAAAAAAAAAAAAAAAAAAAAAAAAAAAAAAAAAAAAAAAAAAAAAAAAAAAAAAAAAAAAAAAAAAAAAAAAAAAAAAAAAAAAAAAAAAAAAAAAAAAAAAAAAAAAAAAAAAAAAAAAAAAAAAAAAAAAAAAAAAAAAAAAAAAAAAAAAAAAAAAAAAAAAAAAAAAAAAAAAAAAAAAAAAAAAAAAAAAAAAAAAAAAAAAAAAAAAAAAAAAAAAAAAAAAAAAAAAAAAAAAAAAAAAAAAAAAAAAAAAAAAAAAAAAAAAAAAAARIBFwUOGi0sHBcBAAAAAAAAAAAAAAAAAAAAAAAAAAAAAAAAAAAAAAAAAAAAAAAAAAEYFwoKCyQrFSdFJy0sFUYVFRVGDgUXAAAAAAAAAAAAAAAAAAAAAAAAAAAAAAAAAAAAAAAAAAAAAAAAAAAAAAAAAAAAAAAAAAAAAAAAAAAAAAAAAAAAAAAAAAAAAAAAAAAAAAAAAAAAAAAAAAAAAAAAAAAAAAAAAAAAAAAAAAAAAAAAAAAAAAAAAAAAAAAAAAAAAAAAAAAAAAAAAAAAAACFzxvoAAAgAElEQVQAAAAAAAAAAAAAAAAAAAAAAAAAAAAAAAAAAAAAAAAAAAAAAAAAAAAAAAAAAAAAAAAAAAAAAAAAAAAAAAAAAAAAAAAAAAABEgESGyRGLBomChIAAAAAAAAAAAAAAAAAAAAAAAAAAAAAAAAAAAAAAAAAAAAAAAAAARgXCgoTICEaFSwsShUVFU9PLCscFwEAAAAAAAAAAAAAAAAAAAAAAAAAAAAAAAAAAAAAAAAAAAAAAAAAAAAAAAAAAAAAAAAAAAAAAAAAAAAAAAAAAAAAAAAAAAAAAAAAAAAAAAAAAAAAAAAAAAAAAAAAAAAAAAAAAAAAAAAAAAAAAAAAAAAAAAAAAAAAAAAAAAAAAAAAAAAAAAAAAAAAAAAAAAAAAAAAAAAAAAAAAAAAAAAAAAAAAAAAAAAAAAAAAAAAAAAAAAAAAAAAAAAAAAAAAAAAAAAAAAAAAAAAAAAAAAAAAQEBAQEXHC0VBA4ZGAAAAAAAAAAAAAAAAAAAAAAAAAAAAAAAAAAAAAAAAAAAAAAAAAESGBcKGwscURoVFUYaAgICRiskFBsSAQAAAAAAAAAAAAAAAAAAAAAAAAAAAAAAAAAAAAAAAAAAAAAAAAAAAAAAAAAAAAAAAAAAAAAAAAAAAAAAAAAAAAAAAAAAAAAAAAAAAAAAAAAAAAAAAAAAAAAAAAAAAAAAAAAAAAAAAAAAAAAAAAAAAAAAAAAAAAAAAAAAAAAAAAAAAAAAAAAAAAAAAAAAAAAAAAAAAAAAAAAAAAAAAAAAAAAAAAAAAAAAAAAAAAAAAAAAAAAAAAAAAAAAAAAAAAAAAAAAAAAAAAAAAAAAAAESEgEAABIUIRUEUiAKAAAAAAAAAAAAAAAAAAAAAAAAAAAAAAAAAAAAAAAAAAAAAAAAARISFxsbCyUNGixKLCshDhAkHBkXEhIBAAAAAAAAAAAAAAAAAAAAAAAAAAAAAAAAAAAAAAAAAAAAAAAAAAAAAAAAAAAAAAAAAAAAAAAAAAAAAAAAAAAAAAAAAAAAAAAAAAAAAAAAAAAAAAAAAAAAAAAAAAAAAAAAAAAAAAAAAAAAAAAAAAAAAAAAAAAAAAAAAAAAAAAAAAAAAAAAAAAAAAAAAAAAAAAAAAAAAAAAAAAAAAAAAAAAAAAAAAAAAAAAAAAAAAAAAAAAAAAAAAAAAAAAAAAAAAAAAAAAAAAAAAAAAAAAARISAQAAEhMkLSosDhsAAAAAAAAAAAEAAAAAAAAAAAAAAAAAAAAAAAAAAAAAAAAAAAABAQEYCgoeJQ0aLEYhJhQLCgoXGBISAQEAAAAAAAAAAAAAAAAAAAAAAAAAAAAAAAAAAAAAAAAAAAAAAAAAAAAAAAAAAAAAAAAAAAAAAAAAAAAAAAAAAAAAAAAAAAAAAAAAAAAAAAAAAAAAAAAAAAAAAAAAAAAAAAAAAAAAAAAAAAAAAAAAAAAAAAAAAAAAAAAAAAAAAAAAAAAAAAAAAAAAAAAAAAAAAAAAAAAAAAAAAAAAAAAAAAAAAAAAAAAAAAAAAAAAAAAAAAAAAAAAAAAAAAAAAAAAAAAAAAAAAAAAAAAAAAABAQEAAAASGxwnBCohHgEBARIBAQABEhIBAAEBAQEBAQAAARISAQABAQEBAQEBAAAAAQEBARgKChsZEARPBCQeChgSARISEgEBAQAAAAAAAAAAAAAAAAAAAAAAAAAAAAAAAAAAAAAAAAAAAAAAAAAAAAAAAAAAAAAAAAAAAAAAAAAAAAAAAAAAAAAAAAAAAAAAAAAAAAAAAAAAAAAAAAAAAAAAAAAAAAAAAAAAAAAAAAAAAAAAAAAAAAAAAAAAAAAAAAAAAAAAAAAAAAAAAAAAAAAAAAAAAAAAAAAAAAAAAAAAAAAAAAAAAAAAAAAAAAAAAAAAAAAAAAAAAAAAAAAAAAAAAAAAAAAAAAAAAAAAAAAAAAAAAAABAQEBAQEXBVJGAisZGAEBEhISAQESEgEAARISEhIBAAABEhIBAQESEhISEgEAAAABEhIYCgobGwskBBUCIBgAAQAAEhgSARIBAAAAAAAAAAAAAAAAAAAAAAAAAAAAAAAAAAAAAAAAAAAAAAAAAAAAAAAAAAAAAAAAAAAAAAAAAAAAAAAAAAAAAAAAAAAAAAAAAAAAAAAAAAAAAAAAAAAAAAAAAAAAAAAAAAAAAAAAAAAAAAAAAAAAAAAAAAAAAAAAAAAAAAAAAAAAAAAAAAAAAAAAAAAAAAAAAAAAAAAAAAAAAAAAAAAAAAAAAAAAAAAAAAAAAAAAAAAAAAAAAAAAAAAAAAAAAAAAAAAAAAAAAAAAAAAAARgYARISAQEeDU8aJyALGAESGBgSAQEBAAABARISEgEAAAEBAQEBEhISEhISAQEBAQESFxseGwobCyRfFQIgGAEBAAABGBISAQAAAAAAAAAAAAAAAAAAAAAAAAAAAAAAAAAAAAAAAAAAAAAAAAAAAAAAAAAAAAAAAAAAAAAAAAAAAAAAAAAAAAAAAAAAAAAAAAAAAAAAAAAAAAAAAAAAAAAAAAAAAAAAAAAAAAAAAAAAAAAAAAAAAAAAAAAAAAAAAAAAAAAAAAAAAAAAAAAAAAAAAAAAAAAAAAAAAAAAAAAAAAAAAAAAAAAAAAAAAAAAAAAAAAAAAAAAAAAAAAAAAAAAAAAAAAAAAAAAAAAAAAAAAAAAAAABGBgBEhISABtIJ0AsDRweFxISEgEBEhIBAQEBAQEBAQAAAAAAAAEBAQEBEhISEhgYFwobGxsKCgoeJixKAiYKEhIBAQESEgEBAAAAAAAAAAAAAAAAAAAAAAAAAAAAAAAAAAAAAAAAAAAAAAAAAAAAAAAAAAAAAAAAAAAAAAAAAAAAAAAAAAAAAAAAAAAAAAAAAAAAAAAAAAAAAAAAAAAAAAAAAAAAAAAAAAAAAAAAAAAAAAAAAAAAAAAAAAAAAAAAAAAAAAAAAAAAAAAAAAAAAAAAAAAAAAAAAAAAAAAAAAAAAAAAAAAAAAAAAAAAAAAAAAAAAAAAAAAAAAAAAAAAAAAAAAAAAAAAAAAAAAAAAAAAAAAAAAESEgESEhIBChwhAhUtDSAZGwoXFxcXGAEBEgEAAAEBAQEBAQAAAAAAAAESEhgXFxcbHhsKChsbHhMmLUoCJBsXGBIBAAEBAQEBAAAAAAAAAAAAAAAAAAAAAAAAAAAAAAAAAAAAAAAAAAAAAAAAAAAAAAAAAAAAAAAAAAAAAAAAAAAAAAAAAAAAAAAAAAAAAAAAAAAAAAAAAAAAAAAAAAAAAAAAAAAAAAAAAAAAAAAAAAAAAAAAAAAAAAAAAAAAAAAAAAAAAAAAAAAAAAAAAAAAAAAAAAAAAAAAAAAAAAAAAAAAAAAAAAAAAAAAAAAAAAAAAAAAAAAAAAAAAAAAAAAAAAAAAAAAAAAAAAAAAAAAAAAAAAAAAAEBEhISARIXCxAaLCwtKyEfECYlDxMKEhISEhISEhgYGBISAQEBAQEBARIYFwoKCgoKGwsZJSAkDissLAIkHhgSGBIBAAABEgEAAAAAAAAAAAAAAAAAAAAAAAAAAAAAAAAAAAAAAAAAAAAAAAAAAAAAAAAAAAAAAAAAAAAAAAAAAAAAAAAAAAAAAAAAAAAAAAAAAAAAAAAAAAAAAAAAAAAAAAAAAAAAAAAAAAAAAAAAAAAAAAAAAAAAAAAAAAAAAAAAAAAAAAAAAAAAAAAAAAAAAAAAAAAAAAAAAAAAAAAAAAAAAAAAAAAAAAAAAAAAAAAAAAAAAAAAAAAAAAAAAAAAAAAAAAAAAAAAAAAAAAAAAAAAAAAAAAESEgEBEhgXIBUsFUoaAgIaJyEOJBwUFBQPGRMLHh4eGxsbGxsbGx4eCxMFFBQUFCUcJhANUicVShUsAiQeGAESAQAAAAESAQAAAAAAAAAAAAAAAAAAAAAAAAAAAAAAAAAAAAAAAAAAAAAAAAAAAAAAAAAAAAAAAAAAAAAAAAAAAAAAAAAAAAAAAAAAAAAAAAAAAAAAAAAAAAAAAAAAAAAAAAAAAAAAAAAAAAAAAAAAAAAAAAAAAAAAAAAAAAAAAAAAAAAAAAAAAAAAAAAAAAAAAAAAAAAAAAAAAAAAAAAAAAAAAAAAAAAAAAAAAAAAAAAAAAAAAAAAAAAAAAAAAAAAAAAAAAAAAAAAAAAAAAAAAAAAAAABARIBAQESARIUIRUaFSwVFUYaGkZGRhUVLCchDiYcJSUlHBwcHBwcICYkEB8NUSErLEpGGkZKSkYVShUrHAoSAAAAAAABARIBAAAAAAAAAAAAAAAAAAAAAAAAAAAAAAAAAAAAAAAAAAAAAAAAAAAAAAAAAAAAAAAAAAAAAAAAAAAAAAAAAAAAAAAAAAAAAAAAAAAAAAAAAAAAAAAAAAAAAAAAAAAAAAAAAAAAAAAAAAAAAAAAAAAAAAAAAAAAAAAAAAAAAAAAAAAAAAAAAAAAAAAAAAAAAAAAAAAAAAAAAAAAAAAAAAAAAAAAAAAAAAAAAAAAAAAAAAAAAAAAAAAAAAAAAAAAAAAAAAAAAAAAAAAAAAAAAAEBAQESEhIBGAsmJxoVFRUVShoaRkZGRkZKFSwnRSsrKysrKysrKysrRUUnLS0sLE8VSkZKFRUVFRUVJyQTGAEAAAAAAAABEgEAAAAAAAAAAAAAAAAAAAAAAAAAAAAAAAAAAAAAAAAAAAAAAAAAAAAAAAAAAAAAAAAAAAAAAAAAAAAAAAAAAAAAAAAAAAAAAAAAAAAAAAAAAAAAAAAAAAAAAAAAAAAAAAAAAAAAAAAAAAAAAAAAAAAAAAAAAAAAAAAAAAAAAAAAAAAAAAAAAAAAAAAAAAAAAAAAAAAAAAAAAAAAAAAAAAAAAAAAAAAAAAAAAAAAAAAAAAAAAAAAAAAAAAAAAAAAAAAAAAAAAAAAAAAAAAAAAAAAARISAQASFxMQIUUVAgICBBpGShUVFUpKRhoqKgQCAgICBBoaGhoaGhoaGkZGFRVKSkYaBAICLQ0cCxcSEgEBAQAAAAEBAQAAAAAAAAAAAAAAAAAAAAAAAAAAAAAAAAAAAAAAAAAAAAAAAAAAAAAAAAAAAAAAAAAAAAAAAAAAAAAAAAAAAAAAAAAAAAAAAAAAAAAAAAAAAAAAAAAAAAAAAAAAAAAAAAAAAAAAAAAAAAAAAAAAAAAAAAAAAAAAAAAAAAAAAAAAAAAAAAAAAAAAAAAAAAAAAAAAAAAAAAAAAAAAAAAAAAAAAAAAAAAAAAAAAAAAAAAAAAAAAAAAAAAAAAAAAAAAAAAAAAAAAAAAAAAAAAAAARISEhISAQEBFwUlJhAOH1EhJyxKGhoaGiMEAgQaGhoaGkZKFRVKkBoaGhoaGhoaGkoVLUUhUQ4kFB4YEhISEhISAQEAAAEAAAAAAAAAAAAAAAAAAAAAAAAAAAAAAAAAAAAAAAAAAAAAAAAAAAAAAAAAAAAAAAAAAAAAAAAAAAAAAAAAAAAAAAAAAAAAAAAAAAAAAAAAAAAAAAAAAAAAAAAAAAAAAAAAAAAAAAAAAAAAAAAAAAAAAAAAAAAAAAAAAAAAAAAAAAAAAAAAAAAAAAAAAAAAAAAAAAAAAAAAAAAAAAAAAAAAAAAAAAAAAAAAAAAAAAAAAAAAAAAAAAAAAAAAAAAAAAAAAAAAAAAAAAAAAAAAAAASFxgSARgSAQESGBcKHgsTDxwQNysnJy0tLCwsLCwsLCwsLCwsLCwsLCwsLC0tLS0nKyEfJBwPCxsXEhIYGBIBARISAQAAAQAAAAAAAAAAAAAAAAAAAAAAAAAAAAAAAAAAAAAAAAAAAAAAAAAAAAAAAAAAAAAAAAAAAAAAAAAAAAAAAAAAAAAAAAAAAAAAAAAAAAAAAAAAAAAAAAAAAAAAAAAAAAAAAAAAAAAAAAAAAAAAAAAAAAAAAAAAAAAAAAAAAAAAAAAAAAAAAAAAAAAAAAAAAAAAAAAAAAAAAAAAAAAAAAAAAAAAAAAAAAAAAAAAAAAAAAAAAAAAAAAAAAAAAAAAAAAAAAAAAAAAAAAAAAAAAAAAABIYEgEBEhIBAQEAARISGBgXGx4LExMZDyUlJSUcHCAgICYmJiAgIBwcJSUlFBQPGRMTCwseChcYEgEBARISAQABEhIBAAAAAAAAAAAAAAAAAAAAAAAAAAAAAAAAAAAAAAAAAAAAAAAAAAAAAAAAAAAAAAAAAAAAAAAAAAAAAAAAAAAAAAAAAAAAAAAAAAAAAAAAAAAAAAAAAAAAAAAAAAAAAAAAAAAAAAAAAAAAAAAAAAAAAAAAAAAAAAAAAAAAAAAAAAAAAAAAAAAAAAAAAAAAAAAAAAAAAAAAAAAAAAAAAAAAAAAAAAAAAAAAAAAAAAAAAAAAAAAAAAAAAAAAAAAAAAAAAAAAAAAAAAAAAAAAAAAAAAAAAAAAAAAAAAAAAAAAAAAAAAEBAQEBAQEYCgoKCgobHh4LCwsLCx4eGxsKChcXGBgSAQEBAQEBAQAAAAAAAAAAAAAAAAAAAAAAAAAAAAAAAAAAAAAAAAAAAAAAAAAAAAAAAAAAAAAAAAAAAAAAAAAAAAAAAAAAAAAAAAAAAAAAAAAAAAAAAAAAAAAAAAAAAAAAAAAAAAAAAAAAAAAAAAAAAAAAAAAAAAAAAAAAAAAAAAAAAAAAAAAAAAAAAAAAAAAAAAAAAAAAAAAAAAAAAAAAAAAAAAAAAAAAAAAAAAAAAAAAAAAAAAAAAAAAAAAAAAAAAAAAAAAAAAAAAAAAAAAAAAAAAAAAAAAAAAAAAAAAAAAAAAAAAAAAAAAAAAAAAAAAAAAAAAAAAAAAAAAAAAESEhISEhISGBgYGBgYGBISEhISAQEBAQEAAAAAAAAAAAAAAAAAAAAAAAAAAAAAAAAAAAAAAAAAAAAAAAAAAAAAAAAAAAAAAAAAAAAAAAAAAAAAAAAAAAAAAAAAAAAAAAAAAAAAAAAAAAAAAAAAAAAAAAAAAAAAAAAAAAAAAAAAAAAAAAAAAAAAAAAAAAAAAAAAAAAAAAAAAAAAAAAAAAAAAAAAAAAAAAAAAAAAAAAAAAAAAAAAAAAAAAAAAAAAAAAAAAAAAAAAAAAAAAAAAAAAAAAAAAAAAAAAAAAAAAAAAAAAAAAAAAAAAAAAAAAAAAAAAAAAAAAAAAAAAAAAAAAAAAAAAAAAAAAAAAAAAAAAAAAAAAAAAQEBAQAAAAEBAQEBAQEBAQAAAAAAAQEBAQAAAAAAAAAAAAAAAAAAAAAAAAAAAAAAAAAAAAAAAAAAAAAAAAAAAAAAAAAAAAAAAAAAAAAAAAAAAAAAAAAAAAAAAAAAAAAAAAAAAAAAAAAAAAAAAAAAAAAAAAAAAAAAAAAAAAAAAAAAAAAAAAAAAAAAAAAAAAAAAAAAAAAAAAAAAAAAAAAAAAAAAAAAAAAAAAAAAAAAAAAAAAAAAAAAAAAAAAAAAAAAAAAAAAAAAAAAAAAAAAAAAAAAAAAAAAAAAAAAAAAAAAAAAAAAAAAAAAAAAAAAAAAAAAAAAAAAAAAAAAAAAAAAAAAAAAAAAAAAAAAAAAAAAAAAAAAAAAESEhIBAQEBAQEAAAABAQEBAQEBAQESEhIBAAAAAAAAAAAAAAAAAAAAAAAAAAAAAAAAAAAAAAAAAAAAAAAAAAAAAAAAAAAAAAAAAAAAAAAAAAAAAAAAAAAAAAAAAAAAAAAAAAAAAAAAAAAAAAAAAAAAAAAAAAAAAAAAAAAAAAAAAAAAAAAAAAAAAAAAAAAAAAAAAAAAAAAAAAAAAAAAAAAAAAAAAAAAAAAAAAAAAAAAAAAAAAAAAAAAAAAAAAAAAAAAAAAAAAAAAAAAAAAAAAAAAAAAAAAAAAAAAAAAAAAAAAAAAAAAAAAAAAAAAAAAAAAAAAAAAAAAAAAAAAAAAAAAAAAAAAAAAAAAAAAAAAAAAAAAAAAAARIYEhISEhISAQEBARISEhISEhISEhISAQEAAAAAAAAAAAAAAAAAAAAAAAAAAAAAAAAAAAAAAAAAAAAAAAAAAAAAAAAAAAAAAAAAAAAAAAAAAAAAAAAAAAAAAAAAAAAAAAAAAAAAAAAAAAAAAAAAAAAAAAAAAAAAAAAAAAAAAAAAAAAAAAAAAAAAAAAAAAAAAAAAAAAAAAAAAAAAAAAAAAAAAAAAAAAAAAAAAAAAAAAAAAAAAAAAAAAAAAAAAAAAAAAAAAAAAAAAAAAAAAAAAAAAAAAAAAAAAAAAAAAAAAAAAAAAAAAAAAAAAAAAAAAAAAAAAAAAAAAAAAAAAAAAAAAAAAAAAAAAAAAAAAAAAAAAAAAAAAABEhIBAQEBAQEBAAABEhISEhISAQEBAQEBAAAAAAAAAAAAAAAAAAAAAAAAAAAAAAAAAAAAAAAAAAAAAAAAAAAAAAAAAAAAAAAAAAAAAAAAAAAAAAAAAAAAAAAAAAAAAAAAAAAAAAAAAAAAAAAAAAAAAAAAAAAAAAAAAAAAAAAAAAAAAAAAAAAAAAAAAAAAAAAAAAAAAAAAAAAAAAAAAAAAAAAAAAAAAAAAAAAAAAAAAAAAAAAAAAAAAAAAAAAAAAAAAAAAAAAAAAAAAAAAAAAAAAAAAAAAAAAAAAAAAAAAAAAAAAAAAAAAAAAAAAAAAAAAAAAAAAAAAAAAAAAAAAAAAAAAAAAAAAAAAAAAAAAAAAAAAAAAAAAAAAAAAAAAAAAAAAEBEhISEgEBAQAAAAAAAAAAAAAAAAAAAAAAAAAAAAAAAAAAAAAAAAAAAAAAAAAAAAAAAAAAAAAAAAAAAAAAAAAAAAAAAAAAAAAAAAAAAAAAAAAAAAAAAAAAAAAAAAAAAAAAAAAAAAAAAAAAAAAAAAAAAAAAAAAAAAAAAAAAAAAAAAAAAAAAAAAAAAAAAAAAAAAAAAAAAAAAAAAAAAAAAAAAAAAAAAAAAAAAAAAAAAAAAAAAAAAAAAAAAAAAAAAAAAAAAAAAAAAAAAAAAAAAAAAAAAAAAAAAAAAAAAAAAAAAAAAAAAAAAAAAAAAAAAAAAAAAAAAAAAAAAAAAAAAAAAAAAAAAAAAAAAAAAAAAAAAAAAAAAQEBAQEBAQEBAQEBAQEBAQAAAAAAAAAAAAAAAAAAAAAAAAAAAAAAAAAAAAAAAAAAAAAAAAAAAAAAAAAAAAAAAAAAAAAAAAAAAAAAAAAAAAAAAAAAAAAAAAAAAAAAAAAAAAAAAAAAAAAAAAAAAAAAAAAAAAAAAAAAAAAAAAAAAAAAAAAAAAAAAAAAAAAAAAAAAAAAAAAAAAAAAAAAAAAAAAAAAAAAAAAAAAAAAAAAAAAAAAAAAAAAAAAAAAAAAAAAAAAAAAAAAAAAAAAAAAAAAAAAAAAAAAAAAAAAAAAAAAAAAAAAAAAAAAAAAAAAAAAAAAAAAAAAAAAAAAAAAAAAAAAAAAAAAAAAAAAAAAAAAAAAAAAAAAEBAQEBAAAAAAAAAAAAAAAAAAAAAAAAAAAAAAAAAAAAAAAAAAAAAAAAAAAAAAAAAAAAAAAAAAAAAAAAAAAAAAAAAAAAAAAAAAAAAAAAAAAAAAAAAAAAAAAAAAAAAAAAAAAAAAAAAAAAAAAAAAAAAAAAAAAAAAAAAAAAAAAAAAAAAAAAAAAAAAAAAAAAAAAAAAAAAAAAAAAAAAAAAAAAAAAAAAAAAAAAAAAAAAAAAAAAAAAAAAAAAAAAAAAAAAAAAAAAAAAAAAAAAAAAAAAAAAAAAAAAAAAAAAAAAAAAAAAAAAAAAAAAAAAAAAAAAAAAAAAAAAAAAAAAAAAAAAAAAAAAAAAAAAAAAAAAAAAAAAAAAAAAAAABAQEBAQEBAQEBAQAAAAAAAAAAAAAAAAAAAAAAAAAAAAAAAAAAAAAAAAAAAAAAAAAAAAAAAAAAAAAAAAAAAAAAAAAAAAAAAAAAAAAAAAAAAAAAAAAAAAAAAAAAAAAAAAAAAAAAAAAAAAAAAAAAAAAAAAAAAAAAAAAAAAAAAAAAAAAAAAAAAAAAAAAAAAAAAAAAAAAAAAAAAAAAAAAAAAAAAAAAAAAAAAAAAAAAAAAAAAAAAAAAAAAAAAAAAAAAAAAAAAAAAAAAAAAAAAAAAAAAAAAAAAAAAAAAAAAAAAAAAAAAAAAAAAAAAAAAAAAAAAAAAAAAAAAAAAAAAAAAAAAAAAAAAAAAAAAAAAAAAAAAAAEBAQEBAQEBAQEBAQESEhISAQEBAQEBAQAAAAAAAAAAAAAAAAAAAAAAAAAAAAAAAAAAAAAAAAAAAAAAAAAAAAAAAAAAAAAAAAAAAAAAAAAAAAAAAAAAAAAAAAAAAAAAAAAAAAAAAAAAAAAAAAAAAAAAAAAAAAAAAAAAAAAAAAAAAAAAAAAAAAAAAAAAAAAAAAAAAAAAAAAAAAAAAAAAAAAAAAAAAAAAAAAAAAAAAAAAAAAAAAAAAAAAAAAAAAAAAAAAAAAAAAAAAAAAAAAAAAAAAAAAAAAAAAAAAAAAAAAAAAAAAAAAAAAAAAAAAAAAAAAAAAAAAAAAAAAAAAAAAAAAAAAAAAAAAAAAAAAAAAAAAAAAAAAAAAEAAAAAAAAAAAAAAQEBAQEBAAAAAAEAAAAAAAAAAAAAAAAAAAAAAAAAAAAAAAAAAAAAAAAAAAAAAAAAAAAAAAAAAAAAAAAAAAAAAAAAAAAAAAAAAAAAAAAAAAAAAAAAAAAAAAAAAAAAAAAAAAAAAAAAAAAAAAAAAAAAAAAAAAAAAAAAAAAAAAAAAAAAAAAAAAAAAAAAAAAAAAAAAAAAAAAAAAAAAAAAAAAAAAAAAAAAAAAAAAAAAAAAAAAAAAAAAAAAAAAAAAAAAAAAAAAAAAAAAAAAAAAAAAAAAAAAAAAAAAAAAAAAAAAAAAAAAAAAAAAAAAAAAAAAAAAAAAAAAAAAAAAAAAAAAAAAAAAAAAAAAAAAAAAAAAAAAAAAAAAAAAAAAAAAAAAAAAAAAAAAAAAAAAAAAAAAAAAAAJ2VFSEAACAASURBVAAAAAAAAAAAAAAAAAAAAAAAAAAAAAAAAAAAAAAAAAAAAAAAAAAAAAAAAAAAAAAAAAAAAAAAAAAAAAAAAAAAAAAAAAAAAAAAAAAAAAAAAAAAAAAAAAAAAAAAAAAAAAAAAAAAAAAAAAAAAAAAAAAAAAAAAAAAAAAAAAAAAAAAAAAAAAAAAAAAAAAAAAAAAAAAAAAAAAAAAAAAAAAAAAAAAAAAAAAAAAAAAAAAAAAAAAAAAAAAAAAAAAAAAAAAAAAAAAAAAAAAAAAAAAAAAAAAAAAAAAAAAAAAAAAAAAAAAAAAAAAAAAAAAAAAAAAAAAAAAAAAAAAAAAAAAAAAAAAAAAAAAAAAAAAAAAAAAAAAAAAAAAAAAAAAAAAAAAAAAAAAAAAAAAAAAAAAAAAAAAAAAAAAAAAAAAAAAAAAAAAAAAAAAAAAAAAAAAAAAAAAAAAAAAAAAAAAAAAAAAAAAAAAAAAAAAAAAAAAAAAAAAAAAAAAAAAAAAAAAAAAAAAAAAAAAAAAAAAAAAAAAAAAAAAAAAAAAAAAAAAAAAAAAAAAAAAAAAAAAAAAAAAAAAAAAAAAAAAAAAAAAAAAAAAAAAAAAAAAAAAAAAAAAAAAAAAAAAAAAAAAAAAAAAAAAAAAAAAAAAAAAAAAAAAAAAAAAAAAAAAAAAAAAAAAAAAAAAAAAAAAAAAAAAAAAAAAAAAAAAAAAAAAAAAAAAAAAAAAAAAAAAAAAAAAAAAAAAAAAAAAAAAAAAAAAAAAAAAAAAAAAAAAAAAAAAAAAAAAAAAAAAAAAAAAAAAAAAAAAAAAAAAAAAAAAAAAAAAAAAAAAAAAAAAAAAAAAAAAAAAAAAAAAAAAAAAAAAAAAAAAAAAAAAAAAAAAAAAAAAAAAAAAAAAAAAAAAAAAAAAAAAAAAAAAAAAAAAAAAAAAAAAAAAAAAAAAAAAAAAAAAAAAAAAAAAAAAAAAAAAAAAAAAAAAAAAAAAAAAAAAAAAAAAAAAAAAAAAAAAAAAAAAAAAAAAAAAAAAAAAAAAAAAAAAAAAAAAAAAAAAAAAAAAAAAAAAAAAAAAAAAAAAAAAAAAAAAAAAAAAAAAAAAAAAAAAAAAAAAAAAAAAAAAAAAAAAAAAAAAAAAAAAAAAAAAAAAAAAAAAAAAAAAAAAAAAAAAAAAAAAAAAAAAAAAAAAAAAAAAAAAAAAAAAAAAAAAAAAAAAAAAAAAAAAAAAAAAAAAAAAAAAAAAAAAAAAAAAAAAAAAAAAAAAAAAAAAAAAAAAAAAAAAAAAAAAAAAAAAAAAAAAAAAAAAAAAAAAAAAAAAAAAAAAAAAAAAAAAAAAAAAAAAAAAAAAAAAAAAAAAAAAAAAAAAAAAAAAAAAAAAAAAAAAAAAAAAAAAAAAAAAAAAAAAAAAAAAAAAAAAAAAAAAAAAAAAAAAAAAAAAAAAAAAAAAAAAAAAAAAAAAAAAAAAAAAAAAAAAAAAAAAAAAAAAAAAAAAAAAAAAAAAAAAAAAAAAAAAAAAAAAAAAAAAAAAAAAAAAAAAAAAAAAAAAAAAAAAAAAAAAAAAAAAAAAAAAAAAAAAAAAAAAAAAAAAAAAAAAAAAAAAAAAAAAAAAAAAAAAAAAAAAAAAAAAAAAAAAAAAAAAAAAAAAAAAAAAAAAAAAAAAAAAAAAAAAAAAAAAAAAAAAAAAAAAAAAAAAAAAAAAAAAAAAAAAAAAAAAAAAAAAAAAAAAAAAAAAAAAAAAAAAAAAAAAAAAAAAAAAAAAAAAAAAAAAAAAAAAAAAAAAAAAAAAAAAAAAAAAAAAAAAAAAAAAAAAAAAAAAAAAAAAAAAAAAAAAAAAAAAAAAAAAAAAAAAAAAAAAAAAAAAAAAAAAAAAAAAAAAAAAAAAAAAAAAAAAAAAAAAAAAAAAAAAAAAAAAAAAAAAAAAAAAAAAAAAAAAAAAAAAAAAAAAAAAAAAAAAAAAAAAAAAAAAAAAAAAAAAAAAAAAAAAAAAAAAAAAAAAAAAAAAAAAAAAAAAAAAAAAAAAAAAAAAAAAAAAAAAAAAAAAAAAAAAAAAAAAAAAAAAAAAAAAAAAAAAAAAAAAAAAAAAAAAAAAAAAAAAAAAAAAAAAAAAAAAAAAAAAAAAAAAAAAAAAAAAAAAAAAAAAAAAAAAAAAAAAAAAAAAAAAAAAAAAAAAAAAAAAAAAAAAAAAAAAAAAAAAAAAAAAAAAAAAAAAAAAAAAAAAAAAAAAAAAAAAAAAAAAAAAAAAAAAAAAAAAAAAAAAAAAAAAAAAAAAAAAAAAAAAAAAAAAAAAAAAAAAAAAAAAAAAAAAAAAAAAAAAAAAAAAAAAAAAAAAAAAAAAAAAAAAAAAAAAAAAAAAAAAAAAAAAAAAAAAAAAAAAAAAAAAAAAAAAAAAAAAAAAAAAAAAAAAAAAAAAAAAAAAAAAAAAAAAAAAAAAAAAAAAAAAAAAAAAAAAAAAAAAAAAAAAAAAAAAAAAAAAAAAAAAAAAAAAAAAAAAAAAAAAAAAAAAAAAAAAAAAAAAAAAAAAAAAAAAAAAAAAAAAAAAAAAAAAAAAAAAAAAAAAAAAAAAAAAAAAAAAAAAAAAAAAAAAAAAAAAAAAAAAAAAAAAAAAAAAAAAAAAAAAAAAAAAAAAAAAAAAAAAAAAAAAAAAAAAAAAAAAAAAAAAAAAAAAAAAAAAAAAAAAAAAAAAAAAAAAAAAAAAAAAAAAAAAAAAAAAAAAAAAAAAAAAAAAAAAAAAAAAAAAAAAAAAAAAAAAAAAAAAAAAAAAAAAAAAAAAAAAAAAAAAAAAAAAAAAAAAAAAAAAAAAAAAAAAAAAAAAAAAAAAAAAAAAAAAAAAAAAAAAAAAAAAAAAAAAAAAAAAAAAAAAAAAAAAAAAAAAAAAAAAAAAAAAAAAAAAAAAAAAAAAAAAAAAAAAAAAAAAAAAAAAAAAAAAAAAAAAAAAAAAAAAAAAAAAAAAAAAAAAAAAAAAAAAAAAAAAAAAAAAAAAAAAAAAAAAAAAAAAAAAAAAAAAAAAAAAAAAAAAAAAAAAAAAAAAAAAAAAAAAAAAAAAAAAAAAAAAAAAAAAAAAAAAAAAAAAAAAAAAAAAAAAAAAAAAAAAAAAAAAAAAAAAAAAAAAAAAAAAAAAAAAAAAAAAAAAAAAAAAAAAAAAAAAAAAAAAAAAAAAAAAAAAAAAAAAAAAAAAAAAAAAAAAAAAAAAAAAAAAAAAAAAAAAAAAAAAAAAAAAAAAAAAAAAAAAAAAAAAAAAAAAAAAAAAAAAAAAAAAAAAAAAAAAAAAAAAAAAAAAAAAAAAAAAAAAAAAAAAAAAAAAAAAAAAAAAAAAAAAAAAAAAAAAAAAAAAAAAAAAAAAAAAAAAAAAAAAAAAAAAAAAAAAAAAAAAAAAAAAAAAAAAAAAAAAAAAAAAAAAAAAAAAAAAAAAAAAAAAAAAAAAAAAAAAAAAAAAAAAAAAAAAAAAAAAAAAAAAAAAAAAAAAAAAAAAAAAAAAAAAAAAAAAAAAAAAAAAAAAAAAAAAAAAAAAAAAAAAAAAAAAAAAAAAAAAAAAAAAAAAAAAAAAAAAAAAAAAAAAAAAAAAAAAAAAAAAAAAAAAAAAAAAAAAAAAAAAAAAAAAAAAAAAAAAAAAAAAAAAAAAAAAAAAAAAAAAAAAAAAAAAAAAAAAAAAAAAAAAAAAAAAAAAAAAAAAAAAAAAAAAAAAAAAAAAAAAAAAAAAAAAAAAAAAAAAAAAAAAAAAAAAAAAAAAAAAAAAAAAAAAAAAAAAAAAAAAAAAAAAAAAAAAAAAAAAAAAAAAAAAAAAAAAAAAAAAAAAAAAAAAAAAAAAAAAAAAAAAAAAAAAAAAAAAAAAAAAAAAAAAAAAAAAAAAAAAAAAAAAAAAAAAAAAAAAAAAAAAAAAAAAAAAAAAAAAAAAAAAAAAAAAAAAAAAAAAAAAAAAAAAAAAAAAAAAAAAAAAAAAAAAAAAAAAAAAAAAAAAAAAAAAAAAAAAAAAAAAAAAAAAAAAAAAAAAAAAAAAAAAAAAAAAAAAAAAAAAAAAAAAAAAAAAAAAAAAAAAAAAAAAAAAAAAAAAAAAAAAAAAAAAAAAAAAAAAAAAAAAAAAAAAAAAAAAAAAAAAAAAAAAAAAAAAAAAAAAAAAAAAAAAAAAAAAAAAAAAAAAAAAAAAAAAAAAAAAAAAAAAAAAAAAAAAAAAAAAAAAAAAAAAAAAAAAAAAAAAAAAAAAAAAAAAAAAAAAAAAAAAAAAAAAAAAAAAAAAAAAAAAAAAAAAAAAAAAAAAAAAAAAAAAAAAAAAAAAAAAAAAAAAAAAAAAAAAAAAAAAAAAAAAAAAAAAAAAAAAAAAAAAAAAAAAAAAAAAAAAAAAAAAAAAAAAAAAAAAAAAAAAAAAAAAAAAAAAAAAAAAAAAAAAAAAAAAAAAAAAAAAAAAAAAAAAAAAAAAAAAAAAAAAAAAAAAAAAAAAAAAAAAAAAAAAAAAAAAAAAAAAAAAAAAAAAAAAAAAAAAAAAAAAAAAAAAAAAAAAAAAAAAAAAAAAAAAAAAAAAAAAAAAAAAAAAAAAAAAAAAAAAAAAAAAAAAAAAAAAAAAAAAAAAAAAAAAAAAAAAAAAAAAAAAAAAAAAAAAAAAAAAAAAAAAAAAAAAAAAAAAAAAAAAAAAAAAAAAAAAAAAAAAAAAAAAAAAAAAAAAAAAAAAAAAAAAAAAAAAAAAAAAAAAAAAAAAAAAAAAAAAAAAAAAAAAAAAAAAAAAAAAAAAAAAAAAAAAAAAAAAAAAAAAAAAAAAAAAAAAAAAAAAAAAAAAAAAAAAAAAAAAAAAAAAAAAAAAAAAAAAAAAAAAAAAAAAAAAAAAAAAAAAAAAAAAAAAAAAAAAAAAAAAAAAAAAAAAAAAAAAAAAAAAAAAAAAAAAAAAAAAAAAAAAAAAAAAAAAAAAAAAAAAAAAAAAAAAAAAAAAAAAAAAAAAAAAAAAAAAAAAAAAAAAAAAAAAAAAAAAAAAAAAAAAAAAAAAAAAAAAAAAAAAAAAAAAAAAAAAAAAAAAAAAAAAAAAAAAAAAAAAAAAAAAAAAAAAAAAAAAAAAAAAAAAAAAAAAAAAAAAAAAAAAAAAAAAAAAAAAAAAAAAAAAAAAAAAAAAAAAAAAAAAAAAAAAAAAAAAAAAAAAAAAAAAAAAAAAAAAAAAAAAAAAAAAAAAAAAAAAAAAAAAAAAAAAAAAAAAAAAAAAAAAAAAAAAAAAAAAAAAAAAAAAAAAAAAAAAAAAAAAAAAAAAAAAAAAAAAAAAAAAAAAAAAAAAAAAAAAAAAAAAAAAAAAAAAAAAAAAAAAAAAAAAAAAAAAAAAAAAAAAAAAAAAAAAAAAAAAAAAAAAAAAAAAAAAAAAAAAAAAAAAAAAAAAAAAAAAAAAAAAAAAAAAAAAAAAAAAAAAAAAAAAAAAAAAAAAAAAAAAAAAAAAAAAAAAAAAAAAAAAAAAAAAAAAAAAAAAAAAAAAAAAAAAAAAAAAAAAAAAAAAAAAAAAAAAAAAAAAAAAAAAAAAAAAAAAAAAAAAAAAAAAAAAAAAAAAAAAAAAAAAAAAAAAAAAAAAAAAAAAAAAAAAAAAAAAAAAAAAAAAAAAAAAAAAAAAAAAAAAAAAAAAAAAAAAAAAAAAAAAAAAAAAAAAAAAAAAAAAAAAAAAAAAAAAAAAAAAAAAAAAAAAAAAAAAAAAAAAAAAAAAAAAAAAAAAAAAAAAAAAAAAAAAAAAAAAAAAAAAAAAAAAAAAAAAAAAAAAAAAAAAAAAAAAAAAAAAAAAAAAAAAAAAAAAAAAAAAAAAAAAAAAAAAAAAAAAAAAAAAAAAAAAAAAAAAAAAAAAAAAAAAAAAAAAAAAAAAAAAAAAAAAAAAAAAAAAAAAAAAAAAAAAAAAAAAAAAAAAAAAAAAAAAAAAAAAAAAAAAAAAAAAAAAAAAAAAAAAAAAAAAAAAAAAAAAAAAAAAAAAAAAAAAAAAAAAAAAAAAAAAAAAAAAAAAAAAAAAAAAAAAAAAAAAAAAAAAAAAAAAAAAAAAAAAAAAAAAAAAAAAAAAAAAAAAAAAAAAAAAAAAAAAAAAAAAAAAAAAAAAAAAAAAAAAAAAAAAAAAAAAAAAAAAAAAAAAAAAAAAAAAAAAAAAAAAAAAAAAAAAAAAAAAAAAAAAAAAAAAAAAAAAAAAAAAAAAAAAAAAAAAAAAAAAAAAAAAAAAAAAAAAAAAAAAAAAAAAAAAAAAAAAAAAAAAAAAAAAAAAAAAAAAAAAAAAAAAAAAAAAAAAAAAAAAAAAAAAAAAAAAAAAAAAAAAAAAAAAAAAAAAAAAAAAAAAAAAAAAAAAAAAAAAAAAAAAAAAAAAAAAAAAAAAAAAAAAAAAAAAAAAAAAAAAAAAAAAAAAAAAAAAAAAAAAAAAAAAAAAAAAAAAAAAAAAAAAAAAAAAAAAAAAAAAAAAAAAAAAAAAAAAAAAAAAAAAAAAAAAAAAAAAAAAAAAAAAAAAAAAAAAAAAAAAAAAAAAAAAAAAAAAAAAAAAAAAAAAAAAAAAAAAAAAAAAAAAAAAAAAAAAAAAAAAAAAAAAAAAAAAAAAAAAAAAAAAAAAAAAAAAAAAAAAAAAAAAAAAAAAAAAAAAAAAAAAAAAAAAAAAAAAAAAAAAAAAAAAAAAAAAAAAAAAAAAAAAAAAAAAAAAAAAAAAAAAAAAAAAAAAAAAAAAAAAAAAAAAAAAAAAAAAAAAAAAAAAAAAAAAAAAAAAAAAAAAAAAAAAAAAAAAAAAAAAAAAAAAAAAAAAAAAAAAAAAAAAAAAAAAAAAAAAAAAAAAAAAAAAAAAAAAAAAAAAAAAAAAAAAAAAAAAAAAAAAAAAAAAAAAAAAAAAAAAAAAAAAAAAAAAAAAAAAAAAAAAAAAAAAAAAAAAAAAAAAAAAAAAAAAAAAAAAAAAAAAAAAAAAAAAAAAAAAAAAAAAAAAAAAAAAAAAAAAAAAAAAAAAAAAAAAAAAAAAAAAAAAAAAAAAAAAAAAAAAAAAAAAAAAAAAAAAAAAAAAAAAAAAAAAAAAAAAAAAAAAAAAAAAAAAAAAAAAAAAAAAAAAAAAAAAAAAAAAAAAAAAAAAAAAAAAAAAAAAAAAAAAAAAAAAAAAAAAAAAAAAAAAAAAAAAAAAAAAAAAAAAAAAAAAAAAAAAAAAAAAAAAAAAAAAAAAAAAAAAAAAAAAAAAAAAAAAAAAAAAAAAAAAAAAAAAAAAAAAAAAAAAAAAAAAAAAAAAAAAAAAAAAAAAAAAAAAAAAAAAAAAAAAAAAAAAAAAAAAAAAAAAAAAAAAAAAAAAAAAAAAAAAAAAAAAAAAAAAAAAAAAAAAAAAAAAAAAAAAAAAAAAAAAAAAAAAAAAAAAAAAAAAAAAAAAAAAAAAAAAAAAAAAAAAAAAAAAAAAAAAAAAAAAAAAAAAAAAAAAAAAAAAAAAAAAAAAAAAAAAAAAAAAAAAAAAAAAAAAAAAAAAAAAAAAAAAAAAAAAAAAAAAAAAAAAAAAAAAAAAAAAAAAAAAAAAAAAAAAAAAAAAAAAAAAAAAAAAAAAAAAAAAAAAAAAAAAAAAAAAAAAAAAAAAAAAAAAAAAAAAAAAAAAAAAAAAAAAAAAAAAAAAAAAAAAAAAAAAAAAAAAAAAAAAAAAAAAAAAAAAAAAAAAAAAAAAAAAAAAAAAAAAAAAAAAAAAAAAAAAAAAAAAAAAAAAAAAAAAAAAAAAAAAAAAAAAAAAAAAAAAAAAAAAAAAAAAAAAAAAAAAAAAAAAAAAAAAAAAAAAAAAAAAAAAAAAAAAAAAAAAAAAAAAAAAAAAAAAAAAAAAAAAAAAAAAAAAAAAAAAAAAAAAAAAAAAAAAAAAAAAAAAAAAAAAAAAAAAAAAAAAAAAAAAAAAAAAAAAAAAAAAAAAAAAAAAAAAAAAAAAAAAAAAAAAAAAAAAAAAAAAAAAAAAAAAAAAAAAAAAAAAAAAAAAAAAAAAAAAAAAAAAAAAAAAAAAAAAAAAAAAAAAAAAAAAAAAAAAAAAAAAAAAAAAAAAAAAAAAAAAAAAAAAAAAAAAAAAAAAAAAAAAAAAAAAAAAAAAAAAAAAAAAAAAAAAAAAAAAAAAAAAAAAAAAAAAAAAAAAAAAAAAAAAAAAAAAAAAAAAAAAAAAAAAAAAAAAAAAAAAAAAAAAAAAAAAAAAAAAAAAAAAAAAAAAAAAAAAAAAAAAAAAAAAAAAAAAAAAAAAAAAAAAAAAAAAAAAAAAAAAAAAAAAAAAAAAAAAAAAAAAAAAAAAAAAAAAAAAAAAAAAAAAAAAAAAAAAAAAAAAAAAAAAAAAAAAAAAAAAAAAAAAAAAAAAAAAAAAAAAAAAAAAAAAAAAAAAAAAAAAAAAAAAAAAAAAAAAAAAAAAAAAAAAAAAAAAAAAAAAAAAAAAAAAAAAAAAAAAAAAAAAAAAAAAAAAAAAAAAAAAAAAAAAAAAAAAAAAAAAAAAAAAAAAAAAAAAAAAAAAAAAAAAAAAAAAAAAAAAAAAAAAAAAAAAAAAAAAAAAAAAAAAAAAAAAAAAAAAAAAAAAAAAAAAAAAAAAAAAAAAAAAAAAAAAAAAAAAAAAAAAAAAAAAAAAAAAAAAAAAAAAAAAAAAAAAAAAAAAAAAAAAAAAAAAAAAAAAAAAAAAAAAAAAAAAAAAAAAAAAAAAAAAAAAAAAAAAAAAAAAAAAAAAAAAAAAAAAAAAAAAAAAAAAAAAAAAAAAAAAAAAAAAAAAAAAAAAAAAAAAAAAAAAAAAAAAAAAAAAAAAAAAAAAAAAAAAAAAAAAAAAAAAAAAAAAAAAAAAAAAAAAAAAAAAAAAAAAAAAAAAAAAAAAAAAAAAAAAAAAAAAAAAAAAAAAAAAAAAAAAAAAAAAAAAAAAAAAAAAAAAAAAAAAAAAAAAAAAAAAAAAAAAAAAAAAAAAAAAAAAAAAAAAAAAAAAAAAAAAAAAAAAAAAAAAAAAAAAAAAAAAAAAAAAAAAAAAAAAAAAAAAAAAAAAAAAAAAAAAAAAAAAAAAAAAAAAAAAAAAAAAAAAAAAAAAAAAAAAAAAAAAAAAAAAAAAAAAAAAAAAAAAAAAAAAAAAAAAAAAAAAAAAAAAAAAAAAAAAAAAAAAAAAAAAAAAAAAAAAAAAAAAAAAAAAAAAAAAAAAAAAAAAAAAAAAAAAAAAAAAAAAAAAAAAAAAAAAAAAAAAAAAAAAAAAAAAAAAAAAAAAAAAAAAAAAAAAAAAAAAAAAAAAAAAAAAAAAAAAAAAAAAAAAAAAGAQEBAQEBAQEBAQEBAQEBAQEBAQEBAQEBAQEAAQAAAAAAEhIYFxcXFwobHhIAAAEBAQEBAQEBAQEBAQEBAQEBAQEBAQEGBgYGABIbDw8bBgABAAABAQEBAQEBAQEBAQEBAQEBAQEBAQEBAQEBAQEBAQEBAQEBAQEBAQEBAQEBAQEBAQEBAQEBAQEBAQEBAQEBAQEBAQEBAQEBAQEBAQEBAQEBAQEBAAAAAAAAAAAAAAABAAAAAAAAAAAAAAAAAAAAAAAAAAAAAAAAAAAAAAAAAAAAAAAAAAAAAAAAAAAAAAAAAAAAAAAAAAAAAAAAAAAAAAAAAAAAAAAAAAAAAAAAAAAAAAAAAAAAAAAAAAAAAAAAAAAAAAYBAQEBAQEBAQEBAQEBAQEBAQEBAQEBAQEBAQEAHiQmJBAfHw0hISsrK0VFEwAAAQEBAQEBAQEBAQEBAQEBAQEBAQEBAQEGBgATJwICAgIrCwAAAAEBAQEBAQEBAQEBAQEBAQEBAQEBAQEBAQEBAQEBAQEBAQEBAQEBAQEBAQEBAQEBAQEBAQEBAQEBAQEBAQEBAQEBAQEBAQEBAQEBAQEBAQEBAQEAAAAAAAAAAAAAAAEAAAAAAAAAAAAAAAAAAAAAAAAAAAAAAAAAAAAAAAAAAAAAAAAAAAAAAAAAAAAAAAAAAAAAAAAAAAAAAAAAAAAAAAAAAAAAAAAAAAAAAAAAAAAAAAAAAAAAAAAAAAAAAAAAAAAABgEBAQEBAQEBAQEBAQEBAQEBAQEBAQEBAQEBAQAlLCwsLC0tLS0tLS0tLCwZAAEBAQEBAQEBAQEBAQEBAQEBAQEBAQEGBgYAFAICAgICAgICEwABAQEBAQEBAQEBAQEBAQEBAQEBAQEBAQEBAQEBAQEBAQEBAQEBAQEBAQEBAQEBAQEBAQEBAQEBAQEBAQEBAQEBAQEBAQEBAQEBAQEBAQEBAQEBAQAAAAAAAAAAAAAAAQAAAAAAAAAAAAAAAAAAAAAAAAAAAAAAAAAAAAAAAAAAAAAAAAAAAAAAAAAAAAAAAAAAAAAAAAAAAAAAAAAAAAAAAAAAAAAAAAAAAAAAAAAAAAAAAAAAAAAAAAAAAAAAAAAAAAAGAQEBAQEBAQEBAQEBAQEBAQEBAQEBAQEBAQEBAB4kHycVFRUVFRUVFRUVSgUAAQEBAQEBAQEBAQEBAQEBAQEBAQEBAQEBAAoCAgQEBAQEBAIVFwABAQEBAQEBAQEBAQEBAQEBAQEBAQEBAQEBAQEBAQEBAQEBAQEBAQEBAQEBAQEBAQEBAQEBAQEBAQEBAQEBAQEBAQEBAQEBAQEBAQEBAQEBAQEBAAAAAAAAAAAAAAABAAAAAAAAAAAAAAAAAAAAAAAAAAAAAAAAAAAAAAAAACUOEBAQEBAQEBAQEBAQEBAQEBAQEB8bAAAAAAAAAAAAAAAAAAAAAAAAAAAAAAAAAAAAAAAAAAAAAAAAAAAAAAAAAAAAAAYBAQEBAQEBAQEBAQEBAQEBAQEBAQEBAQEBAQEBAAAAFyQaGkZGRhoaGhoaDwAGAQEBAQEBAQEBAQEBAQEBAQEBAQEBAQYAJgICBAQEBAQEBAIcAAEBAQEBAQEBAQEBAQEBAQEBAQEBAQEBAQEBAQEBAQEBAQEBAQEBAQEBAQEBAQEBAQEBAQEBAQEBAQEBAQEBAQEBAQEBAQEBAQEBAQEBAQEBAQEAAAAAAAAAAAAAAAEAAAAAAAAAAAAAAAAAAAAAAAAAAAAAAAAAi0+ufQAAIABJREFUAAAAAAAAHwICAgICAgICAgICAgICAgICAgICAhMAAAAAAAAAAAAAAAAAAAAAAAAAAAAAAAAAAAAAAAAAAAAAAAAAAAAAAAAAAAAABgEBAQEBAQEBAQEBAQEBAQEBAQEBAQEBAQEBAAEBAAABAVEaGhoaGhoaGkAUAAYBAQEBAQEBAQEBAQEBAQEBAQEBAQEBAQEhAgIEBAQEBAQEAh8AAAEBAQEBAQEBAQEBAQEBAQEBAQEBAQEBAQEBAQEBAQEBAQEBAQEBAQEBAQEBAQEBAQEBAQEBAQEBAQEBAQEBAQEBAQEBAQEBAQEBAQEBAQEBAQAAAAAAAAAAAAAAAQAAAAAAAAAAAAAAAAAAAAAAAAAAAAAAAAAAAAAAAAAcLQICAgICAgICAgICAgICAgICAiwhGwAAAAAAAAAAAAAAAAAAAAAAAAAAAAAAAAAAAAAAAAAAAAAAAAAAAAAAAAAAAAAGAQEBAQEBAQEBAQEBAQEBAQEBAQEBAQEBAQEBAQABAQYAFAQEBAQEBAQEBBQAAQEBAQEBAQEBAQEBAQEBAQEBAQEBAQEBASECAgQEBAQEBAQCDgADAQEBAQEBAQEBAQEBAQEBAQEBAQEBAQEBAQEBAQEBAQEBAQEBAQEBAQEBAQEBAQEBAQEBAQEBAQEBAQEBAQEBAQEBAQEBAQEBAQEBAQEBAQEBAAAAAAAAAAAAAAABAAAAAAAAAAAAAAAAAAAAAAAAAAAAAAAAAAAAAAAAAQAAEhMOAgICAgICAgICAgICKxMXAAAAAAAAAAAAAAAAAAAAAAAAAAAAAAAAAAAAAAAAAAAAAAAAAAAAAAAAAAAAAAAAAAYBAQEBAQEBAQEBAQEBAQEBAQEBAQEBAQEBAQABAQEBBgAKBAQEBAQEBAQCFAABAQEBAQEBAQEBAQEBAQEBAQEBAQEBAQYAJgIEBAQEBAQEAgIlAAEBAQEBAQEBAQEBAQEBAQEBAQEBAQEBAQEBAQEBAQEBAQEBAQEBAQEBAQEBAQEBAQEBAQEBAQEBAQEBAQEBAQEBAQEBAQEBAQEBAQEBAQEBAQEAAAAAAAAAAAAAAAEAAAAAAAAAAAAAAAAAAAAAAAAAAAAAAAAAAAAAAAABAQEAAAALAgICAgICAgICAgIAAAAAAQAAAAAAAAAAAAAAAAAAAAAAAAAAAAAAAAAAAAAAAAAAAAAAAAAAAAAAAAAAAAAABgEBAQEBAQEBAQEBAQEBAQEBAQEBAQEBAQEBAQEBAQEBAAoCAgQEBAQEBAIUAAABAQEBAQEBAQEBAQEBAQEBAQEBAQEGAQAYAgIEBAQEBAQCLBIAAAEBAQEBAQEBAQEBAQEBAQEBAQEBAQEBAQEBAQEBAQEBAQEBAQEBAQEBAQEBAQEBAQEBAQEBAQEBAQEBAQEBAQEBAQEBAQEBAQEBAQEBAQEBAQAAAAAAAAAAAAAAAQAAAAAAAAAAAAAAAAAAAAAAAAAAAAAAAAAAAAAAAAAAAAAAAAArAgICAgICAgICDQABAAAAAAAAAAAAAAAAAAAAAAAAAAAAAAAAAAAAAAAAAAAAAAAAAAAAAAAAAAAAAAAAAAAGAQEBAQEBAQEBAQEBAQEBAQEBAQEBAQEBAQEBAQEBAQEACgICBAQEBAQEAhQAAQEBAQEBAQEBAQEBAQEBAQEBAQEBAQYBAAALAgICAgICAgIbAAABAQEBAQEBAQEBAQEBAQEBAQEBAQEBAQEBAQEBAQEBAQEBAQEBAQEBAQEBAQEBAQEBAQEBAQEBAQEBAQEBAQEBAQEBAQEBAQEBAQEBAQEBAQEBAAAAAAAAAAAAAAABAAAAAAAAAAAAAAAAAAAAAAAAAAAAAAAAAAAAAAAAAAAAAAAAAB8CAgICAgICAgIQAAAAAAAAAAAAAAAAAAAAAAAAAAAAAAAAAAAAAAAAAAAAAAAAAAAAAAAAAAAAAAAAAAAAAAYBAQEBAQEBAQEBAQEBAQEBAQEBAQEBAQEBAQEBAQEBAQAKAgIEBAQEBAQCFAABAQEBAQEBAQEBAQEBAQEBAQEBAQEBAAEGBgAKIQICAgIQFwAAAQEBAQEBAQEBAQEBAQEBAQEBAQEBAQEBAQEBAQEBAQEBAQEBAQEBAQEBAQEBAQEBAQEBAQEBAQEBAQEBAQEBAQEBAQEBAQEBAQEBAQEBAQEBAQEAAAAAAAAAAAAAAAEAAAAAAAAAAAAAAAAAAAAAAAAAAAAAAAAAAAAAAAAAAAAAAAAADQICAgICAgICAg4AAAAAAAAAAAAAAAAAAAAAAAAAAAAAAAAAAAAAAAAAAAAAAAAAAAAAAAAAAAAAAAAAAAAABgEBAQEBAQEBAQEBAQEBAQEBAQEBAQEBAQEBAQEBAQEBAAoCAgQEBAQEBAIUAAEBAQEBAQEBAQEBAQEBAQEBAQEBAQEAAQYGAQAAGB4bEgAAAAEBAQEBAQEBAQEBAQEBAQEBAQEBAQEBAQEBAQEBAQEBAQEBAQEBAQEBAQEBAQEBAQEBAQEBAQEBAQEBAQEBAQEBAQEBAQEBAQEBAQEBAQEBAQEBAQAAAAAAAAAAAAAAAQAAAAAAAAAAAAAAAAAAAAAAAAAAAAAAAAAAAAAAAAAAAAAAAAANAgICAgICAgICDgAAAAAAAAAAAAAAAAAAAAAAAAAAAAAAAAAAAAAAAAAAAAAAAAAAAAAAAAAAAAAAAAAAAAEBAQEBAQEBAQEBAwEBAQEBAQYAAQEBAQEBAQEBAQEBAQEACgICBAQEBAQEAhQAAAAAAAAAAAAAAAAAAAEBAQEBAQEBAQEBAQEBAAABAAABAQAAAAAAAAAAAAAAAAAAAAAAAAAAAAAAAAAAAAAAAAAAAAAAAAAAAAAAAAAAAQEBAQEBAQEBAQEAAQABAQEBAwEBAQEBAQYGBgEGBgEBAQEBAQEBAQEBAAAAAAAAAAAAAAABAAAAAAAAAAAAAAAAAAAAAAAAAAAAAAAAAAAAAAAAAAAAAAAAAA0CAgICAgICAgIOAAAAAAAAAAAAAAAAAAAAAAAAAAAAAAAAAAAAAAAAAAAAAAAAAAAAAAAAAAAAAAAAAAAAAQEAAQEAAQEBAQEGAQEAAQEBAQEBAQABAQEBAQEBAQEBAQAKAgIEBAQEBAQCFAAAAAAAAAAAAAAAAAAAAQYGBgYBAQEBAQEBAQEAAAEBAAAAAAAAAAAAAAAAAAAAAAAAAAAAAAAAAAAAAAAAAAAAAAAAAAAAAAAAAAAAAAABAQEBAQEBAQEBAQEBAAEAAAEBAQABAQEBAQEBBgEGBgEBAQEBAQEBAQEAAAAAAAAAAAAAAAEAAAAAAAAAAAAAAAAAAAAAAAAAAAAAAAAAAAAAAAAAAAAAAAAADQICAgICAgICAg4AAAAAAAAAAAAAAAAAAAAAAAAAAAAAAAAAAAAAAAAAAAAAAAAAAAAAAAAAAAAAAAAAAAAAAQEAAQABAQEBAQEAAAAAAAAAAAEAAQEBAQEBAQEBAQEBAAoCAgQEBAQEBAIUAAAAAAAAAAAAAAAAAAAABgYGBgABAQABBgYGBgAAAAAAAAAAAAAAAAAAAAAAAAAAAAAAAAAAAAAAAAAAAAAAAAAAAAAAAAAAAAAAAAAAAAEBAQEBAQEBAQEBAAEAAQEAAAAAAAAAAAEAAQEAAAAAAQEBAQEBAQEBAQAAAAAAAAAAAAAAAQAAAAAAAAAAAAAAAAAAAAAAAAAAAAAAAAAAAAAAAAAAAAAAAAANAgICAgICAgICDgAAAAAAAAAAAAAAAAAAAAAAAQAAABgXCgobFxcYAQAAAAEAAAAAAAAAAQAAAAAAAAAAAAAAAAAAAAEBAQEAAAAYFxcXFxIAAAEBAQEBAQEBAQEBAQEACgICBAQEBAQEAhQAAAAAAAEAAAAAAAAAAAAAAAAAAAABAQAAAAAAAAAAAAAAAAAAAAAAAAABAQABAAAAAAAAAAAAAAAAAAEAAAAAAAAYFxcXFxgAAAAGAAAAAQEBAQEBAQEBAQEAAAAAABIYFxcXFxgSAAAAAAEKCgYAAQEBAQEBAQEBAQAAAAAAAAAAAAABAAAAAAAAAAAAAAAAAAAAAAAAAAAAAAAAAAAAAAAAAAAAAAAAAA0CAgICAgICAgIOAAAAAAAAAAAAAAAAAAAAAAAAFyUNLAICAgICAiwNHAoAAAAAAAAAAAABGBgXChsLEw8lHCAkEB8YAAAAABglDSwCAgICLRAeAAABAQEBAQEBAQEBAQAKAgIEBAQEBAQCFAAAAAAABg8FBQUFBQUFBQUFBQUPCwAGGBgXChseGQUlHCAmEA0LAAAAAAABEhgXChseEwUUHCAkEB8bAAAAABIPHy0CAgICLQ0ZBgABAAAAAQABAQEBAQEBAQAAFyUOJxoCAgICFSsQDxcACwICHgABAQEBAQEBAQEBAAAAAAAAAAAAAAEAAAAAAAAAAAAAAAAAAAAAAAAAAAAAAAAAAAAAAAAAAAAAAAAADQICAgICAgICAg4AAAAAAAAAAAAAAAAAAAAAGw0CAgICAgICAgICAgICAg0bAAAAAAAAABgCAgICAgICAgICAgICAgsAAQEgAgICAgICAgICAgIfGAABAAABAQEBAQEBAAoCAgQEBAQEBAIUAAAAAAAGAgICAgICAgICAgICAgINAAoaAgICAgICAgICAgICAiYAAAAAAAEnAgICAgICAgICAgICAhQAAAAUFQICAgICAgICAgIrFwAAAAABAAEBAQEBAQEAFxACAgICAgICAgICAgICAg0hAgILAAEBAQEBAQEBAQEAAAAAAAAAAAAAAQAAAAAAAAAAAAAAAAAAAAAAAAAAAAAAAAAAAAAAAAAAAAAAAAANAgICAgICAgICDgAAAAAAAAAAAAAAAAAAEiQCAgICAgIQHhsPLAICAgICAgIcAAAAAAAAGAICAgICAgICAgIEAgICHgAYKwICBAICAgICAgICAgJFEgABAAEBAQEBAQEACgICBAQEBAQEAhQAAAABAAAsBAICAgQEBAQEAgICAiYACgICAgIEBAQEBAQEBAQCHAAAAAAAARUCAgICBAQEBAQEBAQCBQASHwICAgIEBAQEBAQEBAICFwAAAQEAAQEBAQEGAA8CAgIEBAICISUFBSQVAgICAgIEAhkAAQEBAQEBAQEBAQAAAAAAAAAAAAABAAAAAAAAAAAAAAAAAAAAAAAAAAAAAAAAAAAAAAAAAAAAAAAAAA0CAgICAgICAgIOAAAAAAAAAAAAAAAAABctAgICAgICJQAAAAAXFQICAgICAgIQAAAAAAABHiUnAgICAgICAgICAgIbCgICAgICAgIEAgICAgIEBAIfAAAAAQEBAQEBAQAKAgIEBAQEBAQCFAAAAAAAAQASCysCBAQEAgICDRMSAAYSCxwtAgICBAQEBAQEBAIcAAEAAAEBGxQhAgICAgICAgQEBAIFEicCAgICAgIEBAQEBAQEBAInAAABAQABAQEBAAAlAgIEBAQCAh4AAAAAAAAUAgIEBAQCBQABAQEBAQEBAQEBAAAAAAAAAAAAAAEAAAAAAAAAAAAAAAAAAAAAAAAAAAAAAAAAAAAAAAAAAAAAAAAADQICAgICAgICAg4AAAAAAAAAAAAAAQAXAgICAgICAg0AAQEBAQAlAgICAgICAgIgAAAAAAAAAAAmAgICAgICAgQCAhQCAgIaDRAhAgICBAICAgIEAgITAAABAQEBAQEBAAoCAgQEBAQEBAIUAAAAAAAGAQAADwICAgICJhgAAAAAAQYAAAAFAgIEBAQEBAQEAhwAAAAAAAYAAAAFAgIEBAQEBAQEAhwtAgICIRAhAgIEBAQEBAQEBAIlAAEBAQEBAQEACwICBAQEBAIPAAEBBgYGAAAXLQIEBAIUAAEBAQEBAQEBAQEAAAAAAAAAAAAAAQAAAAAAAAAAAAAAAAAAAAAAAAAAAAAAAAAAAAAAAAAAAAAAAAANAgICAgICAgICDgAAAAAAAAAAAAAAEhUCAgICAgICGwAAAQEBABcaAgICAgICAgIbAAEAAAAAAAArAgICAgICBAICAgItEwAAAAAXRQICAgICBAQEAg0AAQEBAQEBAQEACgICBAQEBAQEAhQAAAAAAAMBABItAgICDRcAAAABAAAABgYGBgAlAgQEBAQEBAQCHAAAAAAAAQYGBgAkAgQEBAQEBAQEAgIaDwAAAAASDQIEBAQEBAQEAkUBAAEBAAABAQAVAgQEBAQCGgoAAAABAQEBAQASLQIEAiUAAQYBAQEBAQEBAQAAAAAAAAAAAAABAAAAAAAAAAAAAAAAAAAAAAAAAAAAAAAAAAAAAAAAAAAAAAAAAA0CAgICAgICAgIOAAAAAAAAAAAAAAAfAgICAgICAi0AAAEAAAAAEisCAgICAgICAh8AAAAAAAAAABQCAgICAgIEAgICHwAAAAABAQAKAgICAgIEBAQCLBgAAQEBAQEBAQAKAgIEBAQEBAQCFAAAAAEAAAAGIQICBA8AAAEAAAEAAAABAQEBABgCAgQEBAQEBAIcAAAAAAAAAAEGAB4CBAQEBAQEBAQCIRgAAQYGAQASLQIEBAQEBAQCAhcABgAAAAAACwIEBAQEBAICCgAAAAAAAAAAAAAKAgICHAABBgEBAQEBAQEBAAAAAAAAAAAAAAEAAAAAAAAAAAAAAAAAAAAAAAAAAAAAAAAAAAAAAAAAAAAAAAAADQICAgICAgICAg4AAAAAAAAAAAEACwICAgICAgICHwAAAAEAAAEADgICAgICAgICAhcAAAAAAAAAEwICAgICAgQCAiEAAAEAAAAAAAAQAgICAgQEBAICGwAAAQEBAQEBAAoCAgQEBAQEBAIUAAAAAAAABiECAiEXAAYGAwABAAAAAAABAAEABgICBAIEBAQEAhwAAAAAAAAAAQAACgICBAQEBAQEAkUYAAABAQABAwAcAgQEBAQEBAQCDwABAAAAAQAcAgQEBAQEBAIlAAAAAAAAAAAAAAAUAgImAAEBAQEBAQEBAQEBAAAAAAAAAAAAAQAAAAAAAAAAAAAAAAAAAAAAAAAAAAAAAAAAAAAAAAAAAAAAAAANAgICAgICAgICDgAAAAAAAAAAAQAhAgICAgICAgIgAAAAAAAAAAAQAgICAgICAgICDwAAAAAAAAATAgICAgIEAgQCHgAAAAAAAAAAACUCAgICBAQEAgITAAMBAQEBAQEACgICBAQEBAQEAhQAAAAAABIrAgIkEgAGBgYAAAAAAAAAAAAAAAAGAgIEBAQEBAQCHAAAAAAAAAAAAAAKAgIEBAQEBAQCDwABAQEBAwYBAAsCAgQEBAQEBAIcAAEBAQEAACQCBAQEBAQEAgIZAAAAAAAAAAAAAAEVAhAAAQYBAQEBAQEBAQEAAAAAAAAAAAABAAAAAAAAAAAAAAAAAAAAAAAAAAAAAAAAAAAAAAAAAAAAAAAAAA0CAgICAgICAgIOAAAAAAAAAAAACgICAgICAgICAg8AAAAAAAAAACYCAgICAgICAgIkAAAAAAAAABMCAgICAgQCAgIeAAYAAQAAAQAAEwICBAIEBAQCAhkAAQEBAQEBAQAKAgIEBAQEBAQCFAAAAAASKwICJQAAAQYBAQAAAAAAAAAAAAAAAAYCAgQEBAQEBAIcAAEAAAAAAAAAAAoCAgIEBAQEBAIFAAEBAQEBAQEACgQCBAQEBAQEAiAAAQEBAQEAJAIEBAQEBAQEAgIhCxgAAAAAAAABABQhHAAGBgYBAQEBAQEBAQAAAAAAAAAAAAEAAAAAAAAAAAAAAAAAAAAAAAAAAAAAAAAAAAAAAAAAAAAAAAAADQICAgICAgICAg4AAAAAAAAAAAAcAgICAgICAgICCwAAAAAAAAAAHAICAgICAgICAg0AAAAAAAAAEwICAgICBAICAh4AAQABAQABAAALAgIEAgQEBAICGQABAQEBAQEBAAoCAgQEBAQEBAIUAAAAGEUCBAImAAAAAQAAAAAAAAYGBgYBAQEABgICBAQEBAQEAhwAAQYGBgYBAQEACgICAgQEBAQEAg8AAQEBAQEBAQAKGgIEBAQEBAQCIAABAQYAAQAcAgQEBAQEBAQEAgICLSQPFwYAAAABAAAAAQYGBgEBAQEBAQEBAAAAAAAAAAAAAQAAAAAAAAAAAAAAAAAAAAAAAAAAAAAAAAAAAAAAAAAAAAAAAAANAgICAgICAgICDgAAAAAAAAAAACsCAgICAgICAgIQICYmJiQkJCQrAgICAgICAgICIRIAAAAAAAATAgICAgIEAgICHgABAQEGAQEAAAsCAgQCBAQEAgIZAAEBAQEBAQEACgICBAQEBAQEAhQAABctAgICAgITAAAAAQEBAQEBBgYGBgABAQAGAgIEBAQEBAQCHAABBgYGBgABAQAKAgICBAQEBAQCBQABAQEBAQYBAAoaAgQEBAQEBAIgAAEBBgEAAAsCAgQEBAQEBAQEBAICAgICISUXAAAAAAEGAQYGAQEBAQEBAQEAAAAAAAAAAAABAAAAAAAAAAAAAAAAAAAAAAAAAAAAAAAAAAAAAAAAAAAAAAAAAA0CAgICAgICAgIOAAAAAAAAAAABAgICAgICAgICAgICAgICAgICAgICAgICAgICAgIhEgAAAAAAABMCAgICAgQCAgIeAAEAAQEBAQAACwICBAIEBAQCAhkAAQEBAQEBAQAKAgIEBAQEBAQCFAAbLAIEBAIEAiwYAAAABgEBAQEBAQEBAQEBAAYCAgQEBAQEBAIcAAEBAQEBAQEBAAoCAgIEBAQEBAIFAAEBAQEBAQEAChoCBAQEBAQEAiAAAQEGAQEBAAQCBAQEBAQEBAQEBAQEBAICAgIQCgABBgYBBgEBAQEBAQEBAQAAAAAAAAAAAAEAAAAAAAAAAAAAAAAAAAAAAAAAAAAAAAAAAAAAAAAAAAAAAAAADQICAgICAgICAg4AAAAAAAAAABgCAgICAgICAgICFRUVFRUVFRUVFRUVFRUVFRUVGiESAAAAAAAAEwICAgICBAICAh4AAAYGAQAAAAALAgICAgQEBAICGQABAQEBAQEBAAoCAgQEBAQEBAIPGxoCBAQEBAQEAg4AAAEGAQEBAQEBAQEBBgYABgICBAQEBAQEAhwAAQEBAQEBBgYACgICAgQEBAQEAg8AAQEBAQEBAQAKGgIEBAQEBAQCIAAGAQEBAQEADwICBAQEBAQEBAQEBAQEAgICAgICIAAGBgYGBgEBAQEBAQEBAAAAAAAAAAAAAQAAAAAAAAAAAAAAAAAAAAAAAAAAAAAACiUkIA8SAAAAAAAAAAANAgICAgICAgICDgAAAAAAAAAACgICAgICAgICAgITARISEhISEhISEhISEhISEhISEgAAAAAAAAATAgICAgIEAgICHgAABgYBAAEAAAsCAgICBAQEAgIZAAEBAQEBAQEACgICBAQEBAQEAhAVAgIEBAQEBAQCAg8AAAEBAQEBAQEBAQEGBgAGAgIEBAQEBAQCHAABAQEBAQEGBgAKAgICBAQEBAQCDwABAQEBAQEBAAoaAgQEBAQEBAIgAAEGAQEBAQEAHwICAgQEBAQEBAQEBAQEBAQEBAICDQAAAAAAAQEBAQEBAQEAAAAAAAAAAAABAAAAAAAAAAAAAAAAAAAAAAAAAAAAABACAgICAgITAAABAAAAAA0CAgICAgICAgIOAAAAAAAAAAAKAgICAgICAgICAhMAAAAAAAABAQEAAAAAAAAAAAABAQEAAAAAABMCAgICAgICAgIeAAAGBgEAAQEACwICAgIEBAQCAhkAAQEBAQEBAQAKAgIEBAQEBAQEAgICAgQEBAQEBAQCGhcAAQEBAQEBAQEBAQYGAAYCAgQEBAQEBAIcAAEBAQEBAQYGAAoCAgIEBAQEBAIPAAEBAQEBAQEAChoCBAQEBAQEAiAAAQYBAQEBAQYADgICAgQEBAQEBAQEBAQEBAQEBAICEAAAAQABAQEBAQEBAQEAAAAAAAAAAAEAAAAAAAAAAAAAAAAAAAAAAAAAAAAOAgICAgICAgITAAEAAAAADQICAgICAgICAg4AAAAAAAAAABgCAgICAgICAgICDwAAAAAAAAEAAAABAAEBAQEBAQEBAAAAAAAAEwICAgICAgICAh4AAAYGAQABAQALAgICAgQEBAICGQABAQEBAQEBAAoCAgQEBAQEBAQCJiQCBAQEBAQEBAICIQAAAQEBAQEBAQEBBgYABgICBAQEBAQEAhwAAQEBAQEBBgYACgICAgQEBAQEAg8AAQEBAQEBAQAKGgIEBAQEBAQCIAABBgEBAQEGBgYADwICAgIEBAQEBAQEBAQEBAQEAgICHgAAAAEBAQEBAQEBAQAAAAAAAAAAAQAAAAAAAAAAAAAAAAAAAAAAAAAACwICAgICAgICAkUSAAAAAAAfAgICAgICAgICDgAAAAAAAAAAAQICAgICAgICAgIgAAAAAAAAAAAAAAAAAAEBAQEBAAEAAAAAAAATAgICAgICAgICHgAABgYBAQEBAAsCAgICBAQEAgIZAAEBAQEBAQEACgICBAQEBAQEAiYAAS0CBAQEBAQEBAICJQABAAEAAAEGAQEGBgAGAgIEBAQEBAQCHAABAQEBAQEGBgAKAgICBAQEBAQCDwABAQEBAQEBAAoaAgQEBAQEBAIgAAEAAQEBAQABAAYAEiUnAgICAgQEBAQEBAQEBAQEBAIfAAYBAQEBAQEBAQEBAAAAAAAAAAABAAAAAAAAAAAAAAAAAAAAAAAAAAAOAgICAgICAgICAhsAAQAAAA0CAgICAgICAgImAAAAAAAAAAAARQICAgICAgICAiEAAAAAAAAAAAAAAAAAAAAAAAAAAAAAAAAAABMCAgICAgICAgIeAAAGBgEBAQEACwICAgIEBAQCAhkAAQEBAQEBAQAKAgIEBAQEBAQCFAAAHgICBAQEBASV+PYDAAAgAElEQVQEBAICGwABAAAAAQYBAQYGAAYCAgQEBAQEBAIcAAEBAQEBAQYGAAoCAgIEBAQEBAIPAAEBAQEBAQEAChoCBAQEBAQEAiAAAQABAQAYHgoAAAAAAAAKJSECAgICBAQEBAQEBAQEAhoSAQYBAQEBAQEBAQEAAAAAAAAAAAEAAAH0MQvOAAAAAAAAAAAAAAAAAAAAAAASRQICAgICAgICAgILAAAAAAAhAgICAgICAgICDwAAAAAAAAAAACYCAgICAgICAgIVAQABAQAAAAAAAAAAAAAAAAAAAAAAAAAAAAATAgICAgICAgICHgAABgYBAQEBAAsCAgICBAQEAgIZAAEBAQEBAQEACgICBAQEBAQEAhQAAAAgAgQEBAQEBAQEAisAAAAAAAEGAQEGBgAGAgIEBAQEBAQCHAABAQEBAQEGBgAKAgICBAQEBAQCDwABAQEBAQEBAAoaAgQEBAQEBAIgAAEAAAEAJQICAQAAAAAAAAAAEg8QAgICBAQEBAQEBAICGAEGAQEBAQEBAQEBAAAAAAAAAAABAAAAAAAAAAAAAAAAAAAAAAAAABgsAgICAgICAgICAhsAAAAAACwCAgICAgICAgIKAAAAAAAAAAAACwICAgICAgICAgITAAAAAAAAAAAAAAAAAAABAAoAAAAAAAAAABMCAgICAgICAgIeAAAGBgEBAQEACwICAgIEBAQCAhkAAQEBAQEBAQAKAgIEBAQEBAQCFAAAAQErAgQEBAQEBAQEAiAAAAAAAQYBAQYGAAYCAgQEBAQEBAIcAAEBAQEBAQYGAAoCAgIEBAQEBAIPAAEBAQEBAQEAChoCBAQEBAQEAiAAAQABAQAFAgIlAAAAAAAAAAAGAAAYIAICBAQEBAQEBAIYAAEBAQEBAQEBAQEAAAAAAAAAAAEAAAAAAAAAAAAAAAAAAAAAAAAAEicCAgICAgICAgIrEgAAAAEYAgICAgICAgICLQABAAAAAAAAAAAAFQICAgICAgICAg0AAAAAAAAAAAAAAAAAAAALAiUSAAAAAAAAEwICAgICAgICAh4AAQEBAQEBAQALAgICAgQEBAICGQABAQEBAQEBAAoCAgQCBAQEBAIUAAAAABsCAgQEBAQEBAQCAhsAAAABAQEBAQYABgICAgQEBAQEAhwAAAEBAQEAAAAACgICAgQEBAQEAg8AAAEBAQEBAQAKGgIEBAQEBAQCIAABAQABABkCAhoSAAAAAAAAAAYGBgAADwICBAQEBAQCAhgAAQEBAQEBAQEBAQAAAAAAAAAAAQAAAAAAAAAAAAAAAAAAAAAAAAABIQICAgICAgICAhMAAAAAABkCAgICAgICAgIPAAEAAAAAAAAAAQAlAgICAgICAgICAhMAAQAAAAAAAAAAAAEACiwCAhQAAAAAAAATAgICAgICAgICHgAAAAAAAAAAAAsCAgICBAQEAgIZAAAAAAAAAQEACgICBAQEBAQEAhQAAAABABwCBAQEBAQEBAQCJwABAQEBAQEGAQAGAgICBAQEBAQCHAAAAAAAAAAAAAAKAgIEBAQEBAQCDwABAAAAAAEGAAoaAgQEBAQEBAIgAAAAAAAAEwIEAiQAAAAAAAAAAQYGBgAAHwIEBAQEBAItBgEBAQEBAQEBAQEBAAAAAAAAAAABAAAAAAAAAAAAAAAAAAAAAAAAAAAmAgICAgICAgIcAAAAAAAAIQICAgICAgICJwAAAAAAAAAAAAAAAAAtAgICAgICAgICAhcAAAAAAAAAAAAAABssAgIhEgAAAAAAABMCAgICAgICAgIeAAAAAAAAAAAACwICAgIEBAQCAhkAAAAAAAAAAQAKAgIEBAQEBAQCFAAAAAAAACcCBAQEBAQEBAQCJgABAQEAAAEGAAYCAgQEBAQEBAIcAAAAAAAAAAAAAAoCAgIEBAQEBAIPAAYBAQEBAAEAChoCBAQEBAQEAiAAAAAAAAALAgQCAhQAAAAAAAAAAQABAQAmAgQEBAQEAhAAAQEBAQEBAQEBAQEBAAAAAAAAABIAAAAAAAAAAAAAAAAAAAAAAAAAABsCAgICAgICJgAAAAAAAB4CAgICAgICAgIeAAAAAAAAAAAAAAAAABsCAgICAgICAgICFRMAAAAAAAAAAAEPAgICLBcAAAAAAAAAEwICAgICAgICAgsAAAAAAAAAAAALAgICAgQEBAQCBQAAAAAAAAABAAoCAgQCBAQEBAIlAAAAAAAAGwICBAQEBAQEBAICGwABAQEBAQEAEgICBAQEBAQEAhAAAQAAAAAAAAAACgICAgQEBAQEAhQAAQAAAAAAAAAKGgIEBAQEBAQCJgAAAAAAAB4CBAICAhkAAAEAAAAAAAABACQCBAQEBAICGwABAQEBAQEBAQEBAQEAAAAAAAAAEgAAAAAAAAAAAAAAAAAAAAAAAAAAABACAgICAiUAAAAAAAAXGgICAgICAgICDwABAAAAAAAAAAAAAAABAA8CAgICAgICAgICAiElGxgSEhslKwICAhUKAAAAAQEAAAAkAgICAgICAgICJAAAAAEAAQEAACUCAgICBAQEBAIhAAAAAAMAAAAAJQIEBAQEBAQEAh8AAAAAAAYAEAIEBAQEBAQEBAIsFwAAAAEAAAAZAgQEBAQEBAQCGgoAAAAAAAAAAAAlAgQEBAQEBAQCDQAAAAEAAQAAAAsCAgQEBAQEAgJFEgAAAAEAGwIEBAQCAhQAAAAAAAAAAQABKwIEBAQCAiQABgEBAQMBAQEBAQEBAQAAAAAAAAASAAAAAAAAAAAAAAAAAAAAAAAAAAAAGC0CAgICCwAAAAAACxUCAgICAgICAg8AAQAAAAAAAAAAAAAAAAAAABkCAgICAgICAgICAgICAgICAgICAgInFwABAQABARIXJgICAgICAgICAgICJBsGAQYABhITFQICAgIEBAQEAgIhGRIGAAABFyUaAgQEBAQEBAQEAg0LEgAABgAYGgIEBAQEBAQEAgIaHAoSAAEYFBoCAgQEBAQEBAQCBBwKBgYAAAYXJRoCBAQCBAQEBAICDQsSAAEBARIbRQIEBAQEBAQEAgIrDxgGBgAKAgICAgQCAg0KAAAAAAAAACYCBAQEAgINAAEBAQEBAQYGAQEBAQEBAAAAAAAAABIAAAAAAAAAAAAAAAAAAAAAAAAAAAAAGC0CAgICHyUlJicCAgICAgICAicbAAEAAAAAAAAAAAAAAAAAAAAAABchAgICAgICAgICAgICAgICAgICJAEAAQEBAAAkAgICAgICAgICAgICAgICAhUSABIrAgICAgIEBAQEBAQEBAICAhwAJQICAgICBAQEBAQEBAICAgICJQAGBgAUAgIEBAQEBAQEBAICAhokAgICAgIEBAQEBAQEBAQCAgIsAAAcAgICAgQEBAQEBAQEAgICAgIKAAAhAgICBAQEBAQEBAQEBAICAg4AABcCAgIVAgICAgINFAseEyUrAgQEAgICJAAAAAEAAAAAAAABAQEBAQEAAAAAAAAAEgAAAAAAAAAAAAAAAAAAAAAAAAAAAAAAACYCAgICAgICAgICAgICAhoPAAAAAAAAAAAAAAAAAAAAAAAAAAAAAAALKwICAgICAgICAgICAgICHwoAAAAAAAAAAB8CAgICAgICAgICAgICAgICAhgAGCwCAgICAgICAgICAgICAgICJgAgAgICAgICAgICAgICAgICAgIgAAYGAQAnAgICAgICAgICAgICAh8CAgICAgICAgICAgICAgICAgIAACYCAgICAgICAgICAgICAgICAgoAACcCAgICAgICAgICAgICAgICIQAAGAICDQAULQICAgICAgICAgICAgICIRsABgMAAAAAAAAAAAEBAQEBAQAAAAAAAAASAAAAAAAAAAAAAAAAAAAAAAAAAAAAAAAAABIcKwICAgICAgICLSQLAAAAAAAAAAAAAAAAAAAAAAAAAAAAAAAAAAAAFyUNLAICAgICAhUhJRgAAAAAAAAAAAAACgsLCwsLCwsLCwsLCwsLCwsLBgYBHgsLCwsLCwsLCwsLCwsLCwsXABcTCwsLCwsLCwsLCwsLCwsLExcABgYGABgLCwsLCwsLCwsLCwsLCgsLCwsLCwsLCwsLCwsLCwsLHgAAFxMLCwsLCwsLCwsLCwsLCwsTEgEAHgsLCwsLCwsLCwsLCwsLCwsbAAASDh8bAAAACiUhBAICAgICAhohJQoAAAABAAABAQEAAAEBAQEBAQEBAAAAAAAAABIAAAAAAAAAAAAAAAAAAAAAAAAAAAAAAAABAAAAEgoLGQ8TGxgAAAABAQEAAAAAAAAAAAAAAAAAAAAAAAAAAAAAAAAAAAAAEhcKChcYAAAAAAAAAAAAAAAAAAABAAAAAAAAAAAAAAAAAAAAAAAABgEAAAAAAAAAAAAAAAAAAAAAAAAAAAAAAAAAAAAAAAAAAAAAAAAAAAEGBgYBAAAAAAAAAAAAAAAAAAAAAAAAAAAAAAAAAAAAAAAAAAAAAQEAAAAAAAAAAAAAAAAAAAAAAAADBgYAAAAAAAAAAAAAAAAAAAAAAAABAAEAAAABAQEAAAABFxseGwoYAAAAAAAAAAAAAAEGAQEBAQEBAQEBAQEAAAAAAAAAEgAAAAAAAAAAAAAAAAAAAAAAAAAAAAAAAAAAAQAAAAAAAAAAAAAAAAAAAAAAAAAAAAAAAAAAAAAAAAAAAAAAAAAAAAAAAAAAAAAAAAAAAAEBAAAAAAAAAAAAAAAAAAAAAAAAAAABAQYGBgEAAAEGBgYBAQYGBgYGBgYGBgYGBgEAAQABBgYBAAAAAAAAAAAABgEGBgMAAQEBBgEBBgYGAQEAAAAAAQEBAQEAAQEBAQEBAQEBAQEBAQEBAAABAQEABgEAAAAAAQYGBgYGBgYGAQEGBgYGBgYGBgYGBgYGBgYGBgYGAQEDAAEBAQEDAQEAAAAAAAAAAAAAAAABAQAAAAAAAQYBAQEBAQEBAQEBAQEAAAAAAAASAAAAAAAAAAAAAAAAAAAAAAAAAAAAAAAAAAAAAAAAAAAAAAAAAAAAAAAAAAAAAAAAAAAAAAAAAAAAAAAAAAAAAAAAAAAAAAAAAAAAAAAAAAAAAAAAAAAAAAAAAAAAAAAAAAAAAAEBBgYGAQEBAAEBBgEBBgYGBgYGBgYGBgYGAQEBAAEBAQEBAQEBAQEBAQEAAAYBAAAAAAAAAAAGBgEAAQEBAQEBAQEBAQEBAQEBAQEBAQEBAQEBAQEBAQEBAQABAQAAAAABBgYGAQEBAQEBAQEBBgEBAQYGBgYGBgYGBgYGBgYBAQEBAQEBAQEBAAEAAAAAAAAAAAAAAAAAAAAAAAABBgEBAQEBAQEBAQEBAQAAAAAAABIAAAAAAAAAAAAAAAAAAAAAAAAAAAAAAAAAAAAAAAAAAAAAAAAAAAAAAAAAAAAAAAAAAAAAAAAAAAAAAAAAAAAAAAAAAAAAAAAAAAAAAAAAAAAAAAAAAAAAAAAAAAAAAAAAAAAAAQEBAQEBAQEBAQEAAQEBAQEBAQEBAQEBAQEBAQABAQEBAQEGBgYGBgYGBgEBAQAAAAAAAAAAAAEGAQABAQEBAQEBAQEBAQEBAQEBAQEBAQEBAQEBAQAAAQEAAAAAAAAAAAABAQEBAQEBAQEBAQEBAQABAQEBAQEBAQEBAQEBAQEBAQEAAQEBAQEBAAAAAAAAAAAAAAAAAAAAAAAAAAEBAQEBAQEBAQEBAQEBAAAAAAAAEgAAAAAAAAAAAAAAAAAAAAAAAAAAAAAAAAAAAAAAAAAAAAAAAAAAAAAAAAAAAAAAAAAAAAAAAAAAAAAAAAAAAAAAAAAAAAAAAAAAAAAAAAAAAAAAAAAAAAAAAAAAAAAAAAAAAAAGAQEBAQEBAQEBAQEBAQEBAQEBAQEBAQEBAQEBAQEBAQEBAQEBAQEBAQEBAAAAAAAAAAAAAAAAAAAAAAAAAAAAAAAAAAAAAAAAAAAAAAAAAAAAAAAAAAAAAAAAAAAAAAAAAAEBAQEBAQEBAQEBAQEBAQEBAQEBAQEBAQEBAQEBAQEBAQEBAQEAAAAAAAAAAAAAAAAAAAAAAAAAAAAAAAAAAQEBAQEBAQEBAQEAAAAAAAASAAAAAAAAAAAAAAAAAAAAAAAAAAAAAAAAAAAAAAAAAAAAAAAAAAAAAAAAAAAAAAAAAAAAAAAAAAAAAAAAAAAAAAAAAAAAAAAAAAAAAAAAAAAAAAAAAAAAAAAAAAAAAAAAAAAAAAYBAQEBAQEBAQEBAQEBAQEBAQEBAQEBAQEBAQEBAQEBAQEBAQEBAQEBAQEAAAAAAQEBAQEBAQEBAQEBAQEBAQEBAQEBAQEBAQEBAQEBAQEBAQEBAQEBAQEBAQEBAQEBAQEBAQEBAQEBAQEBAQEBAQEBAQEBAQEBAQEBAQEBAQEBAQEBAQEBAQAAAAABAQEBAQEBAQEBAQEBAQEBAQAAAAABAQEBAQEBAQEBAQAAAAAAABIAAAAAAAAAAAAAAAAAAAAAAAAAAAAAAAAAAAAAAAAAAAAAAAAAAAAAAAAAAAAAAAAAAAAAAAAAAAAAAAAAAAAAAAAAAAAAAAAAAAAAAAAAAAAAAAAAAAAAAAAAAAAAAAAAAAAABgEBAQEBAQEBAQEBAQEBAQEBAQEBAQEBAQEBAQEBAQEBAQEBAQEBAQEBAQAAAAAAAAAAAAAAAAAAAAAAAAAAAAAAAAAAAAAAAAAAAAAAAAAAAAAAAAAAAAAAAAAAAAAAAAEBAQEBAQEBAQEBAQEBAQEBAQEBAQEBAQEBAQEBAQEBAQEBAQEBAAAAAAAAAAAAAAAAAAAAAAAAAAAAAAAAAAEBAQEBAQEBAQEBAAAAAAAAEgAAAAAAAAAAAAAAAAAAAAAAAAAAAAAAAAAAAAAAAAAAAAAAAAAAAAAAAAAAAAAAAAAAAAAAAAAAAAAAAAAAAAAAAAAAAAAAAAAAAAAAAAAAAAAAAAAAAAAAAAAAAAAAAAAAAAAGAwEBAQEBAQEBAQEBAQEBAQEBAQEBAQEBAQEBAQEBAQEBAQEBAQEBAQEBAAAAAAABAwMDAwMDAwMDAwMDAwMDAwMDAwMDAwMDAwMDAwMDAwMDAwMDAwMDAwMDAwMDAwMDAQEBAQEBAQEBAQEBAQEBAQEBAQEBAQEBAQEBAQEBAQEBAQEBAQEAAAAAAAEDAwMDAwMDAwMDAwMDAwEAAAAAAQEBAQEBAQEBAQEAAAAAAAASAAAAAAAAAAAAAAAAAAAAAAAAAAAAAAAAAAAAAAAAAAAAAAAAAAAAAAAAAAAAAAAAAAAAAAAAAAAAAAAAAAAAAAAAAAAAAAAAAAAAAAAAAAAAAAAAAAAAAAAAAAAAAAAAAAAAAAYGAQEBAQEBAQEBAQEBAQEBAQEBAQEBAQEBAQEBAQEBAQEBAQEBAQEBAQEBAQEBAQEBAQEBAQEBAQEBAQEBAQEBAQEBAQEBAQEBAQEBAQEBAQEBAQEBAQEBAQEBAQEBAQEBAQEBAQEBAQEBAQEBAQEBAQEBAQEBAQEBAQEBAQEBAQEBAQEBAQEBAQEBAQEBAQEBAQEBAQEBAQEBAQEBAQEBAQEBAQEBAQEBAQEAAAAAABIAAAAAAAAAAAAAAAAAAAAAAAAAAAAAAAAAAAAAAAAAAAAAAAAAAAAAAAAAAAAAAAAAAAAAAAAAAAAAAAAAAAAAAAAAAAAAAAAAAAAAAAAAAAAAAAAAAAAAAAAAAAAAAAAAAAAAAAEBAQEBAQEBAQEBAQEBAQEBAQEBAQEBAQEBAQEBAQEBAQEBAQEBAQEBAQEBAQEBAQEBAQEBAQEBAQEBAQEBAQEBAQEBAQEBAQEBAQEBAQEBAQEBAQEBAQEBAQEBAQEBAQEBAQEBAQEBAQEBAQEBAQEBAQEBAQEBAQEBAQEBAQEBAQEBAQEBAQEBAQEBAQEBAQEBAQEBAQEBAQEBAQEBAQEBAQEBAQEBAQEBAQAAAAAAEgAAAAAAAAAAAAAAAAAAAAAAAAAAAAAAAAAAAAAAAAAAAAAAAAAAAAAAAAAAAAAAAAAAAAAAAAAAAAAAAAAAAAAAAAAAAAAAAAAAAAAAAAAAAAAAAAAAAAAAAAAAAAAAAAAAAAAAAAAAAAAAAAAAAAAAAAAAAAAAAAAAAAAAAAAAAAAAAAAAAAAAAAAAAAAAAAAAAAAAAAAAAAAAAAAAAAAAAAAAAAAAAAAAAAAAAAAAAAAAAAAAAAAAAAAAAAAAAAAAAAAAAAAAAAAAAAAAAAAAAAAAAAAAAAAAAAAAAAAAAAAAAAAAAAAAAAAAAAAAAAAAAAAAAAAAAAAAAAAAAAAAAAAAAAAAAAAAAAAAAAAAAAAAAAASAAAAAAAAAAAAAAAAAAAAAAAAAAAAAAAAAAAAAAAAAAAAAAAAAAAAAAAAAAAAAAAAAAAAAAAAAAAAAAAAAAAAAAAAAAAAAAAAAAAAAAAAAAAAAAAAAAAAAAAAAAAAAAAAAAAAAAAAAAAAAAAAAAAAAAAAAAAAAAAAAAAAAAAAAAAAAAAAAAAAAAAAAAAAAAAAAAAAAAAAAAAAAAAAAAAAAAAAAAAAAAAAAAAAAAAAAAAAAAAAAAAAAAAAAAAAAAAAAAAAAAAAAAAAAAAAAAAAAAAAAAAAAAAAAAAAAAAAAAAAAAAAAAAAAAAAAAAAAAAAAAAAAAAAAAAAAAAAAAAAAAAAAAAAAAAAAAAAAAAAAAAAAAAAABIAAAAAAAAAAAAAAAAAAAAAAAAAAAAAAAAAAAAAAAAAAAAAAAAAAAAAAAAAAAAAAAAAAAAAAAAAAAAAAAAAAAAAAAAAAAAAAAAAAAAAAAAAAAAAAAAAAAAAAAAAAAAAAAAAAAAAAAAAAAAAAAAAAAAAAAAAAAAAAAAAAAAAAAAAAAAAAAAAAAAAAAAAAAAAAAAAAAAAAAAAAAAAAAAAAAAAAAAAAAAAAAAAAAAAAAAAAAAAAAAAAAAAAAAAAAAAAAAAAAAAAAAAAAAAAAAAAAAAAAAAAAAAAAAAAAAAAAAAAAAAAAAAAAAAAAAAAAAAAAAAAAAAAAAAAAAAAAAAAAAAAAAAAAAAAAAAAAAAAAAAAAAAAAAAEgAAAAAAAAAAAAAAAAAAAAAAAAAAAAAAAAAAAAAAAAAAAAAAAAAAAAAAAAAAAAAAAAAAAAAAAAAAAAAAAAAAAAAAAAAAAAAAAAAAAAAAAAAAAAAAAAAAAAAAAAAAAAAAAAAAAAAAAAAAAAAAAAAAAAAAAAAAAAAAAAAAAAAAAAAAAAAAAAAAAAAAAAAAAAAAAAAAAAAAAAAAAAAAAAAAAAAAAAAAAAAAAAAAAAAAAAAAAAAAAAAAAAAAAAAAAAAAAAAAAAAAAAAAAAAAAAAAAAAAAAAAAAAAAAAAAAAAAAAAAAAAAAAAAAAAAAAAAAAAAAAAAAAAAAAAAAAAAAAAAAAAAAAAAAAAAAAAAAAAAAAAAAAAAAASAAAAAAAAAAAAAAAAAAAAAAAAAAAAAAAAAAAAAAAAAAAAAAAAAAAAAAAAAAAAAAAAAAAAAAAAAAAAAAAAAAAAAAAAAAAAAAAAAAAAAAAAAAAAAAAAAAAAAAAAAAAAAAAAAAAAAAAAAAAAAAAAAAAAAAAAAAAAAAAAAAAAAAAAAAAAAAAAAAAAAAAAAAAAAAAAAAAAAAAAAAAAAAAAAAAAAAAAAAAAAAAAAAAAAAAAAAAAAAAAAAAAAAAAAAAAAAAAAAAAAAAAAAAAAAAAAAAAAAAAAAAAAAAAAAAAAAAAAAAAAAAAAAAAAAAAAAAAAAAAAAAAAAAAAAAAAAAAAAAAAAAAAAAAAAAAAAAAAAAAAAAAAAAAABIAAAAAAAAAAAAAAAAAAAAAAAAAAAAAAAAAAAAAAAAAAAAAAAAAAAAAAAAAAAAAAAAAAAAAAAAAAAAAAAAAAAAAAAAAAAAAAAAAAAAAAAAAAAAAAAAAAAAAAAAAAAAAAAAAAAAAAAAAAAAAAAAAAAAAAAAAAAAAAAAAAAAAAAAAAAAAAAAAAAAAAAAAAAAAAAAAAAAAAAAAAAAAAAAAAAAAAAAAAAAAAAAAAAAAAAAAAAAAAAAAAAAAAAAAAAAAAAAAAAAAAAAAAAAAAAAAAAAAAAAAAAAAAAAAAAAAAAAAAAAAAAAAAAAAAAAAAAAAAAAAAAAAAAAAAAAAAAAAAAAAAAAAAAAAAAAAAAAAAAAAAAAAAAAAEgAAAAAAAAAAAAAAAAAAAAAAAAAAAAAAAAAAAAAAAAAAAAAAAAAAAAAAAAAAAAAAAAAAAAAAAAAAAAAAAAAAAAAAAAAAAAAAAAAAAAAAAAAAAAAAAAAAAAAAAAAAAAAAAAAAAAAAAAAAAAAAAAAAAAAAAAAAAAAAAAAAAAAAAAAAAAAAAAAAAAAAAAAAAAAAAAAAAAAAAAAAAAAAAAAAAAAAAAAAAAAAAAAAAAAAAAAAAAAAAAAAAAAAAAAAAAAAAAAAAAAAAAAAAAAAAAAAAAAAAAAAAAAAAAAAAAAAAAAAAAAAAAAAAAAAAAAAAAAAAAAAAAAAAAAAAAAAAAAAAAAAAAAAAAAAAAAAAAAAAAAAAAAAAAASAAAAAAAAAAAAAAAAAAAAAAAAAAAAAAAAAAAAAAAAAAAAAAAAAAAAAAAAAAAAAAAAAAAAAAAAAAAAAAAAAAAAAAAAAAAAAAAAAAAAAAAAAAAAAAAAAAAAAAAAAAAAAAAAAAAAAAAAAAAAAAAAAAAAAAAAAAAAAAAAAAAAAAAAAAAAAAAAAAAAAAAAAAAAAAAAAAAAAAAAAAAAAAAAAAAAAAAAAAAAAAAAAAAAAAAAAAAAAAAAAAAAAAAAAAAAAAAAAAAAAAAAAAAAAAAAAAAAAAAAAAAAAAAAAAAAAAAAAAAAAAAAAAAAAAAAAAAAAAAAAAAAAAAAAAAAAAAAAAAAAAAAAAAAAAAAAAAAAAAAAAAAAAAAAAEAABnTvXQAABJ6SURBVAAAAAAAAAAAAAAAAAAAAAAAAAAAAAAAAAAAAAAAAAAAAAAAAAAAAAAAAAAAAAAAAAAAAAAAAAAAAAAAAAAAAAAAAAAAAAAAAAAAAAAAAAAAAAAAAAAAAAAAAAAAAAAAAAAAAAAAAAAAAAAAAAAAAAAAAAAAAAAAAAAAAAAAAAAAAAAAAAAAAAAAAAAAAAAAAAAAAAAAAAAAAAAAAAAAAAAAAAAAAAAAAAAAAAAAAAAAAAAAAAAAAAAAAAAAAAAAAAAAAAAAAAAAAAAAAAAAAAAAAAAAAAAAAAAAAAAAAAAAAAAAAAAAAAAAAAAAAAAAAAAAAAAAAAAAAAAAAAAAAAAAAAAAAAAAAAAAAAAAAAAAAAAAAQAAAAAAAAAAAAAAAAAAAAAAAAAAAAAAAAAAAAAAAAAAAAAAAAAAAAAAAAAAAAAAAAAAAAAAAAAAAAAAAAAAAAAAAAAAAAAAAAAAAAAAAAAAAAAAAAAAAAAAAAAAAAAAAAAAAAAAAAAAAAAAAAAAAAAAAAAAAAAAAAAAAAAAAAAAAAAAAAAAAAAAAAAAAAAAAAAAAAAAAAAAAAAAAAAAAAAAAAAAAAAAAAAAAAAAAAAAAAAAAAAAAAAAAAAAAAAAAAAAAAAAAAAAAAAAAAAAAAAAAAAAAAAAAAAAAAAAAAAAAAAAAAAAAAAAAAAAAAAAAAAAAAAAAAAAAAAAAAAAAAAAAAAAAAAAAAAAAAAAAAAAAAAAAAABAAAAAAAAAAAAAAAAAAAAAAAAAAAAAAAAAAAAAAAAAAAAAAAAAAAAAAAAAAAAAAAAAAAAAAAAAAAAAAAAAAAAAAAAAAAAAAAAAAAAAAAAAAAAAAAAAAAAAAAAAAAAAAAAAAAAAAAAAAAAAAAAAAAAAAAAAAAAAAAAAAAAAAAAAAAAAAAAAAAAAAAAAAAAAAAAAAAAAAAAAAAAAAAAAAAAAAAAAAAAAAAAAAAAAAAAAAAAAAAAAAAAAAAAAAAAAAAAAAAAAAAAAAAAAAAAAAAAAAAAAAAAAAAAAAAAAAAAAAAAAAAAAAAAAAAAAAAAAAAAAAAAAAAAAAAAAAAAAAAAAAAAAAAAAAAAAAAAAAAAAAAAAAAAAAEAAAAAAAAAAAAAAAAAAAAAAAAAAAAAAAAAAAAAAAAAAAAAAAAAAAAAAAAAAAAAAAAAAAAAAAAAAAAAAAAAAAAAAAAAAAAAAAAAAAAAAAAAAAAAAAAAAAAAAAAAAAAAAAAAAAAAAAAAAAAAAAAAAAAAAAAAAAAAAAAAAAAAAAAAAAAAAAAAAAAAAAAAAAAAAAAAAAAAAAAAAAAAAAAAAAAAAAAAAAAAAAAAAAAAAAAAAAAAAAAAAAAAAAAAAAAAAAAAAAAAAAAAAAAAAAAAAAAAAAAAAAAAAAAAAAAAAAAAAAAAAAAAAAAAAAAAAAAAAAAAAAAAAAAAAAAAAAAAAAAAAAAAAAAAAAAAAAAAAAAAAAAAAAAAAQAAAAEBAQEBAQEBAQEBAQEBEhISEhISEhISEhISEhISEhISEhISEhISEhISEhISEhISEhISEhISEhISEhISEhISEhISEhISEhISEhISEhISEhISEhISEhISEhISEhISEhISEhISEhISEhISEhISEhISEhISEhISEhISEhISEhISEhISEhISEhISEhISEhISEhISEhISEhISEhISEhISEhISEhISEhISEhISEhISEgEBAQEBAQEBAQEBAQEBAQEBAQEBAQEBAQEBAQEBAQEBAQEBAQEBAQEBAQEBAQEBAQEBAQEBAQEBAQEBAQEBAQEBAQEBAQEBAQEBAQEBAQEBAQEBAQEBAQEBAQEBAQEBAQEBAQEBAQEBAAAAAAAAAAAAAAAAAAAAAAAAAAAAAAAAAAAAAAAAAAAAAAAAAAAAAAAAAAAAAAAAAAAAAAAAAAAAAAAAAAAAAAAAAAAAAAAAAAAAAAAAAAAAAAAAAAAAAAAAAAAAAAAAAAAAAAAAAAAAAAAAAAAAAAAAAAAAAAAAAAAAAAAAAAAAAAAAAAAAAAAAAAAAAAAAAAAAAAAAAAAAAAAAAAAAAAAAAAAAAAAAAAAAAAAAAAAAAAAAAAAAAAAAAAAAAAAAAAAAAAAAAAAAAAAAAAAAAAAAAAAAAAAAAAAAAAAAAAAAAAAAAAAAAAAAAAAAAAAAAAAAAAAAAAAAAAAAAAAAAAAAAAAAAAAAAAAAAAAAAAAAAAAAAAAAAAAAAAAAAAAAAAAAAAAAAAAAAAAAAAAAAAAAAAAAAAAAAAAAAAAAAAAAAAAAAAAAAAAAAAAAAAAAAAAAAAAAAAAAAAAAAAAAAAAAAAAAAAAAAAAAAAAAAAAAAAAAAAAAAAAAAAAAAAAAAAAAAAAAAAAAAAAAAAAAAAAAAAAAAAAAAAAAAAAAAAAAAAAAAAAAAAAAAAAAAAAAAAAAAAAAAAAAAAAAAAAAAAAAAAAAAAAAAAAAAAAAAAAAAAAAAAAAAAAAAAAAAAAAAAAAAAAAAAAAAAAAAAAAAAAAAAAAAAAAAAAAAAAAAAAAAAAAAAAAAAAAAAAAAAAAAAAAAAAAAAAAAAAAAAAAAAAAAAAAAAAAAAAAAAAAAAAAAAAAAAAAAAAAAAAAAAAAAAAAAAAAAAAAAAAAAAAAAAAAAAAAAAAAAAAAAAAAAAAAAAAAAAAAAAAAAAAAAAAAAAAAAAAAAAAAAAAAAAAAAAAAAAAAAAAAAAAAAAAAAAAAAAAAAAAAAAAAAAAAAAAAAAAAAAAAAAAAAAAAAAAAAAAAAAAAAAAAAAAAAAAAAAAAAAAAAAAAAAAAAAAAAAAAAAAAAAAAAAAAAAAAAAAAAAAAAAAAAAAAAAAAAAAAAAAAAAAAAAAAAAAAAAAAAAAAAAAAAAAAAAAAAAAAAAAAAAAAAAAAAAAAAAAAAAAAAAAAAAAAAAAAAAAAAAAAAAAAAAAAAAAAAAAAAAAAAAAAAAAAAAAAAAAAAAAAAAAAAAAAAAAAAAAAAAAAAAAAAAAAAAAAAAAAAAAAAAAAAAAAAAAAAAAAAAAAAAAAAAAAAAAAAAAAAAAAAAAAAAAAAAAAAAAAAAAAAAAAAAAAAAAAAAAAAAAAAAAAAAAAAAAAAAAAAAAAAAAAAAAAAAAAAAAAAAAAAAAAAAAAAAAAAAAAAAAAAAAAAAAAAAAAAAAAAAAAAAAAAAAAAAAAAAAAAAAAAAAAAAAAAAAAAAAAAAAAAAAAAAAAAAAAAAAAAAAAAAAAAAAAAAAAAAAAAAAAAAAAAAAAAAAAAAAAAAAAAAAAAAAAAAAAAAAAAAAAAAAAAAAAAAAAAAAAAAAAAAAAAAAAAAAAAAAAAAAAAAAAAAAAAAAAAAAAAAAAAAAAAAAAAAAAAAAAAAAAAAAAAAAAAAAAAAAAAAAAAAAAAAAAAAAAAAAAAAAAAAAAAAAAAAAAAAAAAAAAAAAAAAAAAAAAAAAAAAAAAAAAAAAAAAAAAAAAAAAAAAAAAAAAAAAAAAAAAAAAAAAAAAAAAAAAAAAAAAAAAAAAAAAAAAAAAAAAAAAAAAAAAAAAAAAAAAAAAAAAAAAAAAAAAAAAAAAAAAAAAAAAAAAAAAAAAAAAAAAAAAAAAAAAAAAAAAAAAAAAAAAAAAAAAAAAAAAAAAAAAAAAAAAAAAAAAAAAAAAAAAAAAAAAAAAAAAAAAAAAAAAAAAAAAAAAAAAAAAAAAAAAAAAAAAAAAAAAAAAAAAAAAAAAAAAAAAAAAAAAAAAAAAAAAAAAAAAAAAAAAAAAAAAAAAAAAAAAAAAAAAAAAAAAAAAAAAAAAAAAAAAAAAAAAAAAAAAAAAAAAAAAAAAAAAAAAAAAAAAAAAAAAAAAAAAAAAAAAAAAAAAAAAAAAAAAAAAAAAAAAAAAAAAAAAAAAAAAAAAAAAAAAAAAAAAAAAAAAAAAAAAAAAAAAAAAAAAAAAAAAAAAAAAAAAAAAAAAAAAAAAAAAAAAAAAAAAAAAAAAAAAAAAAAAAAAAAAAAAAAAAAAAAAAAAAAAAAAAAAAAAAAAAAAAAAAAAAAAAAAAAAAAAAAAAAAAAAAAAAAAAAAAAAAAAAAAAAAAAAAAAAAAAAAAAAAAAAAAAAAAAAAAAAAAAAAAAAAAAAAAAAAAAAAAAAAAAAAAAAAAAAAAAAAAAAAAAAAAAAAAAAAAAAAAAAAAAAAAAAAAAAAAAAAAAAAAAAAAAAAAAAAAAAAAAAAAAAAAAAAAAAAAAAAAAAAAAAAAAAAAAAAAAAAAAAAAAAAAAAAAAAAAAAAAAAAAAAAAAAAAAAAAAAAAAAAAAAAAAAAAAAAAAAAAAAAAAAAAAAAAAAAAAAAAAAAAAAAAAAAAAAAAAAAAAAAAAAAAAAAAAAAAAAAAAAAAAAAAAAAAAAAAAAAAAAAAAAAAAAAAAAAAAAAAAAAAAAAAAAAAAAAAAAAAAAAAAAAAAAAAAAAAAAAAAAAAAAAAAAAAAAAAAAAAAAAAAAAAAAAAAAAAAAAAAAAAAAAAAAAAAAAAAAAAAAAAAAAAAAAAAAAAAAAAAAAAAAAAAAAAAAAAAAAAAAAAAAAAAAAAAAAAAAAAAAAAAAAAAAAAAAAAAAAAAAAAAAAAAAAAAAAAAAAAAAAAAAAAAAAAAAAAAAAAAAAAAAAAAAAAAAAAAAAAAAAAAAAAAAAAAAAAAAAAAAAAAAAAAAAAAAAAAAAAAAAAAAAAAAAAAAAAAAAAAAAAAAAAAAAAAAAAAAAAAAAAAAAAAAAAAAAAAAAAAAAAAAAAAAAAAAAAAAAAAAAAAAAAAAAAAAAAAAAAAAAAAAAAAAAAAAAAAAAAAAAAAAAAAAAAAAAAAAAAAAAAAAAAAAAAAAAAAAAAAAAAAAAAAAAAAAAAAAAAAAAAAAAAAAAAAAAAAAAAAAAAAAAAAAAAAAAAAAAAAAAAAAAAAAAAAAAAAAAAAAAAAAAAAAAAAAAAAAAAAAAAAAAAAAAAAAAAAAAAAAAAAAAAAAAAAAAAAAAAAAAAAAAAAAAAAAAAAAAAAAAAAAAAAAAAAAAAAAAAAAAAAAAAAAAAAAAAAAAAAAAAAAAAAAAAAAAAAAAAAAAAAAAAAAAAAAAAAAAAAAAAAAAAAAAAAAAAAAAAAAAAAAAAAAAAAAAAAAAAAAAAAAAAAAAAAAAAAAAAAAAAAAAAAAAAAAAAAAAAAAAAAAAAAAAAAAAAAAAAAAAAAAAAAAAAAAAAAAAAAAAAAAAAAAAAAAAAAAAAAAAAAAAAAAAAAAAAAAAAAAAAAAAAAAAAAAAAAAAAAAAAAAAAAAAAAAAAAAAAAAAAAAAAAAAAAAAAAAAAAAAAAAAAAAAAAAAAAAAAAAAAAAAAAAAAAAAAAAAAAAAAAAAAAAAAAAAAAAAAAAAAAAAAAAAAAAAAAAAAAAAAAAAAAAAAAAAAAAAAAAAAAAAAAAAAAAAAAAAAAAAAAAAAAAAAAAAAAAAAAAAAAAAAAAAAAAAAAAAAAAAAAAAAAAAAAAAAAAAAAAAAAAAAAAAAAAAAAAAAAAAAAAAAAAAAAAAAAAAAAAAAAAAAAAAAAAAAAAAAAAAAAAAAAAAAAAAAAAAAAAAAAAAAAAAAAAAAAAAAAAAAAAAAAAAAAAAAAAAAAAAAAAAAAAAAAAAAAAAAAAAAAAAAAAAAAAAAAAAAAAAAAAAAAAAAAAAAAAAAAAAAAAAAAAAAAAAAAAAAAAAAAAAAAAAAAAAAAAAAAAAAAAAAAAAAAAAAAAAAAAAAAAAAAAAAAAAAAAAAAAAAAAAAAAAAAAAAAAAAAAAAAAAAAAAAAAAAAAAAAAAAAAAAAAAAAAAAAAAAAAAAAAAAAAAAAAAAAAAAAAAAAAAAAAAAAAAAAAAAAAAAAAAAAAAAAAAAAAAAAAAAAAAAAAAAAAAAAAAAAAAAAAAAAAAAAAAAAAAAAAAAAAAAAAAAAAAAAAAAAAAAAAAAAAAAAAAAAAAAAAAAAAAAAAAAAAAAAAAAAAAAAAAAAAAAAAAAAAAAAAAAAAAAAAAAAAAAAAAAAAAAAAAAAAAAAAAAAAAAAAAAAAAAAAAAAAAAAAAAAAAAAAAAAAAAAAAAAAAAAAAAAAAAAAAAAAAAAAAAAAAAAAAAAAAAAAAAAAAAAAAAAAAAAAAAAAAAAAAAAAAAAAAAAAAAAAAAAAAAAAAAAAAAAAAAAAAAAAAAAAAAAAAAAAAAAAAAAAAAAAAAAAAAAAAAAAAAAAAAAAAAAAAAAAAAAAAAAAAAAAAAAAAAAAAAAAAAAAAAAAAAAAAAAAAAAAAAAAAAAAAAAAAAAAAAAAAAAAAAAAAAAAAAAAAAAAAAAAieQXJ5f8kTQAAAABJRU5ErkJggg==;" vertex="1" parent="1">
          <mxGeometry x="291.53" y="360" width="96.95" height="140" as="geometry" />
        </mxCell>
        <mxCell id="P58hekDE-8d0RwagDOlK-6" value="" style="shape=image;verticalLabelPosition=bottom;labelBackgroundColor=default;verticalAlign=top;aspect=fixed;imageAspect=0;image=data:image/jpeg,/9j/4AAQSkZJRgABAQAAAQABAAD/2wBDAAsJCQcJCQcJCQkJCwkJCQkJCQsJCwsMCwsLDA0QDBEODQ4MEhkSJRodJR0ZHxwpKRYlNzU2GioyPi0pMBk7IRP/2wBDAQcICAsJCxULCxUsHRkdLCwsLCwsLCwsLCwsLCwsLCwsLCwsLCwsLCwsLCwsLCwsLCwsLCwsLCwsLCwsLCwsLCz/wAARCADqAOgDASIAAhEBAxEB/8QAHAABAAIDAQEBAAAAAAAAAAAAAAQFAwYHAQII/8QAQRAAAgIBAwIDBQYDBQUJAAAAAAECAwQFESEGEhMxkSJBUWFxBxQVIzKBM6GxNkJic6IkUnKzwTVDU3WCtNLh4v/EABoBAQACAwEAAAAAAAAAAAAAAAABBAIDBQb/xAAuEQEAAgEBBgMGBwAAAAAAAAAAAQIDBBESEyExQQVR8AYiMnGRoRQjJGGBscH/2gAMAwEAAhEDEQA/AOtgAAAAAAAAAAAAAAAAAAAAAAAAAAAAAAAAAAAAAAAAeg9AAHoPQAB6D0AAeg9AAHoPQAB6D0AAeg9AAHoPQAB6D0AAeg9AAHoPQAB6D0AAeg9AAHoPQAB6AAAAAAAAAAAAAAAAAAAAAAAAAAAAAAAAAAAAAAAAAAAAAAAAAAAAAAAAAAAAAAAAAAAAAAAAAAAAAAAAABwOAAHA4AAcDgABwOAAHA4AAcDgABwOAAHA4AAcDgABwOAAHA4AAcDgABwOAAHA4AAcAAAARM7UdN02h5OflU41C477pKPc/PtgvNv5JMCWDQ8v7T+mKZOONj6hl7NrvjXCqt/TxZKX+kYn2n9M3zUMnHz8Tf8AvzrhdXH5y8KTl/pA3wFLXrmLOmGZHw8nT5vZZuBNW1Q/zofrj8/MtarqL64W02RsrnzGUHumZTS0Rt2cmquWlrTWJ5x2ZQeccHpi2gAAAAAAAAAAAAAAAAAAAAAAAAAAAACk6k6gw+ndOnmXJWXWN1YeOmlK+7bf69q85P8A6vnh+fnaz1DlTzdQyJTbbjDiXh1Rb4rx617vp5/Fst+sdTs17qTJrjNvD06UsKhJ+z21S2tn9ZS4+m3wNu6D6fpsX41k1KVdU5VaZXJezGUN4zv2+O+6j+7CVFpX2datm113ZCrw6preCzO+WQ0+d3TXsl+7Jub9l2ZGuUsLNxrbEt1CcZ09z+Cbco/0OrD1CH5/ws3qHo3VWp1WQ9pRzMO3+Fl077OLT9nfb9LX9Hz0mrOowHgatps5T0PWK42utb71Sl+pLbylHn0a9xadW9O4/UGm3QUIrPx4Ssw7dvackm/Cb+Ev6ml9Gztyumep9MuT79JzI5NSl51+Iu+UV+8Zepa0uSK5Ny3wzyn1+zn+IYd/FOSnx05xP+fy6Lg56utuw7ZKV9MIX1TS2jk4lvMLo/0l818yx3OfYea6H01l9z7sbPu0q9t/rxsmMZwT+j32+h0Fef7k6vT8C+z1yR4fq/xWPe78vvHqHvA4OcW/atpVU7Iy0rM9iycN3fQk3FuPvLbQ/tB0DWcqnBdeRiZWQ+3Hjkdkq7pbbqMbIP8AU/duio6LceBwajrPXGHo2s06LZgZF1tssKKuhZXGC+9TUFvGXPBtwDgcHxdbXRVddbLtqprnbZJ/3YQi5Nml6L9ommazqmHpkcHJx5ZXiRqtusrlFzjBzUWo87vbgDd+BweSlGEZTlJRjGLlKUmlGMVy22+NjQtT+1Dp/CunVh41+dGDcZXqyGPRJrj8uU05NfPtA37gcGl6F9omhazlUYM6MjDy8marx4zauqtm+VBWV87/AFil8zNrHW+Jo+tU6LZgZFtlssKKursrjBPKkoJ9sueANu4HBrfU/V2mdMRxY5FduRkZHdONNMoRlCmPDtk58bb8L48/Am06zJ6JHWsvBvxVKhZP3WUoTvVcmlDu8o7vdPbfjcC34HBVvU8+PMtD1PtXm4zwZy2+UVfuSMLUcTPVvgSmrKWoX0XQlVfTJrdKyuftLf3PyfxAmcDgjLLrlm24KU/Frxacty2XY4W2TrSXv39lkkBwOCNhZlWdjQyqlONc53wSs2Ul4Vkqnvtx7mQlrMslz/C9Pys6qEpQeRCVNGLKUeGqrL5Jy2+Ki18wLbgcFdj6o7MivFysLMw8m1SdUb4RnVb2LukoX0uUN18G0SY5dUs27BSn4tWNTlSlsuzstnOtJPz39l7gSOAQ8nPpx7sTFUZ3ZWS/y6aVFyVS/VdY29lBe9v6LdgDgGJXYseeXLdyybL+1v3+HLZv139DuWlyxtPo0HR4rab0tWx938JV93q5NnI5YduPoePCUNrtO1jWtLyl742qcL4b/VN7G9a3nTxrejNZp9qv7pHfbylFxg5R3+ab9Cxp8XGvud+f9KurzcDHxO0bNvy2829f/Z6YaL6Mmmm+manVdBWQkvfFmYr7JjlKzFotG2BmoVaR+EX/AGiZvYo42prHux1xs5fd5KzZL/FJ7G3M1nqvOhXjV4EJLxL5Ky5b/pqhyt/q/wChY0uKcuatI81LX564NNe8+X3aVZa/DxMeP6p6hj2r6x2gv6nW17vicr0TGepa5gQS3qx5/erfgq6XuvV7HVF5o6njNo4lax8/q4/s9jtXDNpfnvRdXwNE1fMzM3T68+qUcuiNFjrUVKVql3/mRkuNtvL3k3TrsHqDrTT8qqGJpOLPPx8mNKnGMe7HUWqq3GKj4k2vgvN/vE6f6hw+ntazc+7HWVGVeXjqpWQhs53Rl3bzT8tvh7yRn5eT1r1HiWaRprx5zeJU1R7aqjVZ3yyL7YRUVt/0S5OG9OtOuP7d4X+ZoX/Oidn+JxLr/Iqxes675tSWPXpGQ49yi5+FLxNt38djYqftYwLrqKY6PanddVUn99qe3iTUd9vD924F59oep/h/TuTTCW1+p2Rwa9nz4b9u1r9k0/8AiOYZemZehaX0Rr9cJQyMl25sm001ZXcr6U/+KG38y9+0LNnrHU2l6BiWRlLHdGIop9yWXmSi5NqPwj27/ufOs/Z5q+m6XnZ09Zhl14NTv+7qm6O8I7KTi5WyS2W78vcBtHXurufSWJfhzaq1m3Dg5RfP3eyuWQ47r47JP9yL9nnTWiS0anV8vEx8rNzbL3GWTXC1UU12OqMK4zTS8t39Sr6fofVvQ2ZoldkHnaPl9+HvLZOL3tqi38GnOBV9PdY6n0esnSNS0+ydMLp2eBdPwL8eyXMlFyi04vz/AJp8hDqlXTfTmNqder4+nY9OdXVZVGdEVXD8zbeXhx9nu92+3vfxOW9f3Qx+s68mcXOONDSciUE+1zVMvE7d9vftsXumfaBr2u69p2Pp2k92nd/ZmU1NXWRrnx49mQ1GEezzS43+fG1L1w4PrvCi3Hd26Eu2Wz3/ADY+cWEwdOY8uturcrUtVnW6sZRzniuW7sjCXbTRCL/7uHDl/wDo6h1L/wBhat/l1/8ANgcx6o0/K6K6jxNc0xduHkXSvpjvtWpv+NiS/wAMlzH6/wCE6DqGp4OsdJ5WpYdkZY+Ti12J9y/Lash3Qn8HF7p/QIbKU2pxjj6joGfX7NtuZ+F37bfm499dk1GXx7ZRTX7kt6tokU3LU9PSS53yqP8A5ECF341qGn248bPwvTZzylkThKEMzLcJVQVCklJwgnJuW2zbSW+24GeH9os3/wAlwP8A3WQW3w+qKXLthp+sVZ+S+zCysCGBO9/w6L6rpWw8V+5SUmt3xuvmSsnWNIxanbLLosb/AIVVFkLbr5viMKq4Ntt+SAoq5Tl05puJGUorUtWnp9s4Ptkqbs66VqTXvlFOP7m1V111QhVVCMK64RhXGK2jGEVsopfIoqtKzJdP4mK+yvUKpR1Cnue8astXvLjXJr3bvsfyZOxNY0/Ij2X2QxM2CSyMTKnGq6qfvSUmt4/BrdMCyNZ1DUJafreZKFTndkabpmPVKxOOJTOzJyIxnlWr9Mf258i3Wr6bPKqw8e371fN+2sTa6NENm+++cX2xXu89+fIiuqm/XtVpuhCyqzRMCFlc0pRlGWRkppxYEvA0+OH41lljyM3Janl5U0lO1ryjFe6EfKMV5fV7sQ6bbdHtqw8qc7NOskq8DKse8qJPiOLkyfu/8OT+j55kAptZ0FSytWUElh6/CiyU9vZw9Zxk41XS25ULY+zJ/FL/AHiq0uueraNl9OZK8LVtGtnZhws4lKEW96+fhu4/RpnR5RjJOMopxfDTW6a+aZSav0/VqF2Pn4lzwtWxtnRl1xT7lHhQuh74+4zpecdotXrDXlx1y0mluktN0PqLK0acsTJhOeMpyU6pcWUz32l27/zRu1PUWgXQU1mRjxzGyM1JfVJFHm6LZqso/iWFZg6pt2vNwI/eMHKa4Upxj7a3+cV9WU1vRvUlMmqo498fdKu9Q3+sbEv6na/R6yd+87tu7zkV1+h/Lxxv17euzaNQ6r07HhNYn59vlGc04Uxfxbls36GhZebk5183vZdfkWbcLedsnwowiv5Fxj9F9QXSXjyxcaHvc7HdNL5RrW3+o27R+m9M0j8yClfltbSyLknJL3quK4S+nqboz6TRVmMPvTPrr5NFtJrfEbxOo92sdukfTzYumdDekYkp3pPOyu2eQ1s/Dil7NUX8vf8AM2AbL4HpwMmS2W83t1l6nDirhpGOnSEV6fpfLeFh7t7v/Z6fN/8ApM1VGPRFxpqrqi3u41QjBN/FqKSMgNbawW4eDdJ2XYuPZPZLutprnLZeS3ktz4Wn6YmmsLETTTTWPTumuU17JKAGD7pheJ433ajxu7v8Xwq/E7v97v233/czSjCcZRlFSjJOMoyScZJrZppnoAw04uHj97ox6anNLv8ABqhX3beW/YkfORhafl7fesTGyO39P3imq3b6d6ZIAGGjGxMaHh41FNFe+/ZRXCuPpBJHk8TBtsVtmNjztXbtZOquU12+XtSW/HuM4Ax20Y98VC+qu2Cal22wjOO/lvtJNHkMbErrlTCimNMm3KuNcFXJvz3ilt/IygCOsHTotOOHipryaoqTX7qJI4/kAB5KMZKSkk01s00mmvg0yPTgabjz8SjDxarPLvpoqhLn5ximSQA4MN+JhZKisnGx71H9Kvqrs2+nemZgBjqoxqIKuimqqtPdQphGEV+0UkffZBSc9l3tKLlsu5peSb8z0AfMoQnFwnFSi/OMknF+/lPgH0AAHA4AAcDgABwOAAHA4AAcDgABwOAAHA4AAcDgABwOAAHA4AAcDgABwOAAHA4AAcDgABwAAAAAAAAAAAAAAAAAAAAAAAAAAAAAAAAAAAAAAAAAAAAAAAAAAAAAAAAAAAAAAAAAAAAAAAAAAAAAAAAAAAAAAAAAAAAAAAAAAAAAAAAAAAAAAAAAAAAAAAAAHA4AAcDgABwOAAHA4AAcDgABwOAAHA4AAcDgABwOAAHA4AAcDgABwOAAHA4AAcDgABwAAAAAAAAAAAAAAAAAAAAAAAAAAAAAAAAAAAAAAAAAAP/Z;" vertex="1" parent="1">
          <mxGeometry x="510.00000000000006" y="368" width="106.09" height="107" as="geometry" />
        </mxCell>
        <mxCell id="P58hekDE-8d0RwagDOlK-7" style="edgeStyle=orthogonalEdgeStyle;rounded=0;orthogonalLoop=1;jettySize=auto;html=1;exitX=1;exitY=0.5;exitDx=0;exitDy=0;entryX=-0.049;entryY=0.579;entryDx=0;entryDy=0;entryPerimeter=0;" edge="1" parent="1" source="P58hekDE-8d0RwagDOlK-5" target="P58hekDE-8d0RwagDOlK-6">
          <mxGeometry relative="1" as="geometry" />
        </mxCell>
        <mxCell id="P58hekDE-8d0RwagDOlK-8" value="&amp;nbsp;Dependency Management Profile" style="whiteSpace=wrap;html=1;aspect=fixed;" vertex="1" parent="1">
          <mxGeometry x="760" y="381.5" width="80" height="80" as="geometry" />
        </mxCell>
        <mxCell id="P58hekDE-8d0RwagDOlK-10" style="edgeStyle=orthogonalEdgeStyle;rounded=0;orthogonalLoop=1;jettySize=auto;html=1;entryX=0;entryY=0.5;entryDx=0;entryDy=0;" edge="1" parent="1" source="P58hekDE-8d0RwagDOlK-6" target="P58hekDE-8d0RwagDOlK-8">
          <mxGeometry relative="1" as="geometry">
            <mxPoint x="579.9999999999999" y="466.5" as="sourcePoint" />
            <mxPoint x="711.91" y="474.5" as="targetPoint" />
          </mxGeometry>
        </mxCell>
        <mxCell id="P58hekDE-8d0RwagDOlK-11" value="Upload" style="edgeLabel;html=1;align=center;verticalAlign=middle;resizable=0;points=[];" vertex="1" connectable="0" parent="P58hekDE-8d0RwagDOlK-10">
          <mxGeometry x="0.4719" y="-3" relative="1" as="geometry">
            <mxPoint as="offset" />
          </mxGeometry>
        </mxCell>
      </root>
    </mxGraphModel>
  </diagram>
</mxfile>
